G04 EAGLE Gerber RS-274X export*
G75*
%MOMM*%
%FSLAX34Y34*%
%LPD*%
%INBoard Outline*%
%IPPOS*%
%AMOC8*
5,1,8,0,0,1.08239X$1,22.5*%
G01*
%ADD10C,0.000000*%
%ADD11C,0.130000*%
%ADD12C,0.152400*%
%ADD13C,0.254000*%


D10*
X0Y0D02*
X400000Y0D01*
X400000Y400000D01*
X0Y400000D02*
X0Y0D01*
D11*
X0Y-25400D02*
X0Y-70300D01*
X398780Y-70300D02*
X398780Y-25400D01*
X398130Y-50800D02*
X650Y-50800D01*
X26000Y-47608D01*
X26000Y-53992D01*
X650Y-50800D01*
X26000Y-49500D01*
X26000Y-52100D02*
X650Y-50800D01*
X26000Y-48200D01*
X26000Y-53400D02*
X650Y-50800D01*
X372780Y-47608D02*
X398130Y-50800D01*
X372780Y-47608D02*
X372780Y-53992D01*
X398130Y-50800D01*
X372780Y-49500D01*
X372780Y-52100D02*
X398130Y-50800D01*
X372780Y-48200D01*
X372780Y-53400D02*
X398130Y-50800D01*
D12*
X172758Y-44293D02*
X168242Y-44293D01*
X172758Y-44293D02*
X172891Y-44291D01*
X173023Y-44285D01*
X173155Y-44275D01*
X173287Y-44262D01*
X173419Y-44244D01*
X173549Y-44223D01*
X173680Y-44198D01*
X173809Y-44169D01*
X173937Y-44136D01*
X174065Y-44100D01*
X174191Y-44060D01*
X174316Y-44016D01*
X174440Y-43968D01*
X174562Y-43917D01*
X174683Y-43862D01*
X174802Y-43804D01*
X174920Y-43742D01*
X175035Y-43677D01*
X175149Y-43608D01*
X175260Y-43537D01*
X175369Y-43461D01*
X175476Y-43383D01*
X175581Y-43302D01*
X175683Y-43217D01*
X175783Y-43130D01*
X175880Y-43040D01*
X175975Y-42947D01*
X176066Y-42851D01*
X176155Y-42753D01*
X176241Y-42652D01*
X176324Y-42548D01*
X176404Y-42442D01*
X176480Y-42334D01*
X176554Y-42224D01*
X176624Y-42111D01*
X176691Y-41997D01*
X176754Y-41880D01*
X176814Y-41762D01*
X176871Y-41642D01*
X176924Y-41520D01*
X176973Y-41397D01*
X177019Y-41273D01*
X177061Y-41147D01*
X177099Y-41020D01*
X177134Y-40892D01*
X177165Y-40763D01*
X177192Y-40634D01*
X177215Y-40503D01*
X177235Y-40372D01*
X177250Y-40240D01*
X177262Y-40108D01*
X177270Y-39976D01*
X177274Y-39843D01*
X177274Y-39711D01*
X177270Y-39578D01*
X177262Y-39446D01*
X177250Y-39314D01*
X177235Y-39182D01*
X177215Y-39051D01*
X177192Y-38920D01*
X177165Y-38791D01*
X177134Y-38662D01*
X177099Y-38534D01*
X177061Y-38407D01*
X177019Y-38281D01*
X176973Y-38157D01*
X176924Y-38034D01*
X176871Y-37912D01*
X176814Y-37792D01*
X176754Y-37674D01*
X176691Y-37557D01*
X176624Y-37443D01*
X176554Y-37330D01*
X176480Y-37220D01*
X176404Y-37112D01*
X176324Y-37006D01*
X176241Y-36902D01*
X176155Y-36801D01*
X176066Y-36703D01*
X175975Y-36607D01*
X175880Y-36514D01*
X175783Y-36424D01*
X175683Y-36337D01*
X175581Y-36252D01*
X175476Y-36171D01*
X175369Y-36093D01*
X175260Y-36017D01*
X175149Y-35946D01*
X175035Y-35877D01*
X174920Y-35812D01*
X174802Y-35750D01*
X174683Y-35692D01*
X174562Y-35637D01*
X174440Y-35586D01*
X174316Y-35538D01*
X174191Y-35494D01*
X174065Y-35454D01*
X173937Y-35418D01*
X173809Y-35385D01*
X173680Y-35356D01*
X173549Y-35331D01*
X173419Y-35310D01*
X173287Y-35292D01*
X173155Y-35279D01*
X173023Y-35269D01*
X172891Y-35263D01*
X172758Y-35261D01*
X173661Y-28037D02*
X168242Y-28037D01*
X173661Y-28037D02*
X173780Y-28039D01*
X173900Y-28045D01*
X174019Y-28055D01*
X174137Y-28069D01*
X174256Y-28086D01*
X174373Y-28108D01*
X174490Y-28133D01*
X174605Y-28163D01*
X174720Y-28196D01*
X174834Y-28233D01*
X174946Y-28273D01*
X175057Y-28318D01*
X175166Y-28366D01*
X175274Y-28417D01*
X175380Y-28472D01*
X175484Y-28531D01*
X175586Y-28593D01*
X175686Y-28658D01*
X175784Y-28727D01*
X175880Y-28799D01*
X175973Y-28874D01*
X176063Y-28951D01*
X176151Y-29032D01*
X176236Y-29116D01*
X176318Y-29203D01*
X176398Y-29292D01*
X176474Y-29384D01*
X176548Y-29478D01*
X176618Y-29575D01*
X176685Y-29673D01*
X176749Y-29774D01*
X176809Y-29878D01*
X176866Y-29983D01*
X176919Y-30090D01*
X176969Y-30198D01*
X177015Y-30308D01*
X177057Y-30420D01*
X177096Y-30533D01*
X177131Y-30647D01*
X177162Y-30762D01*
X177190Y-30879D01*
X177213Y-30996D01*
X177233Y-31113D01*
X177249Y-31232D01*
X177261Y-31351D01*
X177269Y-31470D01*
X177273Y-31589D01*
X177273Y-31709D01*
X177269Y-31828D01*
X177261Y-31947D01*
X177249Y-32066D01*
X177233Y-32185D01*
X177213Y-32302D01*
X177190Y-32419D01*
X177162Y-32536D01*
X177131Y-32651D01*
X177096Y-32765D01*
X177057Y-32878D01*
X177015Y-32990D01*
X176969Y-33100D01*
X176919Y-33208D01*
X176866Y-33315D01*
X176809Y-33420D01*
X176749Y-33524D01*
X176685Y-33625D01*
X176618Y-33723D01*
X176548Y-33820D01*
X176474Y-33914D01*
X176398Y-34006D01*
X176318Y-34095D01*
X176236Y-34182D01*
X176151Y-34266D01*
X176063Y-34347D01*
X175973Y-34424D01*
X175880Y-34499D01*
X175784Y-34571D01*
X175686Y-34640D01*
X175586Y-34705D01*
X175484Y-34767D01*
X175380Y-34826D01*
X175274Y-34881D01*
X175166Y-34932D01*
X175057Y-34980D01*
X174946Y-35025D01*
X174834Y-35065D01*
X174720Y-35102D01*
X174605Y-35135D01*
X174490Y-35165D01*
X174373Y-35190D01*
X174256Y-35212D01*
X174137Y-35229D01*
X174019Y-35243D01*
X173900Y-35253D01*
X173780Y-35259D01*
X173661Y-35261D01*
X173661Y-35262D02*
X170048Y-35262D01*
X187486Y-37068D02*
X192904Y-37068D01*
X187486Y-37068D02*
X187368Y-37066D01*
X187250Y-37060D01*
X187132Y-37051D01*
X187015Y-37037D01*
X186898Y-37020D01*
X186781Y-36999D01*
X186666Y-36974D01*
X186551Y-36945D01*
X186437Y-36912D01*
X186325Y-36876D01*
X186214Y-36836D01*
X186104Y-36793D01*
X185995Y-36746D01*
X185888Y-36696D01*
X185783Y-36641D01*
X185680Y-36584D01*
X185579Y-36523D01*
X185479Y-36459D01*
X185382Y-36392D01*
X185287Y-36322D01*
X185195Y-36248D01*
X185104Y-36172D01*
X185017Y-36092D01*
X184932Y-36010D01*
X184850Y-35925D01*
X184770Y-35838D01*
X184694Y-35747D01*
X184620Y-35655D01*
X184550Y-35560D01*
X184483Y-35463D01*
X184419Y-35363D01*
X184358Y-35262D01*
X184301Y-35159D01*
X184246Y-35054D01*
X184196Y-34947D01*
X184149Y-34838D01*
X184106Y-34728D01*
X184066Y-34617D01*
X184030Y-34505D01*
X183997Y-34391D01*
X183968Y-34276D01*
X183943Y-34161D01*
X183922Y-34044D01*
X183905Y-33927D01*
X183891Y-33810D01*
X183882Y-33692D01*
X183876Y-33574D01*
X183874Y-33456D01*
X183873Y-33456D02*
X183873Y-32553D01*
X183875Y-32420D01*
X183881Y-32288D01*
X183891Y-32156D01*
X183904Y-32024D01*
X183922Y-31892D01*
X183943Y-31762D01*
X183968Y-31631D01*
X183997Y-31502D01*
X184030Y-31374D01*
X184066Y-31246D01*
X184106Y-31120D01*
X184150Y-30995D01*
X184198Y-30871D01*
X184249Y-30749D01*
X184304Y-30628D01*
X184362Y-30509D01*
X184424Y-30391D01*
X184489Y-30276D01*
X184558Y-30162D01*
X184629Y-30051D01*
X184705Y-29942D01*
X184783Y-29835D01*
X184864Y-29730D01*
X184949Y-29628D01*
X185036Y-29528D01*
X185126Y-29431D01*
X185219Y-29336D01*
X185315Y-29245D01*
X185413Y-29156D01*
X185514Y-29070D01*
X185618Y-28987D01*
X185724Y-28907D01*
X185832Y-28831D01*
X185942Y-28757D01*
X186055Y-28687D01*
X186169Y-28620D01*
X186286Y-28557D01*
X186404Y-28497D01*
X186524Y-28440D01*
X186646Y-28387D01*
X186769Y-28338D01*
X186893Y-28292D01*
X187019Y-28250D01*
X187146Y-28212D01*
X187274Y-28177D01*
X187403Y-28146D01*
X187532Y-28119D01*
X187663Y-28096D01*
X187794Y-28076D01*
X187926Y-28061D01*
X188058Y-28049D01*
X188190Y-28041D01*
X188323Y-28037D01*
X188455Y-28037D01*
X188588Y-28041D01*
X188720Y-28049D01*
X188852Y-28061D01*
X188984Y-28076D01*
X189115Y-28096D01*
X189246Y-28119D01*
X189375Y-28146D01*
X189504Y-28177D01*
X189632Y-28212D01*
X189759Y-28250D01*
X189885Y-28292D01*
X190009Y-28338D01*
X190132Y-28387D01*
X190254Y-28440D01*
X190374Y-28497D01*
X190492Y-28557D01*
X190609Y-28620D01*
X190723Y-28687D01*
X190836Y-28757D01*
X190946Y-28831D01*
X191054Y-28907D01*
X191160Y-28987D01*
X191264Y-29070D01*
X191365Y-29156D01*
X191463Y-29245D01*
X191559Y-29336D01*
X191652Y-29431D01*
X191742Y-29528D01*
X191829Y-29628D01*
X191914Y-29730D01*
X191995Y-29835D01*
X192073Y-29942D01*
X192149Y-30051D01*
X192220Y-30162D01*
X192289Y-30276D01*
X192354Y-30391D01*
X192416Y-30509D01*
X192474Y-30628D01*
X192529Y-30749D01*
X192580Y-30871D01*
X192628Y-30995D01*
X192672Y-31120D01*
X192712Y-31246D01*
X192748Y-31374D01*
X192781Y-31502D01*
X192810Y-31631D01*
X192835Y-31762D01*
X192856Y-31892D01*
X192874Y-32024D01*
X192887Y-32156D01*
X192897Y-32288D01*
X192903Y-32420D01*
X192905Y-32553D01*
X192904Y-32553D02*
X192904Y-37068D01*
X192902Y-37243D01*
X192896Y-37417D01*
X192885Y-37591D01*
X192870Y-37765D01*
X192851Y-37939D01*
X192828Y-38112D01*
X192801Y-38284D01*
X192769Y-38456D01*
X192734Y-38627D01*
X192694Y-38797D01*
X192650Y-38966D01*
X192602Y-39134D01*
X192550Y-39301D01*
X192494Y-39466D01*
X192434Y-39630D01*
X192371Y-39793D01*
X192303Y-39953D01*
X192231Y-40113D01*
X192156Y-40270D01*
X192076Y-40426D01*
X191993Y-40579D01*
X191907Y-40731D01*
X191816Y-40880D01*
X191722Y-41027D01*
X191625Y-41172D01*
X191524Y-41315D01*
X191420Y-41455D01*
X191312Y-41592D01*
X191201Y-41727D01*
X191087Y-41859D01*
X190970Y-41988D01*
X190849Y-42115D01*
X190726Y-42238D01*
X190599Y-42359D01*
X190470Y-42476D01*
X190338Y-42590D01*
X190203Y-42701D01*
X190066Y-42809D01*
X189926Y-42913D01*
X189783Y-43014D01*
X189638Y-43111D01*
X189491Y-43205D01*
X189342Y-43296D01*
X189190Y-43382D01*
X189037Y-43465D01*
X188881Y-43545D01*
X188724Y-43620D01*
X188564Y-43692D01*
X188404Y-43760D01*
X188241Y-43823D01*
X188077Y-43883D01*
X187912Y-43939D01*
X187745Y-43991D01*
X187577Y-44039D01*
X187408Y-44083D01*
X187238Y-44123D01*
X187067Y-44158D01*
X186895Y-44190D01*
X186723Y-44217D01*
X186550Y-44240D01*
X186376Y-44259D01*
X186202Y-44274D01*
X186028Y-44285D01*
X185854Y-44291D01*
X185679Y-44293D01*
X198879Y-44293D02*
X198879Y-43390D01*
X199782Y-43390D01*
X199782Y-44293D01*
X198879Y-44293D01*
X205756Y-39777D02*
X205758Y-39644D01*
X205764Y-39512D01*
X205774Y-39380D01*
X205787Y-39248D01*
X205805Y-39116D01*
X205826Y-38986D01*
X205851Y-38855D01*
X205880Y-38726D01*
X205913Y-38598D01*
X205949Y-38470D01*
X205989Y-38344D01*
X206033Y-38219D01*
X206081Y-38095D01*
X206132Y-37973D01*
X206187Y-37852D01*
X206245Y-37733D01*
X206307Y-37615D01*
X206372Y-37500D01*
X206441Y-37386D01*
X206512Y-37275D01*
X206588Y-37166D01*
X206666Y-37059D01*
X206747Y-36954D01*
X206832Y-36852D01*
X206919Y-36752D01*
X207009Y-36655D01*
X207102Y-36560D01*
X207198Y-36469D01*
X207296Y-36380D01*
X207397Y-36294D01*
X207501Y-36211D01*
X207607Y-36131D01*
X207715Y-36055D01*
X207825Y-35981D01*
X207938Y-35911D01*
X208052Y-35844D01*
X208169Y-35781D01*
X208287Y-35721D01*
X208407Y-35664D01*
X208529Y-35611D01*
X208652Y-35562D01*
X208776Y-35516D01*
X208902Y-35474D01*
X209029Y-35436D01*
X209157Y-35401D01*
X209286Y-35370D01*
X209415Y-35343D01*
X209546Y-35320D01*
X209677Y-35300D01*
X209809Y-35285D01*
X209941Y-35273D01*
X210073Y-35265D01*
X210206Y-35261D01*
X210338Y-35261D01*
X210471Y-35265D01*
X210603Y-35273D01*
X210735Y-35285D01*
X210867Y-35300D01*
X210998Y-35320D01*
X211129Y-35343D01*
X211258Y-35370D01*
X211387Y-35401D01*
X211515Y-35436D01*
X211642Y-35474D01*
X211768Y-35516D01*
X211892Y-35562D01*
X212015Y-35611D01*
X212137Y-35664D01*
X212257Y-35721D01*
X212375Y-35781D01*
X212492Y-35844D01*
X212606Y-35911D01*
X212719Y-35981D01*
X212829Y-36055D01*
X212937Y-36131D01*
X213043Y-36211D01*
X213147Y-36294D01*
X213248Y-36380D01*
X213346Y-36469D01*
X213442Y-36560D01*
X213535Y-36655D01*
X213625Y-36752D01*
X213712Y-36852D01*
X213797Y-36954D01*
X213878Y-37059D01*
X213956Y-37166D01*
X214032Y-37275D01*
X214103Y-37386D01*
X214172Y-37500D01*
X214237Y-37615D01*
X214299Y-37733D01*
X214357Y-37852D01*
X214412Y-37973D01*
X214463Y-38095D01*
X214511Y-38219D01*
X214555Y-38344D01*
X214595Y-38470D01*
X214631Y-38598D01*
X214664Y-38726D01*
X214693Y-38855D01*
X214718Y-38986D01*
X214739Y-39116D01*
X214757Y-39248D01*
X214770Y-39380D01*
X214780Y-39512D01*
X214786Y-39644D01*
X214788Y-39777D01*
X214786Y-39910D01*
X214780Y-40042D01*
X214770Y-40174D01*
X214757Y-40306D01*
X214739Y-40438D01*
X214718Y-40568D01*
X214693Y-40699D01*
X214664Y-40828D01*
X214631Y-40956D01*
X214595Y-41084D01*
X214555Y-41210D01*
X214511Y-41335D01*
X214463Y-41459D01*
X214412Y-41581D01*
X214357Y-41702D01*
X214299Y-41821D01*
X214237Y-41939D01*
X214172Y-42054D01*
X214103Y-42168D01*
X214032Y-42279D01*
X213956Y-42388D01*
X213878Y-42495D01*
X213797Y-42600D01*
X213712Y-42702D01*
X213625Y-42802D01*
X213535Y-42899D01*
X213442Y-42994D01*
X213346Y-43085D01*
X213248Y-43174D01*
X213147Y-43260D01*
X213043Y-43343D01*
X212937Y-43423D01*
X212829Y-43499D01*
X212719Y-43573D01*
X212606Y-43643D01*
X212492Y-43710D01*
X212375Y-43773D01*
X212257Y-43833D01*
X212137Y-43890D01*
X212015Y-43943D01*
X211892Y-43992D01*
X211768Y-44038D01*
X211642Y-44080D01*
X211515Y-44118D01*
X211387Y-44153D01*
X211258Y-44184D01*
X211129Y-44211D01*
X210998Y-44234D01*
X210867Y-44254D01*
X210735Y-44269D01*
X210603Y-44281D01*
X210471Y-44289D01*
X210338Y-44293D01*
X210206Y-44293D01*
X210073Y-44289D01*
X209941Y-44281D01*
X209809Y-44269D01*
X209677Y-44254D01*
X209546Y-44234D01*
X209415Y-44211D01*
X209286Y-44184D01*
X209157Y-44153D01*
X209029Y-44118D01*
X208902Y-44080D01*
X208776Y-44038D01*
X208652Y-43992D01*
X208529Y-43943D01*
X208407Y-43890D01*
X208287Y-43833D01*
X208169Y-43773D01*
X208052Y-43710D01*
X207938Y-43643D01*
X207825Y-43573D01*
X207715Y-43499D01*
X207607Y-43423D01*
X207501Y-43343D01*
X207397Y-43260D01*
X207296Y-43174D01*
X207198Y-43085D01*
X207102Y-42994D01*
X207009Y-42899D01*
X206919Y-42802D01*
X206832Y-42702D01*
X206747Y-42600D01*
X206666Y-42495D01*
X206588Y-42388D01*
X206512Y-42279D01*
X206441Y-42168D01*
X206372Y-42054D01*
X206307Y-41939D01*
X206245Y-41821D01*
X206187Y-41702D01*
X206132Y-41581D01*
X206081Y-41459D01*
X206033Y-41335D01*
X205989Y-41210D01*
X205949Y-41084D01*
X205913Y-40956D01*
X205880Y-40828D01*
X205851Y-40699D01*
X205826Y-40568D01*
X205805Y-40438D01*
X205787Y-40306D01*
X205774Y-40174D01*
X205764Y-40042D01*
X205758Y-39910D01*
X205756Y-39777D01*
X206660Y-31649D02*
X206662Y-31530D01*
X206668Y-31410D01*
X206678Y-31291D01*
X206692Y-31173D01*
X206709Y-31054D01*
X206731Y-30937D01*
X206756Y-30820D01*
X206786Y-30705D01*
X206819Y-30590D01*
X206856Y-30476D01*
X206896Y-30364D01*
X206941Y-30253D01*
X206989Y-30144D01*
X207040Y-30036D01*
X207095Y-29930D01*
X207154Y-29826D01*
X207216Y-29724D01*
X207281Y-29624D01*
X207350Y-29526D01*
X207422Y-29430D01*
X207497Y-29337D01*
X207574Y-29247D01*
X207655Y-29159D01*
X207739Y-29074D01*
X207826Y-28992D01*
X207915Y-28912D01*
X208007Y-28836D01*
X208101Y-28762D01*
X208198Y-28692D01*
X208296Y-28625D01*
X208397Y-28561D01*
X208501Y-28501D01*
X208606Y-28444D01*
X208713Y-28391D01*
X208821Y-28341D01*
X208931Y-28295D01*
X209043Y-28253D01*
X209156Y-28214D01*
X209270Y-28179D01*
X209385Y-28148D01*
X209502Y-28120D01*
X209619Y-28097D01*
X209736Y-28077D01*
X209855Y-28061D01*
X209974Y-28049D01*
X210093Y-28041D01*
X210212Y-28037D01*
X210332Y-28037D01*
X210451Y-28041D01*
X210570Y-28049D01*
X210689Y-28061D01*
X210808Y-28077D01*
X210925Y-28097D01*
X211042Y-28120D01*
X211159Y-28148D01*
X211274Y-28179D01*
X211388Y-28214D01*
X211501Y-28253D01*
X211613Y-28295D01*
X211723Y-28341D01*
X211831Y-28391D01*
X211938Y-28444D01*
X212043Y-28501D01*
X212147Y-28561D01*
X212248Y-28625D01*
X212346Y-28692D01*
X212443Y-28762D01*
X212537Y-28836D01*
X212629Y-28912D01*
X212718Y-28992D01*
X212805Y-29074D01*
X212889Y-29159D01*
X212970Y-29247D01*
X213047Y-29337D01*
X213122Y-29430D01*
X213194Y-29526D01*
X213263Y-29624D01*
X213328Y-29724D01*
X213390Y-29826D01*
X213449Y-29930D01*
X213504Y-30036D01*
X213555Y-30144D01*
X213603Y-30253D01*
X213648Y-30364D01*
X213688Y-30476D01*
X213725Y-30590D01*
X213758Y-30705D01*
X213788Y-30820D01*
X213813Y-30937D01*
X213835Y-31054D01*
X213852Y-31173D01*
X213866Y-31291D01*
X213876Y-31410D01*
X213882Y-31530D01*
X213884Y-31649D01*
X213882Y-31768D01*
X213876Y-31888D01*
X213866Y-32007D01*
X213852Y-32125D01*
X213835Y-32244D01*
X213813Y-32361D01*
X213788Y-32478D01*
X213758Y-32593D01*
X213725Y-32708D01*
X213688Y-32822D01*
X213648Y-32934D01*
X213603Y-33045D01*
X213555Y-33154D01*
X213504Y-33262D01*
X213449Y-33368D01*
X213390Y-33472D01*
X213328Y-33574D01*
X213263Y-33674D01*
X213194Y-33772D01*
X213122Y-33868D01*
X213047Y-33961D01*
X212970Y-34051D01*
X212889Y-34139D01*
X212805Y-34224D01*
X212718Y-34306D01*
X212629Y-34386D01*
X212537Y-34462D01*
X212443Y-34536D01*
X212346Y-34606D01*
X212248Y-34673D01*
X212147Y-34737D01*
X212043Y-34797D01*
X211938Y-34854D01*
X211831Y-34907D01*
X211723Y-34957D01*
X211613Y-35003D01*
X211501Y-35045D01*
X211388Y-35084D01*
X211274Y-35119D01*
X211159Y-35150D01*
X211042Y-35178D01*
X210925Y-35201D01*
X210808Y-35221D01*
X210689Y-35237D01*
X210570Y-35249D01*
X210451Y-35257D01*
X210332Y-35261D01*
X210212Y-35261D01*
X210093Y-35257D01*
X209974Y-35249D01*
X209855Y-35237D01*
X209736Y-35221D01*
X209619Y-35201D01*
X209502Y-35178D01*
X209385Y-35150D01*
X209270Y-35119D01*
X209156Y-35084D01*
X209043Y-35045D01*
X208931Y-35003D01*
X208821Y-34957D01*
X208713Y-34907D01*
X208606Y-34854D01*
X208501Y-34797D01*
X208397Y-34737D01*
X208296Y-34673D01*
X208198Y-34606D01*
X208101Y-34536D01*
X208007Y-34462D01*
X207915Y-34386D01*
X207826Y-34306D01*
X207739Y-34224D01*
X207655Y-34139D01*
X207574Y-34051D01*
X207497Y-33961D01*
X207422Y-33868D01*
X207350Y-33772D01*
X207281Y-33674D01*
X207216Y-33574D01*
X207154Y-33472D01*
X207095Y-33368D01*
X207040Y-33262D01*
X206989Y-33154D01*
X206941Y-33045D01*
X206896Y-32934D01*
X206856Y-32822D01*
X206819Y-32708D01*
X206786Y-32593D01*
X206756Y-32478D01*
X206731Y-32361D01*
X206709Y-32244D01*
X206692Y-32125D01*
X206678Y-32007D01*
X206668Y-31888D01*
X206662Y-31768D01*
X206660Y-31649D01*
X221388Y-39777D02*
X221390Y-39644D01*
X221396Y-39512D01*
X221406Y-39380D01*
X221419Y-39248D01*
X221437Y-39116D01*
X221458Y-38986D01*
X221483Y-38855D01*
X221512Y-38726D01*
X221545Y-38598D01*
X221581Y-38470D01*
X221621Y-38344D01*
X221665Y-38219D01*
X221713Y-38095D01*
X221764Y-37973D01*
X221819Y-37852D01*
X221877Y-37733D01*
X221939Y-37615D01*
X222004Y-37500D01*
X222073Y-37386D01*
X222144Y-37275D01*
X222220Y-37166D01*
X222298Y-37059D01*
X222379Y-36954D01*
X222464Y-36852D01*
X222551Y-36752D01*
X222641Y-36655D01*
X222734Y-36560D01*
X222830Y-36469D01*
X222928Y-36380D01*
X223029Y-36294D01*
X223133Y-36211D01*
X223239Y-36131D01*
X223347Y-36055D01*
X223457Y-35981D01*
X223570Y-35911D01*
X223684Y-35844D01*
X223801Y-35781D01*
X223919Y-35721D01*
X224039Y-35664D01*
X224161Y-35611D01*
X224284Y-35562D01*
X224408Y-35516D01*
X224534Y-35474D01*
X224661Y-35436D01*
X224789Y-35401D01*
X224918Y-35370D01*
X225047Y-35343D01*
X225178Y-35320D01*
X225309Y-35300D01*
X225441Y-35285D01*
X225573Y-35273D01*
X225705Y-35265D01*
X225838Y-35261D01*
X225970Y-35261D01*
X226103Y-35265D01*
X226235Y-35273D01*
X226367Y-35285D01*
X226499Y-35300D01*
X226630Y-35320D01*
X226761Y-35343D01*
X226890Y-35370D01*
X227019Y-35401D01*
X227147Y-35436D01*
X227274Y-35474D01*
X227400Y-35516D01*
X227524Y-35562D01*
X227647Y-35611D01*
X227769Y-35664D01*
X227889Y-35721D01*
X228007Y-35781D01*
X228124Y-35844D01*
X228238Y-35911D01*
X228351Y-35981D01*
X228461Y-36055D01*
X228569Y-36131D01*
X228675Y-36211D01*
X228779Y-36294D01*
X228880Y-36380D01*
X228978Y-36469D01*
X229074Y-36560D01*
X229167Y-36655D01*
X229257Y-36752D01*
X229344Y-36852D01*
X229429Y-36954D01*
X229510Y-37059D01*
X229588Y-37166D01*
X229664Y-37275D01*
X229735Y-37386D01*
X229804Y-37500D01*
X229869Y-37615D01*
X229931Y-37733D01*
X229989Y-37852D01*
X230044Y-37973D01*
X230095Y-38095D01*
X230143Y-38219D01*
X230187Y-38344D01*
X230227Y-38470D01*
X230263Y-38598D01*
X230296Y-38726D01*
X230325Y-38855D01*
X230350Y-38986D01*
X230371Y-39116D01*
X230389Y-39248D01*
X230402Y-39380D01*
X230412Y-39512D01*
X230418Y-39644D01*
X230420Y-39777D01*
X230418Y-39910D01*
X230412Y-40042D01*
X230402Y-40174D01*
X230389Y-40306D01*
X230371Y-40438D01*
X230350Y-40568D01*
X230325Y-40699D01*
X230296Y-40828D01*
X230263Y-40956D01*
X230227Y-41084D01*
X230187Y-41210D01*
X230143Y-41335D01*
X230095Y-41459D01*
X230044Y-41581D01*
X229989Y-41702D01*
X229931Y-41821D01*
X229869Y-41939D01*
X229804Y-42054D01*
X229735Y-42168D01*
X229664Y-42279D01*
X229588Y-42388D01*
X229510Y-42495D01*
X229429Y-42600D01*
X229344Y-42702D01*
X229257Y-42802D01*
X229167Y-42899D01*
X229074Y-42994D01*
X228978Y-43085D01*
X228880Y-43174D01*
X228779Y-43260D01*
X228675Y-43343D01*
X228569Y-43423D01*
X228461Y-43499D01*
X228351Y-43573D01*
X228238Y-43643D01*
X228124Y-43710D01*
X228007Y-43773D01*
X227889Y-43833D01*
X227769Y-43890D01*
X227647Y-43943D01*
X227524Y-43992D01*
X227400Y-44038D01*
X227274Y-44080D01*
X227147Y-44118D01*
X227019Y-44153D01*
X226890Y-44184D01*
X226761Y-44211D01*
X226630Y-44234D01*
X226499Y-44254D01*
X226367Y-44269D01*
X226235Y-44281D01*
X226103Y-44289D01*
X225970Y-44293D01*
X225838Y-44293D01*
X225705Y-44289D01*
X225573Y-44281D01*
X225441Y-44269D01*
X225309Y-44254D01*
X225178Y-44234D01*
X225047Y-44211D01*
X224918Y-44184D01*
X224789Y-44153D01*
X224661Y-44118D01*
X224534Y-44080D01*
X224408Y-44038D01*
X224284Y-43992D01*
X224161Y-43943D01*
X224039Y-43890D01*
X223919Y-43833D01*
X223801Y-43773D01*
X223684Y-43710D01*
X223570Y-43643D01*
X223457Y-43573D01*
X223347Y-43499D01*
X223239Y-43423D01*
X223133Y-43343D01*
X223029Y-43260D01*
X222928Y-43174D01*
X222830Y-43085D01*
X222734Y-42994D01*
X222641Y-42899D01*
X222551Y-42802D01*
X222464Y-42702D01*
X222379Y-42600D01*
X222298Y-42495D01*
X222220Y-42388D01*
X222144Y-42279D01*
X222073Y-42168D01*
X222004Y-42054D01*
X221939Y-41939D01*
X221877Y-41821D01*
X221819Y-41702D01*
X221764Y-41581D01*
X221713Y-41459D01*
X221665Y-41335D01*
X221621Y-41210D01*
X221581Y-41084D01*
X221545Y-40956D01*
X221512Y-40828D01*
X221483Y-40699D01*
X221458Y-40568D01*
X221437Y-40438D01*
X221419Y-40306D01*
X221406Y-40174D01*
X221396Y-40042D01*
X221390Y-39910D01*
X221388Y-39777D01*
X222292Y-31649D02*
X222294Y-31530D01*
X222300Y-31410D01*
X222310Y-31291D01*
X222324Y-31173D01*
X222341Y-31054D01*
X222363Y-30937D01*
X222388Y-30820D01*
X222418Y-30705D01*
X222451Y-30590D01*
X222488Y-30476D01*
X222528Y-30364D01*
X222573Y-30253D01*
X222621Y-30144D01*
X222672Y-30036D01*
X222727Y-29930D01*
X222786Y-29826D01*
X222848Y-29724D01*
X222913Y-29624D01*
X222982Y-29526D01*
X223054Y-29430D01*
X223129Y-29337D01*
X223206Y-29247D01*
X223287Y-29159D01*
X223371Y-29074D01*
X223458Y-28992D01*
X223547Y-28912D01*
X223639Y-28836D01*
X223733Y-28762D01*
X223830Y-28692D01*
X223928Y-28625D01*
X224029Y-28561D01*
X224133Y-28501D01*
X224238Y-28444D01*
X224345Y-28391D01*
X224453Y-28341D01*
X224563Y-28295D01*
X224675Y-28253D01*
X224788Y-28214D01*
X224902Y-28179D01*
X225017Y-28148D01*
X225134Y-28120D01*
X225251Y-28097D01*
X225368Y-28077D01*
X225487Y-28061D01*
X225606Y-28049D01*
X225725Y-28041D01*
X225844Y-28037D01*
X225964Y-28037D01*
X226083Y-28041D01*
X226202Y-28049D01*
X226321Y-28061D01*
X226440Y-28077D01*
X226557Y-28097D01*
X226674Y-28120D01*
X226791Y-28148D01*
X226906Y-28179D01*
X227020Y-28214D01*
X227133Y-28253D01*
X227245Y-28295D01*
X227355Y-28341D01*
X227463Y-28391D01*
X227570Y-28444D01*
X227675Y-28501D01*
X227779Y-28561D01*
X227880Y-28625D01*
X227978Y-28692D01*
X228075Y-28762D01*
X228169Y-28836D01*
X228261Y-28912D01*
X228350Y-28992D01*
X228437Y-29074D01*
X228521Y-29159D01*
X228602Y-29247D01*
X228679Y-29337D01*
X228754Y-29430D01*
X228826Y-29526D01*
X228895Y-29624D01*
X228960Y-29724D01*
X229022Y-29826D01*
X229081Y-29930D01*
X229136Y-30036D01*
X229187Y-30144D01*
X229235Y-30253D01*
X229280Y-30364D01*
X229320Y-30476D01*
X229357Y-30590D01*
X229390Y-30705D01*
X229420Y-30820D01*
X229445Y-30937D01*
X229467Y-31054D01*
X229484Y-31173D01*
X229498Y-31291D01*
X229508Y-31410D01*
X229514Y-31530D01*
X229516Y-31649D01*
X229514Y-31768D01*
X229508Y-31888D01*
X229498Y-32007D01*
X229484Y-32125D01*
X229467Y-32244D01*
X229445Y-32361D01*
X229420Y-32478D01*
X229390Y-32593D01*
X229357Y-32708D01*
X229320Y-32822D01*
X229280Y-32934D01*
X229235Y-33045D01*
X229187Y-33154D01*
X229136Y-33262D01*
X229081Y-33368D01*
X229022Y-33472D01*
X228960Y-33574D01*
X228895Y-33674D01*
X228826Y-33772D01*
X228754Y-33868D01*
X228679Y-33961D01*
X228602Y-34051D01*
X228521Y-34139D01*
X228437Y-34224D01*
X228350Y-34306D01*
X228261Y-34386D01*
X228169Y-34462D01*
X228075Y-34536D01*
X227978Y-34606D01*
X227880Y-34673D01*
X227779Y-34737D01*
X227675Y-34797D01*
X227570Y-34854D01*
X227463Y-34907D01*
X227355Y-34957D01*
X227245Y-35003D01*
X227133Y-35045D01*
X227020Y-35084D01*
X226906Y-35119D01*
X226791Y-35150D01*
X226674Y-35178D01*
X226557Y-35201D01*
X226440Y-35221D01*
X226321Y-35237D01*
X226202Y-35249D01*
X226083Y-35257D01*
X225964Y-35261D01*
X225844Y-35261D01*
X225725Y-35257D01*
X225606Y-35249D01*
X225487Y-35237D01*
X225368Y-35221D01*
X225251Y-35201D01*
X225134Y-35178D01*
X225017Y-35150D01*
X224902Y-35119D01*
X224788Y-35084D01*
X224675Y-35045D01*
X224563Y-35003D01*
X224453Y-34957D01*
X224345Y-34907D01*
X224238Y-34854D01*
X224133Y-34797D01*
X224029Y-34737D01*
X223928Y-34673D01*
X223830Y-34606D01*
X223733Y-34536D01*
X223639Y-34462D01*
X223547Y-34386D01*
X223458Y-34306D01*
X223371Y-34224D01*
X223287Y-34139D01*
X223206Y-34051D01*
X223129Y-33961D01*
X223054Y-33868D01*
X222982Y-33772D01*
X222913Y-33674D01*
X222848Y-33574D01*
X222786Y-33472D01*
X222727Y-33368D01*
X222672Y-33262D01*
X222621Y-33154D01*
X222573Y-33045D01*
X222528Y-32934D01*
X222488Y-32822D01*
X222451Y-32708D01*
X222418Y-32593D01*
X222388Y-32478D01*
X222363Y-32361D01*
X222341Y-32244D01*
X222324Y-32125D01*
X222310Y-32007D01*
X222300Y-31888D01*
X222294Y-31768D01*
X222292Y-31649D01*
D10*
X400000Y400000D02*
X0Y400000D01*
D11*
X429260Y398780D02*
X464000Y398780D01*
X464000Y0D02*
X429260Y0D01*
X444500Y650D02*
X444500Y398130D01*
X441308Y372780D01*
X447692Y372780D01*
X444500Y398130D01*
X443200Y372780D01*
X445800Y372780D02*
X444500Y398130D01*
X441900Y372780D01*
X447100Y372780D02*
X444500Y398130D01*
X441308Y26000D02*
X444500Y650D01*
X441308Y26000D02*
X447692Y26000D01*
X444500Y650D01*
X443200Y26000D01*
X445800Y26000D02*
X444500Y650D01*
X441900Y26000D01*
X447100Y26000D02*
X444500Y650D01*
D12*
X437993Y168242D02*
X437993Y172758D01*
X437991Y172891D01*
X437985Y173023D01*
X437975Y173155D01*
X437962Y173287D01*
X437944Y173419D01*
X437923Y173549D01*
X437898Y173680D01*
X437869Y173809D01*
X437836Y173937D01*
X437800Y174065D01*
X437760Y174191D01*
X437716Y174316D01*
X437668Y174440D01*
X437617Y174562D01*
X437562Y174683D01*
X437504Y174802D01*
X437442Y174920D01*
X437377Y175035D01*
X437308Y175149D01*
X437237Y175260D01*
X437161Y175369D01*
X437083Y175476D01*
X437002Y175581D01*
X436917Y175683D01*
X436830Y175783D01*
X436740Y175880D01*
X436647Y175975D01*
X436551Y176066D01*
X436453Y176155D01*
X436352Y176241D01*
X436248Y176324D01*
X436142Y176404D01*
X436034Y176480D01*
X435924Y176554D01*
X435811Y176624D01*
X435697Y176691D01*
X435580Y176754D01*
X435462Y176814D01*
X435342Y176871D01*
X435220Y176924D01*
X435097Y176973D01*
X434973Y177019D01*
X434847Y177061D01*
X434720Y177099D01*
X434592Y177134D01*
X434463Y177165D01*
X434334Y177192D01*
X434203Y177215D01*
X434072Y177235D01*
X433940Y177250D01*
X433808Y177262D01*
X433676Y177270D01*
X433543Y177274D01*
X433411Y177274D01*
X433278Y177270D01*
X433146Y177262D01*
X433014Y177250D01*
X432882Y177235D01*
X432751Y177215D01*
X432620Y177192D01*
X432491Y177165D01*
X432362Y177134D01*
X432234Y177099D01*
X432107Y177061D01*
X431981Y177019D01*
X431857Y176973D01*
X431734Y176924D01*
X431612Y176871D01*
X431492Y176814D01*
X431374Y176754D01*
X431257Y176691D01*
X431143Y176624D01*
X431030Y176554D01*
X430920Y176480D01*
X430812Y176404D01*
X430706Y176324D01*
X430602Y176241D01*
X430501Y176155D01*
X430403Y176066D01*
X430307Y175975D01*
X430214Y175880D01*
X430124Y175783D01*
X430037Y175683D01*
X429952Y175581D01*
X429871Y175476D01*
X429793Y175369D01*
X429717Y175260D01*
X429646Y175149D01*
X429577Y175035D01*
X429512Y174920D01*
X429450Y174802D01*
X429392Y174683D01*
X429337Y174562D01*
X429286Y174440D01*
X429238Y174316D01*
X429194Y174191D01*
X429154Y174065D01*
X429118Y173937D01*
X429085Y173809D01*
X429056Y173680D01*
X429031Y173549D01*
X429010Y173419D01*
X428992Y173287D01*
X428979Y173155D01*
X428969Y173023D01*
X428963Y172891D01*
X428961Y172758D01*
X421737Y173661D02*
X421737Y168242D01*
X421737Y173661D02*
X421739Y173780D01*
X421745Y173900D01*
X421755Y174019D01*
X421769Y174137D01*
X421786Y174256D01*
X421808Y174373D01*
X421833Y174490D01*
X421863Y174605D01*
X421896Y174720D01*
X421933Y174834D01*
X421973Y174946D01*
X422018Y175057D01*
X422066Y175166D01*
X422117Y175274D01*
X422172Y175380D01*
X422231Y175484D01*
X422293Y175586D01*
X422358Y175686D01*
X422427Y175784D01*
X422499Y175880D01*
X422574Y175973D01*
X422651Y176063D01*
X422732Y176151D01*
X422816Y176236D01*
X422903Y176318D01*
X422992Y176398D01*
X423084Y176474D01*
X423178Y176548D01*
X423275Y176618D01*
X423373Y176685D01*
X423474Y176749D01*
X423578Y176809D01*
X423683Y176866D01*
X423790Y176919D01*
X423898Y176969D01*
X424008Y177015D01*
X424120Y177057D01*
X424233Y177096D01*
X424347Y177131D01*
X424462Y177162D01*
X424579Y177190D01*
X424696Y177213D01*
X424813Y177233D01*
X424932Y177249D01*
X425051Y177261D01*
X425170Y177269D01*
X425289Y177273D01*
X425409Y177273D01*
X425528Y177269D01*
X425647Y177261D01*
X425766Y177249D01*
X425885Y177233D01*
X426002Y177213D01*
X426119Y177190D01*
X426236Y177162D01*
X426351Y177131D01*
X426465Y177096D01*
X426578Y177057D01*
X426690Y177015D01*
X426800Y176969D01*
X426908Y176919D01*
X427015Y176866D01*
X427120Y176809D01*
X427224Y176749D01*
X427325Y176685D01*
X427423Y176618D01*
X427520Y176548D01*
X427614Y176474D01*
X427706Y176398D01*
X427795Y176318D01*
X427882Y176236D01*
X427966Y176151D01*
X428047Y176063D01*
X428124Y175973D01*
X428199Y175880D01*
X428271Y175784D01*
X428340Y175686D01*
X428405Y175586D01*
X428467Y175484D01*
X428526Y175380D01*
X428581Y175274D01*
X428632Y175166D01*
X428680Y175057D01*
X428725Y174946D01*
X428765Y174834D01*
X428802Y174720D01*
X428835Y174605D01*
X428865Y174490D01*
X428890Y174373D01*
X428912Y174256D01*
X428929Y174137D01*
X428943Y174019D01*
X428953Y173900D01*
X428959Y173780D01*
X428961Y173661D01*
X428962Y173661D02*
X428962Y170048D01*
X430768Y187486D02*
X430768Y192904D01*
X430768Y187486D02*
X430766Y187368D01*
X430760Y187250D01*
X430751Y187132D01*
X430737Y187015D01*
X430720Y186898D01*
X430699Y186781D01*
X430674Y186666D01*
X430645Y186551D01*
X430612Y186437D01*
X430576Y186325D01*
X430536Y186214D01*
X430493Y186104D01*
X430446Y185995D01*
X430396Y185888D01*
X430341Y185783D01*
X430284Y185680D01*
X430223Y185579D01*
X430159Y185479D01*
X430092Y185382D01*
X430022Y185287D01*
X429948Y185195D01*
X429872Y185104D01*
X429792Y185017D01*
X429710Y184932D01*
X429625Y184850D01*
X429538Y184770D01*
X429447Y184694D01*
X429355Y184620D01*
X429260Y184550D01*
X429163Y184483D01*
X429063Y184419D01*
X428962Y184358D01*
X428859Y184301D01*
X428754Y184246D01*
X428647Y184196D01*
X428538Y184149D01*
X428428Y184106D01*
X428317Y184066D01*
X428205Y184030D01*
X428091Y183997D01*
X427976Y183968D01*
X427861Y183943D01*
X427744Y183922D01*
X427627Y183905D01*
X427510Y183891D01*
X427392Y183882D01*
X427274Y183876D01*
X427156Y183874D01*
X427156Y183873D02*
X426253Y183873D01*
X426120Y183875D01*
X425988Y183881D01*
X425856Y183891D01*
X425724Y183904D01*
X425592Y183922D01*
X425462Y183943D01*
X425331Y183968D01*
X425202Y183997D01*
X425074Y184030D01*
X424946Y184066D01*
X424820Y184106D01*
X424695Y184150D01*
X424571Y184198D01*
X424449Y184249D01*
X424328Y184304D01*
X424209Y184362D01*
X424091Y184424D01*
X423976Y184489D01*
X423862Y184558D01*
X423751Y184629D01*
X423642Y184705D01*
X423535Y184783D01*
X423430Y184864D01*
X423328Y184949D01*
X423228Y185036D01*
X423131Y185126D01*
X423036Y185219D01*
X422945Y185315D01*
X422856Y185413D01*
X422770Y185514D01*
X422687Y185618D01*
X422607Y185724D01*
X422531Y185832D01*
X422457Y185942D01*
X422387Y186055D01*
X422320Y186169D01*
X422257Y186286D01*
X422197Y186404D01*
X422140Y186524D01*
X422087Y186646D01*
X422038Y186769D01*
X421992Y186893D01*
X421950Y187019D01*
X421912Y187146D01*
X421877Y187274D01*
X421846Y187403D01*
X421819Y187532D01*
X421796Y187663D01*
X421776Y187794D01*
X421761Y187926D01*
X421749Y188058D01*
X421741Y188190D01*
X421737Y188323D01*
X421737Y188455D01*
X421741Y188588D01*
X421749Y188720D01*
X421761Y188852D01*
X421776Y188984D01*
X421796Y189115D01*
X421819Y189246D01*
X421846Y189375D01*
X421877Y189504D01*
X421912Y189632D01*
X421950Y189759D01*
X421992Y189885D01*
X422038Y190009D01*
X422087Y190132D01*
X422140Y190254D01*
X422197Y190374D01*
X422257Y190492D01*
X422320Y190609D01*
X422387Y190723D01*
X422457Y190836D01*
X422531Y190946D01*
X422607Y191054D01*
X422687Y191160D01*
X422770Y191264D01*
X422856Y191365D01*
X422945Y191463D01*
X423036Y191559D01*
X423131Y191652D01*
X423228Y191742D01*
X423328Y191829D01*
X423430Y191914D01*
X423535Y191995D01*
X423642Y192073D01*
X423751Y192149D01*
X423862Y192220D01*
X423976Y192289D01*
X424091Y192354D01*
X424209Y192416D01*
X424328Y192474D01*
X424449Y192529D01*
X424571Y192580D01*
X424695Y192628D01*
X424820Y192672D01*
X424946Y192712D01*
X425074Y192748D01*
X425202Y192781D01*
X425331Y192810D01*
X425462Y192835D01*
X425592Y192856D01*
X425724Y192874D01*
X425856Y192887D01*
X425988Y192897D01*
X426120Y192903D01*
X426253Y192905D01*
X426253Y192904D02*
X430768Y192904D01*
X430943Y192902D01*
X431117Y192896D01*
X431291Y192885D01*
X431465Y192870D01*
X431639Y192851D01*
X431812Y192828D01*
X431984Y192801D01*
X432156Y192769D01*
X432327Y192734D01*
X432497Y192694D01*
X432666Y192650D01*
X432834Y192602D01*
X433001Y192550D01*
X433166Y192494D01*
X433330Y192434D01*
X433493Y192371D01*
X433653Y192303D01*
X433813Y192231D01*
X433970Y192156D01*
X434126Y192076D01*
X434279Y191993D01*
X434431Y191907D01*
X434580Y191816D01*
X434727Y191722D01*
X434872Y191625D01*
X435015Y191524D01*
X435155Y191420D01*
X435292Y191312D01*
X435427Y191201D01*
X435559Y191087D01*
X435688Y190970D01*
X435815Y190849D01*
X435938Y190726D01*
X436059Y190599D01*
X436176Y190470D01*
X436290Y190338D01*
X436401Y190203D01*
X436509Y190066D01*
X436613Y189926D01*
X436714Y189783D01*
X436811Y189638D01*
X436905Y189491D01*
X436996Y189342D01*
X437082Y189190D01*
X437165Y189037D01*
X437245Y188881D01*
X437320Y188724D01*
X437392Y188564D01*
X437460Y188404D01*
X437523Y188241D01*
X437583Y188077D01*
X437639Y187912D01*
X437691Y187745D01*
X437739Y187577D01*
X437783Y187408D01*
X437823Y187238D01*
X437858Y187067D01*
X437890Y186895D01*
X437917Y186723D01*
X437940Y186550D01*
X437959Y186376D01*
X437974Y186202D01*
X437985Y186028D01*
X437991Y185854D01*
X437993Y185679D01*
X437993Y198879D02*
X437090Y198879D01*
X437090Y199782D01*
X437993Y199782D01*
X437993Y198879D01*
X433477Y205756D02*
X433344Y205758D01*
X433212Y205764D01*
X433080Y205774D01*
X432948Y205787D01*
X432816Y205805D01*
X432686Y205826D01*
X432555Y205851D01*
X432426Y205880D01*
X432298Y205913D01*
X432170Y205949D01*
X432044Y205989D01*
X431919Y206033D01*
X431795Y206081D01*
X431673Y206132D01*
X431552Y206187D01*
X431433Y206245D01*
X431315Y206307D01*
X431200Y206372D01*
X431086Y206441D01*
X430975Y206512D01*
X430866Y206588D01*
X430759Y206666D01*
X430654Y206747D01*
X430552Y206832D01*
X430452Y206919D01*
X430355Y207009D01*
X430260Y207102D01*
X430169Y207198D01*
X430080Y207296D01*
X429994Y207397D01*
X429911Y207501D01*
X429831Y207607D01*
X429755Y207715D01*
X429681Y207825D01*
X429611Y207938D01*
X429544Y208052D01*
X429481Y208169D01*
X429421Y208287D01*
X429364Y208407D01*
X429311Y208529D01*
X429262Y208652D01*
X429216Y208776D01*
X429174Y208902D01*
X429136Y209029D01*
X429101Y209157D01*
X429070Y209286D01*
X429043Y209415D01*
X429020Y209546D01*
X429000Y209677D01*
X428985Y209809D01*
X428973Y209941D01*
X428965Y210073D01*
X428961Y210206D01*
X428961Y210338D01*
X428965Y210471D01*
X428973Y210603D01*
X428985Y210735D01*
X429000Y210867D01*
X429020Y210998D01*
X429043Y211129D01*
X429070Y211258D01*
X429101Y211387D01*
X429136Y211515D01*
X429174Y211642D01*
X429216Y211768D01*
X429262Y211892D01*
X429311Y212015D01*
X429364Y212137D01*
X429421Y212257D01*
X429481Y212375D01*
X429544Y212492D01*
X429611Y212606D01*
X429681Y212719D01*
X429755Y212829D01*
X429831Y212937D01*
X429911Y213043D01*
X429994Y213147D01*
X430080Y213248D01*
X430169Y213346D01*
X430260Y213442D01*
X430355Y213535D01*
X430452Y213625D01*
X430552Y213712D01*
X430654Y213797D01*
X430759Y213878D01*
X430866Y213956D01*
X430975Y214032D01*
X431086Y214103D01*
X431200Y214172D01*
X431315Y214237D01*
X431433Y214299D01*
X431552Y214357D01*
X431673Y214412D01*
X431795Y214463D01*
X431919Y214511D01*
X432044Y214555D01*
X432170Y214595D01*
X432298Y214631D01*
X432426Y214664D01*
X432555Y214693D01*
X432686Y214718D01*
X432816Y214739D01*
X432948Y214757D01*
X433080Y214770D01*
X433212Y214780D01*
X433344Y214786D01*
X433477Y214788D01*
X433610Y214786D01*
X433742Y214780D01*
X433874Y214770D01*
X434006Y214757D01*
X434138Y214739D01*
X434268Y214718D01*
X434399Y214693D01*
X434528Y214664D01*
X434656Y214631D01*
X434784Y214595D01*
X434910Y214555D01*
X435035Y214511D01*
X435159Y214463D01*
X435281Y214412D01*
X435402Y214357D01*
X435521Y214299D01*
X435639Y214237D01*
X435754Y214172D01*
X435868Y214103D01*
X435979Y214032D01*
X436088Y213956D01*
X436195Y213878D01*
X436300Y213797D01*
X436402Y213712D01*
X436502Y213625D01*
X436599Y213535D01*
X436694Y213442D01*
X436785Y213346D01*
X436874Y213248D01*
X436960Y213147D01*
X437043Y213043D01*
X437123Y212937D01*
X437199Y212829D01*
X437273Y212719D01*
X437343Y212606D01*
X437410Y212492D01*
X437473Y212375D01*
X437533Y212257D01*
X437590Y212137D01*
X437643Y212015D01*
X437692Y211892D01*
X437738Y211768D01*
X437780Y211642D01*
X437818Y211515D01*
X437853Y211387D01*
X437884Y211258D01*
X437911Y211129D01*
X437934Y210998D01*
X437954Y210867D01*
X437969Y210735D01*
X437981Y210603D01*
X437989Y210471D01*
X437993Y210338D01*
X437993Y210206D01*
X437989Y210073D01*
X437981Y209941D01*
X437969Y209809D01*
X437954Y209677D01*
X437934Y209546D01*
X437911Y209415D01*
X437884Y209286D01*
X437853Y209157D01*
X437818Y209029D01*
X437780Y208902D01*
X437738Y208776D01*
X437692Y208652D01*
X437643Y208529D01*
X437590Y208407D01*
X437533Y208287D01*
X437473Y208169D01*
X437410Y208052D01*
X437343Y207938D01*
X437273Y207825D01*
X437199Y207715D01*
X437123Y207607D01*
X437043Y207501D01*
X436960Y207397D01*
X436874Y207296D01*
X436785Y207198D01*
X436694Y207102D01*
X436599Y207009D01*
X436502Y206919D01*
X436402Y206832D01*
X436300Y206747D01*
X436195Y206666D01*
X436088Y206588D01*
X435979Y206512D01*
X435868Y206441D01*
X435754Y206372D01*
X435639Y206307D01*
X435521Y206245D01*
X435402Y206187D01*
X435281Y206132D01*
X435159Y206081D01*
X435035Y206033D01*
X434910Y205989D01*
X434784Y205949D01*
X434656Y205913D01*
X434528Y205880D01*
X434399Y205851D01*
X434268Y205826D01*
X434138Y205805D01*
X434006Y205787D01*
X433874Y205774D01*
X433742Y205764D01*
X433610Y205758D01*
X433477Y205756D01*
X425349Y206660D02*
X425230Y206662D01*
X425110Y206668D01*
X424991Y206678D01*
X424873Y206692D01*
X424754Y206709D01*
X424637Y206731D01*
X424520Y206756D01*
X424405Y206786D01*
X424290Y206819D01*
X424176Y206856D01*
X424064Y206896D01*
X423953Y206941D01*
X423844Y206989D01*
X423736Y207040D01*
X423630Y207095D01*
X423526Y207154D01*
X423424Y207216D01*
X423324Y207281D01*
X423226Y207350D01*
X423130Y207422D01*
X423037Y207497D01*
X422947Y207574D01*
X422859Y207655D01*
X422774Y207739D01*
X422692Y207826D01*
X422612Y207915D01*
X422536Y208007D01*
X422462Y208101D01*
X422392Y208198D01*
X422325Y208296D01*
X422261Y208397D01*
X422201Y208501D01*
X422144Y208606D01*
X422091Y208713D01*
X422041Y208821D01*
X421995Y208931D01*
X421953Y209043D01*
X421914Y209156D01*
X421879Y209270D01*
X421848Y209385D01*
X421820Y209502D01*
X421797Y209619D01*
X421777Y209736D01*
X421761Y209855D01*
X421749Y209974D01*
X421741Y210093D01*
X421737Y210212D01*
X421737Y210332D01*
X421741Y210451D01*
X421749Y210570D01*
X421761Y210689D01*
X421777Y210808D01*
X421797Y210925D01*
X421820Y211042D01*
X421848Y211159D01*
X421879Y211274D01*
X421914Y211388D01*
X421953Y211501D01*
X421995Y211613D01*
X422041Y211723D01*
X422091Y211831D01*
X422144Y211938D01*
X422201Y212043D01*
X422261Y212147D01*
X422325Y212248D01*
X422392Y212346D01*
X422462Y212443D01*
X422536Y212537D01*
X422612Y212629D01*
X422692Y212718D01*
X422774Y212805D01*
X422859Y212889D01*
X422947Y212970D01*
X423037Y213047D01*
X423130Y213122D01*
X423226Y213194D01*
X423324Y213263D01*
X423424Y213328D01*
X423526Y213390D01*
X423630Y213449D01*
X423736Y213504D01*
X423844Y213555D01*
X423953Y213603D01*
X424064Y213648D01*
X424176Y213688D01*
X424290Y213725D01*
X424405Y213758D01*
X424520Y213788D01*
X424637Y213813D01*
X424754Y213835D01*
X424873Y213852D01*
X424991Y213866D01*
X425110Y213876D01*
X425230Y213882D01*
X425349Y213884D01*
X425468Y213882D01*
X425588Y213876D01*
X425707Y213866D01*
X425825Y213852D01*
X425944Y213835D01*
X426061Y213813D01*
X426178Y213788D01*
X426293Y213758D01*
X426408Y213725D01*
X426522Y213688D01*
X426634Y213648D01*
X426745Y213603D01*
X426854Y213555D01*
X426962Y213504D01*
X427068Y213449D01*
X427172Y213390D01*
X427274Y213328D01*
X427374Y213263D01*
X427472Y213194D01*
X427568Y213122D01*
X427661Y213047D01*
X427751Y212970D01*
X427839Y212889D01*
X427924Y212805D01*
X428006Y212718D01*
X428086Y212629D01*
X428162Y212537D01*
X428236Y212443D01*
X428306Y212346D01*
X428373Y212248D01*
X428437Y212147D01*
X428497Y212043D01*
X428554Y211938D01*
X428607Y211831D01*
X428657Y211723D01*
X428703Y211613D01*
X428745Y211501D01*
X428784Y211388D01*
X428819Y211274D01*
X428850Y211159D01*
X428878Y211042D01*
X428901Y210925D01*
X428921Y210808D01*
X428937Y210689D01*
X428949Y210570D01*
X428957Y210451D01*
X428961Y210332D01*
X428961Y210212D01*
X428957Y210093D01*
X428949Y209974D01*
X428937Y209855D01*
X428921Y209736D01*
X428901Y209619D01*
X428878Y209502D01*
X428850Y209385D01*
X428819Y209270D01*
X428784Y209156D01*
X428745Y209043D01*
X428703Y208931D01*
X428657Y208821D01*
X428607Y208713D01*
X428554Y208606D01*
X428497Y208501D01*
X428437Y208397D01*
X428373Y208296D01*
X428306Y208198D01*
X428236Y208101D01*
X428162Y208007D01*
X428086Y207915D01*
X428006Y207826D01*
X427924Y207739D01*
X427839Y207655D01*
X427751Y207574D01*
X427661Y207497D01*
X427568Y207422D01*
X427472Y207350D01*
X427374Y207281D01*
X427274Y207216D01*
X427172Y207154D01*
X427068Y207095D01*
X426962Y207040D01*
X426854Y206989D01*
X426745Y206941D01*
X426634Y206896D01*
X426522Y206856D01*
X426408Y206819D01*
X426293Y206786D01*
X426178Y206756D01*
X426061Y206731D01*
X425944Y206709D01*
X425825Y206692D01*
X425707Y206678D01*
X425588Y206668D01*
X425468Y206662D01*
X425349Y206660D01*
X433477Y221388D02*
X433344Y221390D01*
X433212Y221396D01*
X433080Y221406D01*
X432948Y221419D01*
X432816Y221437D01*
X432686Y221458D01*
X432555Y221483D01*
X432426Y221512D01*
X432298Y221545D01*
X432170Y221581D01*
X432044Y221621D01*
X431919Y221665D01*
X431795Y221713D01*
X431673Y221764D01*
X431552Y221819D01*
X431433Y221877D01*
X431315Y221939D01*
X431200Y222004D01*
X431086Y222073D01*
X430975Y222144D01*
X430866Y222220D01*
X430759Y222298D01*
X430654Y222379D01*
X430552Y222464D01*
X430452Y222551D01*
X430355Y222641D01*
X430260Y222734D01*
X430169Y222830D01*
X430080Y222928D01*
X429994Y223029D01*
X429911Y223133D01*
X429831Y223239D01*
X429755Y223347D01*
X429681Y223457D01*
X429611Y223570D01*
X429544Y223684D01*
X429481Y223801D01*
X429421Y223919D01*
X429364Y224039D01*
X429311Y224161D01*
X429262Y224284D01*
X429216Y224408D01*
X429174Y224534D01*
X429136Y224661D01*
X429101Y224789D01*
X429070Y224918D01*
X429043Y225047D01*
X429020Y225178D01*
X429000Y225309D01*
X428985Y225441D01*
X428973Y225573D01*
X428965Y225705D01*
X428961Y225838D01*
X428961Y225970D01*
X428965Y226103D01*
X428973Y226235D01*
X428985Y226367D01*
X429000Y226499D01*
X429020Y226630D01*
X429043Y226761D01*
X429070Y226890D01*
X429101Y227019D01*
X429136Y227147D01*
X429174Y227274D01*
X429216Y227400D01*
X429262Y227524D01*
X429311Y227647D01*
X429364Y227769D01*
X429421Y227889D01*
X429481Y228007D01*
X429544Y228124D01*
X429611Y228238D01*
X429681Y228351D01*
X429755Y228461D01*
X429831Y228569D01*
X429911Y228675D01*
X429994Y228779D01*
X430080Y228880D01*
X430169Y228978D01*
X430260Y229074D01*
X430355Y229167D01*
X430452Y229257D01*
X430552Y229344D01*
X430654Y229429D01*
X430759Y229510D01*
X430866Y229588D01*
X430975Y229664D01*
X431086Y229735D01*
X431200Y229804D01*
X431315Y229869D01*
X431433Y229931D01*
X431552Y229989D01*
X431673Y230044D01*
X431795Y230095D01*
X431919Y230143D01*
X432044Y230187D01*
X432170Y230227D01*
X432298Y230263D01*
X432426Y230296D01*
X432555Y230325D01*
X432686Y230350D01*
X432816Y230371D01*
X432948Y230389D01*
X433080Y230402D01*
X433212Y230412D01*
X433344Y230418D01*
X433477Y230420D01*
X433610Y230418D01*
X433742Y230412D01*
X433874Y230402D01*
X434006Y230389D01*
X434138Y230371D01*
X434268Y230350D01*
X434399Y230325D01*
X434528Y230296D01*
X434656Y230263D01*
X434784Y230227D01*
X434910Y230187D01*
X435035Y230143D01*
X435159Y230095D01*
X435281Y230044D01*
X435402Y229989D01*
X435521Y229931D01*
X435639Y229869D01*
X435754Y229804D01*
X435868Y229735D01*
X435979Y229664D01*
X436088Y229588D01*
X436195Y229510D01*
X436300Y229429D01*
X436402Y229344D01*
X436502Y229257D01*
X436599Y229167D01*
X436694Y229074D01*
X436785Y228978D01*
X436874Y228880D01*
X436960Y228779D01*
X437043Y228675D01*
X437123Y228569D01*
X437199Y228461D01*
X437273Y228351D01*
X437343Y228238D01*
X437410Y228124D01*
X437473Y228007D01*
X437533Y227889D01*
X437590Y227769D01*
X437643Y227647D01*
X437692Y227524D01*
X437738Y227400D01*
X437780Y227274D01*
X437818Y227147D01*
X437853Y227019D01*
X437884Y226890D01*
X437911Y226761D01*
X437934Y226630D01*
X437954Y226499D01*
X437969Y226367D01*
X437981Y226235D01*
X437989Y226103D01*
X437993Y225970D01*
X437993Y225838D01*
X437989Y225705D01*
X437981Y225573D01*
X437969Y225441D01*
X437954Y225309D01*
X437934Y225178D01*
X437911Y225047D01*
X437884Y224918D01*
X437853Y224789D01*
X437818Y224661D01*
X437780Y224534D01*
X437738Y224408D01*
X437692Y224284D01*
X437643Y224161D01*
X437590Y224039D01*
X437533Y223919D01*
X437473Y223801D01*
X437410Y223684D01*
X437343Y223570D01*
X437273Y223457D01*
X437199Y223347D01*
X437123Y223239D01*
X437043Y223133D01*
X436960Y223029D01*
X436874Y222928D01*
X436785Y222830D01*
X436694Y222734D01*
X436599Y222641D01*
X436502Y222551D01*
X436402Y222464D01*
X436300Y222379D01*
X436195Y222298D01*
X436088Y222220D01*
X435979Y222144D01*
X435868Y222073D01*
X435754Y222004D01*
X435639Y221939D01*
X435521Y221877D01*
X435402Y221819D01*
X435281Y221764D01*
X435159Y221713D01*
X435035Y221665D01*
X434910Y221621D01*
X434784Y221581D01*
X434656Y221545D01*
X434528Y221512D01*
X434399Y221483D01*
X434268Y221458D01*
X434138Y221437D01*
X434006Y221419D01*
X433874Y221406D01*
X433742Y221396D01*
X433610Y221390D01*
X433477Y221388D01*
X425349Y222292D02*
X425230Y222294D01*
X425110Y222300D01*
X424991Y222310D01*
X424873Y222324D01*
X424754Y222341D01*
X424637Y222363D01*
X424520Y222388D01*
X424405Y222418D01*
X424290Y222451D01*
X424176Y222488D01*
X424064Y222528D01*
X423953Y222573D01*
X423844Y222621D01*
X423736Y222672D01*
X423630Y222727D01*
X423526Y222786D01*
X423424Y222848D01*
X423324Y222913D01*
X423226Y222982D01*
X423130Y223054D01*
X423037Y223129D01*
X422947Y223206D01*
X422859Y223287D01*
X422774Y223371D01*
X422692Y223458D01*
X422612Y223547D01*
X422536Y223639D01*
X422462Y223733D01*
X422392Y223830D01*
X422325Y223928D01*
X422261Y224029D01*
X422201Y224133D01*
X422144Y224238D01*
X422091Y224345D01*
X422041Y224453D01*
X421995Y224563D01*
X421953Y224675D01*
X421914Y224788D01*
X421879Y224902D01*
X421848Y225017D01*
X421820Y225134D01*
X421797Y225251D01*
X421777Y225368D01*
X421761Y225487D01*
X421749Y225606D01*
X421741Y225725D01*
X421737Y225844D01*
X421737Y225964D01*
X421741Y226083D01*
X421749Y226202D01*
X421761Y226321D01*
X421777Y226440D01*
X421797Y226557D01*
X421820Y226674D01*
X421848Y226791D01*
X421879Y226906D01*
X421914Y227020D01*
X421953Y227133D01*
X421995Y227245D01*
X422041Y227355D01*
X422091Y227463D01*
X422144Y227570D01*
X422201Y227675D01*
X422261Y227779D01*
X422325Y227880D01*
X422392Y227978D01*
X422462Y228075D01*
X422536Y228169D01*
X422612Y228261D01*
X422692Y228350D01*
X422774Y228437D01*
X422859Y228521D01*
X422947Y228602D01*
X423037Y228679D01*
X423130Y228754D01*
X423226Y228826D01*
X423324Y228895D01*
X423424Y228960D01*
X423526Y229022D01*
X423630Y229081D01*
X423736Y229136D01*
X423844Y229187D01*
X423953Y229235D01*
X424064Y229280D01*
X424176Y229320D01*
X424290Y229357D01*
X424405Y229390D01*
X424520Y229420D01*
X424637Y229445D01*
X424754Y229467D01*
X424873Y229484D01*
X424991Y229498D01*
X425110Y229508D01*
X425230Y229514D01*
X425349Y229516D01*
X425468Y229514D01*
X425588Y229508D01*
X425707Y229498D01*
X425825Y229484D01*
X425944Y229467D01*
X426061Y229445D01*
X426178Y229420D01*
X426293Y229390D01*
X426408Y229357D01*
X426522Y229320D01*
X426634Y229280D01*
X426745Y229235D01*
X426854Y229187D01*
X426962Y229136D01*
X427068Y229081D01*
X427172Y229022D01*
X427274Y228960D01*
X427374Y228895D01*
X427472Y228826D01*
X427568Y228754D01*
X427661Y228679D01*
X427751Y228602D01*
X427839Y228521D01*
X427924Y228437D01*
X428006Y228350D01*
X428086Y228261D01*
X428162Y228169D01*
X428236Y228075D01*
X428306Y227978D01*
X428373Y227880D01*
X428437Y227779D01*
X428497Y227675D01*
X428554Y227570D01*
X428607Y227463D01*
X428657Y227355D01*
X428703Y227245D01*
X428745Y227133D01*
X428784Y227020D01*
X428819Y226906D01*
X428850Y226791D01*
X428878Y226674D01*
X428901Y226557D01*
X428921Y226440D01*
X428937Y226321D01*
X428949Y226202D01*
X428957Y226083D01*
X428961Y225964D01*
X428961Y225844D01*
X428957Y225725D01*
X428949Y225606D01*
X428937Y225487D01*
X428921Y225368D01*
X428901Y225251D01*
X428878Y225134D01*
X428850Y225017D01*
X428819Y224902D01*
X428784Y224788D01*
X428745Y224675D01*
X428703Y224563D01*
X428657Y224453D01*
X428607Y224345D01*
X428554Y224238D01*
X428497Y224133D01*
X428437Y224029D01*
X428373Y223928D01*
X428306Y223830D01*
X428236Y223733D01*
X428162Y223639D01*
X428086Y223547D01*
X428006Y223458D01*
X427924Y223371D01*
X427839Y223287D01*
X427751Y223206D01*
X427661Y223129D01*
X427568Y223054D01*
X427472Y222982D01*
X427374Y222913D01*
X427274Y222848D01*
X427172Y222786D01*
X427068Y222727D01*
X426962Y222672D01*
X426854Y222621D01*
X426745Y222573D01*
X426634Y222528D01*
X426522Y222488D01*
X426408Y222451D01*
X426293Y222418D01*
X426178Y222388D01*
X426061Y222363D01*
X425944Y222341D01*
X425825Y222324D01*
X425707Y222310D01*
X425588Y222300D01*
X425468Y222294D01*
X425349Y222292D01*
D13*
X0Y0D02*
X400000Y0D01*
X400000Y400000D01*
X0Y400000D01*
X0Y0D01*
M02*
