G04 EAGLE Gerber RS-274X export*
G75*
%MOMM*%
%FSLAX34Y34*%
%LPD*%
%INBottom Copper*%
%IPPOS*%
%AMOC8*
5,1,8,0,0,1.08239X$1,22.5*%
G01*
%ADD10C,0.101600*%
%ADD11C,1.508000*%
%ADD12C,1.000000*%
%ADD13C,0.900000*%
%ADD14C,0.406400*%
%ADD15C,1.016000*%
%ADD16C,0.609600*%

G36*
X29880Y10162D02*
X29880Y10162D01*
X29889Y10161D01*
X30081Y10182D01*
X30272Y10201D01*
X30280Y10203D01*
X30289Y10204D01*
X30472Y10262D01*
X30657Y10319D01*
X30664Y10323D01*
X30673Y10326D01*
X30842Y10419D01*
X31011Y10511D01*
X31017Y10516D01*
X31025Y10521D01*
X31173Y10646D01*
X31320Y10768D01*
X31325Y10775D01*
X31332Y10781D01*
X31452Y10933D01*
X31572Y11082D01*
X31576Y11090D01*
X31582Y11097D01*
X31670Y11270D01*
X31758Y11439D01*
X31760Y11448D01*
X31764Y11456D01*
X31816Y11641D01*
X31869Y11826D01*
X31870Y11835D01*
X31872Y11844D01*
X31886Y12036D01*
X31902Y12228D01*
X31901Y12236D01*
X31902Y12245D01*
X31877Y12437D01*
X31855Y12627D01*
X31852Y12636D01*
X31851Y12645D01*
X31790Y12827D01*
X31730Y13010D01*
X31726Y13018D01*
X31723Y13026D01*
X31627Y13193D01*
X31532Y13361D01*
X31526Y13368D01*
X31522Y13375D01*
X31307Y13628D01*
X30728Y14208D01*
X30109Y15701D01*
X30109Y17319D01*
X30728Y18812D01*
X31607Y19692D01*
X31627Y19716D01*
X31651Y19736D01*
X31754Y19871D01*
X31862Y20003D01*
X31877Y20031D01*
X31896Y20055D01*
X32048Y20351D01*
X32252Y20845D01*
X32602Y21194D01*
X32670Y21278D01*
X32746Y21354D01*
X32797Y21433D01*
X32857Y21506D01*
X32907Y21601D01*
X32966Y21691D01*
X33001Y21778D01*
X33045Y21861D01*
X33076Y21965D01*
X33116Y22065D01*
X33133Y22157D01*
X33160Y22247D01*
X33170Y22355D01*
X33190Y22461D01*
X33188Y22554D01*
X33197Y22648D01*
X33185Y22755D01*
X33183Y22863D01*
X33161Y22973D01*
X33153Y23048D01*
X33135Y23106D01*
X33118Y23189D01*
X33092Y23283D01*
X33276Y24889D01*
X34061Y26303D01*
X35328Y27308D01*
X36883Y27752D01*
X38489Y27568D01*
X40137Y26652D01*
X40205Y26623D01*
X40269Y26585D01*
X40348Y26558D01*
X40379Y26542D01*
X40412Y26533D01*
X40507Y26493D01*
X40579Y26477D01*
X40650Y26453D01*
X40776Y26436D01*
X40901Y26409D01*
X40975Y26408D01*
X41049Y26398D01*
X41175Y26406D01*
X41303Y26405D01*
X41376Y26419D01*
X41450Y26423D01*
X41573Y26456D01*
X41699Y26480D01*
X41768Y26508D01*
X41839Y26527D01*
X41917Y26564D01*
X41934Y26569D01*
X41973Y26590D01*
X41991Y26599D01*
X42072Y26632D01*
X42100Y26650D01*
X42139Y26669D01*
X43902Y27687D01*
X47093Y27687D01*
X49729Y26512D01*
X49808Y26486D01*
X49883Y26451D01*
X49998Y26423D01*
X50111Y26386D01*
X50194Y26376D01*
X50274Y26356D01*
X50393Y26351D01*
X50511Y26337D01*
X50594Y26343D01*
X50677Y26340D01*
X50794Y26359D01*
X50912Y26368D01*
X50992Y26391D01*
X51074Y26404D01*
X51185Y26445D01*
X51300Y26478D01*
X51374Y26516D01*
X51451Y26545D01*
X51581Y26622D01*
X51658Y26661D01*
X51690Y26687D01*
X51736Y26715D01*
X53097Y27687D01*
X56907Y27687D01*
X58205Y26760D01*
X58245Y26737D01*
X58264Y26722D01*
X58315Y26696D01*
X58368Y26666D01*
X58531Y26570D01*
X58543Y26566D01*
X58554Y26559D01*
X58733Y26500D01*
X58911Y26438D01*
X58924Y26436D01*
X58936Y26432D01*
X59124Y26408D01*
X59310Y26383D01*
X59323Y26384D01*
X59335Y26382D01*
X59524Y26396D01*
X59712Y26408D01*
X59724Y26411D01*
X59737Y26412D01*
X59918Y26463D01*
X60101Y26512D01*
X60114Y26518D01*
X60124Y26521D01*
X60181Y26550D01*
X60401Y26654D01*
X62190Y27687D01*
X65381Y27687D01*
X68102Y26474D01*
X70094Y24259D01*
X70339Y23504D01*
X70380Y23410D01*
X70412Y23312D01*
X70460Y23226D01*
X70500Y23135D01*
X70559Y23051D01*
X70610Y22961D01*
X70674Y22886D01*
X70731Y22806D01*
X70806Y22734D01*
X70873Y22656D01*
X70951Y22596D01*
X71022Y22528D01*
X71110Y22473D01*
X71191Y22410D01*
X71280Y22366D01*
X71363Y22313D01*
X71459Y22276D01*
X71552Y22230D01*
X71647Y22205D01*
X71739Y22170D01*
X71841Y22153D01*
X71940Y22126D01*
X72059Y22116D01*
X72136Y22103D01*
X72194Y22105D01*
X72271Y22099D01*
X75226Y22099D01*
X75317Y22108D01*
X75408Y22107D01*
X75517Y22128D01*
X75627Y22139D01*
X75714Y22165D01*
X75803Y22182D01*
X75906Y22224D01*
X76012Y22257D01*
X76092Y22300D01*
X76176Y22334D01*
X76269Y22396D01*
X76366Y22449D01*
X76436Y22507D01*
X76512Y22557D01*
X76590Y22635D01*
X76675Y22706D01*
X76732Y22777D01*
X76797Y22842D01*
X76875Y22955D01*
X76927Y23020D01*
X76949Y23062D01*
X76985Y23114D01*
X78682Y26053D01*
X81512Y27687D01*
X87002Y27687D01*
X88312Y27144D01*
X88465Y27098D01*
X88615Y27045D01*
X88657Y27040D01*
X88697Y27028D01*
X88857Y27012D01*
X89014Y26991D01*
X89056Y26993D01*
X89098Y26989D01*
X89257Y27006D01*
X89416Y27016D01*
X89457Y27027D01*
X89499Y27031D01*
X89651Y27078D01*
X89805Y27120D01*
X89848Y27140D01*
X89883Y27151D01*
X89960Y27193D01*
X90105Y27262D01*
X90841Y27687D01*
X94033Y27687D01*
X96668Y26512D01*
X96747Y26486D01*
X96822Y26451D01*
X96938Y26423D01*
X97050Y26386D01*
X97133Y26376D01*
X97214Y26356D01*
X97332Y26351D01*
X97450Y26337D01*
X97533Y26343D01*
X97616Y26340D01*
X97733Y26359D01*
X97851Y26368D01*
X97931Y26391D01*
X98013Y26404D01*
X98125Y26445D01*
X98239Y26478D01*
X98313Y26516D01*
X98391Y26545D01*
X98520Y26622D01*
X98597Y26661D01*
X98629Y26687D01*
X98676Y26715D01*
X100036Y27687D01*
X103846Y27687D01*
X105144Y26760D01*
X105184Y26737D01*
X105203Y26722D01*
X105254Y26696D01*
X105308Y26666D01*
X105470Y26570D01*
X105482Y26566D01*
X105493Y26559D01*
X105672Y26500D01*
X105850Y26438D01*
X105863Y26436D01*
X105875Y26432D01*
X106063Y26408D01*
X106249Y26383D01*
X106262Y26384D01*
X106274Y26382D01*
X106463Y26396D01*
X106651Y26408D01*
X106663Y26411D01*
X106676Y26412D01*
X106858Y26463D01*
X107040Y26512D01*
X107053Y26518D01*
X107064Y26521D01*
X107120Y26550D01*
X107340Y26654D01*
X109129Y27687D01*
X112321Y27687D01*
X115042Y26474D01*
X115656Y25790D01*
X115709Y25742D01*
X115756Y25687D01*
X115858Y25607D01*
X115954Y25519D01*
X116015Y25482D01*
X116072Y25438D01*
X116188Y25379D01*
X116299Y25312D01*
X116367Y25288D01*
X116431Y25255D01*
X116556Y25221D01*
X116678Y25177D01*
X116749Y25167D01*
X116819Y25147D01*
X116948Y25138D01*
X117077Y25119D01*
X117148Y25123D01*
X117220Y25118D01*
X117349Y25134D01*
X117479Y25142D01*
X117548Y25160D01*
X117620Y25169D01*
X117743Y25210D01*
X117869Y25243D01*
X117933Y25274D01*
X118001Y25297D01*
X118114Y25362D01*
X118231Y25418D01*
X118288Y25462D01*
X118350Y25498D01*
X118482Y25609D01*
X118551Y25662D01*
X118572Y25686D01*
X118603Y25712D01*
X119959Y27068D01*
X121453Y27687D01*
X125102Y27687D01*
X126596Y27068D01*
X126911Y26753D01*
X126925Y26742D01*
X126936Y26728D01*
X127080Y26614D01*
X127222Y26498D01*
X127238Y26490D01*
X127252Y26478D01*
X127416Y26395D01*
X127578Y26309D01*
X127595Y26304D01*
X127611Y26296D01*
X127788Y26247D01*
X127964Y26194D01*
X127982Y26193D01*
X127999Y26188D01*
X128181Y26175D01*
X128365Y26158D01*
X128382Y26160D01*
X128400Y26159D01*
X128582Y26182D01*
X128765Y26201D01*
X128782Y26207D01*
X128800Y26209D01*
X128974Y26267D01*
X129149Y26323D01*
X129164Y26332D01*
X129181Y26337D01*
X129341Y26429D01*
X129501Y26518D01*
X129515Y26529D01*
X129530Y26538D01*
X129783Y26753D01*
X130098Y27068D01*
X131592Y27687D01*
X137273Y27687D01*
X137643Y27534D01*
X137668Y27526D01*
X137692Y27514D01*
X137861Y27468D01*
X138028Y27417D01*
X138055Y27415D01*
X138081Y27408D01*
X138255Y27396D01*
X138429Y27379D01*
X138456Y27382D01*
X138482Y27380D01*
X138656Y27403D01*
X138829Y27421D01*
X138855Y27429D01*
X138882Y27432D01*
X139198Y27534D01*
X139567Y27687D01*
X144041Y27687D01*
X145779Y26683D01*
X145862Y26646D01*
X145941Y26599D01*
X146045Y26563D01*
X146146Y26517D01*
X146235Y26497D01*
X146321Y26467D01*
X146431Y26452D01*
X146539Y26427D01*
X146630Y26425D01*
X146720Y26412D01*
X146830Y26419D01*
X146941Y26416D01*
X147031Y26432D01*
X147122Y26438D01*
X147229Y26466D01*
X147338Y26485D01*
X147423Y26518D01*
X147511Y26541D01*
X147635Y26600D01*
X147713Y26631D01*
X147754Y26656D01*
X147811Y26683D01*
X149549Y27687D01*
X154667Y27687D01*
X155997Y27136D01*
X156149Y27090D01*
X156300Y27037D01*
X156342Y27032D01*
X156382Y27019D01*
X156541Y27004D01*
X156699Y26983D01*
X156741Y26985D01*
X156783Y26981D01*
X156942Y26998D01*
X157101Y27008D01*
X157142Y27019D01*
X157184Y27023D01*
X157336Y27070D01*
X157490Y27112D01*
X157533Y27132D01*
X157568Y27143D01*
X157644Y27185D01*
X157790Y27253D01*
X158540Y27687D01*
X163659Y27687D01*
X165153Y27068D01*
X166296Y25924D01*
X166915Y24431D01*
X166915Y20390D01*
X166916Y20376D01*
X166915Y20363D01*
X166936Y20177D01*
X166955Y19989D01*
X166959Y19976D01*
X166960Y19963D01*
X167017Y19785D01*
X167073Y19604D01*
X167079Y19592D01*
X167083Y19580D01*
X167175Y19416D01*
X167265Y19250D01*
X167273Y19240D01*
X167280Y19228D01*
X167402Y19085D01*
X167522Y18941D01*
X167533Y18933D01*
X167542Y18922D01*
X167690Y18806D01*
X167836Y18689D01*
X167848Y18683D01*
X167859Y18674D01*
X168028Y18589D01*
X168193Y18503D01*
X168206Y18500D01*
X168218Y18493D01*
X168401Y18444D01*
X168580Y18392D01*
X168594Y18391D01*
X168607Y18387D01*
X168795Y18374D01*
X168982Y18359D01*
X168995Y18360D01*
X169008Y18360D01*
X169196Y18384D01*
X169381Y18406D01*
X169394Y18410D01*
X169408Y18412D01*
X169723Y18513D01*
X170843Y18977D01*
X170863Y18988D01*
X170884Y18994D01*
X171040Y19083D01*
X171198Y19167D01*
X171215Y19181D01*
X171235Y19192D01*
X171370Y19309D01*
X171508Y19424D01*
X171522Y19441D01*
X171539Y19456D01*
X171649Y19597D01*
X171762Y19736D01*
X171773Y19756D01*
X171786Y19774D01*
X171866Y19934D01*
X171949Y20093D01*
X171955Y20114D01*
X171965Y20134D01*
X172012Y20308D01*
X172062Y20479D01*
X172063Y20489D01*
X173595Y23141D01*
X176188Y24639D01*
X180549Y24639D01*
X180617Y24610D01*
X180726Y24587D01*
X180833Y24555D01*
X180923Y24546D01*
X181011Y24528D01*
X181122Y24527D01*
X181234Y24517D01*
X181323Y24526D01*
X181413Y24526D01*
X181523Y24547D01*
X181634Y24558D01*
X181720Y24585D01*
X181809Y24602D01*
X181912Y24645D01*
X182018Y24678D01*
X182098Y24722D01*
X182181Y24756D01*
X182273Y24818D01*
X182372Y24871D01*
X182441Y24930D01*
X182516Y24980D01*
X182594Y25059D01*
X182680Y25131D01*
X182736Y25201D01*
X182800Y25265D01*
X182861Y25358D01*
X182931Y25445D01*
X182972Y25526D01*
X183022Y25601D01*
X183032Y25625D01*
X183101Y25705D01*
X183152Y25777D01*
X183211Y25844D01*
X183284Y25964D01*
X183333Y26033D01*
X183352Y26075D01*
X183383Y26127D01*
X183401Y26163D01*
X183685Y26409D01*
X183739Y26467D01*
X183888Y26613D01*
X184134Y26896D01*
X184170Y26914D01*
X184245Y26961D01*
X184325Y27000D01*
X184439Y27084D01*
X184510Y27129D01*
X184544Y27161D01*
X184593Y27196D01*
X184623Y27222D01*
X184979Y27341D01*
X185051Y27374D01*
X185245Y27451D01*
X185580Y27619D01*
X185620Y27622D01*
X185708Y27637D01*
X185797Y27642D01*
X185934Y27676D01*
X186017Y27690D01*
X186060Y27707D01*
X186119Y27721D01*
X186157Y27734D01*
X186531Y27707D01*
X186610Y27709D01*
X186819Y27707D01*
X187193Y27734D01*
X187231Y27721D01*
X187318Y27702D01*
X187402Y27672D01*
X187542Y27651D01*
X187624Y27632D01*
X187670Y27631D01*
X187730Y27622D01*
X187770Y27619D01*
X188105Y27451D01*
X188180Y27423D01*
X188372Y27341D01*
X188728Y27222D01*
X188758Y27196D01*
X188830Y27145D01*
X188897Y27086D01*
X189018Y27013D01*
X189087Y26964D01*
X189129Y26945D01*
X189180Y26914D01*
X189218Y26895D01*
X189230Y26884D01*
X189245Y26863D01*
X189376Y26746D01*
X189504Y26625D01*
X189526Y26611D01*
X189545Y26594D01*
X189696Y26505D01*
X189845Y26412D01*
X189869Y26403D01*
X189892Y26389D01*
X190057Y26332D01*
X190222Y26270D01*
X190248Y26266D01*
X190272Y26257D01*
X190446Y26233D01*
X190620Y26205D01*
X190645Y26206D01*
X190671Y26202D01*
X190846Y26213D01*
X191022Y26220D01*
X191047Y26226D01*
X191073Y26228D01*
X191243Y26273D01*
X191413Y26314D01*
X191437Y26325D01*
X191462Y26331D01*
X191762Y26473D01*
X193863Y27687D01*
X197055Y27687D01*
X199364Y26658D01*
X199541Y26599D01*
X199716Y26538D01*
X199731Y26536D01*
X199746Y26531D01*
X199930Y26509D01*
X200115Y26483D01*
X200130Y26484D01*
X200145Y26482D01*
X200330Y26497D01*
X200517Y26508D01*
X200532Y26512D01*
X200547Y26513D01*
X200725Y26564D01*
X200906Y26612D01*
X200921Y26619D01*
X200934Y26623D01*
X200996Y26655D01*
X201206Y26754D01*
X202821Y27687D01*
X208312Y27687D01*
X209831Y27057D01*
X209834Y27054D01*
X209916Y27000D01*
X209992Y26937D01*
X210084Y26889D01*
X210170Y26832D01*
X210261Y26795D01*
X210348Y26749D01*
X210447Y26719D01*
X210543Y26680D01*
X210640Y26662D01*
X210734Y26634D01*
X210837Y26625D01*
X210939Y26605D01*
X211037Y26606D01*
X211135Y26597D01*
X211238Y26609D01*
X211341Y26610D01*
X211437Y26630D01*
X211535Y26641D01*
X211634Y26672D01*
X211735Y26694D01*
X211825Y26733D01*
X211919Y26762D01*
X212010Y26812D01*
X212105Y26853D01*
X212203Y26919D01*
X212271Y26957D01*
X212315Y26994D01*
X212380Y27038D01*
X212721Y27308D01*
X214276Y27752D01*
X215882Y27568D01*
X217296Y26783D01*
X218301Y25516D01*
X219969Y19681D01*
X220018Y19556D01*
X220059Y19429D01*
X220092Y19370D01*
X220117Y19307D01*
X220190Y19194D01*
X220255Y19077D01*
X220299Y19026D01*
X220336Y18969D01*
X220430Y18873D01*
X220517Y18772D01*
X220570Y18730D01*
X220618Y18681D01*
X220729Y18606D01*
X220834Y18523D01*
X220895Y18493D01*
X220951Y18455D01*
X221074Y18403D01*
X221194Y18343D01*
X221259Y18325D01*
X221322Y18298D01*
X221453Y18272D01*
X221582Y18236D01*
X221650Y18232D01*
X221716Y18218D01*
X221850Y18218D01*
X221984Y18209D01*
X222051Y18217D01*
X222119Y18217D01*
X222251Y18243D01*
X222383Y18261D01*
X222457Y18285D01*
X222514Y18296D01*
X222586Y18326D01*
X222699Y18362D01*
X224183Y18977D01*
X224203Y18988D01*
X224224Y18994D01*
X224380Y19083D01*
X224538Y19167D01*
X224555Y19181D01*
X224574Y19192D01*
X224710Y19309D01*
X224848Y19424D01*
X224862Y19441D01*
X224879Y19456D01*
X224989Y19597D01*
X225102Y19736D01*
X225112Y19756D01*
X225126Y19774D01*
X225206Y19934D01*
X225289Y20093D01*
X225295Y20114D01*
X225305Y20134D01*
X225352Y20308D01*
X225402Y20479D01*
X225403Y20489D01*
X226934Y23141D01*
X229528Y24639D01*
X231682Y24639D01*
X231704Y24641D01*
X231727Y24639D01*
X231904Y24661D01*
X232083Y24679D01*
X232104Y24685D01*
X232126Y24688D01*
X232296Y24744D01*
X232468Y24797D01*
X232487Y24807D01*
X232508Y24814D01*
X232664Y24903D01*
X232822Y24989D01*
X232839Y25003D01*
X232858Y25014D01*
X232993Y25132D01*
X233131Y25246D01*
X233145Y25264D01*
X233162Y25278D01*
X233271Y25420D01*
X233383Y25560D01*
X233394Y25580D01*
X233407Y25598D01*
X233559Y25893D01*
X233572Y25925D01*
X234715Y27068D01*
X236209Y27687D01*
X238334Y27687D01*
X238961Y27427D01*
X238986Y27419D01*
X239010Y27407D01*
X239179Y27361D01*
X239346Y27311D01*
X239373Y27308D01*
X239399Y27301D01*
X239573Y27289D01*
X239747Y27273D01*
X239774Y27275D01*
X239800Y27274D01*
X239973Y27296D01*
X240147Y27314D01*
X240173Y27322D01*
X240199Y27326D01*
X240515Y27427D01*
X241142Y27687D01*
X242759Y27687D01*
X244253Y27068D01*
X245396Y25924D01*
X245409Y25893D01*
X245420Y25873D01*
X245427Y25852D01*
X245515Y25696D01*
X245600Y25538D01*
X245614Y25521D01*
X245625Y25501D01*
X245742Y25366D01*
X245856Y25227D01*
X245873Y25213D01*
X245888Y25196D01*
X246029Y25087D01*
X246169Y24974D01*
X246189Y24963D01*
X246206Y24950D01*
X246366Y24870D01*
X246525Y24787D01*
X246547Y24780D01*
X246567Y24770D01*
X246740Y24724D01*
X246912Y24674D01*
X246934Y24672D01*
X246955Y24666D01*
X247286Y24639D01*
X249573Y24639D01*
X250954Y23841D01*
X251038Y23804D01*
X251116Y23758D01*
X251220Y23721D01*
X251321Y23676D01*
X251410Y23655D01*
X251496Y23625D01*
X251606Y23610D01*
X251714Y23585D01*
X251805Y23583D01*
X251895Y23571D01*
X252005Y23577D01*
X252116Y23574D01*
X252206Y23590D01*
X252297Y23596D01*
X252404Y23624D01*
X252513Y23643D01*
X252598Y23676D01*
X252686Y23699D01*
X252810Y23758D01*
X252888Y23789D01*
X252929Y23814D01*
X252986Y23841D01*
X254367Y24639D01*
X261257Y24639D01*
X261299Y24626D01*
X261382Y24591D01*
X261491Y24568D01*
X261598Y24536D01*
X261688Y24527D01*
X261776Y24509D01*
X261888Y24508D01*
X261999Y24498D01*
X262088Y24507D01*
X262178Y24506D01*
X262288Y24528D01*
X262399Y24539D01*
X262485Y24566D01*
X262574Y24583D01*
X262677Y24626D01*
X262784Y24659D01*
X262863Y24702D01*
X262946Y24737D01*
X263039Y24798D01*
X263137Y24852D01*
X263206Y24910D01*
X263281Y24960D01*
X263359Y25039D01*
X263445Y25111D01*
X263501Y25182D01*
X263565Y25246D01*
X263626Y25339D01*
X263696Y25426D01*
X263737Y25506D01*
X263787Y25581D01*
X263807Y25629D01*
X263872Y25705D01*
X263924Y25777D01*
X263983Y25844D01*
X264056Y25964D01*
X264105Y26033D01*
X264123Y26075D01*
X264155Y26127D01*
X264173Y26163D01*
X264456Y26409D01*
X264511Y26467D01*
X264660Y26613D01*
X264906Y26896D01*
X264942Y26914D01*
X265017Y26961D01*
X265097Y27000D01*
X265210Y27084D01*
X265282Y27129D01*
X265315Y27161D01*
X265364Y27196D01*
X265394Y27222D01*
X265750Y27341D01*
X265823Y27374D01*
X266016Y27451D01*
X266352Y27619D01*
X266392Y27622D01*
X266480Y27637D01*
X266568Y27642D01*
X266705Y27676D01*
X266789Y27690D01*
X266832Y27707D01*
X266891Y27721D01*
X266928Y27734D01*
X267303Y27707D01*
X267382Y27709D01*
X267591Y27707D01*
X267965Y27734D01*
X268003Y27721D01*
X268089Y27702D01*
X268174Y27672D01*
X268313Y27651D01*
X268396Y27632D01*
X268442Y27631D01*
X268501Y27622D01*
X268541Y27619D01*
X268877Y27451D01*
X268952Y27423D01*
X269143Y27341D01*
X269499Y27222D01*
X269529Y27196D01*
X269602Y27145D01*
X269668Y27086D01*
X269789Y27013D01*
X269858Y26964D01*
X269900Y26945D01*
X269952Y26914D01*
X269988Y26896D01*
X270234Y26613D01*
X270292Y26558D01*
X270437Y26409D01*
X270721Y26163D01*
X270739Y26127D01*
X270786Y26052D01*
X270825Y25972D01*
X270908Y25858D01*
X270953Y25787D01*
X270985Y25753D01*
X271021Y25705D01*
X271047Y25674D01*
X271166Y25319D01*
X271198Y25246D01*
X271276Y25052D01*
X271444Y24717D01*
X271447Y24677D01*
X271462Y24589D01*
X271467Y24500D01*
X271501Y24363D01*
X271515Y24280D01*
X271532Y24237D01*
X271546Y24178D01*
X271686Y23758D01*
X271721Y23680D01*
X271747Y23599D01*
X271803Y23497D01*
X271851Y23391D01*
X271900Y23321D01*
X271942Y23246D01*
X272017Y23158D01*
X272084Y23063D01*
X272147Y23004D01*
X272202Y22939D01*
X272293Y22867D01*
X272378Y22788D01*
X272451Y22743D01*
X272518Y22690D01*
X272622Y22637D01*
X272721Y22576D01*
X272801Y22546D01*
X272877Y22507D01*
X272989Y22476D01*
X273098Y22436D01*
X273182Y22422D01*
X273265Y22399D01*
X273381Y22391D01*
X273496Y22373D01*
X273581Y22376D01*
X273666Y22370D01*
X273782Y22385D01*
X273898Y22389D01*
X273981Y22410D01*
X274066Y22420D01*
X274176Y22457D01*
X274289Y22485D01*
X274366Y22521D01*
X274447Y22549D01*
X274548Y22607D01*
X274654Y22656D01*
X274722Y22707D01*
X274796Y22750D01*
X274908Y22844D01*
X274977Y22896D01*
X275006Y22928D01*
X275049Y22964D01*
X276105Y24020D01*
X277599Y24639D01*
X281937Y24639D01*
X283070Y23984D01*
X283153Y23947D01*
X283231Y23901D01*
X283336Y23864D01*
X283437Y23819D01*
X283526Y23798D01*
X283612Y23768D01*
X283722Y23753D01*
X283829Y23729D01*
X283920Y23726D01*
X284011Y23714D01*
X284121Y23721D01*
X284232Y23718D01*
X284322Y23733D01*
X284412Y23739D01*
X284520Y23767D01*
X284629Y23786D01*
X284713Y23819D01*
X284801Y23843D01*
X284926Y23901D01*
X285004Y23932D01*
X285044Y23957D01*
X285101Y23984D01*
X286235Y24639D01*
X288070Y24639D01*
X288092Y24641D01*
X288114Y24639D01*
X288292Y24661D01*
X288470Y24679D01*
X288492Y24685D01*
X288514Y24688D01*
X288684Y24744D01*
X288855Y24797D01*
X288875Y24807D01*
X288896Y24814D01*
X289052Y24903D01*
X289209Y24989D01*
X289226Y25003D01*
X289246Y25014D01*
X289381Y25132D01*
X289518Y25246D01*
X289533Y25264D01*
X289549Y25278D01*
X289658Y25420D01*
X289771Y25560D01*
X289781Y25580D01*
X289795Y25598D01*
X289946Y25893D01*
X289960Y25925D01*
X291103Y27068D01*
X292597Y27687D01*
X294728Y27687D01*
X294750Y27676D01*
X294918Y27630D01*
X295086Y27579D01*
X295112Y27577D01*
X295138Y27570D01*
X295312Y27558D01*
X295486Y27541D01*
X295513Y27544D01*
X295540Y27542D01*
X295713Y27565D01*
X295887Y27583D01*
X295912Y27591D01*
X295939Y27594D01*
X296227Y27687D01*
X300708Y27687D01*
X303537Y26053D01*
X305171Y23224D01*
X305171Y14876D01*
X304207Y13208D01*
X304147Y13074D01*
X304080Y12945D01*
X304064Y12891D01*
X304041Y12841D01*
X304009Y12698D01*
X303968Y12558D01*
X303964Y12502D01*
X303951Y12448D01*
X303947Y12302D01*
X303935Y12156D01*
X303942Y12101D01*
X303940Y12046D01*
X303965Y11902D01*
X303982Y11757D01*
X304000Y11704D01*
X304009Y11649D01*
X304062Y11513D01*
X304107Y11374D01*
X304134Y11325D01*
X304155Y11274D01*
X304233Y11151D01*
X304305Y11023D01*
X304341Y10981D01*
X304371Y10934D01*
X304473Y10829D01*
X304568Y10718D01*
X304612Y10685D01*
X304651Y10644D01*
X304771Y10561D01*
X304886Y10472D01*
X304936Y10447D01*
X304982Y10415D01*
X305116Y10357D01*
X305247Y10292D01*
X305300Y10278D01*
X305351Y10256D01*
X305494Y10226D01*
X305636Y10188D01*
X305699Y10183D01*
X305745Y10173D01*
X305829Y10172D01*
X305966Y10161D01*
X387808Y10161D01*
X387826Y10163D01*
X387844Y10161D01*
X388026Y10182D01*
X388209Y10201D01*
X388226Y10206D01*
X388243Y10208D01*
X388418Y10265D01*
X388594Y10319D01*
X388609Y10327D01*
X388626Y10333D01*
X388786Y10423D01*
X388948Y10511D01*
X388961Y10522D01*
X388977Y10531D01*
X389116Y10651D01*
X389257Y10768D01*
X389268Y10782D01*
X389282Y10794D01*
X389394Y10939D01*
X389509Y11082D01*
X389517Y11098D01*
X389528Y11112D01*
X389610Y11277D01*
X389695Y11439D01*
X389700Y11456D01*
X389708Y11472D01*
X389755Y11651D01*
X389806Y11826D01*
X389808Y11844D01*
X389812Y11861D01*
X389839Y12192D01*
X389839Y387808D01*
X389837Y387826D01*
X389839Y387844D01*
X389818Y388026D01*
X389799Y388209D01*
X389794Y388226D01*
X389792Y388243D01*
X389735Y388418D01*
X389681Y388594D01*
X389673Y388609D01*
X389667Y388626D01*
X389577Y388786D01*
X389489Y388948D01*
X389478Y388961D01*
X389469Y388977D01*
X389349Y389116D01*
X389232Y389257D01*
X389218Y389268D01*
X389206Y389282D01*
X389061Y389394D01*
X388918Y389509D01*
X388902Y389517D01*
X388888Y389528D01*
X388723Y389610D01*
X388561Y389695D01*
X388544Y389700D01*
X388528Y389708D01*
X388349Y389755D01*
X388174Y389806D01*
X388156Y389808D01*
X388139Y389812D01*
X387808Y389839D01*
X12192Y389839D01*
X12174Y389837D01*
X12156Y389839D01*
X11974Y389818D01*
X11791Y389799D01*
X11774Y389794D01*
X11757Y389792D01*
X11582Y389735D01*
X11406Y389681D01*
X11391Y389673D01*
X11374Y389667D01*
X11214Y389577D01*
X11052Y389489D01*
X11039Y389478D01*
X11023Y389469D01*
X10884Y389349D01*
X10743Y389232D01*
X10732Y389218D01*
X10718Y389206D01*
X10606Y389061D01*
X10491Y388918D01*
X10483Y388902D01*
X10472Y388888D01*
X10390Y388723D01*
X10305Y388561D01*
X10300Y388544D01*
X10292Y388528D01*
X10245Y388349D01*
X10194Y388174D01*
X10192Y388156D01*
X10188Y388139D01*
X10161Y387808D01*
X10161Y12192D01*
X10163Y12174D01*
X10161Y12156D01*
X10182Y11974D01*
X10201Y11791D01*
X10206Y11774D01*
X10208Y11757D01*
X10265Y11582D01*
X10319Y11406D01*
X10327Y11391D01*
X10333Y11374D01*
X10423Y11214D01*
X10511Y11052D01*
X10522Y11039D01*
X10531Y11023D01*
X10651Y10884D01*
X10768Y10743D01*
X10782Y10732D01*
X10794Y10718D01*
X10939Y10606D01*
X11082Y10491D01*
X11098Y10483D01*
X11112Y10472D01*
X11277Y10390D01*
X11439Y10305D01*
X11456Y10300D01*
X11472Y10292D01*
X11651Y10244D01*
X11826Y10194D01*
X11844Y10192D01*
X11861Y10188D01*
X12192Y10161D01*
X29871Y10161D01*
X29880Y10162D01*
G37*
%LPC*%
G36*
X102537Y57983D02*
X102537Y57983D01*
X99576Y59210D01*
X97310Y61476D01*
X96083Y64437D01*
X96083Y67643D01*
X97371Y70752D01*
X97378Y70773D01*
X97388Y70793D01*
X97436Y70966D01*
X97488Y71137D01*
X97490Y71159D01*
X97496Y71181D01*
X97509Y71360D01*
X97526Y71538D01*
X97523Y71560D01*
X97525Y71582D01*
X97503Y71761D01*
X97484Y71939D01*
X97477Y71960D01*
X97475Y71982D01*
X97418Y72152D01*
X97364Y72323D01*
X97354Y72342D01*
X97346Y72364D01*
X97257Y72519D01*
X97171Y72676D01*
X97157Y72693D01*
X97146Y72712D01*
X96931Y72965D01*
X47304Y122592D01*
X46453Y124646D01*
X46453Y142269D01*
X46451Y142287D01*
X46453Y142305D01*
X46431Y142487D01*
X46413Y142670D01*
X46408Y142687D01*
X46406Y142704D01*
X46349Y142879D01*
X46295Y143055D01*
X46287Y143070D01*
X46281Y143087D01*
X46191Y143247D01*
X46103Y143409D01*
X46092Y143422D01*
X46083Y143438D01*
X45963Y143577D01*
X45846Y143718D01*
X45832Y143729D01*
X45820Y143743D01*
X45675Y143855D01*
X45532Y143970D01*
X45516Y143978D01*
X45502Y143989D01*
X45337Y144071D01*
X45175Y144156D01*
X45157Y144161D01*
X45141Y144169D01*
X44963Y144216D01*
X44788Y144267D01*
X44770Y144269D01*
X44753Y144273D01*
X44422Y144300D01*
X43860Y144300D01*
X40898Y145527D01*
X38632Y147793D01*
X37406Y150754D01*
X37406Y153960D01*
X38632Y156921D01*
X40898Y159187D01*
X43860Y160414D01*
X47065Y160414D01*
X50026Y159187D01*
X52292Y156921D01*
X53617Y153723D01*
X53626Y153697D01*
X53677Y153530D01*
X53690Y153506D01*
X53698Y153481D01*
X53786Y153329D01*
X53869Y153176D01*
X53886Y153155D01*
X53899Y153132D01*
X54114Y152879D01*
X54444Y152549D01*
X54451Y152544D01*
X54456Y152537D01*
X54606Y152417D01*
X54755Y152294D01*
X54763Y152290D01*
X54770Y152284D01*
X54940Y152196D01*
X55111Y152106D01*
X55119Y152103D01*
X55127Y152099D01*
X55313Y152045D01*
X55497Y151991D01*
X55506Y151990D01*
X55514Y151987D01*
X55706Y151972D01*
X55898Y151954D01*
X55907Y151955D01*
X55916Y151955D01*
X56106Y151977D01*
X56298Y151998D01*
X56306Y152000D01*
X56315Y152001D01*
X56498Y152061D01*
X56682Y152119D01*
X56690Y152124D01*
X56698Y152126D01*
X56865Y152221D01*
X57034Y152314D01*
X57041Y152320D01*
X57049Y152324D01*
X57194Y152450D01*
X57341Y152574D01*
X57347Y152582D01*
X57354Y152587D01*
X57471Y152739D01*
X57591Y152890D01*
X57595Y152898D01*
X57600Y152905D01*
X57685Y153076D01*
X57773Y153249D01*
X57776Y153258D01*
X57780Y153266D01*
X57830Y153453D01*
X57881Y153637D01*
X57882Y153646D01*
X57884Y153655D01*
X57911Y153986D01*
X57911Y172181D01*
X57910Y172190D01*
X57911Y172199D01*
X57890Y172391D01*
X57871Y172582D01*
X57869Y172590D01*
X57868Y172599D01*
X57810Y172781D01*
X57753Y172967D01*
X57749Y172975D01*
X57746Y172983D01*
X57653Y173151D01*
X57561Y173321D01*
X57556Y173327D01*
X57551Y173335D01*
X57426Y173483D01*
X57304Y173630D01*
X57297Y173635D01*
X57291Y173642D01*
X57140Y173762D01*
X56990Y173882D01*
X56982Y173886D01*
X56975Y173892D01*
X56804Y173979D01*
X56633Y174068D01*
X56624Y174070D01*
X56616Y174074D01*
X56431Y174126D01*
X56246Y174179D01*
X56237Y174180D01*
X56228Y174182D01*
X56036Y174196D01*
X55844Y174212D01*
X55836Y174211D01*
X55827Y174212D01*
X55636Y174188D01*
X55445Y174165D01*
X55436Y174162D01*
X55427Y174161D01*
X55246Y174100D01*
X55062Y174040D01*
X55054Y174036D01*
X55046Y174033D01*
X54880Y173938D01*
X54711Y173842D01*
X54704Y173837D01*
X54697Y173832D01*
X54444Y173617D01*
X53477Y172651D01*
X52194Y171718D01*
X50780Y170998D01*
X49271Y170508D01*
X47703Y170259D01*
X41869Y170259D01*
X41869Y179872D01*
X41867Y179890D01*
X41869Y179907D01*
X41848Y180089D01*
X41829Y180272D01*
X41824Y180289D01*
X41822Y180307D01*
X41809Y180348D01*
X41836Y180442D01*
X41838Y180460D01*
X41842Y180477D01*
X41869Y180808D01*
X41869Y190421D01*
X47703Y190421D01*
X49271Y190172D01*
X50780Y189682D01*
X52194Y188962D01*
X53477Y188029D01*
X54444Y187063D01*
X54451Y187057D01*
X54456Y187050D01*
X54605Y186930D01*
X54755Y186808D01*
X54763Y186803D01*
X54770Y186798D01*
X54940Y186710D01*
X55111Y186619D01*
X55120Y186616D01*
X55127Y186612D01*
X55312Y186559D01*
X55497Y186504D01*
X55506Y186503D01*
X55514Y186501D01*
X55705Y186485D01*
X55898Y186468D01*
X55907Y186469D01*
X55916Y186468D01*
X56105Y186490D01*
X56298Y186511D01*
X56307Y186514D01*
X56315Y186515D01*
X56498Y186574D01*
X56682Y186633D01*
X56690Y186637D01*
X56698Y186640D01*
X56865Y186734D01*
X57034Y186827D01*
X57041Y186833D01*
X57049Y186838D01*
X57194Y186963D01*
X57341Y187088D01*
X57347Y187095D01*
X57354Y187101D01*
X57471Y187252D01*
X57591Y187404D01*
X57595Y187412D01*
X57600Y187419D01*
X57686Y187591D01*
X57773Y187763D01*
X57776Y187771D01*
X57780Y187779D01*
X57829Y187965D01*
X57881Y188151D01*
X57882Y188160D01*
X57884Y188168D01*
X57911Y188499D01*
X57911Y196144D01*
X57910Y196153D01*
X57911Y196162D01*
X57890Y196354D01*
X57871Y196545D01*
X57869Y196553D01*
X57868Y196562D01*
X57810Y196745D01*
X57753Y196930D01*
X57749Y196938D01*
X57746Y196946D01*
X57653Y197115D01*
X57561Y197284D01*
X57556Y197291D01*
X57551Y197299D01*
X57426Y197446D01*
X57304Y197593D01*
X57297Y197599D01*
X57291Y197606D01*
X57139Y197725D01*
X56990Y197845D01*
X56982Y197850D01*
X56975Y197855D01*
X56803Y197942D01*
X56633Y198031D01*
X56624Y198033D01*
X56616Y198037D01*
X56430Y198089D01*
X56246Y198142D01*
X56237Y198143D01*
X56228Y198145D01*
X56036Y198160D01*
X55844Y198175D01*
X55836Y198174D01*
X55827Y198175D01*
X55634Y198150D01*
X55445Y198128D01*
X55436Y198126D01*
X55427Y198124D01*
X55244Y198063D01*
X55062Y198003D01*
X55054Y197999D01*
X55046Y197996D01*
X54880Y197901D01*
X54711Y197806D01*
X54704Y197800D01*
X54697Y197795D01*
X54444Y197581D01*
X53196Y196333D01*
X49608Y194846D01*
X49117Y194643D01*
X29623Y194643D01*
X25544Y196333D01*
X22423Y199454D01*
X20733Y203533D01*
X20733Y207947D01*
X22423Y212026D01*
X25544Y215147D01*
X26335Y215475D01*
X29623Y216837D01*
X49117Y216837D01*
X52635Y215380D01*
X52648Y215376D01*
X52659Y215370D01*
X52839Y215318D01*
X53020Y215263D01*
X53033Y215262D01*
X53046Y215258D01*
X53234Y215243D01*
X53421Y215225D01*
X53434Y215227D01*
X53448Y215225D01*
X53634Y215247D01*
X53821Y215267D01*
X53834Y215271D01*
X53847Y215272D01*
X54026Y215331D01*
X54206Y215387D01*
X54217Y215393D01*
X54230Y215397D01*
X54395Y215490D01*
X54559Y215580D01*
X54569Y215589D01*
X54581Y215595D01*
X54723Y215718D01*
X54867Y215839D01*
X54875Y215850D01*
X54886Y215858D01*
X55001Y216007D01*
X55118Y216154D01*
X55124Y216166D01*
X55132Y216176D01*
X55216Y216345D01*
X55302Y216512D01*
X55306Y216525D01*
X55312Y216537D01*
X55361Y216720D01*
X55412Y216899D01*
X55413Y216913D01*
X55416Y216926D01*
X55443Y217256D01*
X55443Y217503D01*
X56670Y220464D01*
X58936Y222730D01*
X61897Y223957D01*
X65103Y223957D01*
X68437Y222576D01*
X68448Y222572D01*
X68462Y222565D01*
X68624Y222518D01*
X68783Y222467D01*
X68806Y222464D01*
X68822Y222459D01*
X68833Y222458D01*
X68849Y222453D01*
X69017Y222440D01*
X69183Y222421D01*
X69207Y222423D01*
X69223Y222421D01*
X69233Y222422D01*
X69251Y222421D01*
X69417Y222440D01*
X69584Y222454D01*
X69608Y222461D01*
X69624Y222463D01*
X69633Y222465D01*
X69650Y222467D01*
X69810Y222520D01*
X69971Y222566D01*
X69993Y222578D01*
X70008Y222582D01*
X70016Y222587D01*
X70033Y222592D01*
X70180Y222675D01*
X70328Y222752D01*
X70348Y222768D01*
X70361Y222776D01*
X70368Y222781D01*
X70384Y222790D01*
X70511Y222900D01*
X70641Y223005D01*
X70658Y223025D01*
X70669Y223035D01*
X70675Y223041D01*
X70689Y223053D01*
X70791Y223186D01*
X70899Y223315D01*
X70911Y223338D01*
X70920Y223350D01*
X70924Y223357D01*
X70935Y223371D01*
X71010Y223522D01*
X71090Y223669D01*
X71097Y223694D01*
X71104Y223708D01*
X71107Y223716D01*
X71115Y223732D01*
X71158Y223894D01*
X71207Y224055D01*
X71210Y224079D01*
X71214Y224095D01*
X71215Y224104D01*
X71219Y224121D01*
X71246Y224452D01*
X71246Y250032D01*
X72097Y252086D01*
X73669Y253658D01*
X74661Y254069D01*
X75723Y254509D01*
X99353Y254509D01*
X99366Y254510D01*
X99380Y254509D01*
X99566Y254530D01*
X99754Y254549D01*
X99766Y254553D01*
X99780Y254554D01*
X99958Y254611D01*
X100138Y254667D01*
X100150Y254673D01*
X100163Y254677D01*
X100327Y254769D01*
X100493Y254859D01*
X100503Y254867D01*
X100515Y254874D01*
X100658Y254997D01*
X100802Y255116D01*
X100810Y255127D01*
X100820Y255135D01*
X100937Y255284D01*
X101054Y255430D01*
X101060Y255442D01*
X101069Y255452D01*
X101154Y255622D01*
X101240Y255787D01*
X101243Y255800D01*
X101249Y255812D01*
X101299Y255993D01*
X101351Y256174D01*
X101352Y256188D01*
X101356Y256201D01*
X101368Y256387D01*
X101384Y256576D01*
X101382Y256589D01*
X101383Y256602D01*
X101359Y256789D01*
X101337Y256975D01*
X101333Y256988D01*
X101331Y257001D01*
X101230Y257317D01*
X101163Y257477D01*
X101163Y260683D01*
X102390Y263644D01*
X104656Y265910D01*
X107617Y267137D01*
X110823Y267137D01*
X113784Y265910D01*
X116050Y263644D01*
X117277Y260683D01*
X117277Y257477D01*
X116050Y254516D01*
X114470Y252936D01*
X114450Y252912D01*
X114426Y252891D01*
X114323Y252756D01*
X114215Y252624D01*
X114200Y252597D01*
X114181Y252572D01*
X114029Y252277D01*
X113958Y252104D01*
X106036Y244182D01*
X104622Y243596D01*
X103982Y243331D01*
X84455Y243331D01*
X84437Y243329D01*
X84419Y243331D01*
X84237Y243310D01*
X84054Y243291D01*
X84037Y243286D01*
X84020Y243284D01*
X83845Y243227D01*
X83669Y243173D01*
X83654Y243165D01*
X83637Y243159D01*
X83477Y243069D01*
X83315Y242981D01*
X83302Y242970D01*
X83286Y242961D01*
X83147Y242841D01*
X83006Y242724D01*
X82995Y242710D01*
X82981Y242698D01*
X82869Y242553D01*
X82754Y242410D01*
X82746Y242394D01*
X82735Y242380D01*
X82653Y242215D01*
X82568Y242053D01*
X82563Y242036D01*
X82555Y242020D01*
X82508Y241841D01*
X82457Y241666D01*
X82455Y241648D01*
X82451Y241631D01*
X82424Y241300D01*
X82424Y167621D01*
X82426Y167595D01*
X82424Y167568D01*
X82446Y167394D01*
X82464Y167221D01*
X82471Y167195D01*
X82475Y167169D01*
X82531Y167002D01*
X82582Y166836D01*
X82595Y166812D01*
X82603Y166787D01*
X82690Y166635D01*
X82774Y166482D01*
X82791Y166461D01*
X82804Y166438D01*
X83019Y166185D01*
X86247Y162957D01*
X86268Y162940D01*
X86285Y162919D01*
X86423Y162812D01*
X86559Y162702D01*
X86582Y162689D01*
X86603Y162673D01*
X86760Y162595D01*
X86914Y162513D01*
X86940Y162505D01*
X86964Y162493D01*
X87133Y162448D01*
X87300Y162398D01*
X87327Y162396D01*
X87353Y162389D01*
X87683Y162362D01*
X88598Y162362D01*
X91559Y161135D01*
X93825Y158869D01*
X95052Y155908D01*
X95052Y152702D01*
X93825Y149741D01*
X91559Y147475D01*
X88598Y146248D01*
X85392Y146248D01*
X82431Y147475D01*
X80165Y149741D01*
X78938Y152702D01*
X78938Y153617D01*
X78936Y153643D01*
X78938Y153670D01*
X78916Y153844D01*
X78898Y154017D01*
X78891Y154043D01*
X78887Y154069D01*
X78832Y154235D01*
X78780Y154402D01*
X78767Y154426D01*
X78759Y154451D01*
X78672Y154602D01*
X78588Y154756D01*
X78571Y154777D01*
X78558Y154800D01*
X78343Y155053D01*
X72556Y160840D01*
X72549Y160846D01*
X72544Y160853D01*
X72394Y160973D01*
X72245Y161095D01*
X72237Y161099D01*
X72230Y161105D01*
X72060Y161193D01*
X71889Y161284D01*
X71880Y161286D01*
X71873Y161290D01*
X71688Y161344D01*
X71503Y161399D01*
X71494Y161399D01*
X71486Y161402D01*
X71294Y161417D01*
X71102Y161435D01*
X71093Y161434D01*
X71084Y161435D01*
X70895Y161412D01*
X70702Y161392D01*
X70693Y161389D01*
X70685Y161388D01*
X70503Y161328D01*
X70318Y161270D01*
X70310Y161266D01*
X70302Y161263D01*
X70133Y161168D01*
X69966Y161075D01*
X69959Y161069D01*
X69951Y161065D01*
X69805Y160939D01*
X69659Y160815D01*
X69653Y160808D01*
X69646Y160802D01*
X69529Y160650D01*
X69409Y160499D01*
X69405Y160491D01*
X69400Y160484D01*
X69314Y160312D01*
X69227Y160140D01*
X69224Y160131D01*
X69220Y160123D01*
X69170Y159937D01*
X69119Y159752D01*
X69118Y159743D01*
X69116Y159734D01*
X69089Y159404D01*
X69089Y134620D01*
X69091Y134602D01*
X69089Y134584D01*
X69110Y134402D01*
X69129Y134219D01*
X69134Y134202D01*
X69136Y134185D01*
X69193Y134010D01*
X69247Y133834D01*
X69255Y133819D01*
X69261Y133802D01*
X69351Y133642D01*
X69439Y133480D01*
X69450Y133467D01*
X69459Y133451D01*
X69579Y133312D01*
X69696Y133171D01*
X69710Y133160D01*
X69722Y133146D01*
X69867Y133034D01*
X70010Y132919D01*
X70026Y132911D01*
X70040Y132900D01*
X70205Y132818D01*
X70367Y132733D01*
X70384Y132728D01*
X70400Y132720D01*
X70579Y132673D01*
X70754Y132622D01*
X70772Y132620D01*
X70789Y132616D01*
X71120Y132589D01*
X102573Y132589D01*
X102600Y132591D01*
X102627Y132589D01*
X102801Y132611D01*
X102974Y132629D01*
X103000Y132636D01*
X103026Y132640D01*
X103192Y132695D01*
X103359Y132747D01*
X103383Y132760D01*
X103408Y132768D01*
X103560Y132855D01*
X103713Y132939D01*
X103733Y132956D01*
X103757Y132969D01*
X104010Y133184D01*
X104656Y133830D01*
X107617Y135057D01*
X110823Y135057D01*
X113784Y133830D01*
X116050Y131564D01*
X117277Y128603D01*
X117277Y125397D01*
X116050Y122436D01*
X113784Y120170D01*
X110823Y118943D01*
X107617Y118943D01*
X104656Y120170D01*
X104010Y120816D01*
X103989Y120833D01*
X103972Y120854D01*
X103834Y120961D01*
X103698Y121071D01*
X103675Y121084D01*
X103653Y121100D01*
X103497Y121178D01*
X103343Y121260D01*
X103317Y121268D01*
X103293Y121280D01*
X103124Y121325D01*
X102957Y121375D01*
X102930Y121377D01*
X102904Y121384D01*
X102573Y121411D01*
X69196Y121411D01*
X69187Y121410D01*
X69178Y121411D01*
X68985Y121390D01*
X68796Y121371D01*
X68787Y121369D01*
X68778Y121368D01*
X68594Y121309D01*
X68411Y121253D01*
X68403Y121249D01*
X68394Y121246D01*
X68226Y121153D01*
X68057Y121061D01*
X68050Y121056D01*
X68042Y121051D01*
X67895Y120927D01*
X67747Y120804D01*
X67742Y120797D01*
X67735Y120791D01*
X67615Y120639D01*
X67495Y120490D01*
X67491Y120482D01*
X67485Y120475D01*
X67398Y120302D01*
X67310Y120133D01*
X67307Y120124D01*
X67303Y120116D01*
X67251Y119930D01*
X67198Y119746D01*
X67197Y119737D01*
X67195Y119728D01*
X67181Y119535D01*
X67165Y119344D01*
X67166Y119336D01*
X67166Y119327D01*
X67190Y119134D01*
X67212Y118945D01*
X67215Y118936D01*
X67216Y118927D01*
X67277Y118745D01*
X67337Y118562D01*
X67342Y118554D01*
X67344Y118546D01*
X67440Y118379D01*
X67535Y118211D01*
X67541Y118204D01*
X67545Y118197D01*
X67760Y117944D01*
X108878Y76826D01*
X109729Y74772D01*
X109729Y72687D01*
X109731Y72660D01*
X109729Y72633D01*
X109751Y72459D01*
X109769Y72286D01*
X109776Y72260D01*
X109780Y72234D01*
X109835Y72068D01*
X109887Y71901D01*
X109900Y71877D01*
X109908Y71852D01*
X109995Y71700D01*
X110079Y71547D01*
X110096Y71527D01*
X110109Y71503D01*
X110324Y71250D01*
X110970Y70604D01*
X112197Y67643D01*
X112197Y64437D01*
X110970Y61476D01*
X108704Y59210D01*
X105743Y57983D01*
X102537Y57983D01*
G37*
%LPD*%
%LPC*%
G36*
X163497Y139263D02*
X163497Y139263D01*
X160536Y140490D01*
X158270Y142756D01*
X157043Y145717D01*
X157043Y148923D01*
X158341Y152055D01*
X158350Y152085D01*
X158364Y152113D01*
X158408Y152277D01*
X158457Y152440D01*
X158460Y152471D01*
X158468Y152501D01*
X158495Y152832D01*
X158495Y237744D01*
X158493Y237762D01*
X158495Y237780D01*
X158474Y237962D01*
X158455Y238145D01*
X158450Y238162D01*
X158448Y238179D01*
X158391Y238354D01*
X158337Y238530D01*
X158329Y238545D01*
X158323Y238562D01*
X158233Y238722D01*
X158145Y238884D01*
X158134Y238897D01*
X158125Y238913D01*
X158005Y239052D01*
X157888Y239193D01*
X157874Y239204D01*
X157862Y239218D01*
X157717Y239330D01*
X157574Y239445D01*
X157558Y239453D01*
X157544Y239464D01*
X157379Y239546D01*
X157217Y239631D01*
X157200Y239636D01*
X157184Y239644D01*
X157005Y239691D01*
X156830Y239742D01*
X156812Y239744D01*
X156795Y239748D01*
X156464Y239775D01*
X145212Y239775D01*
X145181Y239772D01*
X145150Y239774D01*
X144980Y239752D01*
X144811Y239735D01*
X144782Y239726D01*
X144751Y239722D01*
X144435Y239621D01*
X141303Y238323D01*
X138097Y238323D01*
X135136Y239550D01*
X132870Y241816D01*
X131643Y244777D01*
X131643Y247983D01*
X132870Y250944D01*
X135136Y253210D01*
X138097Y254437D01*
X141303Y254437D01*
X144435Y253139D01*
X144465Y253130D01*
X144493Y253116D01*
X144657Y253072D01*
X144820Y253023D01*
X144851Y253020D01*
X144881Y253012D01*
X145212Y252985D01*
X209783Y252985D01*
X209809Y252987D01*
X209836Y252985D01*
X210010Y253007D01*
X210183Y253025D01*
X210209Y253032D01*
X210236Y253036D01*
X210401Y253091D01*
X210568Y253143D01*
X210592Y253156D01*
X210617Y253164D01*
X210769Y253251D01*
X210922Y253335D01*
X210943Y253352D01*
X210966Y253365D01*
X211219Y253580D01*
X217492Y259853D01*
X217512Y259877D01*
X217535Y259897D01*
X217639Y260032D01*
X217747Y260164D01*
X217762Y260192D01*
X217781Y260216D01*
X217932Y260512D01*
X219230Y263644D01*
X221496Y265910D01*
X224457Y267137D01*
X227663Y267137D01*
X230624Y265910D01*
X232890Y263644D01*
X234117Y260683D01*
X234117Y257477D01*
X232890Y254516D01*
X230624Y252250D01*
X227492Y250952D01*
X227464Y250938D01*
X227434Y250928D01*
X227287Y250843D01*
X227137Y250762D01*
X227113Y250742D01*
X227086Y250727D01*
X226833Y250512D01*
X219245Y242924D01*
X217101Y240781D01*
X214674Y239775D01*
X173736Y239775D01*
X173718Y239773D01*
X173700Y239775D01*
X173518Y239754D01*
X173335Y239735D01*
X173318Y239730D01*
X173301Y239728D01*
X173126Y239671D01*
X172950Y239617D01*
X172935Y239609D01*
X172918Y239603D01*
X172758Y239513D01*
X172596Y239425D01*
X172583Y239414D01*
X172567Y239405D01*
X172428Y239285D01*
X172287Y239168D01*
X172276Y239154D01*
X172262Y239142D01*
X172150Y238997D01*
X172035Y238854D01*
X172027Y238838D01*
X172016Y238824D01*
X171934Y238659D01*
X171849Y238497D01*
X171844Y238480D01*
X171836Y238464D01*
X171789Y238285D01*
X171738Y238110D01*
X171736Y238092D01*
X171732Y238075D01*
X171705Y237744D01*
X171705Y186848D01*
X171705Y186845D01*
X171705Y186844D01*
X171705Y186843D01*
X171705Y186839D01*
X171725Y186643D01*
X171745Y186448D01*
X171746Y186444D01*
X171746Y186439D01*
X171806Y186248D01*
X171863Y186063D01*
X171865Y186059D01*
X171866Y186055D01*
X171962Y185879D01*
X172055Y185709D01*
X172057Y185705D01*
X172060Y185701D01*
X172188Y185548D01*
X172312Y185400D01*
X172316Y185397D01*
X172319Y185393D01*
X172473Y185270D01*
X172626Y185147D01*
X172630Y185145D01*
X172634Y185142D01*
X172811Y185052D01*
X172983Y184962D01*
X172988Y184961D01*
X172992Y184958D01*
X173182Y184904D01*
X173370Y184850D01*
X173375Y184850D01*
X173379Y184849D01*
X173573Y184834D01*
X173772Y184818D01*
X173776Y184818D01*
X173781Y184818D01*
X173977Y184842D01*
X174171Y184864D01*
X174176Y184866D01*
X174180Y184866D01*
X174368Y184929D01*
X174554Y184989D01*
X174558Y184992D01*
X174562Y184993D01*
X174733Y185090D01*
X174905Y185187D01*
X174908Y185190D01*
X174912Y185192D01*
X175061Y185322D01*
X175209Y185450D01*
X175212Y185454D01*
X175216Y185457D01*
X175337Y185614D01*
X175456Y185768D01*
X175458Y185772D01*
X175461Y185776D01*
X175597Y186041D01*
X179236Y189680D01*
X179253Y189701D01*
X179274Y189718D01*
X179381Y189856D01*
X179491Y189992D01*
X179504Y190015D01*
X179520Y190036D01*
X179598Y190193D01*
X179680Y190347D01*
X179688Y190373D01*
X179700Y190397D01*
X179745Y190566D01*
X179795Y190733D01*
X179797Y190760D01*
X179804Y190786D01*
X179831Y191116D01*
X179831Y216873D01*
X179829Y216900D01*
X179831Y216927D01*
X179809Y217101D01*
X179791Y217274D01*
X179784Y217300D01*
X179780Y217326D01*
X179725Y217492D01*
X179673Y217659D01*
X179660Y217683D01*
X179652Y217708D01*
X179565Y217860D01*
X179481Y218013D01*
X179464Y218033D01*
X179451Y218057D01*
X179236Y218310D01*
X178590Y218956D01*
X177363Y221917D01*
X177363Y225123D01*
X178590Y228084D01*
X180856Y230350D01*
X183817Y231577D01*
X187023Y231577D01*
X189984Y230350D01*
X192250Y228084D01*
X193477Y225123D01*
X193477Y221917D01*
X192250Y218956D01*
X191604Y218310D01*
X191587Y218289D01*
X191566Y218272D01*
X191459Y218134D01*
X191349Y217998D01*
X191336Y217975D01*
X191320Y217953D01*
X191242Y217797D01*
X191160Y217643D01*
X191152Y217617D01*
X191140Y217593D01*
X191095Y217424D01*
X191045Y217257D01*
X191043Y217230D01*
X191036Y217204D01*
X191009Y216873D01*
X191009Y186848D01*
X190158Y184794D01*
X186524Y181160D01*
X186507Y181139D01*
X186486Y181122D01*
X186379Y180984D01*
X186269Y180848D01*
X186256Y180825D01*
X186240Y180804D01*
X186162Y180647D01*
X186080Y180493D01*
X186072Y180467D01*
X186060Y180443D01*
X186015Y180274D01*
X185965Y180107D01*
X185963Y180080D01*
X185956Y180054D01*
X185929Y179724D01*
X185929Y173695D01*
X185931Y173668D01*
X185929Y173641D01*
X185951Y173467D01*
X185969Y173294D01*
X185976Y173268D01*
X185980Y173242D01*
X186035Y173076D01*
X186087Y172909D01*
X186100Y172885D01*
X186108Y172860D01*
X186195Y172708D01*
X186279Y172555D01*
X186296Y172535D01*
X186309Y172511D01*
X186524Y172258D01*
X187170Y171612D01*
X188397Y168651D01*
X188397Y165445D01*
X187170Y162484D01*
X184904Y160218D01*
X181943Y158991D01*
X178737Y158991D01*
X175776Y160218D01*
X175172Y160822D01*
X175165Y160827D01*
X175160Y160834D01*
X175011Y160954D01*
X174861Y161077D01*
X174853Y161081D01*
X174846Y161087D01*
X174677Y161174D01*
X174505Y161265D01*
X174496Y161268D01*
X174489Y161272D01*
X174305Y161325D01*
X174119Y161380D01*
X174110Y161381D01*
X174102Y161384D01*
X173911Y161399D01*
X173718Y161417D01*
X173709Y161416D01*
X173700Y161416D01*
X173511Y161394D01*
X173318Y161373D01*
X173309Y161371D01*
X173301Y161370D01*
X173118Y161310D01*
X172934Y161252D01*
X172926Y161247D01*
X172918Y161245D01*
X172749Y161150D01*
X172582Y161057D01*
X172575Y161051D01*
X172567Y161047D01*
X172421Y160920D01*
X172275Y160796D01*
X172269Y160789D01*
X172262Y160784D01*
X172144Y160631D01*
X172025Y160481D01*
X172021Y160473D01*
X172016Y160466D01*
X171929Y160292D01*
X171843Y160122D01*
X171840Y160113D01*
X171836Y160105D01*
X171786Y159918D01*
X171735Y159734D01*
X171734Y159725D01*
X171732Y159716D01*
X171705Y159385D01*
X171705Y152832D01*
X171708Y152801D01*
X171706Y152770D01*
X171728Y152600D01*
X171745Y152431D01*
X171754Y152402D01*
X171758Y152371D01*
X171859Y152055D01*
X173157Y148923D01*
X173157Y145717D01*
X171930Y142756D01*
X169664Y140490D01*
X166703Y139263D01*
X163497Y139263D01*
G37*
%LPD*%
%LPC*%
G36*
X214297Y271343D02*
X214297Y271343D01*
X211336Y272570D01*
X209070Y274836D01*
X207843Y277797D01*
X207843Y281003D01*
X207910Y281163D01*
X207914Y281176D01*
X207920Y281187D01*
X207971Y281367D01*
X208026Y281548D01*
X208027Y281561D01*
X208031Y281574D01*
X208046Y281762D01*
X208064Y281949D01*
X208063Y281962D01*
X208064Y281976D01*
X208042Y282163D01*
X208023Y282349D01*
X208019Y282362D01*
X208017Y282375D01*
X207959Y282554D01*
X207903Y282734D01*
X207896Y282745D01*
X207892Y282758D01*
X207800Y282922D01*
X207710Y283087D01*
X207701Y283097D01*
X207694Y283109D01*
X207572Y283251D01*
X207450Y283395D01*
X207440Y283403D01*
X207431Y283414D01*
X207283Y283528D01*
X207136Y283646D01*
X207124Y283652D01*
X207113Y283660D01*
X206945Y283744D01*
X206777Y283830D01*
X206765Y283834D01*
X206752Y283840D01*
X206571Y283889D01*
X206390Y283940D01*
X206377Y283941D01*
X206364Y283944D01*
X206033Y283971D01*
X166528Y283971D01*
X164474Y284822D01*
X160362Y288934D01*
X159511Y290988D01*
X159511Y308313D01*
X159509Y308340D01*
X159511Y308367D01*
X159489Y308541D01*
X159471Y308714D01*
X159464Y308740D01*
X159460Y308766D01*
X159405Y308932D01*
X159353Y309099D01*
X159340Y309123D01*
X159332Y309148D01*
X159245Y309300D01*
X159161Y309453D01*
X159144Y309473D01*
X159131Y309497D01*
X158916Y309750D01*
X158270Y310396D01*
X157043Y313357D01*
X157043Y315032D01*
X157041Y315050D01*
X157043Y315068D01*
X157022Y315250D01*
X157003Y315433D01*
X156998Y315450D01*
X156996Y315467D01*
X156939Y315642D01*
X156885Y315818D01*
X156877Y315833D01*
X156871Y315850D01*
X156781Y316010D01*
X156693Y316172D01*
X156682Y316185D01*
X156673Y316201D01*
X156553Y316340D01*
X156436Y316481D01*
X156422Y316492D01*
X156410Y316506D01*
X156265Y316618D01*
X156122Y316733D01*
X156106Y316741D01*
X156092Y316752D01*
X155927Y316834D01*
X155765Y316919D01*
X155748Y316924D01*
X155732Y316932D01*
X155553Y316979D01*
X155378Y317030D01*
X155360Y317032D01*
X155343Y317036D01*
X155012Y317063D01*
X154607Y317063D01*
X151646Y318290D01*
X149380Y320556D01*
X148153Y323517D01*
X148153Y326723D01*
X149441Y329832D01*
X149448Y329853D01*
X149458Y329873D01*
X149506Y330046D01*
X149558Y330217D01*
X149560Y330239D01*
X149566Y330261D01*
X149579Y330440D01*
X149596Y330618D01*
X149593Y330640D01*
X149595Y330662D01*
X149573Y330841D01*
X149554Y331019D01*
X149547Y331040D01*
X149545Y331062D01*
X149488Y331232D01*
X149434Y331403D01*
X149424Y331422D01*
X149416Y331444D01*
X149327Y331599D01*
X149241Y331756D01*
X149227Y331773D01*
X149216Y331792D01*
X149001Y332045D01*
X136820Y344226D01*
X134962Y346084D01*
X134111Y348138D01*
X134111Y355303D01*
X134109Y355330D01*
X134111Y355357D01*
X134089Y355531D01*
X134071Y355704D01*
X134064Y355730D01*
X134060Y355756D01*
X134005Y355922D01*
X133953Y356089D01*
X133940Y356113D01*
X133932Y356138D01*
X133845Y356290D01*
X133761Y356443D01*
X133744Y356463D01*
X133731Y356487D01*
X133516Y356740D01*
X132870Y357386D01*
X131643Y360347D01*
X131643Y363553D01*
X132870Y366514D01*
X135136Y368780D01*
X138097Y370007D01*
X141303Y370007D01*
X144264Y368780D01*
X145249Y367795D01*
X145263Y367784D01*
X145274Y367770D01*
X145418Y367657D01*
X145560Y367540D01*
X145576Y367532D01*
X145590Y367521D01*
X145754Y367438D01*
X145916Y367352D01*
X145933Y367346D01*
X145949Y367338D01*
X146126Y367289D01*
X146302Y367237D01*
X146320Y367235D01*
X146337Y367230D01*
X146520Y367217D01*
X146703Y367200D01*
X146721Y367202D01*
X146738Y367201D01*
X146920Y367224D01*
X147103Y367244D01*
X147120Y367249D01*
X147138Y367251D01*
X147312Y367310D01*
X147487Y367365D01*
X147503Y367374D01*
X147519Y367380D01*
X147678Y367471D01*
X147839Y367560D01*
X147853Y367572D01*
X147868Y367581D01*
X148121Y367795D01*
X149106Y368780D01*
X152067Y370007D01*
X155273Y370007D01*
X158234Y368780D01*
X160500Y366514D01*
X161727Y363553D01*
X161727Y361368D01*
X161729Y361342D01*
X161727Y361315D01*
X161749Y361141D01*
X161767Y360968D01*
X161774Y360942D01*
X161778Y360916D01*
X161833Y360750D01*
X161885Y360583D01*
X161898Y360559D01*
X161906Y360534D01*
X161993Y360382D01*
X162077Y360229D01*
X162094Y360208D01*
X162107Y360185D01*
X162322Y359932D01*
X180633Y341621D01*
X181484Y339567D01*
X181484Y313352D01*
X181486Y313325D01*
X181484Y313298D01*
X181506Y313124D01*
X181524Y312951D01*
X181531Y312925D01*
X181535Y312899D01*
X181590Y312733D01*
X181642Y312566D01*
X181655Y312542D01*
X181663Y312517D01*
X181750Y312365D01*
X181834Y312212D01*
X181851Y312192D01*
X181864Y312168D01*
X182079Y311915D01*
X182725Y311269D01*
X183952Y308308D01*
X183952Y305102D01*
X182725Y302141D01*
X180459Y299875D01*
X178483Y299057D01*
X178479Y299055D01*
X178475Y299053D01*
X178302Y298960D01*
X178128Y298866D01*
X178125Y298864D01*
X178121Y298861D01*
X177972Y298737D01*
X177818Y298610D01*
X177815Y298607D01*
X177812Y298604D01*
X177689Y298451D01*
X177564Y298297D01*
X177562Y298293D01*
X177560Y298290D01*
X177470Y298117D01*
X177377Y297941D01*
X177376Y297937D01*
X177374Y297933D01*
X177320Y297744D01*
X177264Y297554D01*
X177264Y297550D01*
X177263Y297546D01*
X177246Y297348D01*
X177230Y297153D01*
X177230Y297149D01*
X177230Y297144D01*
X177253Y296950D01*
X177275Y296753D01*
X177276Y296749D01*
X177277Y296745D01*
X177337Y296559D01*
X177398Y296370D01*
X177400Y296366D01*
X177401Y296362D01*
X177499Y296189D01*
X177594Y296018D01*
X177597Y296015D01*
X177599Y296011D01*
X177728Y295862D01*
X177856Y295713D01*
X177860Y295710D01*
X177863Y295706D01*
X178017Y295586D01*
X178173Y295464D01*
X178177Y295462D01*
X178181Y295460D01*
X178359Y295371D01*
X178533Y295284D01*
X178537Y295282D01*
X178541Y295280D01*
X178733Y295229D01*
X178921Y295177D01*
X178926Y295177D01*
X178930Y295176D01*
X179261Y295149D01*
X206394Y295149D01*
X206403Y295150D01*
X206412Y295149D01*
X206605Y295170D01*
X206794Y295189D01*
X206803Y295191D01*
X206812Y295192D01*
X206996Y295251D01*
X207179Y295307D01*
X207187Y295311D01*
X207196Y295314D01*
X207364Y295407D01*
X207533Y295499D01*
X207540Y295504D01*
X207548Y295509D01*
X207695Y295633D01*
X207843Y295756D01*
X207848Y295763D01*
X207855Y295769D01*
X207975Y295921D01*
X208095Y296070D01*
X208099Y296078D01*
X208105Y296085D01*
X208192Y296258D01*
X208280Y296427D01*
X208283Y296436D01*
X208287Y296444D01*
X208339Y296630D01*
X208392Y296814D01*
X208393Y296823D01*
X208395Y296832D01*
X208409Y297025D01*
X208425Y297216D01*
X208424Y297224D01*
X208424Y297233D01*
X208400Y297426D01*
X208378Y297615D01*
X208375Y297624D01*
X208374Y297633D01*
X208313Y297815D01*
X208253Y297998D01*
X208248Y298006D01*
X208246Y298014D01*
X208151Y298179D01*
X208055Y298349D01*
X208049Y298356D01*
X208045Y298363D01*
X207830Y298616D01*
X195240Y311206D01*
X195240Y311207D01*
X193382Y313064D01*
X192531Y315118D01*
X192531Y318473D01*
X192529Y318500D01*
X192531Y318527D01*
X192509Y318701D01*
X192491Y318874D01*
X192484Y318900D01*
X192480Y318926D01*
X192425Y319092D01*
X192373Y319259D01*
X192360Y319283D01*
X192352Y319308D01*
X192265Y319460D01*
X192181Y319613D01*
X192164Y319633D01*
X192151Y319657D01*
X191936Y319910D01*
X191290Y320556D01*
X190063Y323517D01*
X190063Y326723D01*
X191290Y329684D01*
X193556Y331950D01*
X196517Y333177D01*
X199723Y333177D01*
X202684Y331950D01*
X204950Y329684D01*
X206177Y326723D01*
X206177Y323517D01*
X204950Y320556D01*
X204760Y320366D01*
X204749Y320352D01*
X204735Y320341D01*
X204621Y320197D01*
X204505Y320055D01*
X204497Y320039D01*
X204486Y320025D01*
X204402Y319860D01*
X204316Y319699D01*
X204311Y319682D01*
X204303Y319666D01*
X204254Y319488D01*
X204202Y319313D01*
X204200Y319295D01*
X204195Y319278D01*
X204182Y319095D01*
X204165Y318912D01*
X204167Y318894D01*
X204166Y318877D01*
X204189Y318695D01*
X204209Y318512D01*
X204214Y318495D01*
X204216Y318477D01*
X204275Y318303D01*
X204330Y318128D01*
X204339Y318112D01*
X204344Y318095D01*
X204436Y317936D01*
X204525Y317776D01*
X204536Y317762D01*
X204545Y317747D01*
X204760Y317494D01*
X221320Y300934D01*
X221320Y300933D01*
X223178Y299076D01*
X224029Y297022D01*
X224029Y280754D01*
X223995Y280642D01*
X223992Y280611D01*
X223984Y280581D01*
X223957Y280250D01*
X223957Y277797D01*
X222730Y274836D01*
X220464Y272570D01*
X217503Y271343D01*
X214297Y271343D01*
G37*
%LPD*%
%LPC*%
G36*
X176082Y92963D02*
X176082Y92963D01*
X172908Y94278D01*
X170478Y96708D01*
X169163Y99882D01*
X169163Y118558D01*
X170478Y121732D01*
X251648Y202902D01*
X254822Y204217D01*
X258258Y204217D01*
X261432Y202902D01*
X263862Y200472D01*
X265177Y197298D01*
X265177Y193862D01*
X263862Y190688D01*
X187032Y113857D01*
X187015Y113837D01*
X186994Y113819D01*
X186887Y113681D01*
X186777Y113546D01*
X186764Y113522D01*
X186748Y113501D01*
X186670Y113344D01*
X186588Y113190D01*
X186580Y113165D01*
X186568Y113141D01*
X186523Y112971D01*
X186473Y112804D01*
X186471Y112778D01*
X186464Y112752D01*
X186437Y112421D01*
X186437Y99882D01*
X185122Y96708D01*
X182692Y94278D01*
X179518Y92963D01*
X176082Y92963D01*
G37*
%LPD*%
%LPC*%
G36*
X102537Y37663D02*
X102537Y37663D01*
X99576Y38890D01*
X97310Y41156D01*
X96083Y44117D01*
X96083Y47323D01*
X97310Y50284D01*
X99576Y52550D01*
X102537Y53777D01*
X105743Y53777D01*
X108852Y52489D01*
X108873Y52482D01*
X108893Y52472D01*
X109066Y52424D01*
X109237Y52372D01*
X109259Y52370D01*
X109281Y52364D01*
X109460Y52351D01*
X109638Y52334D01*
X109660Y52337D01*
X109682Y52335D01*
X109861Y52357D01*
X110039Y52376D01*
X110060Y52383D01*
X110082Y52385D01*
X110252Y52442D01*
X110423Y52496D01*
X110442Y52506D01*
X110464Y52514D01*
X110619Y52603D01*
X110776Y52689D01*
X110793Y52703D01*
X110812Y52714D01*
X111065Y52929D01*
X123356Y65220D01*
X123373Y65241D01*
X123394Y65258D01*
X123501Y65396D01*
X123611Y65532D01*
X123624Y65555D01*
X123640Y65576D01*
X123718Y65733D01*
X123800Y65887D01*
X123808Y65913D01*
X123820Y65937D01*
X123865Y66106D01*
X123915Y66273D01*
X123917Y66300D01*
X123924Y66326D01*
X123951Y66656D01*
X123951Y101442D01*
X124802Y103496D01*
X125968Y104662D01*
X125985Y104683D01*
X126006Y104700D01*
X126113Y104838D01*
X126223Y104974D01*
X126236Y104997D01*
X126252Y105018D01*
X126330Y105175D01*
X126412Y105329D01*
X126420Y105355D01*
X126432Y105379D01*
X126477Y105548D01*
X126527Y105715D01*
X126529Y105742D01*
X126536Y105768D01*
X126563Y106098D01*
X126563Y107013D01*
X127790Y109974D01*
X130056Y112240D01*
X133017Y113467D01*
X136223Y113467D01*
X139184Y112240D01*
X141450Y109974D01*
X142677Y107013D01*
X142677Y103807D01*
X141450Y100846D01*
X139184Y98580D01*
X136383Y97420D01*
X136363Y97409D01*
X136342Y97402D01*
X136185Y97314D01*
X136028Y97229D01*
X136011Y97215D01*
X135991Y97204D01*
X135856Y97087D01*
X135717Y96973D01*
X135703Y96956D01*
X135686Y96941D01*
X135577Y96800D01*
X135464Y96660D01*
X135453Y96641D01*
X135440Y96623D01*
X135360Y96462D01*
X135277Y96304D01*
X135270Y96283D01*
X135260Y96262D01*
X135214Y96089D01*
X135164Y95917D01*
X135162Y95895D01*
X135156Y95874D01*
X135129Y95543D01*
X135129Y62388D01*
X134278Y60334D01*
X114926Y40982D01*
X112872Y40131D01*
X110787Y40131D01*
X110760Y40129D01*
X110733Y40131D01*
X110559Y40109D01*
X110386Y40091D01*
X110360Y40084D01*
X110334Y40080D01*
X110168Y40025D01*
X110001Y39973D01*
X109977Y39960D01*
X109952Y39952D01*
X109800Y39865D01*
X109647Y39781D01*
X109627Y39764D01*
X109603Y39751D01*
X109350Y39536D01*
X108704Y38890D01*
X105743Y37663D01*
X102537Y37663D01*
G37*
%LPD*%
%LPC*%
G36*
X69517Y300553D02*
X69517Y300553D01*
X66556Y301780D01*
X64290Y304046D01*
X63063Y307007D01*
X63063Y310213D01*
X64290Y313174D01*
X64936Y313820D01*
X64953Y313841D01*
X64974Y313858D01*
X65081Y313996D01*
X65191Y314132D01*
X65204Y314155D01*
X65220Y314177D01*
X65298Y314333D01*
X65380Y314487D01*
X65388Y314513D01*
X65400Y314537D01*
X65445Y314706D01*
X65495Y314873D01*
X65497Y314900D01*
X65504Y314926D01*
X65531Y315257D01*
X65531Y327044D01*
X65530Y327058D01*
X65531Y327071D01*
X65530Y327083D01*
X65531Y327097D01*
X65509Y327271D01*
X65491Y327444D01*
X65485Y327466D01*
X65484Y327471D01*
X65483Y327475D01*
X65480Y327496D01*
X65425Y327662D01*
X65373Y327829D01*
X65360Y327853D01*
X65352Y327878D01*
X65265Y328030D01*
X65181Y328183D01*
X65164Y328204D01*
X65151Y328227D01*
X64936Y328480D01*
X49872Y343544D01*
X49021Y345598D01*
X49021Y352763D01*
X49019Y352790D01*
X49021Y352817D01*
X48999Y352991D01*
X48981Y353164D01*
X48974Y353190D01*
X48970Y353216D01*
X48915Y353382D01*
X48863Y353549D01*
X48850Y353573D01*
X48842Y353598D01*
X48755Y353750D01*
X48671Y353903D01*
X48654Y353923D01*
X48641Y353947D01*
X48426Y354200D01*
X47780Y354846D01*
X46553Y357807D01*
X46553Y361013D01*
X47780Y363974D01*
X50046Y366240D01*
X53007Y367467D01*
X56213Y367467D01*
X59174Y366240D01*
X61440Y363974D01*
X62667Y361013D01*
X62667Y357807D01*
X61440Y354846D01*
X60794Y354200D01*
X60777Y354179D01*
X60756Y354162D01*
X60649Y354024D01*
X60539Y353888D01*
X60526Y353865D01*
X60510Y353843D01*
X60432Y353687D01*
X60350Y353533D01*
X60342Y353507D01*
X60330Y353483D01*
X60285Y353314D01*
X60235Y353147D01*
X60233Y353120D01*
X60226Y353094D01*
X60199Y352763D01*
X60199Y349866D01*
X60201Y349840D01*
X60199Y349813D01*
X60221Y349639D01*
X60239Y349466D01*
X60246Y349440D01*
X60250Y349414D01*
X60306Y349248D01*
X60357Y349081D01*
X60370Y349057D01*
X60378Y349032D01*
X60465Y348880D01*
X60549Y348727D01*
X60566Y348706D01*
X60579Y348683D01*
X60794Y348430D01*
X75858Y333366D01*
X76709Y331312D01*
X76709Y315257D01*
X76711Y315230D01*
X76709Y315203D01*
X76731Y315029D01*
X76749Y314856D01*
X76756Y314830D01*
X76760Y314804D01*
X76815Y314638D01*
X76867Y314471D01*
X76880Y314447D01*
X76888Y314422D01*
X76975Y314270D01*
X77059Y314117D01*
X77076Y314097D01*
X77089Y314073D01*
X77304Y313820D01*
X77950Y313174D01*
X79177Y310213D01*
X79177Y307007D01*
X77950Y304046D01*
X75684Y301780D01*
X72723Y300553D01*
X69517Y300553D01*
G37*
%LPD*%
%LPC*%
G36*
X315253Y349583D02*
X315253Y349583D01*
X311174Y351273D01*
X308053Y354394D01*
X306363Y358473D01*
X306363Y362887D01*
X308053Y366966D01*
X311174Y370087D01*
X315253Y371777D01*
X334747Y371777D01*
X338826Y370087D01*
X341947Y366966D01*
X343637Y362887D01*
X343637Y358473D01*
X341947Y354394D01*
X338826Y351273D01*
X334747Y349583D01*
X315253Y349583D01*
G37*
%LPD*%
%LPC*%
G36*
X227663Y48673D02*
X227663Y48673D01*
X223584Y50363D01*
X220463Y53484D01*
X218773Y57563D01*
X218773Y77057D01*
X220463Y81136D01*
X223584Y84257D01*
X227663Y85947D01*
X232077Y85947D01*
X236156Y84257D01*
X239277Y81136D01*
X240967Y77057D01*
X240967Y57563D01*
X239277Y53484D01*
X236156Y50363D01*
X232077Y48673D01*
X227663Y48673D01*
G37*
%LPD*%
%LPC*%
G36*
X315253Y24463D02*
X315253Y24463D01*
X311174Y26153D01*
X308053Y29274D01*
X306363Y33353D01*
X306363Y37767D01*
X308053Y41846D01*
X311174Y44967D01*
X315253Y46657D01*
X334747Y46657D01*
X338826Y44967D01*
X341947Y41846D01*
X343637Y37767D01*
X343637Y33353D01*
X341947Y29274D01*
X338826Y26153D01*
X334747Y24463D01*
X315253Y24463D01*
G37*
%LPD*%
%LPC*%
G36*
X340203Y215043D02*
X340203Y215043D01*
X335221Y217107D01*
X331407Y220921D01*
X329343Y225903D01*
X329343Y231297D01*
X331407Y236279D01*
X335221Y240093D01*
X340203Y242157D01*
X345597Y242157D01*
X350579Y240093D01*
X354393Y236279D01*
X356457Y231297D01*
X356457Y225903D01*
X354393Y220921D01*
X350579Y217107D01*
X345597Y215043D01*
X340203Y215043D01*
G37*
%LPD*%
%LPC*%
G36*
X340203Y88043D02*
X340203Y88043D01*
X335221Y90107D01*
X331407Y93921D01*
X329343Y98903D01*
X329343Y104297D01*
X331407Y109279D01*
X335221Y113093D01*
X337199Y113912D01*
X337200Y113913D01*
X340203Y115157D01*
X345597Y115157D01*
X350579Y113093D01*
X354393Y109279D01*
X356457Y104297D01*
X356457Y98903D01*
X354393Y93921D01*
X350579Y90107D01*
X348441Y89221D01*
X345597Y88043D01*
X340203Y88043D01*
G37*
%LPD*%
%LPC*%
G36*
X327499Y337779D02*
X327499Y337779D01*
X327499Y345361D01*
X333333Y345361D01*
X334901Y345112D01*
X336410Y344622D01*
X337824Y343902D01*
X339107Y342969D01*
X340229Y341847D01*
X341162Y340564D01*
X341882Y339150D01*
X342327Y337779D01*
X327499Y337779D01*
G37*
%LPD*%
%LPC*%
G36*
X206969Y69809D02*
X206969Y69809D01*
X206969Y84637D01*
X208340Y84192D01*
X209754Y83472D01*
X211037Y82539D01*
X212159Y81417D01*
X213092Y80134D01*
X213812Y78720D01*
X214302Y77211D01*
X214551Y75643D01*
X214551Y69809D01*
X206969Y69809D01*
G37*
%LPD*%
%LPC*%
G36*
X327499Y63459D02*
X327499Y63459D01*
X327499Y71041D01*
X333333Y71041D01*
X334901Y70792D01*
X336410Y70302D01*
X337824Y69582D01*
X339107Y68649D01*
X340229Y67527D01*
X341162Y66244D01*
X341882Y64830D01*
X342327Y63459D01*
X327499Y63459D01*
G37*
%LPD*%
%LPC*%
G36*
X307673Y337779D02*
X307673Y337779D01*
X308118Y339150D01*
X308838Y340564D01*
X309771Y341847D01*
X310893Y342969D01*
X312176Y343902D01*
X313590Y344622D01*
X315099Y345112D01*
X316667Y345361D01*
X322501Y345361D01*
X322501Y337779D01*
X307673Y337779D01*
G37*
%LPD*%
%LPC*%
G36*
X22043Y182839D02*
X22043Y182839D01*
X22488Y184210D01*
X23208Y185624D01*
X24141Y186907D01*
X25263Y188029D01*
X26546Y188962D01*
X27960Y189682D01*
X29469Y190172D01*
X31037Y190421D01*
X36871Y190421D01*
X36871Y182839D01*
X22043Y182839D01*
G37*
%LPD*%
%LPC*%
G36*
X307673Y63459D02*
X307673Y63459D01*
X308118Y64830D01*
X308838Y66244D01*
X309771Y67527D01*
X310893Y68649D01*
X312176Y69582D01*
X313590Y70302D01*
X315099Y70792D01*
X316667Y71041D01*
X322501Y71041D01*
X322501Y63459D01*
X307673Y63459D01*
G37*
%LPD*%
%LPC*%
G36*
X206969Y64811D02*
X206969Y64811D01*
X214551Y64811D01*
X214551Y58977D01*
X214302Y57409D01*
X213812Y55900D01*
X213092Y54486D01*
X212159Y53203D01*
X211037Y52081D01*
X209754Y51148D01*
X208340Y50428D01*
X206969Y49983D01*
X206969Y64811D01*
G37*
%LPD*%
%LPC*%
G36*
X327499Y325199D02*
X327499Y325199D01*
X327499Y332781D01*
X342327Y332781D01*
X341882Y331410D01*
X341162Y329996D01*
X340229Y328713D01*
X339107Y327591D01*
X337824Y326658D01*
X336410Y325938D01*
X334901Y325448D01*
X333333Y325199D01*
X327499Y325199D01*
G37*
%LPD*%
%LPC*%
G36*
X194389Y69809D02*
X194389Y69809D01*
X194389Y75643D01*
X194638Y77211D01*
X195128Y78720D01*
X195848Y80134D01*
X196781Y81417D01*
X197903Y82539D01*
X199186Y83472D01*
X200600Y84192D01*
X201971Y84637D01*
X201971Y69809D01*
X194389Y69809D01*
G37*
%LPD*%
%LPC*%
G36*
X327499Y50879D02*
X327499Y50879D01*
X327499Y58461D01*
X342327Y58461D01*
X341882Y57090D01*
X341162Y55676D01*
X340229Y54393D01*
X339107Y53271D01*
X337824Y52338D01*
X336410Y51618D01*
X334901Y51128D01*
X333333Y50879D01*
X327499Y50879D01*
G37*
%LPD*%
%LPC*%
G36*
X316667Y325199D02*
X316667Y325199D01*
X315099Y325448D01*
X313590Y325938D01*
X312176Y326658D01*
X310893Y327591D01*
X309771Y328713D01*
X308838Y329996D01*
X308118Y331410D01*
X307673Y332781D01*
X322501Y332781D01*
X322501Y325199D01*
X316667Y325199D01*
G37*
%LPD*%
%LPC*%
G36*
X31037Y170259D02*
X31037Y170259D01*
X29469Y170508D01*
X27960Y170998D01*
X26546Y171718D01*
X25263Y172651D01*
X24141Y173773D01*
X23208Y175056D01*
X22488Y176470D01*
X22043Y177841D01*
X36871Y177841D01*
X36871Y170259D01*
X31037Y170259D01*
G37*
%LPD*%
%LPC*%
G36*
X200600Y50428D02*
X200600Y50428D01*
X199186Y51148D01*
X197903Y52081D01*
X196781Y53203D01*
X195848Y54486D01*
X195128Y55900D01*
X194638Y57409D01*
X194389Y58977D01*
X194389Y64811D01*
X201971Y64811D01*
X201971Y49983D01*
X200600Y50428D01*
G37*
%LPD*%
%LPC*%
G36*
X316667Y50879D02*
X316667Y50879D01*
X315099Y51128D01*
X313590Y51618D01*
X312176Y52338D01*
X310893Y53271D01*
X309771Y54393D01*
X308838Y55676D01*
X308118Y57090D01*
X307673Y58461D01*
X322501Y58461D01*
X322501Y50879D01*
X316667Y50879D01*
G37*
%LPD*%
D10*
X297042Y14478D02*
X299074Y14478D01*
X299163Y14480D01*
X299251Y14486D01*
X299339Y14495D01*
X299427Y14509D01*
X299514Y14526D01*
X299600Y14547D01*
X299685Y14572D01*
X299769Y14601D01*
X299852Y14633D01*
X299933Y14668D01*
X300012Y14708D01*
X300090Y14750D01*
X300166Y14796D01*
X300240Y14845D01*
X300311Y14898D01*
X300380Y14953D01*
X300447Y15012D01*
X300511Y15073D01*
X300572Y15137D01*
X300631Y15204D01*
X300686Y15273D01*
X300739Y15344D01*
X300788Y15418D01*
X300834Y15494D01*
X300876Y15572D01*
X300916Y15651D01*
X300951Y15732D01*
X300983Y15815D01*
X301012Y15899D01*
X301037Y15984D01*
X301058Y16070D01*
X301075Y16157D01*
X301089Y16245D01*
X301098Y16333D01*
X301104Y16421D01*
X301106Y16510D01*
X301106Y21590D01*
X301104Y21679D01*
X301098Y21767D01*
X301089Y21855D01*
X301075Y21943D01*
X301058Y22030D01*
X301037Y22116D01*
X301012Y22201D01*
X300983Y22285D01*
X300951Y22368D01*
X300916Y22449D01*
X300876Y22528D01*
X300834Y22606D01*
X300788Y22682D01*
X300739Y22756D01*
X300686Y22827D01*
X300631Y22896D01*
X300572Y22963D01*
X300511Y23027D01*
X300447Y23088D01*
X300380Y23147D01*
X300311Y23202D01*
X300240Y23255D01*
X300166Y23304D01*
X300090Y23350D01*
X300012Y23392D01*
X299933Y23432D01*
X299852Y23467D01*
X299769Y23499D01*
X299685Y23528D01*
X299600Y23553D01*
X299514Y23574D01*
X299427Y23591D01*
X299339Y23605D01*
X299251Y23614D01*
X299163Y23620D01*
X299074Y23622D01*
X297042Y23622D01*
X293659Y20574D02*
X293659Y14478D01*
X293913Y23114D02*
X293913Y23622D01*
X293405Y23622D01*
X293405Y23114D01*
X293913Y23114D01*
X289900Y18542D02*
X289900Y16510D01*
X289900Y18542D02*
X289898Y18631D01*
X289892Y18719D01*
X289883Y18807D01*
X289869Y18895D01*
X289852Y18982D01*
X289831Y19068D01*
X289806Y19153D01*
X289777Y19237D01*
X289745Y19320D01*
X289710Y19401D01*
X289670Y19480D01*
X289628Y19558D01*
X289582Y19634D01*
X289533Y19708D01*
X289480Y19779D01*
X289425Y19848D01*
X289366Y19915D01*
X289305Y19979D01*
X289241Y20040D01*
X289174Y20099D01*
X289105Y20154D01*
X289034Y20207D01*
X288960Y20256D01*
X288884Y20302D01*
X288806Y20344D01*
X288727Y20384D01*
X288646Y20419D01*
X288563Y20451D01*
X288479Y20480D01*
X288394Y20505D01*
X288308Y20526D01*
X288221Y20543D01*
X288133Y20557D01*
X288045Y20566D01*
X287957Y20572D01*
X287868Y20574D01*
X287779Y20572D01*
X287691Y20566D01*
X287603Y20557D01*
X287515Y20543D01*
X287428Y20526D01*
X287342Y20505D01*
X287257Y20480D01*
X287173Y20451D01*
X287090Y20419D01*
X287009Y20384D01*
X286930Y20344D01*
X286852Y20302D01*
X286776Y20256D01*
X286702Y20207D01*
X286631Y20154D01*
X286562Y20099D01*
X286495Y20040D01*
X286431Y19979D01*
X286370Y19915D01*
X286311Y19848D01*
X286256Y19779D01*
X286203Y19708D01*
X286154Y19634D01*
X286108Y19558D01*
X286066Y19480D01*
X286026Y19401D01*
X285991Y19320D01*
X285959Y19237D01*
X285930Y19153D01*
X285905Y19068D01*
X285884Y18982D01*
X285867Y18895D01*
X285853Y18807D01*
X285844Y18719D01*
X285838Y18631D01*
X285836Y18542D01*
X285836Y16510D01*
X285838Y16421D01*
X285844Y16333D01*
X285853Y16245D01*
X285867Y16157D01*
X285884Y16070D01*
X285905Y15984D01*
X285930Y15899D01*
X285959Y15815D01*
X285991Y15732D01*
X286026Y15651D01*
X286066Y15572D01*
X286108Y15494D01*
X286154Y15418D01*
X286203Y15344D01*
X286256Y15273D01*
X286311Y15204D01*
X286370Y15137D01*
X286431Y15073D01*
X286495Y15012D01*
X286562Y14953D01*
X286631Y14898D01*
X286702Y14845D01*
X286776Y14796D01*
X286852Y14750D01*
X286930Y14708D01*
X287009Y14668D01*
X287090Y14633D01*
X287173Y14601D01*
X287257Y14572D01*
X287342Y14547D01*
X287428Y14526D01*
X287515Y14509D01*
X287603Y14495D01*
X287691Y14486D01*
X287779Y14480D01*
X287868Y14478D01*
X287957Y14480D01*
X288045Y14486D01*
X288133Y14495D01*
X288221Y14509D01*
X288308Y14526D01*
X288394Y14547D01*
X288479Y14572D01*
X288563Y14601D01*
X288646Y14633D01*
X288727Y14668D01*
X288806Y14708D01*
X288884Y14750D01*
X288960Y14796D01*
X289034Y14845D01*
X289105Y14898D01*
X289174Y14953D01*
X289241Y15012D01*
X289305Y15073D01*
X289366Y15137D01*
X289425Y15204D01*
X289480Y15273D01*
X289533Y15344D01*
X289582Y15418D01*
X289628Y15494D01*
X289670Y15572D01*
X289710Y15651D01*
X289745Y15732D01*
X289777Y15815D01*
X289806Y15899D01*
X289831Y15984D01*
X289852Y16070D01*
X289869Y16157D01*
X289883Y16245D01*
X289892Y16333D01*
X289898Y16421D01*
X289900Y16510D01*
X280440Y14478D02*
X278408Y14478D01*
X280440Y14478D02*
X280517Y14480D01*
X280594Y14486D01*
X280671Y14496D01*
X280747Y14509D01*
X280822Y14527D01*
X280896Y14548D01*
X280969Y14573D01*
X281041Y14602D01*
X281111Y14634D01*
X281180Y14669D01*
X281246Y14709D01*
X281311Y14751D01*
X281373Y14797D01*
X281433Y14846D01*
X281490Y14897D01*
X281545Y14952D01*
X281596Y15009D01*
X281645Y15069D01*
X281691Y15131D01*
X281733Y15196D01*
X281773Y15262D01*
X281808Y15331D01*
X281840Y15401D01*
X281869Y15473D01*
X281894Y15546D01*
X281915Y15620D01*
X281933Y15695D01*
X281946Y15771D01*
X281956Y15848D01*
X281962Y15925D01*
X281964Y16002D01*
X281964Y19050D01*
X281962Y19127D01*
X281956Y19204D01*
X281946Y19281D01*
X281933Y19357D01*
X281915Y19432D01*
X281894Y19506D01*
X281869Y19579D01*
X281840Y19651D01*
X281808Y19721D01*
X281773Y19790D01*
X281733Y19856D01*
X281691Y19921D01*
X281645Y19983D01*
X281596Y20043D01*
X281545Y20100D01*
X281490Y20155D01*
X281433Y20206D01*
X281373Y20255D01*
X281311Y20301D01*
X281246Y20343D01*
X281180Y20383D01*
X281111Y20418D01*
X281041Y20450D01*
X280969Y20479D01*
X280896Y20504D01*
X280822Y20525D01*
X280747Y20543D01*
X280671Y20556D01*
X280594Y20566D01*
X280517Y20572D01*
X280440Y20574D01*
X278408Y20574D01*
X270495Y14478D02*
X267447Y23622D01*
X264399Y14478D01*
X265161Y16764D02*
X269733Y16764D01*
X260436Y14478D02*
X260436Y20574D01*
X255864Y20574D01*
X255787Y20572D01*
X255710Y20566D01*
X255633Y20556D01*
X255557Y20543D01*
X255482Y20525D01*
X255408Y20504D01*
X255335Y20479D01*
X255263Y20450D01*
X255193Y20418D01*
X255124Y20383D01*
X255058Y20343D01*
X254993Y20301D01*
X254931Y20255D01*
X254871Y20206D01*
X254814Y20155D01*
X254759Y20100D01*
X254708Y20043D01*
X254659Y19983D01*
X254613Y19921D01*
X254571Y19856D01*
X254531Y19790D01*
X254496Y19721D01*
X254464Y19651D01*
X254435Y19579D01*
X254410Y19506D01*
X254389Y19432D01*
X254371Y19357D01*
X254358Y19281D01*
X254348Y19204D01*
X254342Y19127D01*
X254340Y19050D01*
X254340Y14478D01*
X257388Y14478D02*
X257388Y20574D01*
X248448Y14478D02*
X245908Y14478D01*
X248448Y14478D02*
X248525Y14480D01*
X248602Y14486D01*
X248679Y14496D01*
X248755Y14509D01*
X248830Y14527D01*
X248904Y14548D01*
X248977Y14573D01*
X249049Y14602D01*
X249119Y14634D01*
X249188Y14669D01*
X249254Y14709D01*
X249319Y14751D01*
X249381Y14797D01*
X249441Y14846D01*
X249498Y14897D01*
X249553Y14952D01*
X249604Y15009D01*
X249653Y15069D01*
X249699Y15131D01*
X249741Y15196D01*
X249781Y15262D01*
X249816Y15331D01*
X249848Y15401D01*
X249877Y15473D01*
X249902Y15546D01*
X249923Y15620D01*
X249941Y15695D01*
X249954Y15771D01*
X249964Y15848D01*
X249970Y15925D01*
X249972Y16002D01*
X249972Y18542D01*
X249970Y18631D01*
X249964Y18719D01*
X249955Y18807D01*
X249941Y18895D01*
X249924Y18982D01*
X249903Y19068D01*
X249878Y19153D01*
X249849Y19237D01*
X249817Y19320D01*
X249782Y19401D01*
X249742Y19480D01*
X249700Y19558D01*
X249654Y19634D01*
X249605Y19708D01*
X249552Y19779D01*
X249497Y19848D01*
X249438Y19915D01*
X249377Y19979D01*
X249313Y20040D01*
X249246Y20099D01*
X249177Y20154D01*
X249106Y20207D01*
X249032Y20256D01*
X248956Y20302D01*
X248878Y20344D01*
X248799Y20384D01*
X248718Y20419D01*
X248635Y20451D01*
X248551Y20480D01*
X248466Y20505D01*
X248380Y20526D01*
X248293Y20543D01*
X248205Y20557D01*
X248117Y20566D01*
X248029Y20572D01*
X247940Y20574D01*
X247851Y20572D01*
X247763Y20566D01*
X247675Y20557D01*
X247587Y20543D01*
X247500Y20526D01*
X247414Y20505D01*
X247329Y20480D01*
X247245Y20451D01*
X247162Y20419D01*
X247081Y20384D01*
X247002Y20344D01*
X246924Y20302D01*
X246848Y20256D01*
X246774Y20207D01*
X246703Y20154D01*
X246634Y20099D01*
X246567Y20040D01*
X246503Y19979D01*
X246442Y19915D01*
X246383Y19848D01*
X246328Y19779D01*
X246275Y19708D01*
X246226Y19634D01*
X246180Y19558D01*
X246138Y19480D01*
X246098Y19401D01*
X246063Y19320D01*
X246031Y19237D01*
X246002Y19153D01*
X245977Y19068D01*
X245956Y18982D01*
X245939Y18895D01*
X245925Y18807D01*
X245916Y18719D01*
X245910Y18631D01*
X245908Y18542D01*
X245908Y17526D01*
X249972Y17526D01*
X241950Y16002D02*
X241950Y23622D01*
X241950Y16002D02*
X241948Y15925D01*
X241942Y15848D01*
X241932Y15771D01*
X241919Y15695D01*
X241901Y15620D01*
X241880Y15546D01*
X241855Y15473D01*
X241826Y15401D01*
X241794Y15331D01*
X241759Y15262D01*
X241719Y15196D01*
X241677Y15131D01*
X241631Y15069D01*
X241582Y15009D01*
X241531Y14952D01*
X241476Y14897D01*
X241419Y14846D01*
X241359Y14797D01*
X241297Y14751D01*
X241232Y14709D01*
X241166Y14669D01*
X241097Y14634D01*
X241027Y14602D01*
X240955Y14573D01*
X240882Y14548D01*
X240808Y14527D01*
X240733Y14509D01*
X240657Y14496D01*
X240580Y14486D01*
X240503Y14480D01*
X240426Y14478D01*
X237272Y14478D02*
X237272Y20574D01*
X237526Y23114D02*
X237526Y23622D01*
X237018Y23622D01*
X237018Y23114D01*
X237526Y23114D01*
X231788Y18034D02*
X229502Y18034D01*
X231788Y18034D02*
X231871Y18032D01*
X231954Y18026D01*
X232037Y18016D01*
X232120Y18003D01*
X232201Y17985D01*
X232282Y17964D01*
X232361Y17939D01*
X232439Y17910D01*
X232516Y17878D01*
X232591Y17842D01*
X232665Y17803D01*
X232736Y17760D01*
X232806Y17714D01*
X232873Y17664D01*
X232938Y17612D01*
X233000Y17557D01*
X233060Y17498D01*
X233117Y17437D01*
X233171Y17374D01*
X233222Y17308D01*
X233269Y17239D01*
X233314Y17169D01*
X233355Y17096D01*
X233392Y17022D01*
X233427Y16946D01*
X233457Y16868D01*
X233484Y16790D01*
X233507Y16709D01*
X233527Y16628D01*
X233542Y16546D01*
X233554Y16464D01*
X233562Y16381D01*
X233566Y16298D01*
X233566Y16214D01*
X233562Y16131D01*
X233554Y16048D01*
X233542Y15966D01*
X233527Y15884D01*
X233507Y15803D01*
X233484Y15722D01*
X233457Y15644D01*
X233427Y15566D01*
X233392Y15490D01*
X233355Y15416D01*
X233314Y15343D01*
X233269Y15273D01*
X233222Y15204D01*
X233171Y15138D01*
X233117Y15075D01*
X233060Y15014D01*
X233000Y14955D01*
X232938Y14900D01*
X232873Y14848D01*
X232806Y14798D01*
X232736Y14752D01*
X232665Y14709D01*
X232591Y14670D01*
X232516Y14634D01*
X232439Y14602D01*
X232361Y14573D01*
X232282Y14548D01*
X232201Y14527D01*
X232120Y14509D01*
X232037Y14496D01*
X231954Y14486D01*
X231871Y14480D01*
X231788Y14478D01*
X229502Y14478D01*
X229502Y19050D01*
X229504Y19127D01*
X229510Y19204D01*
X229520Y19281D01*
X229533Y19357D01*
X229551Y19432D01*
X229572Y19506D01*
X229597Y19579D01*
X229626Y19651D01*
X229658Y19721D01*
X229693Y19790D01*
X229733Y19856D01*
X229775Y19921D01*
X229821Y19983D01*
X229870Y20043D01*
X229921Y20100D01*
X229976Y20155D01*
X230033Y20206D01*
X230093Y20255D01*
X230155Y20301D01*
X230220Y20343D01*
X230286Y20383D01*
X230355Y20418D01*
X230425Y20450D01*
X230497Y20479D01*
X230570Y20504D01*
X230644Y20525D01*
X230719Y20543D01*
X230795Y20556D01*
X230872Y20566D01*
X230949Y20572D01*
X231026Y20574D01*
X233058Y20574D01*
X225677Y14478D02*
X225169Y14478D01*
X225677Y14478D02*
X225677Y14986D01*
X225169Y14986D01*
X225169Y14478D01*
X225931Y12446D01*
X216647Y16510D02*
X214615Y23622D01*
X216647Y16510D02*
X211567Y16510D01*
X213091Y18542D02*
X213091Y14478D01*
X207503Y14478D02*
X204963Y14478D01*
X204863Y14480D01*
X204764Y14486D01*
X204664Y14496D01*
X204566Y14509D01*
X204467Y14527D01*
X204370Y14548D01*
X204274Y14573D01*
X204178Y14602D01*
X204084Y14635D01*
X203991Y14671D01*
X203900Y14711D01*
X203810Y14755D01*
X203722Y14802D01*
X203636Y14852D01*
X203552Y14906D01*
X203470Y14963D01*
X203391Y15023D01*
X203313Y15087D01*
X203239Y15153D01*
X203167Y15222D01*
X203098Y15294D01*
X203032Y15368D01*
X202968Y15446D01*
X202908Y15525D01*
X202851Y15607D01*
X202797Y15691D01*
X202747Y15777D01*
X202700Y15865D01*
X202656Y15955D01*
X202616Y16046D01*
X202580Y16139D01*
X202547Y16233D01*
X202518Y16329D01*
X202493Y16425D01*
X202472Y16522D01*
X202454Y16621D01*
X202441Y16719D01*
X202431Y16819D01*
X202425Y16918D01*
X202423Y17018D01*
X202425Y17118D01*
X202431Y17217D01*
X202441Y17317D01*
X202454Y17415D01*
X202472Y17514D01*
X202493Y17611D01*
X202518Y17707D01*
X202547Y17803D01*
X202580Y17897D01*
X202616Y17990D01*
X202656Y18081D01*
X202700Y18171D01*
X202747Y18259D01*
X202797Y18345D01*
X202851Y18429D01*
X202908Y18511D01*
X202968Y18590D01*
X203032Y18668D01*
X203098Y18742D01*
X203167Y18814D01*
X203239Y18883D01*
X203313Y18949D01*
X203391Y19013D01*
X203470Y19073D01*
X203552Y19130D01*
X203636Y19184D01*
X203722Y19234D01*
X203810Y19281D01*
X203900Y19325D01*
X203991Y19365D01*
X204084Y19401D01*
X204178Y19434D01*
X204274Y19463D01*
X204370Y19488D01*
X204467Y19509D01*
X204566Y19527D01*
X204664Y19540D01*
X204764Y19550D01*
X204863Y19556D01*
X204963Y19558D01*
X204455Y23622D02*
X207503Y23622D01*
X204455Y23622D02*
X204366Y23620D01*
X204278Y23614D01*
X204190Y23605D01*
X204102Y23591D01*
X204015Y23574D01*
X203929Y23553D01*
X203844Y23528D01*
X203760Y23499D01*
X203677Y23467D01*
X203596Y23432D01*
X203517Y23392D01*
X203439Y23350D01*
X203363Y23304D01*
X203289Y23255D01*
X203218Y23202D01*
X203149Y23147D01*
X203082Y23088D01*
X203018Y23027D01*
X202957Y22963D01*
X202898Y22896D01*
X202843Y22827D01*
X202790Y22756D01*
X202741Y22682D01*
X202695Y22606D01*
X202653Y22528D01*
X202613Y22449D01*
X202578Y22368D01*
X202546Y22285D01*
X202517Y22201D01*
X202492Y22116D01*
X202471Y22030D01*
X202454Y21943D01*
X202440Y21855D01*
X202431Y21767D01*
X202425Y21679D01*
X202423Y21590D01*
X202425Y21501D01*
X202431Y21413D01*
X202440Y21325D01*
X202454Y21237D01*
X202471Y21150D01*
X202492Y21064D01*
X202517Y20979D01*
X202546Y20895D01*
X202578Y20812D01*
X202613Y20731D01*
X202653Y20652D01*
X202695Y20574D01*
X202741Y20498D01*
X202790Y20424D01*
X202843Y20353D01*
X202898Y20284D01*
X202957Y20217D01*
X203018Y20153D01*
X203082Y20092D01*
X203149Y20033D01*
X203218Y19978D01*
X203289Y19925D01*
X203363Y19876D01*
X203439Y19830D01*
X203517Y19788D01*
X203596Y19748D01*
X203677Y19713D01*
X203760Y19681D01*
X203844Y19652D01*
X203929Y19627D01*
X204015Y19606D01*
X204102Y19589D01*
X204190Y19575D01*
X204278Y19566D01*
X204366Y19560D01*
X204455Y19558D01*
X206487Y19558D01*
X195565Y23622D02*
X195471Y23620D01*
X195376Y23614D01*
X195282Y23604D01*
X195189Y23591D01*
X195096Y23573D01*
X195004Y23552D01*
X194913Y23527D01*
X194823Y23498D01*
X194734Y23466D01*
X194647Y23429D01*
X194561Y23390D01*
X194477Y23346D01*
X194395Y23300D01*
X194315Y23250D01*
X194237Y23196D01*
X194161Y23140D01*
X194088Y23080D01*
X194017Y23018D01*
X193949Y22952D01*
X193883Y22884D01*
X193821Y22813D01*
X193761Y22740D01*
X193705Y22664D01*
X193651Y22586D01*
X193601Y22506D01*
X193555Y22424D01*
X193511Y22340D01*
X193472Y22254D01*
X193435Y22167D01*
X193403Y22078D01*
X193374Y21988D01*
X193349Y21897D01*
X193328Y21805D01*
X193310Y21712D01*
X193297Y21619D01*
X193287Y21525D01*
X193281Y21430D01*
X193279Y21336D01*
X195565Y23622D02*
X195671Y23620D01*
X195776Y23614D01*
X195881Y23605D01*
X195986Y23592D01*
X196090Y23575D01*
X196193Y23554D01*
X196296Y23530D01*
X196398Y23501D01*
X196498Y23470D01*
X196598Y23434D01*
X196696Y23396D01*
X196792Y23353D01*
X196888Y23307D01*
X196981Y23258D01*
X197072Y23206D01*
X197162Y23150D01*
X197250Y23091D01*
X197335Y23029D01*
X197418Y22964D01*
X197499Y22896D01*
X197577Y22825D01*
X197652Y22751D01*
X197725Y22675D01*
X197795Y22596D01*
X197862Y22515D01*
X197927Y22431D01*
X197988Y22345D01*
X198046Y22257D01*
X198101Y22167D01*
X198152Y22075D01*
X198201Y21981D01*
X198246Y21885D01*
X198287Y21788D01*
X198325Y21690D01*
X198359Y21590D01*
X194041Y19558D02*
X193974Y19625D01*
X193909Y19694D01*
X193847Y19766D01*
X193788Y19839D01*
X193732Y19916D01*
X193678Y19994D01*
X193628Y20074D01*
X193581Y20156D01*
X193537Y20240D01*
X193497Y20326D01*
X193459Y20413D01*
X193425Y20501D01*
X193395Y20591D01*
X193368Y20681D01*
X193344Y20773D01*
X193324Y20866D01*
X193308Y20959D01*
X193295Y21053D01*
X193286Y21147D01*
X193281Y21241D01*
X193279Y21336D01*
X194041Y19558D02*
X198359Y14478D01*
X193279Y14478D01*
X189723Y14478D02*
X186675Y23622D01*
X183627Y14478D01*
X184389Y16764D02*
X188961Y16764D01*
X178448Y18034D02*
X176162Y18034D01*
X178448Y18034D02*
X178531Y18032D01*
X178614Y18026D01*
X178697Y18016D01*
X178780Y18003D01*
X178861Y17985D01*
X178942Y17964D01*
X179021Y17939D01*
X179099Y17910D01*
X179176Y17878D01*
X179251Y17842D01*
X179325Y17803D01*
X179396Y17760D01*
X179466Y17714D01*
X179533Y17664D01*
X179598Y17612D01*
X179660Y17557D01*
X179720Y17498D01*
X179777Y17437D01*
X179831Y17374D01*
X179882Y17308D01*
X179929Y17239D01*
X179974Y17169D01*
X180015Y17096D01*
X180052Y17022D01*
X180087Y16946D01*
X180117Y16868D01*
X180144Y16790D01*
X180167Y16709D01*
X180187Y16628D01*
X180202Y16546D01*
X180214Y16464D01*
X180222Y16381D01*
X180226Y16298D01*
X180226Y16214D01*
X180222Y16131D01*
X180214Y16048D01*
X180202Y15966D01*
X180187Y15884D01*
X180167Y15803D01*
X180144Y15722D01*
X180117Y15644D01*
X180087Y15566D01*
X180052Y15490D01*
X180015Y15416D01*
X179974Y15343D01*
X179929Y15273D01*
X179882Y15204D01*
X179831Y15138D01*
X179777Y15075D01*
X179720Y15014D01*
X179660Y14955D01*
X179598Y14900D01*
X179533Y14848D01*
X179466Y14798D01*
X179396Y14752D01*
X179325Y14709D01*
X179251Y14670D01*
X179176Y14634D01*
X179099Y14602D01*
X179021Y14573D01*
X178942Y14548D01*
X178861Y14527D01*
X178780Y14509D01*
X178697Y14496D01*
X178614Y14486D01*
X178531Y14480D01*
X178448Y14478D01*
X176162Y14478D01*
X176162Y19050D01*
X176164Y19127D01*
X176170Y19204D01*
X176180Y19281D01*
X176193Y19357D01*
X176211Y19432D01*
X176232Y19506D01*
X176257Y19579D01*
X176286Y19651D01*
X176318Y19721D01*
X176353Y19790D01*
X176393Y19856D01*
X176435Y19921D01*
X176481Y19983D01*
X176530Y20043D01*
X176581Y20100D01*
X176636Y20155D01*
X176693Y20206D01*
X176753Y20255D01*
X176815Y20301D01*
X176880Y20343D01*
X176946Y20383D01*
X177015Y20418D01*
X177085Y20450D01*
X177157Y20479D01*
X177230Y20504D01*
X177304Y20525D01*
X177379Y20543D01*
X177455Y20556D01*
X177532Y20566D01*
X177609Y20572D01*
X177686Y20574D01*
X179718Y20574D01*
X172338Y14478D02*
X171830Y14478D01*
X172338Y14478D02*
X172338Y14986D01*
X171830Y14986D01*
X171830Y14478D01*
X172592Y12446D01*
X162850Y14478D02*
X162850Y23622D01*
X160310Y23622D01*
X160210Y23620D01*
X160111Y23614D01*
X160011Y23604D01*
X159913Y23591D01*
X159814Y23573D01*
X159717Y23552D01*
X159621Y23527D01*
X159525Y23498D01*
X159431Y23465D01*
X159338Y23429D01*
X159247Y23389D01*
X159157Y23345D01*
X159069Y23298D01*
X158983Y23248D01*
X158899Y23194D01*
X158817Y23137D01*
X158738Y23077D01*
X158660Y23013D01*
X158586Y22947D01*
X158514Y22878D01*
X158445Y22806D01*
X158379Y22732D01*
X158315Y22654D01*
X158255Y22575D01*
X158198Y22493D01*
X158144Y22409D01*
X158094Y22323D01*
X158047Y22235D01*
X158003Y22145D01*
X157963Y22054D01*
X157927Y21961D01*
X157894Y21867D01*
X157865Y21771D01*
X157840Y21675D01*
X157819Y21578D01*
X157801Y21479D01*
X157788Y21381D01*
X157778Y21281D01*
X157772Y21182D01*
X157770Y21082D01*
X157772Y20982D01*
X157778Y20883D01*
X157788Y20783D01*
X157801Y20685D01*
X157819Y20586D01*
X157840Y20489D01*
X157865Y20393D01*
X157894Y20297D01*
X157927Y20203D01*
X157963Y20110D01*
X158003Y20019D01*
X158047Y19929D01*
X158094Y19841D01*
X158144Y19755D01*
X158198Y19671D01*
X158255Y19589D01*
X158315Y19510D01*
X158379Y19432D01*
X158445Y19358D01*
X158514Y19286D01*
X158586Y19217D01*
X158660Y19151D01*
X158738Y19087D01*
X158817Y19027D01*
X158899Y18970D01*
X158983Y18916D01*
X159069Y18866D01*
X159157Y18819D01*
X159247Y18775D01*
X159338Y18735D01*
X159431Y18699D01*
X159525Y18666D01*
X159621Y18637D01*
X159717Y18612D01*
X159814Y18591D01*
X159913Y18573D01*
X160011Y18560D01*
X160111Y18550D01*
X160210Y18544D01*
X160310Y18542D01*
X162850Y18542D01*
X153859Y14478D02*
X153859Y23622D01*
X151319Y23622D01*
X151219Y23620D01*
X151120Y23614D01*
X151020Y23604D01*
X150922Y23591D01*
X150823Y23573D01*
X150726Y23552D01*
X150630Y23527D01*
X150534Y23498D01*
X150440Y23465D01*
X150347Y23429D01*
X150256Y23389D01*
X150166Y23345D01*
X150078Y23298D01*
X149992Y23248D01*
X149908Y23194D01*
X149826Y23137D01*
X149747Y23077D01*
X149669Y23013D01*
X149595Y22947D01*
X149523Y22878D01*
X149454Y22806D01*
X149388Y22732D01*
X149324Y22654D01*
X149264Y22575D01*
X149207Y22493D01*
X149153Y22409D01*
X149103Y22323D01*
X149056Y22235D01*
X149012Y22145D01*
X148972Y22054D01*
X148936Y21961D01*
X148903Y21867D01*
X148874Y21771D01*
X148849Y21675D01*
X148828Y21578D01*
X148810Y21479D01*
X148797Y21381D01*
X148787Y21281D01*
X148781Y21182D01*
X148779Y21082D01*
X148779Y17018D01*
X148781Y16918D01*
X148787Y16819D01*
X148797Y16719D01*
X148810Y16621D01*
X148828Y16522D01*
X148849Y16425D01*
X148874Y16329D01*
X148903Y16233D01*
X148936Y16139D01*
X148972Y16046D01*
X149012Y15955D01*
X149056Y15865D01*
X149103Y15777D01*
X149153Y15691D01*
X149207Y15607D01*
X149264Y15525D01*
X149324Y15446D01*
X149388Y15368D01*
X149454Y15294D01*
X149523Y15222D01*
X149595Y15153D01*
X149669Y15087D01*
X149747Y15023D01*
X149826Y14963D01*
X149908Y14906D01*
X149992Y14852D01*
X150078Y14802D01*
X150166Y14755D01*
X150256Y14711D01*
X150347Y14671D01*
X150440Y14635D01*
X150534Y14602D01*
X150630Y14573D01*
X150726Y14548D01*
X150823Y14527D01*
X150922Y14509D01*
X151020Y14496D01*
X151120Y14486D01*
X151219Y14480D01*
X151319Y14478D01*
X153859Y14478D01*
X142408Y14478D02*
X140376Y14478D01*
X142408Y14478D02*
X142497Y14480D01*
X142585Y14486D01*
X142673Y14495D01*
X142761Y14509D01*
X142848Y14526D01*
X142934Y14547D01*
X143019Y14572D01*
X143103Y14601D01*
X143186Y14633D01*
X143267Y14668D01*
X143346Y14708D01*
X143424Y14750D01*
X143500Y14796D01*
X143574Y14845D01*
X143645Y14898D01*
X143714Y14953D01*
X143781Y15012D01*
X143845Y15073D01*
X143906Y15137D01*
X143965Y15204D01*
X144020Y15273D01*
X144073Y15344D01*
X144122Y15418D01*
X144168Y15494D01*
X144210Y15572D01*
X144250Y15651D01*
X144285Y15732D01*
X144317Y15815D01*
X144346Y15899D01*
X144371Y15984D01*
X144392Y16070D01*
X144409Y16157D01*
X144423Y16245D01*
X144432Y16333D01*
X144438Y16421D01*
X144440Y16510D01*
X144440Y21590D01*
X144438Y21679D01*
X144432Y21767D01*
X144423Y21855D01*
X144409Y21943D01*
X144392Y22030D01*
X144371Y22116D01*
X144346Y22201D01*
X144317Y22285D01*
X144285Y22368D01*
X144250Y22449D01*
X144210Y22528D01*
X144168Y22606D01*
X144122Y22682D01*
X144073Y22756D01*
X144020Y22827D01*
X143965Y22896D01*
X143906Y22963D01*
X143845Y23027D01*
X143781Y23088D01*
X143714Y23147D01*
X143645Y23202D01*
X143574Y23255D01*
X143500Y23304D01*
X143424Y23350D01*
X143346Y23392D01*
X143267Y23432D01*
X143186Y23467D01*
X143103Y23499D01*
X143019Y23528D01*
X142934Y23553D01*
X142848Y23574D01*
X142761Y23591D01*
X142673Y23605D01*
X142585Y23614D01*
X142497Y23620D01*
X142408Y23622D01*
X140376Y23622D01*
X136465Y14478D02*
X132401Y14478D01*
X136465Y14478D02*
X136465Y23622D01*
X132401Y23622D01*
X133417Y19558D02*
X136465Y19558D01*
X123277Y23622D02*
X123277Y14478D01*
X124293Y14478D02*
X122261Y14478D01*
X122261Y23622D02*
X124293Y23622D01*
X110831Y23622D02*
X110737Y23620D01*
X110642Y23614D01*
X110548Y23604D01*
X110455Y23591D01*
X110362Y23573D01*
X110270Y23552D01*
X110179Y23527D01*
X110089Y23498D01*
X110000Y23466D01*
X109913Y23429D01*
X109827Y23390D01*
X109743Y23346D01*
X109661Y23300D01*
X109581Y23250D01*
X109503Y23196D01*
X109427Y23140D01*
X109354Y23080D01*
X109283Y23018D01*
X109215Y22952D01*
X109149Y22884D01*
X109087Y22813D01*
X109027Y22740D01*
X108971Y22664D01*
X108917Y22586D01*
X108867Y22506D01*
X108821Y22424D01*
X108777Y22340D01*
X108738Y22254D01*
X108701Y22167D01*
X108669Y22078D01*
X108640Y21988D01*
X108615Y21897D01*
X108594Y21805D01*
X108576Y21712D01*
X108563Y21619D01*
X108553Y21525D01*
X108547Y21430D01*
X108545Y21336D01*
X110831Y23622D02*
X110937Y23620D01*
X111042Y23614D01*
X111147Y23605D01*
X111252Y23592D01*
X111356Y23575D01*
X111459Y23554D01*
X111562Y23530D01*
X111664Y23501D01*
X111764Y23470D01*
X111864Y23434D01*
X111962Y23396D01*
X112058Y23353D01*
X112154Y23307D01*
X112247Y23258D01*
X112338Y23206D01*
X112428Y23150D01*
X112516Y23091D01*
X112601Y23029D01*
X112684Y22964D01*
X112765Y22896D01*
X112843Y22825D01*
X112918Y22751D01*
X112991Y22675D01*
X113061Y22596D01*
X113128Y22515D01*
X113193Y22431D01*
X113254Y22345D01*
X113312Y22257D01*
X113367Y22167D01*
X113418Y22075D01*
X113467Y21981D01*
X113512Y21885D01*
X113553Y21788D01*
X113591Y21690D01*
X113625Y21590D01*
X109308Y19558D02*
X109241Y19625D01*
X109176Y19694D01*
X109114Y19766D01*
X109055Y19839D01*
X108999Y19916D01*
X108945Y19994D01*
X108895Y20074D01*
X108848Y20156D01*
X108804Y20240D01*
X108764Y20326D01*
X108726Y20413D01*
X108692Y20501D01*
X108662Y20591D01*
X108635Y20681D01*
X108611Y20773D01*
X108591Y20866D01*
X108575Y20959D01*
X108562Y21053D01*
X108553Y21147D01*
X108548Y21241D01*
X108546Y21336D01*
X109307Y19558D02*
X113625Y14478D01*
X108545Y14478D01*
X104481Y19050D02*
X104479Y19230D01*
X104472Y19410D01*
X104462Y19589D01*
X104447Y19768D01*
X104427Y19947D01*
X104404Y20126D01*
X104376Y20303D01*
X104344Y20480D01*
X104308Y20657D01*
X104267Y20832D01*
X104223Y21006D01*
X104174Y21179D01*
X104121Y21351D01*
X104064Y21522D01*
X104003Y21691D01*
X103938Y21859D01*
X103869Y22025D01*
X103796Y22189D01*
X103719Y22352D01*
X103691Y22430D01*
X103658Y22507D01*
X103623Y22582D01*
X103584Y22656D01*
X103542Y22728D01*
X103497Y22797D01*
X103448Y22865D01*
X103397Y22931D01*
X103343Y22994D01*
X103286Y23055D01*
X103227Y23114D01*
X103165Y23169D01*
X103100Y23222D01*
X103034Y23272D01*
X102965Y23319D01*
X102894Y23363D01*
X102821Y23403D01*
X102747Y23440D01*
X102671Y23475D01*
X102593Y23505D01*
X102515Y23532D01*
X102435Y23556D01*
X102354Y23576D01*
X102272Y23593D01*
X102190Y23605D01*
X102107Y23615D01*
X102024Y23620D01*
X101941Y23622D01*
X101858Y23620D01*
X101775Y23615D01*
X101692Y23605D01*
X101610Y23593D01*
X101528Y23576D01*
X101447Y23556D01*
X101367Y23532D01*
X101289Y23505D01*
X101211Y23475D01*
X101135Y23440D01*
X101061Y23403D01*
X100988Y23363D01*
X100917Y23319D01*
X100848Y23272D01*
X100782Y23222D01*
X100717Y23169D01*
X100655Y23114D01*
X100596Y23055D01*
X100539Y22994D01*
X100485Y22931D01*
X100434Y22865D01*
X100385Y22797D01*
X100340Y22728D01*
X100298Y22656D01*
X100259Y22582D01*
X100224Y22507D01*
X100191Y22430D01*
X100163Y22352D01*
X100164Y22352D02*
X100087Y22189D01*
X100014Y22025D01*
X99945Y21859D01*
X99880Y21691D01*
X99819Y21522D01*
X99762Y21351D01*
X99709Y21179D01*
X99660Y21006D01*
X99616Y20832D01*
X99575Y20657D01*
X99539Y20480D01*
X99507Y20303D01*
X99479Y20126D01*
X99456Y19947D01*
X99436Y19768D01*
X99421Y19589D01*
X99411Y19410D01*
X99404Y19230D01*
X99402Y19050D01*
X104481Y19050D02*
X104479Y18870D01*
X104472Y18690D01*
X104462Y18511D01*
X104447Y18332D01*
X104427Y18153D01*
X104404Y17974D01*
X104376Y17797D01*
X104344Y17620D01*
X104308Y17443D01*
X104267Y17268D01*
X104223Y17094D01*
X104174Y16921D01*
X104121Y16749D01*
X104064Y16578D01*
X104003Y16409D01*
X103938Y16241D01*
X103869Y16075D01*
X103796Y15911D01*
X103719Y15748D01*
X103691Y15670D01*
X103658Y15593D01*
X103623Y15518D01*
X103584Y15444D01*
X103542Y15372D01*
X103497Y15303D01*
X103448Y15235D01*
X103397Y15169D01*
X103343Y15106D01*
X103286Y15045D01*
X103227Y14986D01*
X103165Y14931D01*
X103100Y14878D01*
X103034Y14828D01*
X102965Y14781D01*
X102894Y14737D01*
X102821Y14697D01*
X102747Y14660D01*
X102671Y14625D01*
X102593Y14595D01*
X102515Y14568D01*
X102435Y14544D01*
X102354Y14524D01*
X102272Y14507D01*
X102190Y14495D01*
X102107Y14485D01*
X102024Y14480D01*
X101941Y14478D01*
X100164Y15748D02*
X100087Y15911D01*
X100014Y16075D01*
X99945Y16241D01*
X99880Y16409D01*
X99819Y16578D01*
X99762Y16749D01*
X99709Y16921D01*
X99660Y17094D01*
X99616Y17268D01*
X99575Y17443D01*
X99539Y17620D01*
X99507Y17797D01*
X99479Y17974D01*
X99456Y18153D01*
X99436Y18332D01*
X99421Y18511D01*
X99411Y18690D01*
X99404Y18870D01*
X99402Y19050D01*
X100163Y15748D02*
X100191Y15670D01*
X100224Y15593D01*
X100259Y15518D01*
X100298Y15444D01*
X100340Y15372D01*
X100385Y15303D01*
X100434Y15235D01*
X100485Y15169D01*
X100539Y15106D01*
X100596Y15045D01*
X100655Y14986D01*
X100717Y14931D01*
X100782Y14878D01*
X100848Y14828D01*
X100917Y14781D01*
X100988Y14737D01*
X101061Y14697D01*
X101135Y14660D01*
X101211Y14625D01*
X101289Y14595D01*
X101367Y14568D01*
X101447Y14544D01*
X101528Y14524D01*
X101610Y14507D01*
X101692Y14495D01*
X101775Y14485D01*
X101858Y14480D01*
X101941Y14478D01*
X103973Y16510D02*
X99909Y21590D01*
X92543Y23622D02*
X92449Y23620D01*
X92354Y23614D01*
X92260Y23604D01*
X92167Y23591D01*
X92074Y23573D01*
X91982Y23552D01*
X91891Y23527D01*
X91801Y23498D01*
X91712Y23466D01*
X91625Y23429D01*
X91539Y23390D01*
X91455Y23346D01*
X91373Y23300D01*
X91293Y23250D01*
X91215Y23196D01*
X91139Y23140D01*
X91066Y23080D01*
X90995Y23018D01*
X90927Y22952D01*
X90861Y22884D01*
X90799Y22813D01*
X90739Y22740D01*
X90683Y22664D01*
X90629Y22586D01*
X90579Y22506D01*
X90533Y22424D01*
X90489Y22340D01*
X90450Y22254D01*
X90413Y22167D01*
X90381Y22078D01*
X90352Y21988D01*
X90327Y21897D01*
X90306Y21805D01*
X90288Y21712D01*
X90275Y21619D01*
X90265Y21525D01*
X90259Y21430D01*
X90257Y21336D01*
X92543Y23622D02*
X92649Y23620D01*
X92754Y23614D01*
X92859Y23605D01*
X92964Y23592D01*
X93068Y23575D01*
X93171Y23554D01*
X93274Y23530D01*
X93376Y23501D01*
X93476Y23470D01*
X93576Y23434D01*
X93674Y23396D01*
X93770Y23353D01*
X93866Y23307D01*
X93959Y23258D01*
X94050Y23206D01*
X94140Y23150D01*
X94228Y23091D01*
X94313Y23029D01*
X94396Y22964D01*
X94477Y22896D01*
X94555Y22825D01*
X94630Y22751D01*
X94703Y22675D01*
X94773Y22596D01*
X94840Y22515D01*
X94905Y22431D01*
X94966Y22345D01*
X95024Y22257D01*
X95079Y22167D01*
X95130Y22075D01*
X95179Y21981D01*
X95224Y21885D01*
X95265Y21788D01*
X95303Y21690D01*
X95337Y21590D01*
X91020Y19558D02*
X90953Y19625D01*
X90888Y19694D01*
X90826Y19766D01*
X90767Y19839D01*
X90711Y19916D01*
X90657Y19994D01*
X90607Y20074D01*
X90560Y20156D01*
X90516Y20240D01*
X90476Y20326D01*
X90438Y20413D01*
X90404Y20501D01*
X90374Y20591D01*
X90347Y20681D01*
X90323Y20773D01*
X90303Y20866D01*
X90287Y20959D01*
X90274Y21053D01*
X90265Y21147D01*
X90260Y21241D01*
X90258Y21336D01*
X91019Y19558D02*
X95337Y14478D01*
X90257Y14478D01*
X86193Y14478D02*
X83653Y14478D01*
X83553Y14480D01*
X83454Y14486D01*
X83354Y14496D01*
X83256Y14509D01*
X83157Y14527D01*
X83060Y14548D01*
X82964Y14573D01*
X82868Y14602D01*
X82774Y14635D01*
X82681Y14671D01*
X82590Y14711D01*
X82500Y14755D01*
X82412Y14802D01*
X82326Y14852D01*
X82242Y14906D01*
X82160Y14963D01*
X82081Y15023D01*
X82003Y15087D01*
X81929Y15153D01*
X81857Y15222D01*
X81788Y15294D01*
X81722Y15368D01*
X81658Y15446D01*
X81598Y15525D01*
X81541Y15607D01*
X81487Y15691D01*
X81437Y15777D01*
X81390Y15865D01*
X81346Y15955D01*
X81306Y16046D01*
X81270Y16139D01*
X81237Y16233D01*
X81208Y16329D01*
X81183Y16425D01*
X81162Y16522D01*
X81144Y16621D01*
X81131Y16719D01*
X81121Y16819D01*
X81115Y16918D01*
X81113Y17018D01*
X81115Y17118D01*
X81121Y17217D01*
X81131Y17317D01*
X81144Y17415D01*
X81162Y17514D01*
X81183Y17611D01*
X81208Y17707D01*
X81237Y17803D01*
X81270Y17897D01*
X81306Y17990D01*
X81346Y18081D01*
X81390Y18171D01*
X81437Y18259D01*
X81487Y18345D01*
X81541Y18429D01*
X81598Y18511D01*
X81658Y18590D01*
X81722Y18668D01*
X81788Y18742D01*
X81857Y18814D01*
X81929Y18883D01*
X82003Y18949D01*
X82081Y19013D01*
X82160Y19073D01*
X82242Y19130D01*
X82326Y19184D01*
X82412Y19234D01*
X82500Y19281D01*
X82590Y19325D01*
X82681Y19365D01*
X82774Y19401D01*
X82868Y19434D01*
X82964Y19463D01*
X83060Y19488D01*
X83157Y19509D01*
X83256Y19527D01*
X83354Y19540D01*
X83454Y19550D01*
X83553Y19556D01*
X83653Y19558D01*
X83145Y23622D02*
X86193Y23622D01*
X83145Y23622D02*
X83056Y23620D01*
X82968Y23614D01*
X82880Y23605D01*
X82792Y23591D01*
X82705Y23574D01*
X82619Y23553D01*
X82534Y23528D01*
X82450Y23499D01*
X82367Y23467D01*
X82286Y23432D01*
X82207Y23392D01*
X82129Y23350D01*
X82053Y23304D01*
X81979Y23255D01*
X81908Y23202D01*
X81839Y23147D01*
X81772Y23088D01*
X81708Y23027D01*
X81647Y22963D01*
X81588Y22896D01*
X81533Y22827D01*
X81480Y22756D01*
X81431Y22682D01*
X81385Y22606D01*
X81343Y22528D01*
X81303Y22449D01*
X81268Y22368D01*
X81236Y22285D01*
X81207Y22201D01*
X81182Y22116D01*
X81161Y22030D01*
X81144Y21943D01*
X81130Y21855D01*
X81121Y21767D01*
X81115Y21679D01*
X81113Y21590D01*
X81115Y21501D01*
X81121Y21413D01*
X81130Y21325D01*
X81144Y21237D01*
X81161Y21150D01*
X81182Y21064D01*
X81207Y20979D01*
X81236Y20895D01*
X81268Y20812D01*
X81303Y20731D01*
X81343Y20652D01*
X81385Y20574D01*
X81431Y20498D01*
X81480Y20424D01*
X81533Y20353D01*
X81588Y20284D01*
X81647Y20217D01*
X81708Y20153D01*
X81772Y20092D01*
X81839Y20033D01*
X81908Y19978D01*
X81979Y19925D01*
X82053Y19876D01*
X82129Y19830D01*
X82207Y19788D01*
X82286Y19748D01*
X82367Y19713D01*
X82450Y19681D01*
X82534Y19652D01*
X82619Y19627D01*
X82705Y19606D01*
X82792Y19589D01*
X82880Y19575D01*
X82968Y19566D01*
X83056Y19560D01*
X83145Y19558D01*
X85177Y19558D01*
X76948Y18034D02*
X70852Y18034D01*
X63892Y23622D02*
X63798Y23620D01*
X63703Y23614D01*
X63609Y23604D01*
X63516Y23591D01*
X63423Y23573D01*
X63331Y23552D01*
X63240Y23527D01*
X63150Y23498D01*
X63061Y23466D01*
X62974Y23429D01*
X62888Y23390D01*
X62804Y23346D01*
X62722Y23300D01*
X62642Y23250D01*
X62564Y23196D01*
X62488Y23140D01*
X62415Y23080D01*
X62344Y23018D01*
X62276Y22952D01*
X62210Y22884D01*
X62148Y22813D01*
X62088Y22740D01*
X62032Y22664D01*
X61978Y22586D01*
X61928Y22506D01*
X61882Y22424D01*
X61838Y22340D01*
X61799Y22254D01*
X61762Y22167D01*
X61730Y22078D01*
X61701Y21988D01*
X61676Y21897D01*
X61655Y21805D01*
X61637Y21712D01*
X61624Y21619D01*
X61614Y21525D01*
X61608Y21430D01*
X61606Y21336D01*
X63892Y23622D02*
X63998Y23620D01*
X64103Y23614D01*
X64208Y23605D01*
X64313Y23592D01*
X64417Y23575D01*
X64520Y23554D01*
X64623Y23530D01*
X64725Y23501D01*
X64825Y23470D01*
X64925Y23434D01*
X65023Y23396D01*
X65119Y23353D01*
X65215Y23307D01*
X65308Y23258D01*
X65399Y23206D01*
X65489Y23150D01*
X65577Y23091D01*
X65662Y23029D01*
X65745Y22964D01*
X65826Y22896D01*
X65904Y22825D01*
X65979Y22751D01*
X66052Y22675D01*
X66122Y22596D01*
X66189Y22515D01*
X66254Y22431D01*
X66315Y22345D01*
X66373Y22257D01*
X66428Y22167D01*
X66479Y22075D01*
X66528Y21981D01*
X66573Y21885D01*
X66614Y21788D01*
X66652Y21690D01*
X66686Y21590D01*
X62368Y19558D02*
X62301Y19625D01*
X62236Y19694D01*
X62174Y19766D01*
X62115Y19839D01*
X62059Y19916D01*
X62005Y19994D01*
X61955Y20074D01*
X61908Y20156D01*
X61864Y20240D01*
X61824Y20326D01*
X61786Y20413D01*
X61752Y20501D01*
X61722Y20591D01*
X61695Y20681D01*
X61671Y20773D01*
X61651Y20866D01*
X61635Y20959D01*
X61622Y21053D01*
X61613Y21147D01*
X61608Y21241D01*
X61606Y21336D01*
X62368Y19558D02*
X66686Y14478D01*
X61606Y14478D01*
X57542Y19050D02*
X57540Y19230D01*
X57533Y19410D01*
X57523Y19589D01*
X57508Y19768D01*
X57488Y19947D01*
X57465Y20126D01*
X57437Y20303D01*
X57405Y20480D01*
X57369Y20657D01*
X57328Y20832D01*
X57284Y21006D01*
X57235Y21179D01*
X57182Y21351D01*
X57125Y21522D01*
X57064Y21691D01*
X56999Y21859D01*
X56930Y22025D01*
X56857Y22189D01*
X56780Y22352D01*
X56752Y22430D01*
X56719Y22507D01*
X56684Y22582D01*
X56645Y22656D01*
X56603Y22728D01*
X56558Y22797D01*
X56509Y22865D01*
X56458Y22931D01*
X56404Y22994D01*
X56347Y23055D01*
X56288Y23114D01*
X56226Y23169D01*
X56161Y23222D01*
X56095Y23272D01*
X56026Y23319D01*
X55955Y23363D01*
X55882Y23403D01*
X55808Y23440D01*
X55732Y23475D01*
X55654Y23505D01*
X55576Y23532D01*
X55496Y23556D01*
X55415Y23576D01*
X55333Y23593D01*
X55251Y23605D01*
X55168Y23615D01*
X55085Y23620D01*
X55002Y23622D01*
X54919Y23620D01*
X54836Y23615D01*
X54753Y23605D01*
X54671Y23593D01*
X54589Y23576D01*
X54508Y23556D01*
X54428Y23532D01*
X54350Y23505D01*
X54272Y23475D01*
X54196Y23440D01*
X54122Y23403D01*
X54049Y23363D01*
X53978Y23319D01*
X53909Y23272D01*
X53843Y23222D01*
X53778Y23169D01*
X53716Y23114D01*
X53657Y23055D01*
X53600Y22994D01*
X53546Y22931D01*
X53495Y22865D01*
X53446Y22797D01*
X53401Y22728D01*
X53359Y22656D01*
X53320Y22582D01*
X53285Y22507D01*
X53252Y22430D01*
X53224Y22352D01*
X53147Y22189D01*
X53074Y22025D01*
X53005Y21859D01*
X52940Y21691D01*
X52879Y21522D01*
X52822Y21351D01*
X52769Y21179D01*
X52720Y21006D01*
X52676Y20832D01*
X52635Y20657D01*
X52599Y20480D01*
X52567Y20303D01*
X52539Y20126D01*
X52516Y19947D01*
X52496Y19768D01*
X52481Y19589D01*
X52471Y19410D01*
X52464Y19230D01*
X52462Y19050D01*
X57542Y19050D02*
X57540Y18870D01*
X57533Y18690D01*
X57523Y18511D01*
X57508Y18332D01*
X57488Y18153D01*
X57465Y17974D01*
X57437Y17797D01*
X57405Y17620D01*
X57369Y17443D01*
X57328Y17268D01*
X57284Y17094D01*
X57235Y16921D01*
X57182Y16749D01*
X57125Y16578D01*
X57064Y16409D01*
X56999Y16241D01*
X56930Y16075D01*
X56857Y15911D01*
X56780Y15748D01*
X56752Y15670D01*
X56719Y15593D01*
X56684Y15518D01*
X56645Y15444D01*
X56603Y15372D01*
X56558Y15303D01*
X56509Y15235D01*
X56458Y15169D01*
X56404Y15106D01*
X56347Y15045D01*
X56288Y14986D01*
X56226Y14931D01*
X56161Y14878D01*
X56095Y14828D01*
X56026Y14781D01*
X55955Y14737D01*
X55882Y14697D01*
X55808Y14660D01*
X55732Y14625D01*
X55654Y14595D01*
X55576Y14568D01*
X55496Y14544D01*
X55415Y14524D01*
X55333Y14507D01*
X55251Y14495D01*
X55168Y14485D01*
X55085Y14480D01*
X55002Y14478D01*
X53224Y15748D02*
X53147Y15911D01*
X53074Y16075D01*
X53005Y16241D01*
X52940Y16409D01*
X52879Y16578D01*
X52822Y16749D01*
X52769Y16921D01*
X52720Y17094D01*
X52676Y17268D01*
X52635Y17443D01*
X52599Y17620D01*
X52567Y17797D01*
X52539Y17974D01*
X52516Y18153D01*
X52496Y18332D01*
X52481Y18511D01*
X52471Y18690D01*
X52464Y18870D01*
X52462Y19050D01*
X53224Y15748D02*
X53252Y15670D01*
X53285Y15593D01*
X53320Y15518D01*
X53359Y15444D01*
X53401Y15372D01*
X53446Y15303D01*
X53495Y15235D01*
X53546Y15169D01*
X53600Y15106D01*
X53657Y15045D01*
X53716Y14986D01*
X53778Y14931D01*
X53843Y14878D01*
X53909Y14828D01*
X53978Y14781D01*
X54049Y14737D01*
X54122Y14697D01*
X54196Y14660D01*
X54272Y14625D01*
X54350Y14595D01*
X54428Y14568D01*
X54508Y14544D01*
X54589Y14524D01*
X54671Y14507D01*
X54753Y14495D01*
X54836Y14485D01*
X54919Y14480D01*
X55002Y14478D01*
X57034Y16510D02*
X52970Y21590D01*
X45604Y23622D02*
X45510Y23620D01*
X45415Y23614D01*
X45321Y23604D01*
X45228Y23591D01*
X45135Y23573D01*
X45043Y23552D01*
X44952Y23527D01*
X44862Y23498D01*
X44773Y23466D01*
X44686Y23429D01*
X44600Y23390D01*
X44516Y23346D01*
X44434Y23300D01*
X44354Y23250D01*
X44276Y23196D01*
X44200Y23140D01*
X44127Y23080D01*
X44056Y23018D01*
X43988Y22952D01*
X43922Y22884D01*
X43860Y22813D01*
X43800Y22740D01*
X43744Y22664D01*
X43690Y22586D01*
X43640Y22506D01*
X43594Y22424D01*
X43550Y22340D01*
X43511Y22254D01*
X43474Y22167D01*
X43442Y22078D01*
X43413Y21988D01*
X43388Y21897D01*
X43367Y21805D01*
X43349Y21712D01*
X43336Y21619D01*
X43326Y21525D01*
X43320Y21430D01*
X43318Y21336D01*
X45604Y23622D02*
X45710Y23620D01*
X45815Y23614D01*
X45920Y23605D01*
X46025Y23592D01*
X46129Y23575D01*
X46232Y23554D01*
X46335Y23530D01*
X46437Y23501D01*
X46537Y23470D01*
X46637Y23434D01*
X46735Y23396D01*
X46831Y23353D01*
X46927Y23307D01*
X47020Y23258D01*
X47111Y23206D01*
X47201Y23150D01*
X47289Y23091D01*
X47374Y23029D01*
X47457Y22964D01*
X47538Y22896D01*
X47616Y22825D01*
X47691Y22751D01*
X47764Y22675D01*
X47834Y22596D01*
X47901Y22515D01*
X47966Y22431D01*
X48027Y22345D01*
X48085Y22257D01*
X48140Y22167D01*
X48191Y22075D01*
X48240Y21981D01*
X48285Y21885D01*
X48326Y21788D01*
X48364Y21690D01*
X48398Y21590D01*
X44080Y19558D02*
X44013Y19625D01*
X43948Y19694D01*
X43886Y19766D01*
X43827Y19839D01*
X43771Y19916D01*
X43717Y19994D01*
X43667Y20074D01*
X43620Y20156D01*
X43576Y20240D01*
X43536Y20326D01*
X43498Y20413D01*
X43464Y20501D01*
X43434Y20591D01*
X43407Y20681D01*
X43383Y20773D01*
X43363Y20866D01*
X43347Y20959D01*
X43334Y21053D01*
X43325Y21147D01*
X43320Y21241D01*
X43318Y21336D01*
X44080Y19558D02*
X48398Y14478D01*
X43318Y14478D01*
X39254Y16510D02*
X37222Y23622D01*
X39254Y16510D02*
X34174Y16510D01*
X35698Y18542D02*
X35698Y14478D01*
D11*
X31830Y205740D02*
X46910Y205740D01*
X46910Y180340D02*
X31830Y180340D01*
X317460Y360680D02*
X332540Y360680D01*
X332540Y335280D02*
X317460Y335280D01*
X317460Y60960D02*
X332540Y60960D01*
X332540Y35560D02*
X317460Y35560D01*
X229870Y59770D02*
X229870Y74850D01*
X204470Y74850D02*
X204470Y59770D01*
D12*
X342900Y101600D03*
X342900Y228600D03*
D13*
X64770Y255270D03*
X116840Y318770D03*
X83820Y359410D03*
X33020Y113030D03*
X36830Y41910D03*
X90170Y217170D03*
X15240Y238760D03*
X180340Y149860D03*
X270510Y43180D03*
X330200Y313690D03*
X299720Y313690D03*
X264160Y313690D03*
X262890Y271780D03*
X322580Y129540D03*
X173990Y52070D03*
X322580Y97790D03*
X173990Y72390D03*
X128270Y257810D03*
X204470Y224790D03*
X59690Y100330D03*
X113030Y34290D03*
X63500Y215900D03*
D14*
X63500Y127000D01*
X109220Y127000D01*
D13*
X109220Y127000D03*
X86995Y154305D03*
D14*
X76835Y164465D02*
X76835Y248920D01*
X76835Y164465D02*
X86995Y154305D01*
X109220Y255270D02*
X109220Y259080D01*
X109220Y255270D02*
X102870Y248920D01*
X76835Y248920D01*
D13*
X109220Y259080D03*
X71120Y308610D03*
D14*
X71120Y330200D01*
X54610Y346710D01*
X54610Y359410D01*
D13*
X54610Y359410D03*
X134620Y105410D03*
D14*
X129540Y100330D01*
X129540Y63500D01*
D13*
X104140Y45720D03*
D14*
X111760Y45720D02*
X129540Y63500D01*
X111760Y45720D02*
X104140Y45720D01*
D13*
X45462Y152357D03*
D14*
X46732Y152357D02*
X52042Y147047D01*
X46732Y152357D02*
X45462Y152357D01*
X52042Y147047D02*
X52042Y125758D01*
D13*
X104140Y66040D03*
D14*
X104140Y73660D01*
X52042Y125758D01*
D13*
X185420Y223520D03*
D14*
X185420Y187960D01*
X180340Y182880D01*
X180340Y167048D01*
D13*
X180340Y167048D03*
X175895Y306705D03*
D14*
X175895Y338455D01*
X153670Y360680D02*
X153670Y361950D01*
X153670Y360680D02*
X175895Y338455D01*
D13*
X153670Y361950D03*
X256540Y195580D03*
D15*
X177800Y116840D02*
X177800Y101600D01*
X177800Y116840D02*
X256540Y195580D01*
D13*
X177800Y101600D03*
X226060Y259080D03*
D16*
X213360Y246380D01*
X167640Y246380D01*
X165100Y243840D01*
X165100Y147320D01*
D13*
X165100Y147320D03*
X139700Y246380D03*
D16*
X167640Y246380D01*
D13*
X156210Y325120D03*
D14*
X156210Y332740D01*
X139700Y349250D01*
D13*
X139700Y361950D03*
D14*
X139700Y349250D01*
D13*
X198120Y325120D03*
D14*
X198120Y316230D02*
X218440Y295910D01*
X198120Y316230D02*
X198120Y325120D01*
X218440Y295910D02*
X218440Y289560D01*
X218440Y281940D01*
X215900Y279400D01*
D13*
X215900Y279400D03*
X165100Y314960D03*
D14*
X165100Y292100D01*
X167640Y289560D01*
X218440Y289560D01*
M02*
