M48
;GenerationSoftware,Autodesk,EAGLE,9.6.2*%
;CreationDate,2024-01-20T19:30:47Z*%
FMAT,2
ICI,OFF
METRIC,TZ,000.000
T2C0.400
T1C1.000
%
G90
M71
T1
X20447Y6731
X3937Y18034
X3937Y20574
X32500Y36068
X32500Y33528
X32500Y6096
X32500Y3556
X22987Y6731
T2
X27051Y4318
X33020Y31369
X29972Y31369
X26416Y31369
X26289Y27178
X32258Y12954
X17399Y5207
X32258Y9779
X17399Y7239
X12827Y25781
X20447Y22479
X5969Y10033
X11303Y3429
X6350Y21590
X10922Y12700
X8700Y15430
X10922Y25908
X7112Y30861
X1524Y23876
X13462Y10541
X10414Y4572
X4546Y15236
X10414Y6604
X18542Y22352
X18034Y16705
X17590Y30670
X15367Y36195
X25654Y19558
X17780Y10160
X22606Y25908
X16510Y14732
X13970Y24638
X6477Y25527
X13970Y36195
X19812Y32512
X21590Y27940
X16510Y31496
X11684Y31877
X5461Y35941
X8382Y35941
X3302Y11303
X3683Y4191
X9017Y21717
X18034Y14986
X15621Y32512
M30