G04 This is an RS-274x file exported by *
G04 gerbv version 2.6A *
G04 More information is available about gerbv at *
G04 http://gerbv.geda-project.org/ *
G04 --End of header info--*
%MOIN*%
%FSLAX34Y34*%
%IPPOS*%
G04 --Define apertures--*
%ADD10C,0.0394*%
%ADD11C,0.0157*%
G04 --Start main section--*
G54D10*
G01X0008050Y0002650D03*
G01X0001550Y0007100D03*
G01X0001550Y0008100D03*
G01X0012795Y0014200D03*
G01X0012795Y0013200D03*
G01X0012795Y0002400D03*
G01X0012795Y0001400D03*
G01X0009050Y0002650D03*
G54D11*
G01X0010650Y0001700D03*
G01X0013000Y0012350D03*
G01X0011800Y0012350D03*
G01X0010400Y0012350D03*
G01X0010350Y0010700D03*
G01X0012700Y0005100D03*
G01X0006850Y0002050D03*
G01X0012700Y0003850D03*
G01X0006850Y0002850D03*
G01X0005050Y0010150D03*
G01X0008050Y0008850D03*
G01X0002350Y0003950D03*
G01X0004450Y0001350D03*
G01X0002500Y0008500D03*
G01X0004300Y0005000D03*
G01X0003425Y0006075D03*
G01X0004300Y0010200D03*
G01X0002800Y0012150D03*
G01X0000600Y0009400D03*
G01X0005300Y0004150D03*
G01X0004100Y0001800D03*
G01X0001790Y0005998D03*
G01X0004100Y0002600D03*
G01X0007300Y0008800D03*
G01X0007100Y0006577D03*
G01X0006925Y0012075D03*
G01X0006050Y0014250D03*
G01X0010100Y0007700D03*
G01X0007000Y0004000D03*
G01X0008900Y0010200D03*
G01X0006500Y0005800D03*
G01X0005500Y0009700D03*
G01X0002550Y0010050D03*
G01X0005500Y0014250D03*
G01X0007800Y0012800D03*
G01X0008500Y0011000D03*
G01X0006500Y0012400D03*
G01X0004600Y0012550D03*
G01X0002150Y0014150D03*
G01X0003300Y0014150D03*
G01X0001300Y0004450D03*
G01X0001450Y0001650D03*
G01X0003550Y0008550D03*
G01X0007100Y0005900D03*
G01X0006150Y0012800D03*
M02*
