G04 EAGLE Gerber RS-274X export*
G75*
%MOMM*%
%FSLAX34Y34*%
%LPD*%
%INSoldermask Bottom*%
%IPPOS*%
%AMOC8*
5,1,8,0,0,1.08239X$1,22.5*%
G01*
%ADD10C,1.711200*%
%ADD11C,2.000000*%
%ADD12C,1.103200*%


D10*
X31830Y205740D02*
X46910Y205740D01*
X46910Y180340D02*
X31830Y180340D01*
X317460Y360680D02*
X332540Y360680D01*
X332540Y335280D02*
X317460Y335280D01*
X317460Y60960D02*
X332540Y60960D01*
X332540Y35560D02*
X317460Y35560D01*
X229870Y59770D02*
X229870Y74850D01*
X204470Y74850D02*
X204470Y59770D01*
D11*
X342900Y101600D03*
X342900Y228600D03*
D12*
X64770Y255270D03*
X116840Y318770D03*
X83820Y359410D03*
X33020Y113030D03*
X36830Y41910D03*
X90170Y217170D03*
X15240Y238760D03*
X180340Y149860D03*
X270510Y43180D03*
X330200Y313690D03*
X299720Y313690D03*
X264160Y313690D03*
X262890Y271780D03*
X322580Y129540D03*
X173990Y52070D03*
X322580Y97790D03*
X173990Y72390D03*
X128270Y257810D03*
X204470Y224790D03*
X59690Y100330D03*
X113030Y34290D03*
X63500Y215900D03*
X109220Y127000D03*
X86995Y154305D03*
X109220Y259080D03*
X71120Y308610D03*
X54610Y359410D03*
X134620Y105410D03*
X104140Y45720D03*
X45462Y152357D03*
X104140Y66040D03*
X185420Y223520D03*
X180340Y167048D03*
X175895Y306705D03*
X153670Y361950D03*
X256540Y195580D03*
X177800Y101600D03*
X226060Y259080D03*
X165100Y147320D03*
X139700Y246380D03*
X156210Y325120D03*
X139700Y361950D03*
X198120Y325120D03*
X215900Y279400D03*
X165100Y314960D03*
M02*
