G04 EAGLE Gerber RS-274X export*
G75*
%MOMM*%
%FSLAX34Y34*%
%LPD*%
%INTop Copper*%
%IPPOS*%
%AMOC8*
5,1,8,0,0,1.08239X$1,22.5*%
G01*
%ADD10R,1.300000X1.500000*%
%ADD11R,1.000000X1.200000*%
%ADD12R,1.200000X1.200000*%
%ADD13R,1.400000X1.000000*%
%ADD14R,1.000000X1.400000*%
%ADD15R,1.500000X1.300000*%
%ADD16R,1.600000X1.300000*%
%ADD17R,1.600000X2.000000*%
%ADD18R,2.700000X1.800000*%
%ADD19R,1.300000X1.600000*%
%ADD20R,2.000000X1.600000*%
%ADD21R,3.000000X1.600000*%
%ADD22R,4.191000X4.826000*%
%ADD23C,1.508000*%
%ADD24C,1.000000*%
%ADD25C,0.508000*%
%ADD26C,0.900000*%
%ADD27C,0.406400*%
%ADD28C,1.270000*%
%ADD29C,0.812800*%
%ADD30C,1.016000*%
%ADD31C,0.609600*%
%ADD32C,2.540000*%
%ADD33C,2.000000*%

G36*
X304631Y30228D02*
X304631Y30228D01*
X304645Y30227D01*
X304831Y30248D01*
X305019Y30267D01*
X305032Y30271D01*
X305045Y30272D01*
X305224Y30330D01*
X305404Y30385D01*
X305415Y30391D01*
X305428Y30395D01*
X305593Y30487D01*
X305758Y30577D01*
X305768Y30585D01*
X305780Y30592D01*
X305922Y30714D01*
X306067Y30834D01*
X306075Y30845D01*
X306085Y30853D01*
X306201Y31001D01*
X306319Y31148D01*
X306325Y31160D01*
X306334Y31170D01*
X306418Y31339D01*
X306505Y31505D01*
X306508Y31518D01*
X306514Y31530D01*
X306564Y31712D01*
X306616Y31892D01*
X306617Y31906D01*
X306621Y31919D01*
X306634Y32107D01*
X306649Y32294D01*
X306647Y32307D01*
X306648Y32320D01*
X306624Y32508D01*
X306602Y32693D01*
X306598Y32706D01*
X306596Y32719D01*
X306495Y33035D01*
X306363Y33353D01*
X306363Y37767D01*
X308053Y41846D01*
X311174Y44967D01*
X315200Y46635D01*
X315253Y46657D01*
X316083Y46657D01*
X316110Y46659D01*
X316137Y46657D01*
X316310Y46679D01*
X316484Y46697D01*
X316509Y46704D01*
X316536Y46708D01*
X316702Y46763D01*
X316869Y46815D01*
X316892Y46828D01*
X316918Y46836D01*
X317069Y46923D01*
X317223Y47007D01*
X317243Y47024D01*
X317244Y47024D01*
X317254Y47027D01*
X317387Y47107D01*
X317523Y47180D01*
X317559Y47210D01*
X317599Y47234D01*
X317714Y47338D01*
X317834Y47436D01*
X317863Y47473D01*
X317898Y47504D01*
X317990Y47629D01*
X318087Y47749D01*
X318109Y47790D01*
X318137Y47828D01*
X318202Y47968D01*
X318274Y48105D01*
X318287Y48150D01*
X318307Y48193D01*
X318344Y48343D01*
X318387Y48492D01*
X318391Y48538D01*
X318403Y48584D01*
X318409Y48739D01*
X318422Y48893D01*
X318417Y48939D01*
X318419Y48986D01*
X318394Y49139D01*
X318377Y49293D01*
X318363Y49338D01*
X318355Y49384D01*
X318301Y49529D01*
X318254Y49676D01*
X318231Y49717D01*
X318215Y49761D01*
X318133Y49892D01*
X318057Y50028D01*
X318027Y50063D01*
X318002Y50103D01*
X317896Y50216D01*
X317796Y50334D01*
X317759Y50363D01*
X317727Y50397D01*
X317601Y50486D01*
X317479Y50582D01*
X317437Y50603D01*
X317399Y50630D01*
X317257Y50693D01*
X317119Y50763D01*
X317074Y50775D01*
X317031Y50794D01*
X316788Y50853D01*
X316731Y50869D01*
X316721Y50870D01*
X316709Y50873D01*
X315099Y51128D01*
X313590Y51618D01*
X312176Y52338D01*
X310893Y53271D01*
X309771Y54393D01*
X308838Y55676D01*
X308118Y57090D01*
X307673Y58461D01*
X324532Y58461D01*
X324550Y58462D01*
X324567Y58461D01*
X324750Y58482D01*
X324932Y58501D01*
X324949Y58506D01*
X324967Y58508D01*
X325008Y58521D01*
X325102Y58494D01*
X325120Y58492D01*
X325137Y58488D01*
X325468Y58461D01*
X342327Y58461D01*
X341882Y57090D01*
X341162Y55676D01*
X340229Y54393D01*
X339107Y53271D01*
X338447Y52791D01*
X338321Y52679D01*
X338192Y52572D01*
X338171Y52546D01*
X338146Y52524D01*
X338045Y52389D01*
X337940Y52258D01*
X337925Y52228D01*
X337905Y52202D01*
X337832Y52050D01*
X337754Y51901D01*
X337745Y51869D01*
X337731Y51839D01*
X337689Y51675D01*
X337643Y51514D01*
X337640Y51480D01*
X337632Y51448D01*
X337624Y51280D01*
X337610Y51112D01*
X337614Y51079D01*
X337612Y51046D01*
X337637Y50880D01*
X337657Y50713D01*
X337667Y50681D01*
X337672Y50648D01*
X337730Y50489D01*
X337782Y50330D01*
X337798Y50301D01*
X337810Y50269D01*
X337897Y50126D01*
X337980Y49979D01*
X338002Y49954D01*
X338019Y49925D01*
X338133Y49802D01*
X338243Y49674D01*
X338269Y49654D01*
X338292Y49630D01*
X338428Y49531D01*
X338561Y49428D01*
X338591Y49413D01*
X338618Y49393D01*
X338771Y49323D01*
X338922Y49248D01*
X338954Y49240D01*
X338984Y49226D01*
X339147Y49188D01*
X339310Y49144D01*
X339348Y49141D01*
X339376Y49134D01*
X339462Y49131D01*
X339641Y49117D01*
X347472Y49117D01*
X347490Y49119D01*
X347508Y49117D01*
X347690Y49138D01*
X347873Y49157D01*
X347890Y49162D01*
X347907Y49164D01*
X348082Y49221D01*
X348258Y49275D01*
X348273Y49283D01*
X348290Y49289D01*
X348450Y49379D01*
X348612Y49467D01*
X348625Y49478D01*
X348641Y49487D01*
X348780Y49607D01*
X348921Y49724D01*
X348932Y49738D01*
X348946Y49750D01*
X349058Y49895D01*
X349173Y50038D01*
X349181Y50054D01*
X349192Y50068D01*
X349274Y50233D01*
X349359Y50395D01*
X349364Y50412D01*
X349372Y50428D01*
X349419Y50607D01*
X349470Y50782D01*
X349472Y50800D01*
X349476Y50817D01*
X349503Y51148D01*
X349503Y86622D01*
X349502Y86635D01*
X349503Y86648D01*
X349482Y86835D01*
X349463Y87022D01*
X349459Y87035D01*
X349458Y87048D01*
X349400Y87227D01*
X349345Y87407D01*
X349339Y87419D01*
X349335Y87432D01*
X349243Y87595D01*
X349153Y87761D01*
X349145Y87771D01*
X349138Y87783D01*
X349016Y87926D01*
X348896Y88070D01*
X348885Y88079D01*
X348877Y88089D01*
X348728Y88205D01*
X348582Y88323D01*
X348570Y88329D01*
X348560Y88337D01*
X348391Y88422D01*
X348225Y88508D01*
X348212Y88512D01*
X348200Y88518D01*
X348018Y88568D01*
X347838Y88620D01*
X347824Y88621D01*
X347811Y88624D01*
X347625Y88637D01*
X347436Y88652D01*
X347423Y88651D01*
X347410Y88652D01*
X347224Y88628D01*
X347037Y88606D01*
X347024Y88601D01*
X347011Y88600D01*
X346695Y88498D01*
X345597Y88043D01*
X340203Y88043D01*
X335221Y90107D01*
X331407Y93921D01*
X329343Y98903D01*
X329343Y104297D01*
X331407Y109279D01*
X335221Y113093D01*
X340203Y115157D01*
X345597Y115157D01*
X346695Y114702D01*
X346708Y114698D01*
X346719Y114692D01*
X346900Y114640D01*
X347080Y114585D01*
X347093Y114584D01*
X347106Y114580D01*
X347295Y114565D01*
X347481Y114547D01*
X347494Y114549D01*
X347508Y114548D01*
X347694Y114569D01*
X347881Y114589D01*
X347894Y114593D01*
X347907Y114594D01*
X348085Y114653D01*
X348266Y114709D01*
X348277Y114715D01*
X348290Y114719D01*
X348454Y114812D01*
X348619Y114902D01*
X348629Y114911D01*
X348641Y114917D01*
X348783Y115040D01*
X348927Y115161D01*
X348935Y115172D01*
X348946Y115180D01*
X349061Y115329D01*
X349178Y115476D01*
X349184Y115488D01*
X349192Y115498D01*
X349276Y115667D01*
X349362Y115834D01*
X349366Y115847D01*
X349372Y115859D01*
X349421Y116041D01*
X349472Y116221D01*
X349473Y116235D01*
X349476Y116248D01*
X349503Y116578D01*
X349503Y156972D01*
X349501Y156990D01*
X349503Y157008D01*
X349482Y157190D01*
X349463Y157373D01*
X349458Y157390D01*
X349456Y157407D01*
X349399Y157582D01*
X349345Y157758D01*
X349337Y157773D01*
X349331Y157790D01*
X349241Y157950D01*
X349153Y158112D01*
X349142Y158125D01*
X349133Y158141D01*
X349013Y158280D01*
X348896Y158421D01*
X348882Y158432D01*
X348870Y158446D01*
X348725Y158558D01*
X348582Y158673D01*
X348566Y158681D01*
X348552Y158692D01*
X348387Y158774D01*
X348225Y158859D01*
X348208Y158864D01*
X348192Y158872D01*
X348013Y158919D01*
X347838Y158970D01*
X347820Y158972D01*
X347803Y158976D01*
X347472Y159003D01*
X323532Y159003D01*
X321448Y161087D01*
X321448Y212293D01*
X323532Y214377D01*
X333047Y214377D01*
X333056Y214378D01*
X333065Y214377D01*
X333257Y214398D01*
X333448Y214417D01*
X333456Y214419D01*
X333465Y214420D01*
X333648Y214478D01*
X333833Y214535D01*
X333841Y214539D01*
X333849Y214542D01*
X334018Y214635D01*
X334187Y214727D01*
X334194Y214732D01*
X334202Y214737D01*
X334348Y214861D01*
X334496Y214984D01*
X334502Y214991D01*
X334509Y214997D01*
X334628Y215148D01*
X334748Y215298D01*
X334753Y215306D01*
X334758Y215313D01*
X334846Y215486D01*
X334934Y215655D01*
X334936Y215664D01*
X334940Y215672D01*
X334992Y215858D01*
X335045Y216042D01*
X335046Y216051D01*
X335048Y216060D01*
X335063Y216252D01*
X335078Y216444D01*
X335077Y216452D01*
X335078Y216461D01*
X335054Y216654D01*
X335031Y216843D01*
X335029Y216852D01*
X335027Y216861D01*
X334966Y217044D01*
X334906Y217226D01*
X334902Y217234D01*
X334899Y217242D01*
X334803Y217409D01*
X334709Y217577D01*
X334703Y217584D01*
X334698Y217591D01*
X334484Y217844D01*
X331407Y220921D01*
X329343Y225903D01*
X329343Y231297D01*
X331407Y236279D01*
X333214Y238086D01*
X333219Y238093D01*
X333226Y238098D01*
X333346Y238248D01*
X333469Y238397D01*
X333473Y238405D01*
X333478Y238412D01*
X333567Y238582D01*
X333657Y238753D01*
X333660Y238762D01*
X333664Y238769D01*
X333717Y238954D01*
X333772Y239139D01*
X333773Y239148D01*
X333775Y239156D01*
X333791Y239347D01*
X333808Y239540D01*
X333808Y239549D01*
X333808Y239558D01*
X333786Y239747D01*
X333765Y239940D01*
X333762Y239949D01*
X333761Y239957D01*
X333702Y240139D01*
X333644Y240324D01*
X333639Y240332D01*
X333636Y240340D01*
X333542Y240507D01*
X333449Y240676D01*
X333443Y240683D01*
X333439Y240691D01*
X333313Y240836D01*
X333188Y240983D01*
X333181Y240989D01*
X333175Y240996D01*
X333025Y241112D01*
X332872Y241233D01*
X332864Y241237D01*
X332857Y241242D01*
X332686Y241328D01*
X332513Y241415D01*
X332505Y241418D01*
X332497Y241422D01*
X332311Y241472D01*
X332126Y241523D01*
X332117Y241524D01*
X332108Y241526D01*
X331777Y241553D01*
X323532Y241553D01*
X321448Y243637D01*
X321448Y294843D01*
X323532Y296927D01*
X344282Y296927D01*
X344300Y296929D01*
X344318Y296927D01*
X344500Y296948D01*
X344683Y296967D01*
X344700Y296972D01*
X344717Y296974D01*
X344892Y297031D01*
X345068Y297085D01*
X345083Y297093D01*
X345100Y297099D01*
X345260Y297189D01*
X345422Y297277D01*
X345435Y297288D01*
X345451Y297297D01*
X345590Y297417D01*
X345731Y297534D01*
X345742Y297548D01*
X345756Y297560D01*
X345868Y297705D01*
X345983Y297848D01*
X345991Y297864D01*
X346002Y297878D01*
X346084Y298043D01*
X346169Y298205D01*
X346174Y298222D01*
X346182Y298238D01*
X346229Y298417D01*
X346280Y298592D01*
X346282Y298610D01*
X346286Y298627D01*
X346313Y298958D01*
X346313Y332223D01*
X346305Y332307D01*
X346306Y332391D01*
X346285Y332507D01*
X346273Y332624D01*
X346249Y332704D01*
X346233Y332787D01*
X346190Y332896D01*
X346155Y333009D01*
X346115Y333083D01*
X346084Y333161D01*
X346019Y333260D01*
X345963Y333363D01*
X345910Y333427D01*
X345863Y333498D01*
X345781Y333582D01*
X345706Y333672D01*
X345640Y333725D01*
X345581Y333785D01*
X345483Y333851D01*
X345392Y333924D01*
X345317Y333963D01*
X345247Y334010D01*
X345139Y334056D01*
X345035Y334110D01*
X344954Y334133D01*
X344876Y334166D01*
X344761Y334189D01*
X344648Y334221D01*
X344564Y334228D01*
X344481Y334245D01*
X344364Y334244D01*
X344246Y334254D01*
X344163Y334244D01*
X344078Y334244D01*
X343963Y334221D01*
X343847Y334207D01*
X343766Y334181D01*
X343684Y334164D01*
X343575Y334119D01*
X343464Y334082D01*
X343390Y334041D01*
X343313Y334008D01*
X343216Y333942D01*
X343113Y333884D01*
X343049Y333829D01*
X342980Y333782D01*
X342897Y333698D01*
X342809Y333621D01*
X342757Y333555D01*
X342698Y333494D01*
X342634Y333396D01*
X342562Y333303D01*
X342524Y333228D01*
X342478Y333157D01*
X342421Y333020D01*
X342382Y332943D01*
X342371Y332902D01*
X342350Y332851D01*
X341882Y331410D01*
X341162Y329996D01*
X340229Y328713D01*
X339107Y327591D01*
X337824Y326658D01*
X336410Y325938D01*
X334901Y325448D01*
X333333Y325199D01*
X327499Y325199D01*
X327499Y334812D01*
X327497Y334830D01*
X327499Y334847D01*
X327478Y335030D01*
X327459Y335212D01*
X327454Y335229D01*
X327452Y335247D01*
X327395Y335422D01*
X327341Y335597D01*
X327333Y335613D01*
X327327Y335630D01*
X327237Y335790D01*
X327149Y335951D01*
X327138Y335965D01*
X327129Y335981D01*
X327009Y336120D01*
X326892Y336261D01*
X326878Y336272D01*
X326866Y336285D01*
X326721Y336398D01*
X326578Y336513D01*
X326562Y336521D01*
X326548Y336532D01*
X326383Y336614D01*
X326356Y336628D01*
X326301Y336726D01*
X326213Y336888D01*
X326202Y336901D01*
X326193Y336917D01*
X326073Y337056D01*
X325955Y337197D01*
X325942Y337208D01*
X325930Y337222D01*
X325785Y337334D01*
X325642Y337449D01*
X325626Y337457D01*
X325612Y337468D01*
X325447Y337550D01*
X325284Y337635D01*
X325267Y337640D01*
X325251Y337648D01*
X325073Y337695D01*
X324898Y337746D01*
X324880Y337748D01*
X324863Y337752D01*
X324532Y337779D01*
X307673Y337779D01*
X308118Y339150D01*
X308838Y340564D01*
X309771Y341847D01*
X310893Y342969D01*
X312176Y343902D01*
X313590Y344622D01*
X315099Y345112D01*
X316709Y345367D01*
X316754Y345379D01*
X316801Y345384D01*
X316949Y345430D01*
X317098Y345469D01*
X317140Y345490D01*
X317185Y345504D01*
X317321Y345578D01*
X317460Y345646D01*
X317497Y345675D01*
X317538Y345697D01*
X317657Y345797D01*
X317780Y345891D01*
X317810Y345926D01*
X317846Y345956D01*
X317943Y346078D01*
X318045Y346194D01*
X318068Y346235D01*
X318097Y346271D01*
X318168Y346409D01*
X318245Y346543D01*
X318260Y346588D01*
X318281Y346629D01*
X318323Y346779D01*
X318372Y346925D01*
X318378Y346972D01*
X318391Y347017D01*
X318403Y347171D01*
X318422Y347325D01*
X318418Y347372D01*
X318422Y347418D01*
X318403Y347572D01*
X318391Y347726D01*
X318379Y347771D01*
X318373Y347818D01*
X318324Y347965D01*
X318283Y348114D01*
X318261Y348156D01*
X318247Y348200D01*
X318170Y348335D01*
X318099Y348473D01*
X318070Y348509D01*
X318047Y348550D01*
X317946Y348666D01*
X317849Y348788D01*
X317813Y348818D01*
X317783Y348853D01*
X317660Y348947D01*
X317541Y349048D01*
X317500Y349070D01*
X317463Y349099D01*
X317252Y349207D01*
X317208Y349243D01*
X317184Y349256D01*
X317163Y349272D01*
X317006Y349350D01*
X316852Y349432D01*
X316827Y349440D01*
X316803Y349452D01*
X316633Y349497D01*
X316466Y349547D01*
X316440Y349549D01*
X316414Y349556D01*
X316083Y349583D01*
X315253Y349583D01*
X311174Y351273D01*
X308053Y354394D01*
X306363Y358473D01*
X306363Y362887D01*
X306495Y363205D01*
X306499Y363218D01*
X306505Y363229D01*
X306557Y363410D01*
X306611Y363590D01*
X306612Y363603D01*
X306616Y363616D01*
X306632Y363805D01*
X306649Y363991D01*
X306648Y364004D01*
X306649Y364018D01*
X306627Y364204D01*
X306608Y364391D01*
X306604Y364404D01*
X306602Y364417D01*
X306544Y364596D01*
X306488Y364776D01*
X306482Y364787D01*
X306477Y364800D01*
X306385Y364964D01*
X306295Y365129D01*
X306286Y365139D01*
X306279Y365151D01*
X306157Y365293D01*
X306036Y365437D01*
X306025Y365445D01*
X306016Y365456D01*
X305868Y365571D01*
X305721Y365688D01*
X305709Y365694D01*
X305698Y365702D01*
X305529Y365786D01*
X305363Y365872D01*
X305350Y365876D01*
X305338Y365882D01*
X305155Y365931D01*
X304975Y365982D01*
X304962Y365983D01*
X304949Y365986D01*
X304618Y366013D01*
X229362Y366013D01*
X229344Y366011D01*
X229326Y366013D01*
X229144Y365992D01*
X228961Y365973D01*
X228944Y365968D01*
X228927Y365966D01*
X228752Y365909D01*
X228576Y365855D01*
X228561Y365847D01*
X228544Y365841D01*
X228384Y365751D01*
X228222Y365663D01*
X228209Y365652D01*
X228193Y365643D01*
X228054Y365523D01*
X227913Y365406D01*
X227902Y365392D01*
X227888Y365380D01*
X227776Y365235D01*
X227661Y365092D01*
X227653Y365076D01*
X227642Y365062D01*
X227560Y364897D01*
X227475Y364735D01*
X227470Y364718D01*
X227462Y364702D01*
X227415Y364523D01*
X227364Y364348D01*
X227362Y364330D01*
X227358Y364313D01*
X227331Y363982D01*
X227331Y363218D01*
X227333Y363200D01*
X227331Y363182D01*
X227352Y363000D01*
X227371Y362817D01*
X227376Y362800D01*
X227378Y362783D01*
X227435Y362608D01*
X227489Y362432D01*
X227497Y362417D01*
X227503Y362400D01*
X227593Y362240D01*
X227681Y362078D01*
X227692Y362065D01*
X227701Y362049D01*
X227821Y361910D01*
X227938Y361769D01*
X227952Y361758D01*
X227964Y361744D01*
X228109Y361632D01*
X228252Y361517D01*
X228268Y361509D01*
X228282Y361498D01*
X228447Y361416D01*
X228609Y361331D01*
X228626Y361326D01*
X228642Y361318D01*
X228821Y361271D01*
X228996Y361220D01*
X229014Y361218D01*
X229031Y361214D01*
X229362Y361187D01*
X247733Y361187D01*
X249817Y359103D01*
X249817Y343157D01*
X249726Y343066D01*
X249715Y343052D01*
X249701Y343041D01*
X249587Y342897D01*
X249471Y342755D01*
X249463Y342739D01*
X249452Y342725D01*
X249368Y342561D01*
X249283Y342399D01*
X249278Y342382D01*
X249269Y342366D01*
X249220Y342189D01*
X249168Y342013D01*
X249166Y341995D01*
X249161Y341978D01*
X249148Y341795D01*
X249131Y341612D01*
X249133Y341594D01*
X249132Y341577D01*
X249155Y341395D01*
X249175Y341212D01*
X249180Y341195D01*
X249182Y341177D01*
X249241Y341004D01*
X249296Y340828D01*
X249305Y340812D01*
X249311Y340796D01*
X249403Y340636D01*
X249491Y340476D01*
X249503Y340462D01*
X249512Y340447D01*
X249726Y340194D01*
X249833Y340087D01*
X249838Y340040D01*
X249857Y339857D01*
X249862Y339840D01*
X249864Y339823D01*
X249921Y339648D01*
X249975Y339472D01*
X249983Y339457D01*
X249989Y339440D01*
X250079Y339280D01*
X250167Y339118D01*
X250178Y339105D01*
X250187Y339089D01*
X250307Y338950D01*
X250424Y338809D01*
X250438Y338798D01*
X250450Y338784D01*
X250595Y338672D01*
X250738Y338557D01*
X250754Y338549D01*
X250768Y338538D01*
X250933Y338456D01*
X251095Y338371D01*
X251112Y338366D01*
X251128Y338358D01*
X251307Y338311D01*
X251482Y338260D01*
X251500Y338258D01*
X251517Y338254D01*
X251848Y338227D01*
X257195Y338227D01*
X257222Y338229D01*
X257249Y338227D01*
X257423Y338249D01*
X257596Y338267D01*
X257621Y338274D01*
X257648Y338278D01*
X257814Y338334D01*
X257981Y338385D01*
X258004Y338397D01*
X258030Y338406D01*
X258181Y338493D01*
X258335Y338577D01*
X258355Y338594D01*
X258379Y338607D01*
X258632Y338822D01*
X260755Y340945D01*
X260807Y341009D01*
X260866Y341066D01*
X260934Y341164D01*
X261010Y341257D01*
X261049Y341329D01*
X261095Y341397D01*
X261143Y341507D01*
X261199Y341612D01*
X261222Y341691D01*
X261255Y341767D01*
X261279Y341884D01*
X261314Y341998D01*
X261321Y342080D01*
X261338Y342160D01*
X261339Y342280D01*
X261350Y342399D01*
X261341Y342481D01*
X261342Y342563D01*
X261319Y342680D01*
X261307Y342799D01*
X261282Y342878D01*
X261266Y342959D01*
X261221Y343069D01*
X261185Y343183D01*
X261145Y343255D01*
X261114Y343331D01*
X261048Y343431D01*
X260990Y343536D01*
X260937Y343598D01*
X260892Y343667D01*
X260807Y343751D01*
X260730Y343843D01*
X260665Y343894D01*
X260607Y343952D01*
X260482Y344039D01*
X260418Y344089D01*
X259937Y344570D01*
X259602Y345149D01*
X259429Y345795D01*
X259429Y349131D01*
X267002Y349131D01*
X267020Y349132D01*
X267037Y349131D01*
X267220Y349152D01*
X267402Y349171D01*
X267419Y349176D01*
X267437Y349178D01*
X267612Y349235D01*
X267787Y349289D01*
X267803Y349297D01*
X267820Y349303D01*
X267969Y349387D01*
X268023Y349360D01*
X268186Y349275D01*
X268203Y349270D01*
X268219Y349262D01*
X268397Y349214D01*
X268572Y349164D01*
X268590Y349162D01*
X268607Y349158D01*
X268938Y349131D01*
X276511Y349131D01*
X276511Y345795D01*
X276338Y345149D01*
X276003Y344570D01*
X275510Y344076D01*
X275467Y344053D01*
X275376Y343976D01*
X275279Y343906D01*
X275223Y343845D01*
X275160Y343792D01*
X275086Y343699D01*
X275004Y343611D01*
X274961Y343541D01*
X274910Y343476D01*
X274856Y343370D01*
X274794Y343268D01*
X274765Y343191D01*
X274728Y343117D01*
X274696Y343002D01*
X274655Y342890D01*
X274642Y342809D01*
X274620Y342730D01*
X274611Y342610D01*
X274593Y342492D01*
X274597Y342410D01*
X274591Y342328D01*
X274606Y342209D01*
X274611Y342090D01*
X274631Y342010D01*
X274641Y341929D01*
X274679Y341815D01*
X274708Y341699D01*
X274743Y341625D01*
X274769Y341547D01*
X274829Y341443D01*
X274880Y341335D01*
X274929Y341269D01*
X274970Y341198D01*
X275069Y341082D01*
X275121Y341012D01*
X275151Y340985D01*
X275185Y340945D01*
X277527Y338603D01*
X277527Y323657D01*
X275443Y321573D01*
X260497Y321573D01*
X258413Y323657D01*
X258413Y324002D01*
X258411Y324020D01*
X258413Y324038D01*
X258392Y324220D01*
X258373Y324403D01*
X258368Y324420D01*
X258366Y324437D01*
X258309Y324612D01*
X258255Y324788D01*
X258247Y324803D01*
X258241Y324820D01*
X258151Y324980D01*
X258063Y325142D01*
X258052Y325155D01*
X258043Y325171D01*
X257923Y325310D01*
X257806Y325451D01*
X257792Y325462D01*
X257780Y325476D01*
X257635Y325588D01*
X257492Y325703D01*
X257476Y325711D01*
X257462Y325722D01*
X257297Y325804D01*
X257135Y325889D01*
X257118Y325894D01*
X257102Y325902D01*
X256923Y325949D01*
X256748Y326000D01*
X256730Y326002D01*
X256713Y326006D01*
X256382Y326033D01*
X251848Y326033D01*
X251830Y326031D01*
X251812Y326033D01*
X251630Y326012D01*
X251447Y325993D01*
X251430Y325988D01*
X251413Y325986D01*
X251238Y325929D01*
X251062Y325875D01*
X251047Y325867D01*
X251030Y325861D01*
X250870Y325771D01*
X250708Y325683D01*
X250695Y325672D01*
X250679Y325663D01*
X250540Y325543D01*
X250399Y325426D01*
X250388Y325412D01*
X250374Y325400D01*
X250262Y325255D01*
X250147Y325112D01*
X250139Y325096D01*
X250128Y325082D01*
X250045Y324916D01*
X249961Y324755D01*
X249956Y324738D01*
X249948Y324722D01*
X249901Y324543D01*
X249850Y324368D01*
X249848Y324350D01*
X249844Y324333D01*
X249831Y324171D01*
X247733Y322073D01*
X223520Y322073D01*
X223502Y322071D01*
X223484Y322073D01*
X223302Y322052D01*
X223119Y322033D01*
X223102Y322028D01*
X223085Y322026D01*
X222910Y321969D01*
X222734Y321915D01*
X222719Y321907D01*
X222702Y321901D01*
X222542Y321811D01*
X222380Y321723D01*
X222367Y321712D01*
X222351Y321703D01*
X222212Y321583D01*
X222071Y321466D01*
X222060Y321452D01*
X222046Y321440D01*
X221934Y321295D01*
X221819Y321152D01*
X221811Y321136D01*
X221800Y321122D01*
X221718Y320957D01*
X221633Y320795D01*
X221628Y320778D01*
X221620Y320762D01*
X221573Y320583D01*
X221522Y320408D01*
X221520Y320390D01*
X221516Y320373D01*
X221489Y320042D01*
X221489Y315118D01*
X220673Y313150D01*
X220672Y313145D01*
X220670Y313141D01*
X220613Y312952D01*
X220557Y312765D01*
X220556Y312760D01*
X220555Y312755D01*
X220538Y312561D01*
X220519Y312364D01*
X220519Y312359D01*
X220519Y312354D01*
X220540Y312157D01*
X220560Y311963D01*
X220562Y311959D01*
X220562Y311954D01*
X220623Y311764D01*
X220680Y311579D01*
X220683Y311575D01*
X220684Y311570D01*
X220780Y311397D01*
X220874Y311226D01*
X220877Y311222D01*
X220879Y311218D01*
X221006Y311069D01*
X221133Y310918D01*
X221137Y310915D01*
X221140Y310911D01*
X221294Y310789D01*
X221448Y310667D01*
X221452Y310664D01*
X221456Y310661D01*
X221631Y310572D01*
X221806Y310483D01*
X221810Y310481D01*
X221815Y310479D01*
X222007Y310426D01*
X222193Y310373D01*
X222198Y310373D01*
X222203Y310371D01*
X222403Y310357D01*
X222594Y310342D01*
X222599Y310342D01*
X222604Y310342D01*
X222799Y310367D01*
X222963Y310387D01*
X241383Y310387D01*
X242208Y309562D01*
X242229Y309545D01*
X242247Y309524D01*
X242384Y309417D01*
X242520Y309307D01*
X242543Y309294D01*
X242565Y309278D01*
X242722Y309200D01*
X242876Y309118D01*
X242901Y309110D01*
X242925Y309098D01*
X243095Y309053D01*
X243261Y309003D01*
X243288Y309001D01*
X243314Y308994D01*
X243645Y308967D01*
X254448Y308967D01*
X257622Y307652D01*
X263333Y301942D01*
X263353Y301925D01*
X263371Y301904D01*
X263509Y301797D01*
X263644Y301687D01*
X263668Y301674D01*
X263689Y301658D01*
X263846Y301580D01*
X264000Y301498D01*
X264025Y301490D01*
X264049Y301478D01*
X264219Y301433D01*
X264386Y301383D01*
X264412Y301381D01*
X264438Y301374D01*
X264769Y301347D01*
X265035Y301347D01*
X265062Y301349D01*
X265089Y301347D01*
X265263Y301369D01*
X265436Y301387D01*
X265462Y301394D01*
X265488Y301398D01*
X265654Y301454D01*
X265821Y301505D01*
X265845Y301518D01*
X265870Y301526D01*
X266021Y301613D01*
X266175Y301697D01*
X266196Y301714D01*
X266219Y301727D01*
X266472Y301942D01*
X268127Y303597D01*
X301073Y303597D01*
X303157Y301513D01*
X303157Y282567D01*
X301073Y280483D01*
X268127Y280483D01*
X265931Y282679D01*
X265885Y282828D01*
X265877Y282843D01*
X265871Y282860D01*
X265781Y283020D01*
X265693Y283182D01*
X265682Y283195D01*
X265673Y283211D01*
X265553Y283350D01*
X265436Y283491D01*
X265422Y283502D01*
X265410Y283516D01*
X265265Y283628D01*
X265122Y283743D01*
X265106Y283751D01*
X265092Y283762D01*
X264927Y283844D01*
X264765Y283929D01*
X264748Y283934D01*
X264732Y283942D01*
X264553Y283989D01*
X264378Y284040D01*
X264360Y284042D01*
X264343Y284046D01*
X264012Y284073D01*
X258632Y284073D01*
X255458Y285388D01*
X249747Y291098D01*
X249727Y291115D01*
X249709Y291136D01*
X249571Y291243D01*
X249436Y291353D01*
X249412Y291366D01*
X249391Y291382D01*
X249234Y291460D01*
X249080Y291542D01*
X249055Y291550D01*
X249031Y291562D01*
X248861Y291607D01*
X248694Y291657D01*
X248668Y291659D01*
X248642Y291666D01*
X248311Y291693D01*
X245498Y291693D01*
X245480Y291691D01*
X245462Y291693D01*
X245280Y291672D01*
X245097Y291653D01*
X245080Y291648D01*
X245063Y291646D01*
X244888Y291589D01*
X244712Y291535D01*
X244697Y291527D01*
X244680Y291521D01*
X244520Y291431D01*
X244358Y291343D01*
X244345Y291332D01*
X244329Y291323D01*
X244190Y291203D01*
X244049Y291086D01*
X244038Y291072D01*
X244024Y291060D01*
X243912Y290915D01*
X243797Y290772D01*
X243789Y290756D01*
X243778Y290742D01*
X243695Y290577D01*
X243611Y290415D01*
X243606Y290398D01*
X243598Y290382D01*
X243551Y290203D01*
X243500Y290028D01*
X243498Y290010D01*
X243494Y289993D01*
X243467Y289662D01*
X243467Y273357D01*
X241383Y271273D01*
X241046Y271273D01*
X241028Y271271D01*
X241010Y271273D01*
X240828Y271252D01*
X240645Y271233D01*
X240628Y271228D01*
X240611Y271226D01*
X240436Y271169D01*
X240260Y271115D01*
X240245Y271107D01*
X240228Y271101D01*
X240068Y271011D01*
X239906Y270923D01*
X239893Y270912D01*
X239877Y270903D01*
X239738Y270783D01*
X239597Y270666D01*
X239586Y270652D01*
X239572Y270640D01*
X239460Y270495D01*
X239345Y270352D01*
X239337Y270336D01*
X239326Y270322D01*
X239244Y270157D01*
X239159Y269995D01*
X239154Y269978D01*
X239146Y269962D01*
X239098Y269783D01*
X239048Y269608D01*
X239046Y269590D01*
X239042Y269573D01*
X239015Y269242D01*
X239015Y264116D01*
X238009Y261689D01*
X234628Y258307D01*
X234608Y258283D01*
X234585Y258263D01*
X234481Y258127D01*
X234373Y257996D01*
X234358Y257968D01*
X234339Y257944D01*
X234188Y257648D01*
X232890Y254516D01*
X230624Y252250D01*
X227663Y251023D01*
X224457Y251023D01*
X221496Y252250D01*
X219230Y254516D01*
X218003Y257477D01*
X218003Y260683D01*
X219230Y263644D01*
X221496Y265910D01*
X224551Y267176D01*
X224571Y267186D01*
X224592Y267193D01*
X224749Y267282D01*
X224906Y267366D01*
X224923Y267380D01*
X224943Y267391D01*
X225079Y267508D01*
X225217Y267622D01*
X225231Y267640D01*
X225248Y267654D01*
X225357Y267795D01*
X225470Y267935D01*
X225481Y267955D01*
X225494Y267972D01*
X225574Y268132D01*
X225657Y268291D01*
X225664Y268313D01*
X225674Y268333D01*
X225720Y268506D01*
X225770Y268678D01*
X225772Y268700D01*
X225778Y268722D01*
X225805Y269052D01*
X225805Y269242D01*
X225803Y269260D01*
X225805Y269278D01*
X225784Y269460D01*
X225765Y269643D01*
X225760Y269660D01*
X225758Y269677D01*
X225701Y269852D01*
X225647Y270028D01*
X225639Y270043D01*
X225633Y270060D01*
X225543Y270220D01*
X225455Y270382D01*
X225444Y270395D01*
X225435Y270411D01*
X225315Y270550D01*
X225198Y270691D01*
X225184Y270702D01*
X225172Y270716D01*
X225027Y270828D01*
X224884Y270943D01*
X224868Y270951D01*
X224854Y270962D01*
X224689Y271044D01*
X224527Y271129D01*
X224510Y271134D01*
X224494Y271142D01*
X224315Y271189D01*
X224140Y271240D01*
X224122Y271242D01*
X224105Y271246D01*
X223774Y271273D01*
X223437Y271273D01*
X222609Y272101D01*
X222592Y272115D01*
X222577Y272132D01*
X222436Y272243D01*
X222297Y272356D01*
X222278Y272367D01*
X222260Y272380D01*
X222100Y272461D01*
X221942Y272545D01*
X221920Y272551D01*
X221900Y272561D01*
X221728Y272608D01*
X221556Y272660D01*
X221534Y272662D01*
X221512Y272668D01*
X221333Y272680D01*
X221155Y272696D01*
X221133Y272694D01*
X221110Y272695D01*
X220933Y272672D01*
X220755Y272653D01*
X220733Y272646D01*
X220711Y272643D01*
X220395Y272541D01*
X217503Y271343D01*
X215592Y271343D01*
X215579Y271342D01*
X215566Y271343D01*
X215379Y271322D01*
X215192Y271303D01*
X215179Y271299D01*
X215166Y271298D01*
X214987Y271240D01*
X214807Y271185D01*
X214795Y271179D01*
X214782Y271175D01*
X214618Y271083D01*
X214453Y270993D01*
X214442Y270985D01*
X214431Y270978D01*
X214288Y270856D01*
X214144Y270736D01*
X214135Y270725D01*
X214125Y270717D01*
X214009Y270568D01*
X213891Y270422D01*
X213885Y270410D01*
X213877Y270400D01*
X213792Y270231D01*
X213706Y270065D01*
X213702Y270052D01*
X213696Y270040D01*
X213646Y269858D01*
X213594Y269678D01*
X213593Y269664D01*
X213590Y269651D01*
X213577Y269465D01*
X213561Y269276D01*
X213563Y269263D01*
X213562Y269250D01*
X213586Y269064D01*
X213608Y268877D01*
X213612Y268864D01*
X213614Y268851D01*
X213716Y268535D01*
X214297Y267132D01*
X214297Y263728D01*
X212994Y260583D01*
X210587Y258176D01*
X207442Y256873D01*
X205928Y256873D01*
X205902Y256871D01*
X205875Y256873D01*
X205701Y256851D01*
X205528Y256833D01*
X205502Y256826D01*
X205476Y256822D01*
X205310Y256767D01*
X205143Y256715D01*
X205119Y256702D01*
X205094Y256694D01*
X204942Y256607D01*
X204789Y256523D01*
X204768Y256506D01*
X204745Y256493D01*
X204492Y256278D01*
X203396Y255182D01*
X201342Y254331D01*
X187118Y254331D01*
X187100Y254329D01*
X187082Y254331D01*
X186900Y254310D01*
X186717Y254291D01*
X186700Y254286D01*
X186683Y254284D01*
X186508Y254227D01*
X186332Y254173D01*
X186317Y254165D01*
X186300Y254159D01*
X186140Y254069D01*
X185978Y253981D01*
X185965Y253970D01*
X185949Y253961D01*
X185810Y253841D01*
X185669Y253724D01*
X185658Y253710D01*
X185644Y253698D01*
X185532Y253553D01*
X185417Y253410D01*
X185409Y253394D01*
X185398Y253380D01*
X185316Y253215D01*
X185231Y253053D01*
X185226Y253036D01*
X185218Y253020D01*
X185171Y252841D01*
X185120Y252666D01*
X185118Y252648D01*
X185114Y252631D01*
X185087Y252300D01*
X185087Y251097D01*
X185081Y251075D01*
X185026Y250891D01*
X185025Y250882D01*
X185023Y250874D01*
X185007Y250682D01*
X184989Y250491D01*
X184990Y250481D01*
X184990Y250472D01*
X185012Y250283D01*
X185033Y250090D01*
X185035Y250082D01*
X185037Y250073D01*
X185096Y249891D01*
X185154Y249706D01*
X185159Y249698D01*
X185161Y249690D01*
X185256Y249522D01*
X185349Y249354D01*
X185355Y249347D01*
X185359Y249339D01*
X185485Y249194D01*
X185609Y249047D01*
X185617Y249041D01*
X185622Y249034D01*
X185774Y248917D01*
X185925Y248797D01*
X185933Y248793D01*
X185941Y248788D01*
X186113Y248702D01*
X186284Y248615D01*
X186293Y248612D01*
X186301Y248608D01*
X186488Y248558D01*
X186672Y248507D01*
X186681Y248506D01*
X186690Y248504D01*
X187021Y248477D01*
X192503Y248477D01*
X194587Y246393D01*
X194587Y229447D01*
X193495Y228355D01*
X193481Y228338D01*
X193464Y228323D01*
X193354Y228182D01*
X193240Y228044D01*
X193229Y228024D01*
X193216Y228006D01*
X193135Y227846D01*
X193051Y227688D01*
X193045Y227666D01*
X193035Y227646D01*
X192988Y227474D01*
X192937Y227302D01*
X192935Y227280D01*
X192929Y227258D01*
X192916Y227080D01*
X192900Y226901D01*
X192903Y226879D01*
X192901Y226856D01*
X192924Y226680D01*
X192944Y226501D01*
X192950Y226479D01*
X192953Y226457D01*
X193055Y226141D01*
X193477Y225123D01*
X193477Y221917D01*
X192250Y218956D01*
X189984Y216690D01*
X187316Y215585D01*
X187312Y215583D01*
X187307Y215581D01*
X187135Y215488D01*
X186961Y215394D01*
X186957Y215392D01*
X186953Y215389D01*
X186805Y215265D01*
X186650Y215138D01*
X186647Y215135D01*
X186644Y215132D01*
X186521Y214979D01*
X186397Y214825D01*
X186394Y214821D01*
X186392Y214818D01*
X186301Y214643D01*
X186209Y214469D01*
X186208Y214465D01*
X186206Y214461D01*
X186152Y214271D01*
X186096Y214082D01*
X186096Y214078D01*
X186095Y214074D01*
X186079Y213876D01*
X186062Y213681D01*
X186062Y213677D01*
X186062Y213672D01*
X186085Y213475D01*
X186107Y213281D01*
X186108Y213277D01*
X186109Y213273D01*
X186170Y213084D01*
X186230Y212898D01*
X186232Y212894D01*
X186234Y212890D01*
X186331Y212717D01*
X186426Y212546D01*
X186429Y212543D01*
X186432Y212539D01*
X186560Y212390D01*
X186688Y212241D01*
X186692Y212238D01*
X186695Y212234D01*
X186849Y212115D01*
X187005Y211992D01*
X187009Y211990D01*
X187013Y211988D01*
X187189Y211900D01*
X187365Y211812D01*
X187369Y211810D01*
X187373Y211808D01*
X187566Y211757D01*
X187753Y211705D01*
X187758Y211705D01*
X187762Y211704D01*
X188093Y211677D01*
X190343Y211677D01*
X192427Y209593D01*
X192427Y201263D01*
X192428Y201254D01*
X192427Y201245D01*
X192448Y201053D01*
X192467Y200862D01*
X192469Y200854D01*
X192470Y200845D01*
X192528Y200662D01*
X192585Y200477D01*
X192589Y200469D01*
X192592Y200461D01*
X192685Y200292D01*
X192777Y200123D01*
X192782Y200116D01*
X192787Y200108D01*
X192911Y199962D01*
X193034Y199814D01*
X193041Y199808D01*
X193047Y199801D01*
X193198Y199682D01*
X193348Y199562D01*
X193356Y199557D01*
X193363Y199552D01*
X193536Y199464D01*
X193705Y199376D01*
X193714Y199374D01*
X193722Y199370D01*
X193908Y199318D01*
X194092Y199265D01*
X194101Y199264D01*
X194110Y199262D01*
X194303Y199247D01*
X194494Y199232D01*
X194502Y199233D01*
X194511Y199232D01*
X194704Y199256D01*
X194893Y199279D01*
X194902Y199281D01*
X194911Y199283D01*
X195094Y199344D01*
X195276Y199404D01*
X195284Y199408D01*
X195292Y199411D01*
X195459Y199507D01*
X195627Y199601D01*
X195634Y199607D01*
X195641Y199612D01*
X195894Y199826D01*
X199206Y203139D01*
X253941Y257873D01*
X253969Y257885D01*
X253970Y257885D01*
X258923Y259937D01*
X281355Y259937D01*
X281386Y259940D01*
X281417Y259938D01*
X281585Y259960D01*
X281755Y259977D01*
X281785Y259986D01*
X281816Y259990D01*
X281837Y259997D01*
X287297Y259997D01*
X291752Y258151D01*
X291782Y258142D01*
X291810Y258128D01*
X291974Y258084D01*
X292137Y258035D01*
X292168Y258032D01*
X292198Y258024D01*
X292529Y257997D01*
X301073Y257997D01*
X303157Y255913D01*
X303157Y236967D01*
X301073Y234883D01*
X292614Y234883D01*
X292583Y234880D01*
X292552Y234882D01*
X292382Y234860D01*
X292213Y234843D01*
X292184Y234834D01*
X292152Y234830D01*
X291837Y234729D01*
X288131Y233194D01*
X287237Y232823D01*
X268077Y232823D01*
X268050Y232821D01*
X268023Y232823D01*
X267850Y232801D01*
X267676Y232783D01*
X267651Y232776D01*
X267624Y232772D01*
X267458Y232717D01*
X267291Y232665D01*
X267268Y232652D01*
X267242Y232644D01*
X267091Y232557D01*
X266937Y232473D01*
X266917Y232456D01*
X266893Y232443D01*
X266640Y232228D01*
X220752Y186340D01*
X220735Y186319D01*
X220714Y186301D01*
X220607Y186163D01*
X220497Y186028D01*
X220484Y186004D01*
X220468Y185983D01*
X220390Y185826D01*
X220308Y185672D01*
X220300Y185647D01*
X220288Y185623D01*
X220243Y185453D01*
X220193Y185286D01*
X220191Y185260D01*
X220184Y185234D01*
X220157Y184903D01*
X220157Y181368D01*
X220159Y181350D01*
X220157Y181332D01*
X220178Y181150D01*
X220197Y180967D01*
X220202Y180950D01*
X220204Y180933D01*
X220261Y180758D01*
X220315Y180582D01*
X220323Y180567D01*
X220329Y180550D01*
X220419Y180390D01*
X220507Y180228D01*
X220518Y180215D01*
X220527Y180199D01*
X220647Y180060D01*
X220764Y179919D01*
X220778Y179908D01*
X220790Y179894D01*
X220935Y179782D01*
X221078Y179667D01*
X221094Y179659D01*
X221108Y179648D01*
X221273Y179566D01*
X221421Y179489D01*
X222309Y178601D01*
X222322Y178590D01*
X222334Y178576D01*
X222479Y178462D01*
X222620Y178346D01*
X222636Y178338D01*
X222650Y178327D01*
X222814Y178243D01*
X222976Y178158D01*
X222993Y178153D01*
X223009Y178144D01*
X223186Y178095D01*
X223362Y178043D01*
X223380Y178041D01*
X223397Y178036D01*
X223580Y178023D01*
X223763Y178006D01*
X223781Y178008D01*
X223798Y178007D01*
X223980Y178030D01*
X224163Y178050D01*
X224180Y178055D01*
X224198Y178057D01*
X224371Y178116D01*
X224547Y178171D01*
X224563Y178180D01*
X224579Y178186D01*
X224738Y178277D01*
X224899Y178366D01*
X224913Y178378D01*
X224928Y178387D01*
X225181Y178601D01*
X225917Y179337D01*
X235375Y179337D01*
X235406Y179340D01*
X235437Y179338D01*
X235607Y179360D01*
X235776Y179377D01*
X235806Y179386D01*
X235837Y179390D01*
X236153Y179491D01*
X238193Y180337D01*
X243587Y180337D01*
X245627Y179491D01*
X245657Y179482D01*
X245685Y179468D01*
X245850Y179424D01*
X246013Y179375D01*
X246044Y179372D01*
X246074Y179364D01*
X246405Y179337D01*
X255863Y179337D01*
X257158Y178042D01*
X257179Y178025D01*
X257197Y178004D01*
X257334Y177897D01*
X257470Y177787D01*
X257493Y177774D01*
X257515Y177758D01*
X257672Y177680D01*
X257826Y177598D01*
X257851Y177590D01*
X257875Y177578D01*
X258045Y177533D01*
X258211Y177483D01*
X258238Y177481D01*
X258264Y177474D01*
X258595Y177447D01*
X287297Y177447D01*
X291752Y175601D01*
X291782Y175592D01*
X291810Y175578D01*
X291974Y175534D01*
X292137Y175485D01*
X292168Y175482D01*
X292198Y175474D01*
X292529Y175447D01*
X301073Y175447D01*
X303157Y173363D01*
X303157Y154417D01*
X301073Y152333D01*
X292529Y152333D01*
X292498Y152330D01*
X292467Y152332D01*
X292298Y152310D01*
X292128Y152293D01*
X292099Y152284D01*
X292068Y152280D01*
X291752Y152179D01*
X287297Y150333D01*
X241083Y150333D01*
X236101Y152397D01*
X234870Y153628D01*
X234849Y153645D01*
X234831Y153666D01*
X234693Y153773D01*
X234558Y153883D01*
X234534Y153896D01*
X234513Y153912D01*
X234356Y153990D01*
X234202Y154072D01*
X234177Y154080D01*
X234153Y154092D01*
X233983Y154137D01*
X233816Y154187D01*
X233790Y154189D01*
X233764Y154196D01*
X233433Y154223D01*
X225917Y154223D01*
X225181Y154959D01*
X225167Y154970D01*
X225156Y154984D01*
X225012Y155097D01*
X224870Y155214D01*
X224854Y155222D01*
X224840Y155233D01*
X224676Y155316D01*
X224514Y155402D01*
X224497Y155407D01*
X224481Y155416D01*
X224304Y155465D01*
X224128Y155517D01*
X224110Y155519D01*
X224093Y155524D01*
X223910Y155537D01*
X223727Y155554D01*
X223709Y155552D01*
X223692Y155553D01*
X223510Y155530D01*
X223327Y155510D01*
X223310Y155505D01*
X223292Y155503D01*
X223118Y155444D01*
X222943Y155389D01*
X222927Y155380D01*
X222911Y155374D01*
X222752Y155283D01*
X222591Y155194D01*
X222577Y155182D01*
X222562Y155173D01*
X222309Y154959D01*
X221573Y154223D01*
X212115Y154223D01*
X212084Y154220D01*
X212053Y154222D01*
X211883Y154200D01*
X211714Y154183D01*
X211684Y154174D01*
X211653Y154170D01*
X211337Y154069D01*
X209297Y153223D01*
X203903Y153223D01*
X201863Y154069D01*
X201833Y154078D01*
X201805Y154092D01*
X201640Y154136D01*
X201477Y154185D01*
X201446Y154188D01*
X201416Y154196D01*
X201085Y154223D01*
X191627Y154223D01*
X189543Y156307D01*
X189543Y159953D01*
X189542Y159962D01*
X189543Y159971D01*
X189522Y160163D01*
X189503Y160354D01*
X189501Y160363D01*
X189500Y160372D01*
X189442Y160554D01*
X189385Y160739D01*
X189381Y160747D01*
X189378Y160755D01*
X189285Y160924D01*
X189193Y161093D01*
X189188Y161100D01*
X189183Y161108D01*
X189058Y161256D01*
X188936Y161402D01*
X188929Y161408D01*
X188923Y161415D01*
X188771Y161535D01*
X188622Y161655D01*
X188614Y161659D01*
X188607Y161664D01*
X188435Y161752D01*
X188265Y161840D01*
X188256Y161843D01*
X188248Y161847D01*
X188062Y161898D01*
X187878Y161952D01*
X187869Y161952D01*
X187860Y161955D01*
X187668Y161969D01*
X187476Y161984D01*
X187468Y161983D01*
X187459Y161984D01*
X187266Y161960D01*
X187077Y161938D01*
X187068Y161935D01*
X187059Y161934D01*
X186876Y161872D01*
X186694Y161813D01*
X186686Y161808D01*
X186678Y161805D01*
X186512Y161710D01*
X186343Y161615D01*
X186336Y161609D01*
X186329Y161604D01*
X186076Y161390D01*
X184904Y160218D01*
X181943Y158991D01*
X178737Y158991D01*
X175776Y160218D01*
X175130Y160864D01*
X175109Y160881D01*
X175092Y160902D01*
X174954Y161009D01*
X174818Y161119D01*
X174795Y161132D01*
X174773Y161148D01*
X174617Y161226D01*
X174463Y161308D01*
X174437Y161316D01*
X174413Y161328D01*
X174244Y161373D01*
X174077Y161423D01*
X174050Y161425D01*
X174024Y161432D01*
X173693Y161459D01*
X157504Y161459D01*
X157478Y161457D01*
X157451Y161459D01*
X157277Y161437D01*
X157104Y161419D01*
X157078Y161412D01*
X157052Y161408D01*
X156886Y161353D01*
X156719Y161301D01*
X156695Y161288D01*
X156670Y161280D01*
X156518Y161193D01*
X156365Y161109D01*
X156344Y161092D01*
X156321Y161079D01*
X156068Y160864D01*
X155202Y159998D01*
X155185Y159977D01*
X155164Y159960D01*
X155057Y159822D01*
X154947Y159686D01*
X154934Y159663D01*
X154918Y159642D01*
X154840Y159485D01*
X154758Y159331D01*
X154750Y159305D01*
X154738Y159281D01*
X154693Y159112D01*
X154643Y158945D01*
X154641Y158918D01*
X154634Y158892D01*
X154607Y158562D01*
X154607Y157048D01*
X153304Y153903D01*
X150897Y151496D01*
X147752Y150193D01*
X144348Y150193D01*
X142070Y151137D01*
X142049Y151143D01*
X142029Y151153D01*
X141856Y151201D01*
X141685Y151253D01*
X141662Y151255D01*
X141641Y151261D01*
X141462Y151274D01*
X141284Y151291D01*
X141262Y151289D01*
X141239Y151291D01*
X141060Y151268D01*
X140883Y151250D01*
X140862Y151243D01*
X140840Y151240D01*
X140670Y151183D01*
X140499Y151130D01*
X140479Y151119D01*
X140458Y151112D01*
X140303Y151023D01*
X140146Y150937D01*
X140129Y150922D01*
X140109Y150911D01*
X139856Y150696D01*
X138123Y148963D01*
X137770Y148963D01*
X137752Y148961D01*
X137734Y148963D01*
X137552Y148942D01*
X137369Y148923D01*
X137352Y148918D01*
X137335Y148916D01*
X137160Y148859D01*
X136984Y148805D01*
X136969Y148797D01*
X136952Y148791D01*
X136792Y148701D01*
X136630Y148613D01*
X136617Y148602D01*
X136601Y148593D01*
X136462Y148473D01*
X136321Y148356D01*
X136310Y148342D01*
X136296Y148330D01*
X136184Y148185D01*
X136069Y148042D01*
X136061Y148026D01*
X136050Y148012D01*
X135968Y147847D01*
X135883Y147685D01*
X135878Y147668D01*
X135870Y147652D01*
X135823Y147473D01*
X135772Y147298D01*
X135770Y147280D01*
X135766Y147263D01*
X135739Y146932D01*
X135739Y128220D01*
X135758Y128026D01*
X135775Y127837D01*
X135778Y127828D01*
X135779Y127819D01*
X135781Y127812D01*
X135740Y126790D01*
X135742Y126755D01*
X135739Y126710D01*
X135739Y125669D01*
X135721Y125610D01*
X135719Y125601D01*
X135717Y125593D01*
X135716Y125585D01*
X135288Y124657D01*
X135276Y124623D01*
X135256Y124583D01*
X134857Y123621D01*
X134818Y123574D01*
X134813Y123565D01*
X134808Y123559D01*
X134804Y123552D01*
X134053Y122858D01*
X134030Y122832D01*
X133995Y122802D01*
X133259Y122066D01*
X133205Y122038D01*
X133197Y122032D01*
X133190Y122028D01*
X133149Y121994D01*
X132943Y121833D01*
X121454Y111221D01*
X121253Y111036D01*
X121253Y111035D01*
X120462Y110305D01*
X120050Y109924D01*
X120005Y109874D01*
X119954Y109830D01*
X119872Y109724D01*
X119783Y109623D01*
X119749Y109565D01*
X119708Y109512D01*
X119648Y109392D01*
X119580Y109275D01*
X119558Y109211D01*
X119528Y109151D01*
X119493Y109021D01*
X119450Y108894D01*
X119441Y108827D01*
X119424Y108763D01*
X119409Y108580D01*
X119398Y108495D01*
X119400Y108467D01*
X119397Y108432D01*
X119397Y102994D01*
X119398Y102985D01*
X119397Y102976D01*
X119418Y102785D01*
X119437Y102594D01*
X119439Y102585D01*
X119440Y102576D01*
X119498Y102394D01*
X119555Y102209D01*
X119559Y102201D01*
X119562Y102192D01*
X119655Y102024D01*
X119747Y101855D01*
X119752Y101848D01*
X119757Y101840D01*
X119882Y101692D01*
X120004Y101545D01*
X120011Y101540D01*
X120017Y101533D01*
X120169Y101413D01*
X120318Y101293D01*
X120326Y101289D01*
X120333Y101283D01*
X120505Y101196D01*
X120675Y101108D01*
X120684Y101105D01*
X120692Y101101D01*
X120878Y101049D01*
X121062Y100996D01*
X121071Y100995D01*
X121080Y100993D01*
X121272Y100979D01*
X121464Y100963D01*
X121472Y100964D01*
X121481Y100964D01*
X121674Y100988D01*
X121863Y101010D01*
X121872Y101013D01*
X121881Y101014D01*
X122064Y101076D01*
X122246Y101135D01*
X122254Y101140D01*
X122262Y101142D01*
X122428Y101238D01*
X122597Y101333D01*
X122604Y101339D01*
X122611Y101343D01*
X122864Y101558D01*
X124550Y103244D01*
X125968Y104662D01*
X125985Y104683D01*
X126006Y104700D01*
X126113Y104838D01*
X126223Y104974D01*
X126236Y104997D01*
X126252Y105018D01*
X126330Y105175D01*
X126412Y105329D01*
X126420Y105355D01*
X126432Y105379D01*
X126477Y105548D01*
X126527Y105715D01*
X126529Y105742D01*
X126536Y105768D01*
X126563Y106098D01*
X126563Y107013D01*
X127790Y109974D01*
X130056Y112240D01*
X133017Y113467D01*
X136223Y113467D01*
X139184Y112240D01*
X140416Y111008D01*
X140423Y111003D01*
X140428Y110996D01*
X140579Y110875D01*
X140727Y110753D01*
X140735Y110749D01*
X140742Y110743D01*
X140912Y110655D01*
X141083Y110565D01*
X141092Y110562D01*
X141099Y110558D01*
X141284Y110505D01*
X141469Y110450D01*
X141478Y110449D01*
X141486Y110446D01*
X141677Y110431D01*
X141870Y110413D01*
X141879Y110414D01*
X141888Y110414D01*
X142077Y110436D01*
X142270Y110457D01*
X142279Y110459D01*
X142287Y110460D01*
X142469Y110520D01*
X142654Y110578D01*
X142662Y110583D01*
X142670Y110585D01*
X142837Y110680D01*
X143006Y110773D01*
X143013Y110779D01*
X143021Y110783D01*
X143166Y110908D01*
X143313Y111034D01*
X143319Y111041D01*
X143326Y111046D01*
X143442Y111197D01*
X143563Y111349D01*
X143567Y111358D01*
X143572Y111364D01*
X143657Y111535D01*
X143745Y111708D01*
X143748Y111717D01*
X143752Y111725D01*
X143801Y111911D01*
X143853Y112096D01*
X143854Y112105D01*
X143856Y112114D01*
X143883Y112445D01*
X143883Y119123D01*
X143974Y119214D01*
X143985Y119227D01*
X143999Y119239D01*
X144112Y119383D01*
X144229Y119525D01*
X144237Y119541D01*
X144248Y119555D01*
X144331Y119718D01*
X144417Y119881D01*
X144422Y119898D01*
X144431Y119914D01*
X144480Y120090D01*
X144532Y120267D01*
X144534Y120285D01*
X144539Y120302D01*
X144552Y120485D01*
X144569Y120668D01*
X144567Y120685D01*
X144568Y120703D01*
X144545Y120885D01*
X144525Y121068D01*
X144520Y121085D01*
X144518Y121103D01*
X144459Y121277D01*
X144404Y121452D01*
X144395Y121467D01*
X144389Y121484D01*
X144298Y121643D01*
X144209Y121804D01*
X144197Y121818D01*
X144188Y121833D01*
X143974Y122086D01*
X143883Y122177D01*
X143883Y138123D01*
X145967Y140207D01*
X156286Y140207D01*
X156299Y140208D01*
X156313Y140207D01*
X156499Y140228D01*
X156687Y140247D01*
X156699Y140251D01*
X156713Y140252D01*
X156892Y140310D01*
X157071Y140365D01*
X157083Y140371D01*
X157096Y140375D01*
X157261Y140467D01*
X157425Y140557D01*
X157436Y140565D01*
X157447Y140572D01*
X157590Y140694D01*
X157735Y140814D01*
X157743Y140825D01*
X157753Y140833D01*
X157869Y140981D01*
X157987Y141128D01*
X157993Y141140D01*
X158001Y141150D01*
X158086Y141319D01*
X158173Y141485D01*
X158176Y141498D01*
X158182Y141510D01*
X158232Y141691D01*
X158284Y141872D01*
X158285Y141886D01*
X158289Y141899D01*
X158302Y142087D01*
X158317Y142274D01*
X158315Y142287D01*
X158316Y142300D01*
X158292Y142488D01*
X158270Y142673D01*
X158266Y142686D01*
X158264Y142699D01*
X158163Y143015D01*
X157043Y145717D01*
X157043Y148923D01*
X158270Y151884D01*
X160536Y154150D01*
X163497Y155377D01*
X166703Y155377D01*
X169664Y154150D01*
X171930Y151884D01*
X173157Y148923D01*
X173157Y145717D01*
X171859Y142585D01*
X171850Y142555D01*
X171836Y142527D01*
X171792Y142363D01*
X171743Y142200D01*
X171740Y142169D01*
X171732Y142139D01*
X171705Y141808D01*
X171705Y138786D01*
X171707Y138768D01*
X171705Y138750D01*
X171726Y138568D01*
X171745Y138385D01*
X171750Y138368D01*
X171752Y138351D01*
X171809Y138176D01*
X171863Y138000D01*
X171871Y137985D01*
X171877Y137968D01*
X171967Y137808D01*
X172055Y137646D01*
X172066Y137633D01*
X172075Y137617D01*
X172195Y137478D01*
X172312Y137337D01*
X172326Y137326D01*
X172338Y137312D01*
X172483Y137200D01*
X172626Y137085D01*
X172642Y137077D01*
X172656Y137066D01*
X172821Y136984D01*
X172983Y136899D01*
X173000Y136894D01*
X173016Y136886D01*
X173195Y136839D01*
X173370Y136788D01*
X173388Y136786D01*
X173405Y136782D01*
X173736Y136755D01*
X183584Y136755D01*
X186011Y135749D01*
X187589Y134172D01*
X187603Y134160D01*
X187614Y134147D01*
X187758Y134033D01*
X187900Y133916D01*
X187916Y133908D01*
X187930Y133897D01*
X188094Y133814D01*
X188256Y133728D01*
X188273Y133723D01*
X188289Y133715D01*
X188466Y133665D01*
X188642Y133613D01*
X188660Y133611D01*
X188677Y133607D01*
X188860Y133593D01*
X189043Y133577D01*
X189061Y133579D01*
X189079Y133577D01*
X189261Y133600D01*
X189443Y133620D01*
X189460Y133625D01*
X189478Y133628D01*
X189652Y133686D01*
X189827Y133742D01*
X189843Y133750D01*
X189860Y133756D01*
X190018Y133847D01*
X190179Y133936D01*
X190193Y133948D01*
X190209Y133957D01*
X190462Y134172D01*
X191627Y135337D01*
X201085Y135337D01*
X201116Y135340D01*
X201147Y135338D01*
X201317Y135360D01*
X201486Y135377D01*
X201516Y135386D01*
X201547Y135390D01*
X201863Y135491D01*
X203903Y136337D01*
X274887Y136337D01*
X279869Y134273D01*
X279930Y134212D01*
X279951Y134195D01*
X279969Y134174D01*
X280107Y134067D01*
X280242Y133957D01*
X280266Y133944D01*
X280287Y133928D01*
X280444Y133850D01*
X280598Y133768D01*
X280623Y133760D01*
X280647Y133748D01*
X280817Y133703D01*
X280984Y133653D01*
X281010Y133651D01*
X281036Y133644D01*
X281367Y133617D01*
X288883Y133617D01*
X290967Y131533D01*
X290967Y130172D01*
X290968Y130163D01*
X290967Y130154D01*
X290987Y129963D01*
X291007Y129771D01*
X291009Y129762D01*
X291010Y129754D01*
X291068Y129570D01*
X291125Y129386D01*
X291129Y129378D01*
X291132Y129370D01*
X291225Y129200D01*
X291317Y129032D01*
X291322Y129025D01*
X291327Y129017D01*
X291452Y128870D01*
X291574Y128723D01*
X291581Y128717D01*
X291587Y128710D01*
X291739Y128590D01*
X291888Y128470D01*
X291896Y128466D01*
X291903Y128461D01*
X292076Y128373D01*
X292245Y128285D01*
X292254Y128282D01*
X292262Y128278D01*
X292447Y128227D01*
X292632Y128174D01*
X292641Y128173D01*
X292650Y128170D01*
X292842Y128156D01*
X293034Y128141D01*
X293042Y128142D01*
X293051Y128141D01*
X293243Y128165D01*
X293433Y128188D01*
X293442Y128190D01*
X293451Y128191D01*
X293633Y128253D01*
X293816Y128312D01*
X293824Y128317D01*
X293832Y128320D01*
X294000Y128416D01*
X294167Y128510D01*
X294174Y128516D01*
X294181Y128521D01*
X294434Y128735D01*
X294873Y129174D01*
X298018Y130477D01*
X301422Y130477D01*
X304567Y129174D01*
X306974Y126767D01*
X308277Y123622D01*
X308277Y120218D01*
X306974Y117073D01*
X304567Y114666D01*
X301422Y113363D01*
X298018Y113363D01*
X294873Y114666D01*
X294663Y114876D01*
X294642Y114893D01*
X294624Y114914D01*
X294486Y115021D01*
X294351Y115131D01*
X294328Y115144D01*
X294306Y115160D01*
X294150Y115238D01*
X293996Y115320D01*
X293970Y115328D01*
X293946Y115340D01*
X293777Y115385D01*
X293610Y115435D01*
X293583Y115437D01*
X293557Y115444D01*
X293226Y115471D01*
X292998Y115471D01*
X292980Y115469D01*
X292962Y115471D01*
X292780Y115450D01*
X292597Y115431D01*
X292580Y115426D01*
X292563Y115424D01*
X292388Y115367D01*
X292212Y115313D01*
X292197Y115305D01*
X292180Y115299D01*
X292020Y115209D01*
X291858Y115121D01*
X291845Y115110D01*
X291829Y115101D01*
X291690Y114981D01*
X291549Y114864D01*
X291538Y114850D01*
X291524Y114838D01*
X291412Y114693D01*
X291297Y114550D01*
X291289Y114534D01*
X291278Y114520D01*
X291196Y114355D01*
X291111Y114193D01*
X291106Y114176D01*
X291098Y114160D01*
X291051Y113981D01*
X291000Y113806D01*
X290998Y113788D01*
X290994Y113771D01*
X290967Y113440D01*
X290967Y110587D01*
X288883Y108503D01*
X279425Y108503D01*
X279394Y108500D01*
X279363Y108502D01*
X279193Y108480D01*
X279024Y108463D01*
X278994Y108454D01*
X278963Y108450D01*
X278648Y108349D01*
X276607Y107503D01*
X271213Y107503D01*
X269172Y108349D01*
X269143Y108358D01*
X269115Y108372D01*
X268950Y108416D01*
X268787Y108465D01*
X268756Y108468D01*
X268726Y108476D01*
X268395Y108503D01*
X258937Y108503D01*
X258812Y108628D01*
X258791Y108645D01*
X258774Y108666D01*
X258636Y108772D01*
X258500Y108883D01*
X258476Y108896D01*
X258455Y108912D01*
X258299Y108990D01*
X258145Y109072D01*
X258119Y109080D01*
X258095Y109092D01*
X257926Y109137D01*
X257759Y109187D01*
X257732Y109189D01*
X257706Y109196D01*
X257375Y109223D01*
X203903Y109223D01*
X201863Y110069D01*
X201833Y110078D01*
X201805Y110092D01*
X201640Y110136D01*
X201477Y110185D01*
X201446Y110188D01*
X201416Y110196D01*
X201085Y110223D01*
X191627Y110223D01*
X189543Y112307D01*
X189543Y114314D01*
X189541Y114336D01*
X189543Y114358D01*
X189521Y114535D01*
X189503Y114715D01*
X189497Y114736D01*
X189494Y114758D01*
X189438Y114928D01*
X189385Y115099D01*
X189375Y115119D01*
X189368Y115140D01*
X189279Y115296D01*
X189193Y115453D01*
X189179Y115471D01*
X189168Y115490D01*
X189050Y115625D01*
X188936Y115763D01*
X188918Y115777D01*
X188904Y115794D01*
X188762Y115903D01*
X188622Y116015D01*
X188602Y116025D01*
X188584Y116039D01*
X188289Y116191D01*
X185899Y117181D01*
X180129Y122950D01*
X180108Y122967D01*
X180091Y122988D01*
X179953Y123095D01*
X179818Y123205D01*
X179794Y123218D01*
X179773Y123234D01*
X179616Y123312D01*
X179462Y123394D01*
X179436Y123402D01*
X179412Y123414D01*
X179243Y123459D01*
X179076Y123509D01*
X179049Y123511D01*
X179024Y123518D01*
X178693Y123545D01*
X168028Y123545D01*
X168010Y123543D01*
X167992Y123545D01*
X167810Y123524D01*
X167627Y123505D01*
X167610Y123500D01*
X167593Y123498D01*
X167418Y123441D01*
X167242Y123387D01*
X167227Y123379D01*
X167210Y123373D01*
X167050Y123283D01*
X166888Y123195D01*
X166875Y123184D01*
X166859Y123175D01*
X166720Y123055D01*
X166579Y122938D01*
X166568Y122924D01*
X166554Y122912D01*
X166442Y122767D01*
X166327Y122624D01*
X166319Y122608D01*
X166308Y122594D01*
X166226Y122429D01*
X166200Y122380D01*
X165906Y122086D01*
X165895Y122072D01*
X165881Y122061D01*
X165767Y121917D01*
X165651Y121775D01*
X165643Y121759D01*
X165632Y121745D01*
X165548Y121581D01*
X165463Y121419D01*
X165458Y121402D01*
X165449Y121386D01*
X165400Y121209D01*
X165348Y121033D01*
X165346Y121015D01*
X165341Y120998D01*
X165328Y120815D01*
X165311Y120632D01*
X165313Y120614D01*
X165312Y120597D01*
X165335Y120414D01*
X165355Y120232D01*
X165360Y120215D01*
X165362Y120197D01*
X165421Y120024D01*
X165476Y119848D01*
X165485Y119832D01*
X165491Y119816D01*
X165583Y119656D01*
X165671Y119496D01*
X165683Y119482D01*
X165692Y119467D01*
X165906Y119214D01*
X165997Y119123D01*
X165997Y110236D01*
X165999Y110218D01*
X165997Y110200D01*
X166018Y110018D01*
X166037Y109835D01*
X166042Y109818D01*
X166044Y109801D01*
X166101Y109626D01*
X166155Y109450D01*
X166163Y109435D01*
X166169Y109418D01*
X166259Y109258D01*
X166347Y109096D01*
X166358Y109083D01*
X166367Y109067D01*
X166487Y108928D01*
X166604Y108787D01*
X166618Y108776D01*
X166630Y108762D01*
X166775Y108650D01*
X166918Y108535D01*
X166934Y108527D01*
X166948Y108516D01*
X167113Y108434D01*
X167275Y108349D01*
X167292Y108344D01*
X167308Y108336D01*
X167487Y108289D01*
X167662Y108238D01*
X167680Y108236D01*
X167697Y108232D01*
X168028Y108205D01*
X172288Y108205D01*
X172319Y108208D01*
X172350Y108206D01*
X172520Y108228D01*
X172689Y108245D01*
X172718Y108254D01*
X172749Y108258D01*
X173065Y108359D01*
X176197Y109657D01*
X179403Y109657D01*
X182364Y108430D01*
X184630Y106164D01*
X185857Y103203D01*
X185857Y99997D01*
X184630Y97036D01*
X182364Y94770D01*
X179403Y93543D01*
X176197Y93543D01*
X173065Y94841D01*
X173035Y94850D01*
X173007Y94864D01*
X172843Y94908D01*
X172680Y94957D01*
X172649Y94960D01*
X172619Y94968D01*
X172288Y94995D01*
X162384Y94995D01*
X162362Y94993D01*
X162339Y94995D01*
X162162Y94973D01*
X161983Y94955D01*
X161962Y94949D01*
X161940Y94946D01*
X161770Y94890D01*
X161598Y94837D01*
X161579Y94827D01*
X161557Y94820D01*
X161402Y94731D01*
X161244Y94645D01*
X161227Y94631D01*
X161208Y94620D01*
X161072Y94502D01*
X160935Y94388D01*
X160921Y94370D01*
X160904Y94356D01*
X160794Y94213D01*
X160683Y94074D01*
X160672Y94054D01*
X160659Y94036D01*
X160553Y93830D01*
X160544Y93823D01*
X160437Y93685D01*
X160327Y93550D01*
X160314Y93526D01*
X160298Y93505D01*
X160220Y93348D01*
X160138Y93194D01*
X160130Y93168D01*
X160118Y93144D01*
X160073Y92975D01*
X160023Y92808D01*
X160021Y92781D01*
X160014Y92756D01*
X159987Y92425D01*
X159987Y85577D01*
X158396Y83986D01*
X158385Y83973D01*
X158371Y83961D01*
X158257Y83817D01*
X158141Y83675D01*
X158133Y83659D01*
X158122Y83645D01*
X158038Y83481D01*
X157953Y83319D01*
X157948Y83302D01*
X157939Y83286D01*
X157890Y83109D01*
X157838Y82933D01*
X157836Y82915D01*
X157831Y82898D01*
X157818Y82715D01*
X157801Y82532D01*
X157803Y82514D01*
X157802Y82497D01*
X157825Y82315D01*
X157845Y82132D01*
X157850Y82115D01*
X157852Y82097D01*
X157911Y81924D01*
X157966Y81748D01*
X157975Y81732D01*
X157981Y81716D01*
X158073Y81556D01*
X158161Y81396D01*
X158173Y81382D01*
X158182Y81367D01*
X158396Y81114D01*
X159987Y79523D01*
X159987Y66577D01*
X158742Y65332D01*
X158725Y65311D01*
X158704Y65294D01*
X158597Y65156D01*
X158487Y65020D01*
X158474Y64997D01*
X158458Y64975D01*
X158380Y64819D01*
X158298Y64665D01*
X158290Y64639D01*
X158278Y64615D01*
X158233Y64446D01*
X158183Y64279D01*
X158181Y64252D01*
X158174Y64226D01*
X158147Y63895D01*
X158147Y48747D01*
X156556Y47156D01*
X156545Y47142D01*
X156531Y47131D01*
X156417Y46987D01*
X156301Y46845D01*
X156293Y46829D01*
X156282Y46815D01*
X156198Y46651D01*
X156113Y46489D01*
X156108Y46472D01*
X156099Y46456D01*
X156050Y46279D01*
X155998Y46103D01*
X155996Y46085D01*
X155991Y46068D01*
X155978Y45885D01*
X155961Y45702D01*
X155963Y45684D01*
X155962Y45667D01*
X155985Y45485D01*
X156005Y45302D01*
X156010Y45285D01*
X156012Y45267D01*
X156071Y45093D01*
X156126Y44918D01*
X156135Y44902D01*
X156141Y44886D01*
X156232Y44727D01*
X156321Y44566D01*
X156333Y44552D01*
X156342Y44537D01*
X156556Y44284D01*
X158147Y42693D01*
X158147Y32258D01*
X158149Y32240D01*
X158147Y32222D01*
X158168Y32040D01*
X158187Y31857D01*
X158192Y31840D01*
X158194Y31823D01*
X158251Y31648D01*
X158305Y31472D01*
X158313Y31457D01*
X158319Y31440D01*
X158409Y31280D01*
X158497Y31118D01*
X158508Y31105D01*
X158517Y31089D01*
X158637Y30950D01*
X158754Y30809D01*
X158768Y30798D01*
X158780Y30784D01*
X158925Y30672D01*
X159068Y30557D01*
X159084Y30549D01*
X159098Y30538D01*
X159263Y30456D01*
X159425Y30371D01*
X159442Y30366D01*
X159458Y30358D01*
X159637Y30311D01*
X159812Y30260D01*
X159830Y30258D01*
X159847Y30254D01*
X160178Y30227D01*
X304618Y30227D01*
X304631Y30228D01*
G37*
G36*
X119415Y241513D02*
X119415Y241513D01*
X119433Y241512D01*
X119615Y241535D01*
X119798Y241555D01*
X119815Y241560D01*
X119833Y241562D01*
X120007Y241621D01*
X120182Y241676D01*
X120197Y241685D01*
X120214Y241691D01*
X120374Y241783D01*
X120534Y241871D01*
X120548Y241883D01*
X120563Y241892D01*
X120816Y242106D01*
X120907Y242197D01*
X129672Y242197D01*
X129686Y242198D01*
X129699Y242197D01*
X129885Y242218D01*
X130073Y242237D01*
X130086Y242241D01*
X130099Y242242D01*
X130277Y242299D01*
X130458Y242355D01*
X130470Y242361D01*
X130482Y242365D01*
X130647Y242457D01*
X130812Y242547D01*
X130822Y242555D01*
X130834Y242562D01*
X130978Y242685D01*
X131121Y242804D01*
X131129Y242815D01*
X131140Y242823D01*
X131256Y242972D01*
X131373Y243118D01*
X131380Y243130D01*
X131388Y243140D01*
X131473Y243309D01*
X131559Y243475D01*
X131563Y243488D01*
X131569Y243500D01*
X131618Y243682D01*
X131670Y243862D01*
X131671Y243876D01*
X131675Y243889D01*
X131688Y244075D01*
X131703Y244264D01*
X131702Y244277D01*
X131703Y244290D01*
X131678Y244476D01*
X131656Y244663D01*
X131652Y244676D01*
X131650Y244689D01*
X131643Y244712D01*
X131643Y247983D01*
X132870Y250944D01*
X135136Y253210D01*
X138097Y254437D01*
X141303Y254437D01*
X142733Y253844D01*
X142746Y253840D01*
X142757Y253834D01*
X142937Y253783D01*
X143118Y253728D01*
X143131Y253727D01*
X143144Y253723D01*
X143332Y253708D01*
X143519Y253690D01*
X143532Y253691D01*
X143546Y253690D01*
X143732Y253712D01*
X143919Y253731D01*
X143932Y253735D01*
X143945Y253737D01*
X144125Y253795D01*
X144304Y253851D01*
X144315Y253858D01*
X144328Y253862D01*
X144492Y253954D01*
X144657Y254044D01*
X144667Y254053D01*
X144679Y254060D01*
X144821Y254182D01*
X144965Y254304D01*
X144973Y254314D01*
X144984Y254323D01*
X145098Y254471D01*
X145216Y254618D01*
X145222Y254630D01*
X145230Y254641D01*
X145314Y254809D01*
X145400Y254977D01*
X145404Y254989D01*
X145410Y255001D01*
X145459Y255184D01*
X145510Y255364D01*
X145511Y255377D01*
X145514Y255390D01*
X145541Y255721D01*
X145541Y269242D01*
X145539Y269260D01*
X145541Y269278D01*
X145520Y269460D01*
X145501Y269643D01*
X145496Y269660D01*
X145494Y269677D01*
X145437Y269852D01*
X145383Y270028D01*
X145375Y270043D01*
X145369Y270060D01*
X145279Y270220D01*
X145191Y270382D01*
X145180Y270395D01*
X145171Y270411D01*
X145051Y270550D01*
X144934Y270691D01*
X144920Y270702D01*
X144908Y270716D01*
X144763Y270828D01*
X144620Y270943D01*
X144604Y270951D01*
X144590Y270962D01*
X144425Y271044D01*
X144263Y271129D01*
X144246Y271134D01*
X144230Y271142D01*
X144051Y271189D01*
X143876Y271240D01*
X143858Y271242D01*
X143841Y271246D01*
X143510Y271273D01*
X142157Y271273D01*
X141736Y271694D01*
X141715Y271711D01*
X141697Y271732D01*
X141560Y271839D01*
X141424Y271949D01*
X141401Y271962D01*
X141379Y271978D01*
X141222Y272056D01*
X141068Y272138D01*
X141043Y272146D01*
X141019Y272158D01*
X140849Y272203D01*
X140683Y272253D01*
X140656Y272255D01*
X140630Y272262D01*
X140299Y272289D01*
X136599Y272289D01*
X136599Y280112D01*
X136597Y280130D01*
X136599Y280147D01*
X136578Y280330D01*
X136559Y280512D01*
X136554Y280529D01*
X136552Y280547D01*
X136495Y280722D01*
X136441Y280897D01*
X136433Y280913D01*
X136427Y280930D01*
X136337Y281090D01*
X136249Y281251D01*
X136238Y281265D01*
X136229Y281281D01*
X136109Y281420D01*
X135992Y281561D01*
X135978Y281572D01*
X135966Y281585D01*
X135821Y281698D01*
X135678Y281813D01*
X135662Y281821D01*
X135648Y281832D01*
X135483Y281914D01*
X135321Y281998D01*
X135304Y282003D01*
X135288Y282011D01*
X135109Y282059D01*
X134934Y282110D01*
X134916Y282111D01*
X134899Y282116D01*
X134568Y282143D01*
X134163Y282143D01*
X134163Y282548D01*
X134161Y282566D01*
X134163Y282584D01*
X134141Y282766D01*
X134123Y282949D01*
X134118Y282966D01*
X134116Y282983D01*
X134059Y283158D01*
X134005Y283334D01*
X133997Y283349D01*
X133991Y283366D01*
X133901Y283526D01*
X133813Y283688D01*
X133802Y283701D01*
X133793Y283717D01*
X133673Y283856D01*
X133555Y283997D01*
X133542Y284008D01*
X133530Y284022D01*
X133385Y284134D01*
X133242Y284249D01*
X133226Y284257D01*
X133212Y284268D01*
X133047Y284350D01*
X132884Y284435D01*
X132867Y284440D01*
X132851Y284448D01*
X132673Y284495D01*
X132498Y284546D01*
X132480Y284548D01*
X132463Y284552D01*
X132132Y284579D01*
X123309Y284579D01*
X123309Y288165D01*
X123482Y288811D01*
X123566Y288955D01*
X123630Y289097D01*
X123700Y289235D01*
X123712Y289279D01*
X123732Y289322D01*
X123766Y289473D01*
X123808Y289623D01*
X123811Y289669D01*
X123822Y289714D01*
X123826Y289869D01*
X123837Y290024D01*
X123831Y290070D01*
X123833Y290117D01*
X123806Y290270D01*
X123787Y290424D01*
X123772Y290468D01*
X123764Y290514D01*
X123708Y290658D01*
X123659Y290805D01*
X123635Y290846D01*
X123619Y290889D01*
X123535Y291020D01*
X123458Y291154D01*
X123424Y291194D01*
X123402Y291228D01*
X123342Y291291D01*
X123243Y291407D01*
X122293Y292357D01*
X122293Y308303D01*
X124377Y310387D01*
X125901Y310387D01*
X125923Y310389D01*
X125945Y310387D01*
X126123Y310409D01*
X126301Y310427D01*
X126323Y310433D01*
X126345Y310436D01*
X126515Y310492D01*
X126686Y310545D01*
X126706Y310555D01*
X126727Y310562D01*
X126883Y310651D01*
X127040Y310737D01*
X127057Y310751D01*
X127077Y310762D01*
X127212Y310880D01*
X127350Y310994D01*
X127364Y311012D01*
X127380Y311026D01*
X127490Y311169D01*
X127602Y311308D01*
X127612Y311328D01*
X127626Y311345D01*
X127777Y311641D01*
X128612Y313656D01*
X130470Y315514D01*
X135062Y320106D01*
X135068Y320113D01*
X135075Y320118D01*
X135195Y320268D01*
X135317Y320417D01*
X135321Y320425D01*
X135327Y320432D01*
X135415Y320602D01*
X135506Y320773D01*
X135508Y320782D01*
X135512Y320789D01*
X135566Y320974D01*
X135621Y321159D01*
X135621Y321168D01*
X135624Y321176D01*
X135639Y321367D01*
X135657Y321560D01*
X135656Y321569D01*
X135657Y321578D01*
X135634Y321767D01*
X135614Y321960D01*
X135611Y321969D01*
X135610Y321977D01*
X135550Y322159D01*
X135492Y322344D01*
X135488Y322352D01*
X135485Y322360D01*
X135390Y322528D01*
X135297Y322696D01*
X135291Y322703D01*
X135287Y322711D01*
X135161Y322857D01*
X135037Y323003D01*
X135030Y323009D01*
X135024Y323016D01*
X134873Y323132D01*
X134721Y323253D01*
X134713Y323257D01*
X134706Y323262D01*
X134534Y323348D01*
X134362Y323435D01*
X134353Y323438D01*
X134345Y323442D01*
X134159Y323492D01*
X133974Y323543D01*
X133965Y323544D01*
X133956Y323546D01*
X133626Y323573D01*
X120227Y323573D01*
X117818Y325982D01*
X117793Y326027D01*
X117779Y326044D01*
X117768Y326064D01*
X117650Y326200D01*
X117536Y326337D01*
X117518Y326351D01*
X117504Y326368D01*
X117362Y326477D01*
X117222Y326589D01*
X117202Y326599D01*
X117184Y326613D01*
X116889Y326765D01*
X115374Y327392D01*
X112314Y330452D01*
X112307Y330458D01*
X112302Y330465D01*
X112152Y330585D01*
X112003Y330707D01*
X111995Y330711D01*
X111988Y330717D01*
X111818Y330805D01*
X111647Y330896D01*
X111638Y330898D01*
X111631Y330902D01*
X111446Y330955D01*
X111261Y331011D01*
X111252Y331011D01*
X111244Y331014D01*
X111053Y331029D01*
X110860Y331047D01*
X110851Y331046D01*
X110842Y331047D01*
X110653Y331024D01*
X110460Y331004D01*
X110451Y331001D01*
X110443Y331000D01*
X110261Y330940D01*
X110076Y330882D01*
X110068Y330878D01*
X110060Y330875D01*
X109891Y330780D01*
X109724Y330687D01*
X109717Y330681D01*
X109709Y330677D01*
X109563Y330551D01*
X109417Y330427D01*
X109411Y330420D01*
X109404Y330414D01*
X109287Y330262D01*
X109167Y330111D01*
X109163Y330103D01*
X109158Y330096D01*
X109072Y329924D01*
X108985Y329752D01*
X108982Y329743D01*
X108978Y329735D01*
X108928Y329547D01*
X108877Y329364D01*
X108876Y329355D01*
X108874Y329346D01*
X108847Y329016D01*
X108847Y321617D01*
X106763Y319533D01*
X103901Y319533D01*
X103892Y319532D01*
X103883Y319533D01*
X103691Y319512D01*
X103500Y319493D01*
X103491Y319491D01*
X103483Y319490D01*
X103300Y319432D01*
X103115Y319375D01*
X103107Y319371D01*
X103099Y319368D01*
X102930Y319275D01*
X102761Y319183D01*
X102754Y319178D01*
X102746Y319173D01*
X102599Y319048D01*
X102452Y318926D01*
X102446Y318919D01*
X102439Y318913D01*
X102319Y318761D01*
X102199Y318612D01*
X102195Y318604D01*
X102190Y318597D01*
X102102Y318425D01*
X102014Y318255D01*
X102011Y318246D01*
X102007Y318238D01*
X101955Y318051D01*
X101903Y317868D01*
X101902Y317859D01*
X101899Y317850D01*
X101885Y317658D01*
X101870Y317466D01*
X101871Y317458D01*
X101870Y317449D01*
X101894Y317256D01*
X101917Y317067D01*
X101919Y317058D01*
X101920Y317049D01*
X101982Y316866D01*
X102041Y316684D01*
X102046Y316676D01*
X102049Y316668D01*
X102144Y316501D01*
X102239Y316333D01*
X102245Y316326D01*
X102250Y316319D01*
X102464Y316066D01*
X103727Y314803D01*
X103727Y295857D01*
X101643Y293773D01*
X78697Y293773D01*
X76613Y295857D01*
X76613Y297180D01*
X76611Y297198D01*
X76613Y297216D01*
X76592Y297398D01*
X76573Y297581D01*
X76568Y297598D01*
X76566Y297615D01*
X76509Y297790D01*
X76455Y297966D01*
X76447Y297981D01*
X76441Y297998D01*
X76351Y298158D01*
X76263Y298320D01*
X76252Y298333D01*
X76243Y298349D01*
X76123Y298488D01*
X76006Y298629D01*
X75992Y298640D01*
X75980Y298654D01*
X75835Y298766D01*
X75692Y298881D01*
X75676Y298889D01*
X75662Y298900D01*
X75497Y298982D01*
X75335Y299067D01*
X75318Y299072D01*
X75302Y299080D01*
X75123Y299127D01*
X74948Y299178D01*
X74930Y299180D01*
X74913Y299184D01*
X74582Y299211D01*
X73818Y299211D01*
X71721Y300080D01*
X71692Y300103D01*
X71556Y300213D01*
X71533Y300226D01*
X71512Y300242D01*
X71355Y300320D01*
X71201Y300402D01*
X71175Y300410D01*
X71151Y300422D01*
X70982Y300467D01*
X70815Y300517D01*
X70788Y300519D01*
X70762Y300526D01*
X70432Y300553D01*
X69517Y300553D01*
X66556Y301780D01*
X64290Y304046D01*
X63063Y307007D01*
X63063Y307836D01*
X63062Y307845D01*
X63063Y307854D01*
X63042Y308044D01*
X63023Y308236D01*
X63021Y308245D01*
X63020Y308254D01*
X62962Y308436D01*
X62905Y308621D01*
X62901Y308629D01*
X62898Y308638D01*
X62805Y308806D01*
X62713Y308975D01*
X62708Y308982D01*
X62703Y308990D01*
X62579Y309137D01*
X62456Y309285D01*
X62449Y309290D01*
X62443Y309297D01*
X62292Y309416D01*
X62142Y309537D01*
X62134Y309541D01*
X62127Y309547D01*
X61954Y309634D01*
X61785Y309722D01*
X61776Y309725D01*
X61768Y309729D01*
X61582Y309781D01*
X61398Y309834D01*
X61389Y309835D01*
X61380Y309837D01*
X61187Y309851D01*
X60996Y309867D01*
X60988Y309866D01*
X60979Y309866D01*
X60786Y309842D01*
X60597Y309820D01*
X60588Y309817D01*
X60579Y309816D01*
X60396Y309754D01*
X60214Y309695D01*
X60206Y309690D01*
X60198Y309688D01*
X60031Y309592D01*
X59863Y309497D01*
X59856Y309491D01*
X59849Y309487D01*
X59596Y309272D01*
X56054Y305730D01*
X56053Y305730D01*
X54693Y304369D01*
X54682Y304356D01*
X54668Y304344D01*
X54554Y304199D01*
X54438Y304058D01*
X54430Y304042D01*
X54419Y304028D01*
X54335Y303864D01*
X54249Y303702D01*
X54244Y303685D01*
X54236Y303669D01*
X54187Y303492D01*
X54135Y303316D01*
X54133Y303299D01*
X54128Y303281D01*
X54115Y303098D01*
X54098Y302915D01*
X54100Y302898D01*
X54099Y302880D01*
X54122Y302698D01*
X54142Y302515D01*
X54147Y302498D01*
X54149Y302480D01*
X54208Y302307D01*
X54263Y302131D01*
X54272Y302116D01*
X54278Y302099D01*
X54369Y301940D01*
X54458Y301779D01*
X54470Y301765D01*
X54478Y301750D01*
X54693Y301497D01*
X55117Y301073D01*
X55117Y283072D01*
X55111Y283065D01*
X55103Y283049D01*
X55092Y283035D01*
X55008Y282870D01*
X54923Y282709D01*
X54918Y282692D01*
X54909Y282676D01*
X54860Y282499D01*
X54808Y282323D01*
X54806Y282305D01*
X54801Y282288D01*
X54788Y282105D01*
X54771Y281922D01*
X54773Y281904D01*
X54772Y281887D01*
X54795Y281705D01*
X54815Y281522D01*
X54820Y281505D01*
X54822Y281487D01*
X54881Y281314D01*
X54936Y281138D01*
X54945Y281122D01*
X54951Y281105D01*
X55042Y280946D01*
X55117Y280812D01*
X55117Y251881D01*
X55118Y251872D01*
X55117Y251863D01*
X55138Y251671D01*
X55157Y251480D01*
X55159Y251471D01*
X55160Y251463D01*
X55218Y251280D01*
X55275Y251095D01*
X55279Y251087D01*
X55282Y251079D01*
X55375Y250910D01*
X55467Y250741D01*
X55472Y250734D01*
X55477Y250726D01*
X55602Y250579D01*
X55724Y250432D01*
X55731Y250426D01*
X55737Y250419D01*
X55888Y250300D01*
X56038Y250179D01*
X56046Y250175D01*
X56053Y250170D01*
X56224Y250083D01*
X56395Y249994D01*
X56404Y249991D01*
X56412Y249987D01*
X56598Y249936D01*
X56782Y249883D01*
X56791Y249882D01*
X56800Y249879D01*
X56992Y249865D01*
X57184Y249850D01*
X57192Y249851D01*
X57201Y249850D01*
X57394Y249874D01*
X57583Y249897D01*
X57592Y249899D01*
X57601Y249900D01*
X57784Y249962D01*
X57966Y250021D01*
X57974Y250026D01*
X57982Y250029D01*
X58148Y250124D01*
X58317Y250219D01*
X58324Y250225D01*
X58331Y250230D01*
X58584Y250444D01*
X59267Y251127D01*
X76563Y251127D01*
X76585Y251121D01*
X76769Y251066D01*
X76778Y251065D01*
X76786Y251063D01*
X76978Y251047D01*
X77169Y251029D01*
X77179Y251030D01*
X77188Y251030D01*
X77377Y251052D01*
X77570Y251073D01*
X77578Y251075D01*
X77587Y251077D01*
X77769Y251136D01*
X77954Y251194D01*
X77962Y251199D01*
X77970Y251201D01*
X78138Y251296D01*
X78306Y251389D01*
X78313Y251395D01*
X78321Y251399D01*
X78466Y251525D01*
X78613Y251649D01*
X78619Y251657D01*
X78626Y251662D01*
X78743Y251814D01*
X78863Y251965D01*
X78867Y251973D01*
X78872Y251981D01*
X78958Y252153D01*
X79045Y252324D01*
X79048Y252333D01*
X79052Y252341D01*
X79102Y252528D01*
X79153Y252712D01*
X79154Y252721D01*
X79156Y252730D01*
X79183Y253061D01*
X79183Y253882D01*
X79181Y253908D01*
X79183Y253935D01*
X79161Y254109D01*
X79143Y254282D01*
X79136Y254308D01*
X79132Y254334D01*
X79077Y254500D01*
X79025Y254667D01*
X79012Y254691D01*
X79004Y254716D01*
X78917Y254868D01*
X78833Y255021D01*
X78816Y255042D01*
X78803Y255065D01*
X78588Y255318D01*
X77382Y256524D01*
X76531Y258578D01*
X76531Y262742D01*
X76529Y262760D01*
X76531Y262778D01*
X76510Y262959D01*
X76491Y263143D01*
X76486Y263160D01*
X76484Y263177D01*
X76427Y263352D01*
X76373Y263528D01*
X76365Y263543D01*
X76359Y263560D01*
X76269Y263720D01*
X76181Y263882D01*
X76170Y263895D01*
X76161Y263911D01*
X76041Y264050D01*
X75924Y264191D01*
X75910Y264202D01*
X75898Y264216D01*
X75753Y264328D01*
X75610Y264443D01*
X75594Y264451D01*
X75580Y264462D01*
X75415Y264544D01*
X75253Y264629D01*
X75236Y264634D01*
X75220Y264642D01*
X75041Y264689D01*
X74866Y264740D01*
X74848Y264742D01*
X74831Y264746D01*
X74500Y264773D01*
X69497Y264773D01*
X67413Y266857D01*
X67413Y285803D01*
X69497Y287887D01*
X85443Y287887D01*
X87527Y285803D01*
X87527Y273635D01*
X87530Y273604D01*
X87528Y273573D01*
X87550Y273403D01*
X87567Y273234D01*
X87576Y273205D01*
X87580Y273174D01*
X87681Y272858D01*
X87709Y272792D01*
X87709Y262846D01*
X87711Y262820D01*
X87709Y262793D01*
X87731Y262619D01*
X87749Y262446D01*
X87756Y262420D01*
X87760Y262394D01*
X87815Y262228D01*
X87867Y262061D01*
X87880Y262037D01*
X87888Y262012D01*
X87975Y261860D01*
X88059Y261707D01*
X88076Y261686D01*
X88089Y261663D01*
X88304Y261410D01*
X88492Y261222D01*
X88513Y261205D01*
X88530Y261184D01*
X88668Y261077D01*
X88804Y260967D01*
X88827Y260954D01*
X88848Y260938D01*
X89005Y260860D01*
X89159Y260778D01*
X89185Y260770D01*
X89209Y260758D01*
X89378Y260713D01*
X89545Y260663D01*
X89572Y260661D01*
X89598Y260654D01*
X89928Y260627D01*
X97790Y260627D01*
X97808Y260629D01*
X97826Y260627D01*
X98008Y260648D01*
X98191Y260667D01*
X98208Y260672D01*
X98225Y260674D01*
X98400Y260731D01*
X98576Y260785D01*
X98591Y260793D01*
X98608Y260799D01*
X98768Y260889D01*
X98930Y260977D01*
X98943Y260988D01*
X98959Y260997D01*
X99098Y261117D01*
X99239Y261234D01*
X99250Y261248D01*
X99264Y261260D01*
X99376Y261405D01*
X99491Y261548D01*
X99499Y261564D01*
X99510Y261578D01*
X99592Y261743D01*
X99677Y261905D01*
X99682Y261922D01*
X99690Y261938D01*
X99737Y262117D01*
X99788Y262292D01*
X99790Y262310D01*
X99794Y262327D01*
X99821Y262658D01*
X99821Y262742D01*
X99819Y262760D01*
X99821Y262778D01*
X99800Y262959D01*
X99781Y263143D01*
X99776Y263160D01*
X99774Y263177D01*
X99717Y263352D01*
X99663Y263528D01*
X99655Y263543D01*
X99649Y263560D01*
X99559Y263720D01*
X99471Y263882D01*
X99460Y263895D01*
X99451Y263911D01*
X99331Y264050D01*
X99214Y264191D01*
X99200Y264202D01*
X99188Y264216D01*
X99043Y264328D01*
X98900Y264443D01*
X98884Y264451D01*
X98870Y264462D01*
X98705Y264544D01*
X98543Y264629D01*
X98526Y264634D01*
X98510Y264642D01*
X98331Y264689D01*
X98156Y264740D01*
X98138Y264742D01*
X98121Y264746D01*
X97790Y264773D01*
X94897Y264773D01*
X92813Y266857D01*
X92813Y285803D01*
X94897Y287887D01*
X110843Y287887D01*
X112927Y285803D01*
X112927Y267609D01*
X112929Y267582D01*
X112927Y267555D01*
X112949Y267381D01*
X112967Y267208D01*
X112974Y267182D01*
X112978Y267156D01*
X113034Y266990D01*
X113085Y266823D01*
X113098Y266799D01*
X113106Y266774D01*
X113193Y266623D01*
X113277Y266469D01*
X113294Y266448D01*
X113307Y266425D01*
X113522Y266172D01*
X116050Y263644D01*
X117277Y260683D01*
X117277Y257477D01*
X116050Y254516D01*
X113784Y252250D01*
X110823Y251023D01*
X107617Y251023D01*
X104656Y252250D01*
X103764Y253142D01*
X103757Y253147D01*
X103752Y253154D01*
X103602Y253275D01*
X103453Y253397D01*
X103445Y253401D01*
X103438Y253407D01*
X103268Y253495D01*
X103097Y253585D01*
X103088Y253588D01*
X103081Y253592D01*
X102896Y253645D01*
X102711Y253700D01*
X102702Y253701D01*
X102694Y253704D01*
X102503Y253719D01*
X102310Y253737D01*
X102301Y253736D01*
X102292Y253736D01*
X102103Y253714D01*
X101910Y253693D01*
X101901Y253691D01*
X101893Y253690D01*
X101711Y253630D01*
X101526Y253572D01*
X101518Y253567D01*
X101510Y253565D01*
X101343Y253470D01*
X101174Y253377D01*
X101167Y253371D01*
X101159Y253367D01*
X101014Y253241D01*
X100867Y253116D01*
X100861Y253109D01*
X100854Y253104D01*
X100738Y252953D01*
X100617Y252801D01*
X100613Y252792D01*
X100608Y252786D01*
X100523Y252615D01*
X100435Y252442D01*
X100432Y252433D01*
X100428Y252425D01*
X100379Y252239D01*
X100327Y252054D01*
X100326Y252045D01*
X100324Y252036D01*
X100297Y251705D01*
X100297Y245583D01*
X100231Y245502D01*
X100109Y245353D01*
X100105Y245345D01*
X100099Y245338D01*
X100011Y245168D01*
X99921Y244997D01*
X99918Y244988D01*
X99914Y244981D01*
X99861Y244797D01*
X99806Y244611D01*
X99805Y244602D01*
X99803Y244594D01*
X99787Y244403D01*
X99769Y244210D01*
X99770Y244201D01*
X99770Y244192D01*
X99792Y244003D01*
X99813Y243810D01*
X99816Y243801D01*
X99817Y243793D01*
X99876Y243610D01*
X99934Y243426D01*
X99939Y243418D01*
X99941Y243410D01*
X100036Y243241D01*
X100129Y243074D01*
X100135Y243067D01*
X100139Y243059D01*
X100265Y242914D01*
X100390Y242767D01*
X100397Y242761D01*
X100402Y242754D01*
X100553Y242637D01*
X100705Y242517D01*
X100714Y242513D01*
X100721Y242508D01*
X100893Y242422D01*
X101064Y242335D01*
X101073Y242332D01*
X101081Y242328D01*
X101269Y242278D01*
X101452Y242227D01*
X101461Y242226D01*
X101470Y242224D01*
X101801Y242197D01*
X117853Y242197D01*
X117944Y242106D01*
X117957Y242095D01*
X117969Y242081D01*
X118113Y241968D01*
X118255Y241851D01*
X118271Y241843D01*
X118285Y241832D01*
X118448Y241749D01*
X118611Y241663D01*
X118628Y241658D01*
X118644Y241649D01*
X118820Y241600D01*
X118997Y241548D01*
X119015Y241546D01*
X119032Y241541D01*
X119215Y241528D01*
X119398Y241511D01*
X119415Y241513D01*
G37*
G36*
X12241Y169036D02*
X12241Y169036D01*
X12254Y169036D01*
X12440Y169060D01*
X12627Y169082D01*
X12640Y169086D01*
X12653Y169088D01*
X12893Y169165D01*
X23845Y169165D01*
X23854Y169166D01*
X23863Y169165D01*
X24055Y169186D01*
X24246Y169205D01*
X24254Y169207D01*
X24263Y169208D01*
X24445Y169266D01*
X24631Y169323D01*
X24639Y169327D01*
X24647Y169330D01*
X24815Y169423D01*
X24985Y169515D01*
X24991Y169520D01*
X24999Y169525D01*
X25147Y169650D01*
X25294Y169772D01*
X25299Y169779D01*
X25306Y169785D01*
X25426Y169936D01*
X25546Y170086D01*
X25550Y170094D01*
X25556Y170101D01*
X25643Y170272D01*
X25732Y170443D01*
X25734Y170452D01*
X25738Y170460D01*
X25790Y170646D01*
X25843Y170830D01*
X25844Y170839D01*
X25846Y170848D01*
X25860Y171040D01*
X25876Y171232D01*
X25875Y171240D01*
X25876Y171249D01*
X25852Y171440D01*
X25829Y171631D01*
X25826Y171640D01*
X25825Y171649D01*
X25764Y171832D01*
X25704Y172014D01*
X25700Y172022D01*
X25697Y172030D01*
X25602Y172196D01*
X25506Y172365D01*
X25501Y172372D01*
X25496Y172379D01*
X25281Y172632D01*
X24141Y173773D01*
X23208Y175056D01*
X22488Y176470D01*
X22043Y177841D01*
X38902Y177841D01*
X38920Y177842D01*
X38937Y177841D01*
X39120Y177862D01*
X39302Y177881D01*
X39319Y177886D01*
X39337Y177888D01*
X39512Y177945D01*
X39687Y177999D01*
X39703Y178007D01*
X39720Y178013D01*
X39880Y178103D01*
X40041Y178190D01*
X40055Y178202D01*
X40071Y178211D01*
X40210Y178331D01*
X40351Y178448D01*
X40362Y178462D01*
X40375Y178474D01*
X40488Y178619D01*
X40603Y178762D01*
X40611Y178778D01*
X40622Y178792D01*
X40704Y178957D01*
X40718Y178984D01*
X40816Y179039D01*
X40978Y179127D01*
X40991Y179138D01*
X41007Y179147D01*
X41146Y179267D01*
X41287Y179385D01*
X41298Y179398D01*
X41312Y179410D01*
X41424Y179555D01*
X41539Y179698D01*
X41547Y179714D01*
X41558Y179728D01*
X41640Y179893D01*
X41725Y180056D01*
X41730Y180073D01*
X41738Y180089D01*
X41785Y180267D01*
X41836Y180442D01*
X41838Y180460D01*
X41842Y180477D01*
X41869Y180808D01*
X41869Y190421D01*
X47703Y190421D01*
X49271Y190172D01*
X50780Y189682D01*
X52336Y188889D01*
X52341Y188887D01*
X52347Y188883D01*
X52433Y188851D01*
X52514Y188809D01*
X52617Y188779D01*
X52711Y188743D01*
X52715Y188742D01*
X52723Y188739D01*
X52814Y188724D01*
X52902Y188699D01*
X53010Y188691D01*
X53108Y188673D01*
X53111Y188674D01*
X53120Y188672D01*
X53212Y188675D01*
X53303Y188668D01*
X53412Y188681D01*
X53418Y188681D01*
X53510Y188684D01*
X53513Y188684D01*
X53522Y188684D01*
X53612Y188705D01*
X53703Y188716D01*
X53807Y188751D01*
X53833Y188757D01*
X53903Y188773D01*
X53905Y188774D01*
X53914Y188776D01*
X53998Y188814D01*
X54085Y188843D01*
X54181Y188898D01*
X54221Y188916D01*
X54270Y188938D01*
X54271Y188939D01*
X54281Y188943D01*
X54355Y188997D01*
X54435Y189042D01*
X54518Y189115D01*
X54563Y189148D01*
X54597Y189172D01*
X54598Y189173D01*
X54607Y189179D01*
X54669Y189247D01*
X54738Y189307D01*
X54805Y189394D01*
X54848Y189440D01*
X54872Y189466D01*
X54873Y189467D01*
X54880Y189475D01*
X54928Y189553D01*
X54984Y189626D01*
X55046Y189747D01*
X55064Y189777D01*
X55084Y189809D01*
X55084Y189810D01*
X55090Y189819D01*
X55106Y189864D01*
X55135Y189921D01*
X56235Y192575D01*
X66719Y203059D01*
X69357Y204152D01*
X69377Y204163D01*
X69398Y204170D01*
X69554Y204258D01*
X69712Y204342D01*
X69729Y204357D01*
X69749Y204368D01*
X69884Y204484D01*
X70023Y204599D01*
X70037Y204616D01*
X70054Y204631D01*
X70163Y204772D01*
X70276Y204911D01*
X70287Y204931D01*
X70300Y204949D01*
X70380Y205110D01*
X70463Y205268D01*
X70470Y205289D01*
X70480Y205309D01*
X70526Y205483D01*
X70576Y205654D01*
X70578Y205677D01*
X70584Y205698D01*
X70611Y206029D01*
X70611Y207085D01*
X70610Y207098D01*
X70611Y207112D01*
X70590Y207298D01*
X70571Y207486D01*
X70567Y207499D01*
X70566Y207512D01*
X70509Y207689D01*
X70453Y207871D01*
X70447Y207882D01*
X70443Y207895D01*
X70351Y208059D01*
X70261Y208225D01*
X70253Y208235D01*
X70246Y208247D01*
X70124Y208390D01*
X70004Y208534D01*
X69993Y208542D01*
X69985Y208552D01*
X69836Y208669D01*
X69690Y208786D01*
X69678Y208792D01*
X69668Y208801D01*
X69498Y208886D01*
X69333Y208972D01*
X69320Y208975D01*
X69308Y208981D01*
X69125Y209031D01*
X68946Y209083D01*
X68932Y209084D01*
X68919Y209088D01*
X68731Y209101D01*
X68544Y209116D01*
X68531Y209114D01*
X68518Y209115D01*
X68330Y209091D01*
X68145Y209069D01*
X68132Y209065D01*
X68119Y209063D01*
X67803Y208962D01*
X65103Y207843D01*
X61897Y207843D01*
X60815Y208291D01*
X60802Y208295D01*
X60791Y208302D01*
X60611Y208353D01*
X60430Y208408D01*
X60417Y208409D01*
X60404Y208413D01*
X60216Y208428D01*
X60029Y208446D01*
X60016Y208445D01*
X60002Y208446D01*
X59816Y208424D01*
X59629Y208404D01*
X59616Y208400D01*
X59603Y208399D01*
X59424Y208341D01*
X59244Y208285D01*
X59233Y208278D01*
X59220Y208274D01*
X59055Y208181D01*
X58891Y208091D01*
X58881Y208083D01*
X58869Y208076D01*
X58727Y207953D01*
X58583Y207832D01*
X58575Y207822D01*
X58564Y207813D01*
X58450Y207665D01*
X58332Y207517D01*
X58326Y207505D01*
X58318Y207495D01*
X58234Y207327D01*
X58148Y207159D01*
X58144Y207146D01*
X58138Y207134D01*
X58089Y206952D01*
X58038Y206772D01*
X58037Y206759D01*
X58034Y206746D01*
X58007Y206415D01*
X58007Y203533D01*
X56317Y199454D01*
X53196Y196333D01*
X49117Y194643D01*
X29623Y194643D01*
X25544Y196333D01*
X22423Y199454D01*
X20733Y203533D01*
X20733Y207947D01*
X22423Y212026D01*
X25544Y215147D01*
X25740Y215228D01*
X25740Y215229D01*
X29623Y216837D01*
X31242Y216837D01*
X31260Y216839D01*
X31278Y216837D01*
X31460Y216858D01*
X31643Y216877D01*
X31660Y216882D01*
X31677Y216884D01*
X31852Y216941D01*
X32028Y216995D01*
X32043Y217003D01*
X32060Y217009D01*
X32220Y217099D01*
X32382Y217187D01*
X32395Y217198D01*
X32411Y217207D01*
X32550Y217327D01*
X32691Y217444D01*
X32702Y217458D01*
X32716Y217470D01*
X32828Y217615D01*
X32943Y217758D01*
X32951Y217774D01*
X32962Y217788D01*
X33044Y217953D01*
X33129Y218115D01*
X33134Y218132D01*
X33142Y218148D01*
X33189Y218327D01*
X33240Y218502D01*
X33242Y218520D01*
X33246Y218537D01*
X33273Y218868D01*
X33273Y220153D01*
X33271Y220180D01*
X33273Y220207D01*
X33251Y220380D01*
X33233Y220554D01*
X33226Y220579D01*
X33222Y220606D01*
X33167Y220772D01*
X33115Y220939D01*
X33102Y220962D01*
X33094Y220988D01*
X33007Y221139D01*
X32923Y221293D01*
X32906Y221313D01*
X32893Y221337D01*
X32678Y221590D01*
X20891Y233376D01*
X19963Y235617D01*
X19963Y239642D01*
X19961Y239660D01*
X19963Y239678D01*
X19942Y239860D01*
X19923Y240043D01*
X19918Y240060D01*
X19916Y240077D01*
X19859Y240252D01*
X19805Y240428D01*
X19797Y240443D01*
X19791Y240460D01*
X19701Y240620D01*
X19613Y240782D01*
X19602Y240795D01*
X19593Y240811D01*
X19473Y240950D01*
X19356Y241091D01*
X19342Y241102D01*
X19330Y241116D01*
X19185Y241228D01*
X19042Y241343D01*
X19026Y241351D01*
X19012Y241362D01*
X18847Y241444D01*
X18685Y241529D01*
X18668Y241534D01*
X18652Y241542D01*
X18473Y241589D01*
X18298Y241640D01*
X18280Y241642D01*
X18263Y241646D01*
X18101Y241659D01*
X16003Y243757D01*
X16003Y261703D01*
X16449Y262149D01*
X16507Y262220D01*
X16572Y262284D01*
X16634Y262375D01*
X16704Y262461D01*
X16747Y262541D01*
X16798Y262617D01*
X16841Y262719D01*
X16893Y262816D01*
X16919Y262904D01*
X16954Y262988D01*
X16976Y263096D01*
X17008Y263202D01*
X17016Y263293D01*
X17034Y263383D01*
X17034Y263493D01*
X17044Y263603D01*
X17034Y263694D01*
X17034Y263785D01*
X17019Y263868D01*
X17019Y268531D01*
X24842Y268531D01*
X24860Y268532D01*
X24877Y268531D01*
X25060Y268552D01*
X25242Y268571D01*
X25259Y268576D01*
X25277Y268578D01*
X25452Y268635D01*
X25627Y268689D01*
X25643Y268697D01*
X25660Y268703D01*
X25820Y268793D01*
X25981Y268880D01*
X25995Y268892D01*
X26011Y268901D01*
X26150Y269021D01*
X26291Y269138D01*
X26302Y269152D01*
X26315Y269164D01*
X26428Y269309D01*
X26543Y269452D01*
X26551Y269468D01*
X26562Y269482D01*
X26644Y269647D01*
X26728Y269809D01*
X26733Y269826D01*
X26741Y269842D01*
X26789Y270021D01*
X26840Y270196D01*
X26841Y270214D01*
X26846Y270231D01*
X26873Y270562D01*
X26873Y270967D01*
X27278Y270967D01*
X27296Y270969D01*
X27314Y270967D01*
X27496Y270989D01*
X27679Y271007D01*
X27696Y271012D01*
X27713Y271014D01*
X27888Y271071D01*
X28064Y271125D01*
X28079Y271133D01*
X28096Y271139D01*
X28256Y271229D01*
X28418Y271317D01*
X28431Y271328D01*
X28447Y271337D01*
X28586Y271457D01*
X28727Y271575D01*
X28738Y271588D01*
X28752Y271600D01*
X28864Y271745D01*
X28979Y271888D01*
X28987Y271904D01*
X28998Y271918D01*
X29080Y272083D01*
X29165Y272246D01*
X29170Y272263D01*
X29178Y272279D01*
X29225Y272457D01*
X29276Y272632D01*
X29278Y272650D01*
X29282Y272667D01*
X29309Y272998D01*
X29309Y290882D01*
X29307Y290900D01*
X29309Y290917D01*
X29288Y291100D01*
X29269Y291282D01*
X29264Y291299D01*
X29262Y291317D01*
X29205Y291492D01*
X29151Y291667D01*
X29143Y291683D01*
X29137Y291700D01*
X29047Y291860D01*
X28959Y292021D01*
X28948Y292035D01*
X28939Y292051D01*
X28894Y292103D01*
X28979Y292208D01*
X28987Y292224D01*
X28998Y292238D01*
X29080Y292403D01*
X29165Y292566D01*
X29170Y292583D01*
X29178Y292599D01*
X29225Y292777D01*
X29276Y292952D01*
X29278Y292970D01*
X29282Y292987D01*
X29309Y293318D01*
X29309Y302141D01*
X32895Y302141D01*
X33541Y301968D01*
X33685Y301884D01*
X33827Y301820D01*
X33965Y301750D01*
X34009Y301738D01*
X34052Y301718D01*
X34203Y301684D01*
X34353Y301642D01*
X34399Y301639D01*
X34444Y301628D01*
X34599Y301624D01*
X34754Y301613D01*
X34800Y301619D01*
X34847Y301617D01*
X35000Y301644D01*
X35154Y301663D01*
X35198Y301678D01*
X35244Y301686D01*
X35388Y301742D01*
X35535Y301791D01*
X35576Y301815D01*
X35619Y301831D01*
X35750Y301915D01*
X35884Y301992D01*
X35924Y302026D01*
X35958Y302048D01*
X36021Y302108D01*
X36137Y302207D01*
X37087Y303157D01*
X37772Y303157D01*
X37795Y303159D01*
X37817Y303157D01*
X37994Y303179D01*
X38173Y303197D01*
X38194Y303203D01*
X38216Y303206D01*
X38386Y303262D01*
X38558Y303315D01*
X38578Y303325D01*
X38599Y303332D01*
X38754Y303421D01*
X38912Y303507D01*
X38929Y303521D01*
X38948Y303532D01*
X39084Y303650D01*
X39221Y303764D01*
X39235Y303782D01*
X39252Y303796D01*
X39361Y303938D01*
X39473Y304078D01*
X39484Y304098D01*
X39497Y304116D01*
X39649Y304411D01*
X40014Y305293D01*
X40018Y305306D01*
X40024Y305317D01*
X40076Y305498D01*
X40131Y305678D01*
X40132Y305691D01*
X40136Y305704D01*
X40151Y305892D01*
X40169Y306079D01*
X40168Y306092D01*
X40169Y306106D01*
X40147Y306293D01*
X40127Y306479D01*
X40123Y306492D01*
X40122Y306505D01*
X40063Y306685D01*
X40007Y306864D01*
X40001Y306875D01*
X39997Y306888D01*
X39905Y307052D01*
X39814Y307217D01*
X39806Y307227D01*
X39799Y307239D01*
X39675Y307382D01*
X39555Y307525D01*
X39545Y307533D01*
X39536Y307544D01*
X39387Y307659D01*
X39240Y307776D01*
X39228Y307782D01*
X39218Y307790D01*
X39048Y307874D01*
X38882Y307960D01*
X38869Y307964D01*
X38857Y307970D01*
X38674Y308019D01*
X38495Y308070D01*
X38481Y308071D01*
X38468Y308074D01*
X38138Y308101D01*
X20638Y308101D01*
X18584Y308952D01*
X17012Y310524D01*
X16161Y312578D01*
X16161Y319077D01*
X16159Y319104D01*
X16161Y319131D01*
X16139Y319305D01*
X16121Y319478D01*
X16114Y319503D01*
X16110Y319530D01*
X16055Y319695D01*
X16003Y319863D01*
X15991Y319886D01*
X15982Y319912D01*
X15895Y320063D01*
X15811Y320217D01*
X15794Y320237D01*
X15781Y320261D01*
X15566Y320514D01*
X13628Y322452D01*
X13621Y322457D01*
X13616Y322464D01*
X13466Y322585D01*
X13317Y322707D01*
X13309Y322711D01*
X13302Y322717D01*
X13132Y322805D01*
X12961Y322895D01*
X12952Y322898D01*
X12945Y322902D01*
X12760Y322955D01*
X12575Y323010D01*
X12566Y323011D01*
X12558Y323013D01*
X12367Y323029D01*
X12174Y323047D01*
X12165Y323046D01*
X12156Y323046D01*
X11967Y323024D01*
X11774Y323003D01*
X11765Y323000D01*
X11757Y322999D01*
X11575Y322940D01*
X11390Y322882D01*
X11382Y322877D01*
X11374Y322875D01*
X11207Y322780D01*
X11038Y322687D01*
X11031Y322681D01*
X11023Y322677D01*
X10878Y322552D01*
X10731Y322426D01*
X10725Y322419D01*
X10718Y322414D01*
X10602Y322263D01*
X10481Y322110D01*
X10477Y322102D01*
X10472Y322095D01*
X10386Y321924D01*
X10299Y321752D01*
X10296Y321743D01*
X10292Y321735D01*
X10242Y321549D01*
X10191Y321364D01*
X10190Y321355D01*
X10188Y321346D01*
X10161Y321015D01*
X10161Y171066D01*
X10162Y171052D01*
X10161Y171039D01*
X10182Y170852D01*
X10201Y170665D01*
X10205Y170652D01*
X10206Y170639D01*
X10264Y170460D01*
X10319Y170280D01*
X10325Y170269D01*
X10329Y170256D01*
X10422Y170091D01*
X10511Y169926D01*
X10519Y169916D01*
X10526Y169904D01*
X10649Y169760D01*
X10768Y169617D01*
X10779Y169609D01*
X10787Y169598D01*
X10936Y169482D01*
X11082Y169365D01*
X11094Y169358D01*
X11105Y169350D01*
X11273Y169266D01*
X11439Y169179D01*
X11452Y169175D01*
X11464Y169169D01*
X11645Y169120D01*
X11826Y169068D01*
X11840Y169067D01*
X11853Y169063D01*
X12039Y169050D01*
X12228Y169035D01*
X12241Y169036D01*
G37*
%LPC*%
G36*
X227663Y48673D02*
X227663Y48673D01*
X223584Y50363D01*
X220463Y53484D01*
X218773Y57563D01*
X218773Y58393D01*
X218771Y58420D01*
X218773Y58447D01*
X218751Y58620D01*
X218733Y58794D01*
X218725Y58820D01*
X218722Y58846D01*
X218666Y59012D01*
X218615Y59179D01*
X218602Y59202D01*
X218594Y59228D01*
X218507Y59380D01*
X218423Y59533D01*
X218406Y59553D01*
X218406Y59554D01*
X218403Y59564D01*
X218323Y59696D01*
X218250Y59833D01*
X218220Y59869D01*
X218196Y59909D01*
X218092Y60024D01*
X217994Y60144D01*
X217957Y60173D01*
X217926Y60208D01*
X217801Y60300D01*
X217681Y60397D01*
X217640Y60419D01*
X217602Y60447D01*
X217462Y60512D01*
X217325Y60584D01*
X217280Y60597D01*
X217237Y60617D01*
X217087Y60654D01*
X216938Y60697D01*
X216892Y60701D01*
X216846Y60713D01*
X216691Y60719D01*
X216537Y60732D01*
X216491Y60727D01*
X216444Y60729D01*
X216291Y60704D01*
X216137Y60687D01*
X216093Y60673D01*
X216046Y60665D01*
X215901Y60611D01*
X215754Y60564D01*
X215713Y60541D01*
X215669Y60525D01*
X215538Y60443D01*
X215402Y60367D01*
X215367Y60337D01*
X215327Y60312D01*
X215214Y60206D01*
X215096Y60106D01*
X215067Y60069D01*
X215033Y60037D01*
X214944Y59911D01*
X214848Y59789D01*
X214827Y59747D01*
X214800Y59709D01*
X214737Y59567D01*
X214667Y59429D01*
X214655Y59384D01*
X214636Y59341D01*
X214577Y59098D01*
X214561Y59041D01*
X214560Y59032D01*
X214560Y59030D01*
X214560Y59028D01*
X214557Y59019D01*
X214302Y57409D01*
X213812Y55900D01*
X213092Y54486D01*
X212159Y53203D01*
X211037Y52081D01*
X209754Y51148D01*
X208340Y50428D01*
X206969Y49983D01*
X206969Y66842D01*
X206967Y66860D01*
X206969Y66877D01*
X206948Y67059D01*
X206929Y67242D01*
X206924Y67259D01*
X206922Y67277D01*
X206909Y67318D01*
X206936Y67412D01*
X206938Y67430D01*
X206942Y67447D01*
X206969Y67778D01*
X206969Y84637D01*
X208340Y84192D01*
X209754Y83472D01*
X211037Y82539D01*
X212159Y81417D01*
X213092Y80133D01*
X213441Y79448D01*
X213512Y79338D01*
X213575Y79223D01*
X213620Y79169D01*
X213659Y79109D01*
X213750Y79015D01*
X213834Y78915D01*
X213889Y78871D01*
X213939Y78820D01*
X214046Y78745D01*
X214149Y78664D01*
X214212Y78632D01*
X214270Y78591D01*
X214391Y78540D01*
X214507Y78480D01*
X214575Y78461D01*
X214640Y78433D01*
X214769Y78406D01*
X214894Y78370D01*
X214965Y78365D01*
X215034Y78350D01*
X215165Y78349D01*
X215295Y78339D01*
X215366Y78348D01*
X215437Y78347D01*
X215565Y78372D01*
X215695Y78388D01*
X215762Y78410D01*
X215832Y78424D01*
X215954Y78473D01*
X216077Y78514D01*
X216139Y78550D01*
X216205Y78577D01*
X216314Y78649D01*
X216427Y78714D01*
X216481Y78760D01*
X216540Y78800D01*
X216632Y78892D01*
X216731Y78978D01*
X216774Y79035D01*
X216824Y79085D01*
X216896Y79194D01*
X216976Y79298D01*
X217014Y79370D01*
X217047Y79420D01*
X217075Y79491D01*
X217128Y79593D01*
X218377Y82609D01*
X222191Y86423D01*
X227173Y88487D01*
X256965Y88487D01*
X256992Y88489D01*
X257019Y88487D01*
X257192Y88509D01*
X257366Y88527D01*
X257392Y88535D01*
X257418Y88538D01*
X257583Y88593D01*
X257751Y88645D01*
X257775Y88658D01*
X257800Y88666D01*
X257951Y88753D01*
X258105Y88837D01*
X258126Y88854D01*
X258149Y88867D01*
X258402Y89082D01*
X258937Y89617D01*
X268395Y89617D01*
X268426Y89620D01*
X268457Y89618D01*
X268627Y89640D01*
X268796Y89657D01*
X268826Y89666D01*
X268857Y89670D01*
X269172Y89771D01*
X271213Y90617D01*
X276607Y90617D01*
X278648Y89771D01*
X278677Y89762D01*
X278705Y89748D01*
X278870Y89704D01*
X279033Y89655D01*
X279064Y89652D01*
X279094Y89644D01*
X279425Y89617D01*
X288883Y89617D01*
X290967Y87533D01*
X290967Y66587D01*
X288883Y64503D01*
X281367Y64503D01*
X281340Y64501D01*
X281313Y64503D01*
X281140Y64481D01*
X280966Y64463D01*
X280941Y64456D01*
X280914Y64452D01*
X280748Y64397D01*
X280581Y64345D01*
X280558Y64332D01*
X280532Y64324D01*
X280381Y64237D01*
X280227Y64153D01*
X280207Y64136D01*
X280183Y64123D01*
X279930Y63908D01*
X279459Y63437D01*
X274477Y61373D01*
X243442Y61373D01*
X243420Y61371D01*
X243397Y61373D01*
X243220Y61351D01*
X243041Y61333D01*
X243020Y61327D01*
X242998Y61324D01*
X242828Y61268D01*
X242656Y61215D01*
X242637Y61205D01*
X242616Y61198D01*
X242460Y61109D01*
X242302Y61023D01*
X242285Y61009D01*
X242266Y60998D01*
X242131Y60881D01*
X241993Y60766D01*
X241979Y60748D01*
X241962Y60734D01*
X241853Y60592D01*
X241741Y60452D01*
X241730Y60432D01*
X241717Y60414D01*
X241565Y60119D01*
X241326Y59542D01*
X241307Y59518D01*
X241294Y59495D01*
X241278Y59473D01*
X241200Y59317D01*
X241118Y59163D01*
X241110Y59137D01*
X241098Y59113D01*
X241053Y58944D01*
X241003Y58777D01*
X241001Y58750D01*
X240994Y58724D01*
X240967Y58393D01*
X240967Y57563D01*
X239277Y53484D01*
X236156Y50363D01*
X232077Y48673D01*
X227663Y48673D01*
G37*
%LPD*%
%LPC*%
G36*
X254822Y186943D02*
X254822Y186943D01*
X251648Y188258D01*
X249218Y190688D01*
X247903Y193862D01*
X247903Y197298D01*
X249218Y200472D01*
X265448Y216702D01*
X265465Y216723D01*
X265486Y216741D01*
X265593Y216879D01*
X265703Y217014D01*
X265716Y217038D01*
X265732Y217059D01*
X265810Y217215D01*
X265892Y217370D01*
X265900Y217395D01*
X265912Y217419D01*
X265957Y217589D01*
X266007Y217756D01*
X266009Y217782D01*
X266016Y217808D01*
X266043Y218139D01*
X266043Y218963D01*
X268127Y221047D01*
X301073Y221047D01*
X303157Y218963D01*
X303157Y200017D01*
X301073Y197933D01*
X271949Y197933D01*
X271922Y197931D01*
X271895Y197933D01*
X271722Y197911D01*
X271548Y197893D01*
X271523Y197886D01*
X271496Y197882D01*
X271330Y197826D01*
X271163Y197775D01*
X271140Y197762D01*
X271114Y197754D01*
X270963Y197667D01*
X270809Y197583D01*
X270789Y197566D01*
X270765Y197553D01*
X270512Y197338D01*
X261432Y188258D01*
X258258Y186943D01*
X254822Y186943D01*
G37*
%LPD*%
G36*
X53222Y64780D02*
X53222Y64780D01*
X53240Y64779D01*
X53422Y64802D01*
X53605Y64822D01*
X53622Y64827D01*
X53640Y64829D01*
X53813Y64888D01*
X53989Y64943D01*
X54004Y64952D01*
X54021Y64958D01*
X54181Y65049D01*
X54341Y65138D01*
X54355Y65149D01*
X54370Y65158D01*
X54510Y65277D01*
X56830Y65277D01*
X56852Y65279D01*
X56874Y65277D01*
X57052Y65299D01*
X57230Y65317D01*
X57251Y65323D01*
X57274Y65326D01*
X57444Y65382D01*
X57615Y65435D01*
X57635Y65445D01*
X57656Y65452D01*
X57812Y65541D01*
X57969Y65627D01*
X57986Y65641D01*
X58006Y65652D01*
X58141Y65770D01*
X58278Y65884D01*
X58292Y65902D01*
X58309Y65916D01*
X58419Y66059D01*
X58531Y66198D01*
X58541Y66218D01*
X58555Y66236D01*
X58706Y66531D01*
X58762Y66666D01*
X62368Y70272D01*
X62374Y70279D01*
X62381Y70284D01*
X62501Y70434D01*
X62623Y70583D01*
X62627Y70591D01*
X62633Y70598D01*
X62721Y70768D01*
X62812Y70939D01*
X62814Y70948D01*
X62818Y70955D01*
X62872Y71140D01*
X62927Y71325D01*
X62927Y71334D01*
X62930Y71342D01*
X62945Y71533D01*
X62963Y71726D01*
X62962Y71735D01*
X62963Y71744D01*
X62940Y71933D01*
X62920Y72126D01*
X62917Y72135D01*
X62916Y72143D01*
X62856Y72325D01*
X62798Y72510D01*
X62794Y72518D01*
X62791Y72526D01*
X62696Y72695D01*
X62603Y72862D01*
X62597Y72869D01*
X62593Y72877D01*
X62467Y73023D01*
X62343Y73169D01*
X62336Y73175D01*
X62330Y73182D01*
X62178Y73299D01*
X62027Y73419D01*
X62019Y73423D01*
X62012Y73428D01*
X61840Y73514D01*
X61668Y73601D01*
X61659Y73604D01*
X61651Y73608D01*
X61465Y73658D01*
X61280Y73709D01*
X61271Y73710D01*
X61262Y73712D01*
X60932Y73739D01*
X56679Y73739D01*
X56679Y80812D01*
X56677Y80830D01*
X56679Y80847D01*
X56658Y81029D01*
X56639Y81212D01*
X56634Y81229D01*
X56632Y81247D01*
X56619Y81288D01*
X56646Y81382D01*
X56648Y81400D01*
X56652Y81417D01*
X56679Y81748D01*
X56679Y88821D01*
X61515Y88821D01*
X62161Y88648D01*
X62740Y88313D01*
X63213Y87840D01*
X63548Y87261D01*
X63732Y86572D01*
X63742Y86485D01*
X63761Y86294D01*
X63763Y86285D01*
X63764Y86277D01*
X63822Y86094D01*
X63879Y85909D01*
X63883Y85901D01*
X63886Y85893D01*
X63979Y85724D01*
X64071Y85555D01*
X64076Y85548D01*
X64081Y85540D01*
X64206Y85393D01*
X64328Y85246D01*
X64335Y85240D01*
X64341Y85233D01*
X64492Y85114D01*
X64642Y84993D01*
X64650Y84989D01*
X64657Y84984D01*
X64828Y84897D01*
X64999Y84808D01*
X65008Y84805D01*
X65016Y84801D01*
X65202Y84750D01*
X65386Y84697D01*
X65395Y84696D01*
X65404Y84693D01*
X65596Y84679D01*
X65788Y84664D01*
X65796Y84665D01*
X65805Y84664D01*
X65998Y84688D01*
X66187Y84711D01*
X66196Y84713D01*
X66205Y84714D01*
X66387Y84776D01*
X66570Y84835D01*
X66578Y84840D01*
X66586Y84843D01*
X66752Y84938D01*
X66921Y85033D01*
X66928Y85039D01*
X66935Y85044D01*
X67188Y85258D01*
X67847Y85917D01*
X73329Y85917D01*
X73339Y85918D01*
X73348Y85917D01*
X73538Y85937D01*
X73730Y85957D01*
X73739Y85959D01*
X73748Y85960D01*
X73930Y86018D01*
X74115Y86075D01*
X74123Y86079D01*
X74132Y86082D01*
X74299Y86174D01*
X74469Y86267D01*
X74476Y86272D01*
X74484Y86277D01*
X74630Y86401D01*
X74778Y86524D01*
X74784Y86531D01*
X74791Y86537D01*
X74910Y86688D01*
X75031Y86838D01*
X75035Y86846D01*
X75040Y86853D01*
X75128Y87026D01*
X75216Y87195D01*
X75219Y87204D01*
X75223Y87212D01*
X75274Y87396D01*
X75327Y87582D01*
X75328Y87591D01*
X75331Y87600D01*
X75345Y87790D01*
X75360Y87984D01*
X75359Y87993D01*
X75360Y88002D01*
X75336Y88192D01*
X75313Y88383D01*
X75311Y88392D01*
X75309Y88401D01*
X75263Y88539D01*
X75263Y105833D01*
X77347Y107917D01*
X82469Y107917D01*
X82478Y107918D01*
X82487Y107917D01*
X82679Y107938D01*
X82870Y107957D01*
X82879Y107959D01*
X82887Y107960D01*
X83070Y108018D01*
X83255Y108075D01*
X83263Y108079D01*
X83271Y108082D01*
X83440Y108175D01*
X83609Y108267D01*
X83616Y108272D01*
X83624Y108277D01*
X83771Y108401D01*
X83918Y108524D01*
X83924Y108531D01*
X83931Y108537D01*
X84050Y108688D01*
X84171Y108838D01*
X84175Y108846D01*
X84180Y108853D01*
X84268Y109026D01*
X84356Y109195D01*
X84359Y109204D01*
X84363Y109212D01*
X84415Y109398D01*
X84467Y109582D01*
X84468Y109591D01*
X84471Y109600D01*
X84485Y109792D01*
X84500Y109984D01*
X84499Y109992D01*
X84500Y110001D01*
X84476Y110194D01*
X84453Y110383D01*
X84451Y110392D01*
X84450Y110401D01*
X84388Y110584D01*
X84329Y110766D01*
X84324Y110774D01*
X84321Y110782D01*
X84226Y110948D01*
X84131Y111117D01*
X84125Y111124D01*
X84120Y111131D01*
X83906Y111384D01*
X81723Y113567D01*
X81723Y119049D01*
X81722Y119059D01*
X81723Y119068D01*
X81703Y119258D01*
X81683Y119450D01*
X81681Y119459D01*
X81680Y119468D01*
X81622Y119650D01*
X81565Y119835D01*
X81561Y119843D01*
X81558Y119852D01*
X81466Y120019D01*
X81373Y120189D01*
X81368Y120196D01*
X81363Y120204D01*
X81239Y120350D01*
X81116Y120498D01*
X81109Y120504D01*
X81103Y120511D01*
X80952Y120630D01*
X80802Y120751D01*
X80794Y120755D01*
X80787Y120760D01*
X80614Y120848D01*
X80445Y120936D01*
X80436Y120939D01*
X80428Y120943D01*
X80242Y120994D01*
X80058Y121047D01*
X80049Y121048D01*
X80040Y121051D01*
X79850Y121065D01*
X79656Y121080D01*
X79647Y121079D01*
X79638Y121080D01*
X79448Y121056D01*
X79257Y121033D01*
X79248Y121031D01*
X79239Y121029D01*
X79101Y120983D01*
X61807Y120983D01*
X59856Y122934D01*
X59849Y122939D01*
X59844Y122946D01*
X59694Y123067D01*
X59545Y123189D01*
X59537Y123193D01*
X59530Y123199D01*
X59360Y123287D01*
X59189Y123377D01*
X59180Y123380D01*
X59173Y123384D01*
X58988Y123437D01*
X58803Y123492D01*
X58794Y123493D01*
X58786Y123495D01*
X58595Y123511D01*
X58402Y123529D01*
X58393Y123528D01*
X58384Y123528D01*
X58195Y123506D01*
X58002Y123485D01*
X57993Y123482D01*
X57985Y123481D01*
X57803Y123422D01*
X57618Y123364D01*
X57610Y123359D01*
X57602Y123357D01*
X57433Y123262D01*
X57266Y123169D01*
X57259Y123163D01*
X57251Y123159D01*
X57105Y123033D01*
X56959Y122908D01*
X56953Y122901D01*
X56946Y122896D01*
X56828Y122743D01*
X56709Y122592D01*
X56705Y122584D01*
X56700Y122577D01*
X56614Y122405D01*
X56527Y122234D01*
X56524Y122225D01*
X56520Y122217D01*
X56470Y122031D01*
X56419Y121846D01*
X56418Y121837D01*
X56416Y121828D01*
X56389Y121497D01*
X56389Y108288D01*
X55538Y106234D01*
X53680Y104377D01*
X53680Y104376D01*
X43332Y94028D01*
X43315Y94007D01*
X43294Y93990D01*
X43187Y93852D01*
X43077Y93717D01*
X43064Y93693D01*
X43048Y93672D01*
X42970Y93515D01*
X42888Y93361D01*
X42880Y93335D01*
X42868Y93311D01*
X42823Y93142D01*
X42773Y92975D01*
X42771Y92948D01*
X42764Y92922D01*
X42737Y92592D01*
X42737Y90167D01*
X42751Y90021D01*
X42758Y89875D01*
X42771Y89821D01*
X42777Y89766D01*
X42820Y89626D01*
X42855Y89484D01*
X42878Y89434D01*
X42895Y89381D01*
X42964Y89253D01*
X43027Y89120D01*
X43060Y89076D01*
X43087Y89027D01*
X43180Y88915D01*
X43267Y88798D01*
X43309Y88760D01*
X43344Y88718D01*
X43458Y88626D01*
X43567Y88529D01*
X43615Y88500D01*
X43658Y88466D01*
X43788Y88398D01*
X43914Y88324D01*
X43966Y88306D01*
X44015Y88280D01*
X44156Y88240D01*
X44294Y88192D01*
X44349Y88184D01*
X44402Y88169D01*
X44548Y88157D01*
X44693Y88137D01*
X44748Y88140D01*
X44804Y88136D01*
X44949Y88153D01*
X45095Y88162D01*
X45148Y88176D01*
X45203Y88183D01*
X45342Y88228D01*
X45484Y88266D01*
X45541Y88293D01*
X45586Y88308D01*
X45659Y88349D01*
X45784Y88408D01*
X46199Y88648D01*
X46845Y88821D01*
X51681Y88821D01*
X51681Y81748D01*
X51682Y81730D01*
X51681Y81713D01*
X51702Y81530D01*
X51721Y81348D01*
X51726Y81331D01*
X51728Y81313D01*
X51741Y81272D01*
X51714Y81178D01*
X51712Y81160D01*
X51708Y81143D01*
X51681Y80812D01*
X51681Y73739D01*
X48288Y73739D01*
X48279Y73738D01*
X48270Y73739D01*
X48077Y73718D01*
X47888Y73699D01*
X47879Y73697D01*
X47870Y73696D01*
X47686Y73637D01*
X47503Y73581D01*
X47495Y73577D01*
X47486Y73574D01*
X47318Y73481D01*
X47149Y73389D01*
X47142Y73384D01*
X47134Y73379D01*
X46987Y73255D01*
X46839Y73132D01*
X46834Y73125D01*
X46827Y73119D01*
X46707Y72967D01*
X46587Y72818D01*
X46583Y72810D01*
X46577Y72803D01*
X46490Y72630D01*
X46402Y72461D01*
X46399Y72452D01*
X46395Y72444D01*
X46343Y72258D01*
X46290Y72074D01*
X46289Y72065D01*
X46287Y72056D01*
X46273Y71863D01*
X46257Y71672D01*
X46258Y71664D01*
X46258Y71655D01*
X46282Y71462D01*
X46304Y71273D01*
X46307Y71264D01*
X46308Y71255D01*
X46369Y71073D01*
X46429Y70890D01*
X46434Y70882D01*
X46436Y70874D01*
X46532Y70707D01*
X46627Y70539D01*
X46633Y70532D01*
X46637Y70525D01*
X46852Y70272D01*
X51751Y65373D01*
X51764Y65362D01*
X51776Y65348D01*
X51920Y65234D01*
X52062Y65118D01*
X52078Y65110D01*
X52092Y65099D01*
X52256Y65015D01*
X52418Y64929D01*
X52435Y64924D01*
X52451Y64916D01*
X52628Y64867D01*
X52804Y64815D01*
X52821Y64813D01*
X52839Y64808D01*
X53022Y64795D01*
X53205Y64778D01*
X53222Y64780D01*
G37*
G36*
X142287Y166602D02*
X142287Y166602D01*
X142300Y166601D01*
X142486Y166625D01*
X142673Y166647D01*
X142686Y166651D01*
X142699Y166653D01*
X143015Y166755D01*
X144374Y167317D01*
X144468Y167328D01*
X144651Y167347D01*
X144668Y167352D01*
X144685Y167354D01*
X144860Y167411D01*
X145036Y167465D01*
X145051Y167473D01*
X145068Y167479D01*
X145228Y167569D01*
X145390Y167657D01*
X145403Y167668D01*
X145419Y167677D01*
X145558Y167797D01*
X145699Y167914D01*
X145710Y167928D01*
X145724Y167940D01*
X145836Y168085D01*
X145951Y168228D01*
X145959Y168244D01*
X145970Y168258D01*
X146052Y168423D01*
X146137Y168585D01*
X146142Y168602D01*
X146150Y168618D01*
X146197Y168797D01*
X146248Y168972D01*
X146250Y168990D01*
X146254Y169007D01*
X146281Y169338D01*
X146281Y173332D01*
X146279Y173350D01*
X146281Y173368D01*
X146260Y173550D01*
X146241Y173733D01*
X146236Y173750D01*
X146234Y173767D01*
X146177Y173942D01*
X146123Y174118D01*
X146115Y174133D01*
X146109Y174150D01*
X146019Y174310D01*
X145931Y174472D01*
X145920Y174485D01*
X145911Y174501D01*
X145791Y174640D01*
X145674Y174781D01*
X145660Y174792D01*
X145648Y174806D01*
X145503Y174918D01*
X145360Y175033D01*
X145344Y175041D01*
X145330Y175052D01*
X145165Y175134D01*
X145003Y175219D01*
X144986Y175224D01*
X144970Y175232D01*
X144791Y175279D01*
X144616Y175330D01*
X144598Y175332D01*
X144581Y175336D01*
X144250Y175363D01*
X142397Y175363D01*
X140291Y177469D01*
X140277Y177480D01*
X140266Y177494D01*
X140122Y177607D01*
X139980Y177724D01*
X139964Y177732D01*
X139950Y177743D01*
X139786Y177826D01*
X139624Y177912D01*
X139607Y177917D01*
X139591Y177926D01*
X139414Y177975D01*
X139238Y178027D01*
X139220Y178029D01*
X139203Y178034D01*
X139020Y178047D01*
X138837Y178064D01*
X138819Y178062D01*
X138802Y178063D01*
X138620Y178040D01*
X138437Y178020D01*
X138420Y178015D01*
X138402Y178013D01*
X138228Y177954D01*
X138053Y177899D01*
X138037Y177890D01*
X138021Y177884D01*
X137862Y177793D01*
X137701Y177704D01*
X137687Y177692D01*
X137672Y177683D01*
X137419Y177469D01*
X136853Y176903D01*
X120907Y176903D01*
X119957Y177853D01*
X119837Y177951D01*
X119722Y178055D01*
X119682Y178079D01*
X119646Y178108D01*
X119509Y178181D01*
X119375Y178260D01*
X119331Y178275D01*
X119290Y178297D01*
X119141Y178341D01*
X118995Y178392D01*
X118949Y178398D01*
X118904Y178411D01*
X118749Y178425D01*
X118596Y178447D01*
X118549Y178444D01*
X118503Y178448D01*
X118349Y178431D01*
X118194Y178421D01*
X118149Y178409D01*
X118103Y178404D01*
X117955Y178358D01*
X117805Y178318D01*
X117758Y178295D01*
X117719Y178283D01*
X117643Y178241D01*
X117505Y178176D01*
X117361Y178092D01*
X116715Y177919D01*
X113129Y177919D01*
X113129Y186742D01*
X113127Y186760D01*
X113129Y186777D01*
X113108Y186960D01*
X113089Y187142D01*
X113084Y187159D01*
X113082Y187177D01*
X113025Y187352D01*
X112971Y187527D01*
X112963Y187543D01*
X112957Y187560D01*
X112867Y187719D01*
X112779Y187881D01*
X112768Y187895D01*
X112759Y187911D01*
X112639Y188050D01*
X112522Y188191D01*
X112508Y188202D01*
X112496Y188215D01*
X112351Y188328D01*
X112208Y188443D01*
X112192Y188451D01*
X112178Y188462D01*
X112013Y188544D01*
X111851Y188628D01*
X111834Y188633D01*
X111818Y188641D01*
X111639Y188689D01*
X111464Y188740D01*
X111446Y188741D01*
X111429Y188746D01*
X111098Y188773D01*
X110693Y188773D01*
X110693Y189178D01*
X110691Y189196D01*
X110693Y189214D01*
X110671Y189396D01*
X110653Y189579D01*
X110648Y189596D01*
X110646Y189613D01*
X110589Y189788D01*
X110535Y189964D01*
X110527Y189979D01*
X110521Y189996D01*
X110431Y190156D01*
X110343Y190318D01*
X110332Y190331D01*
X110323Y190347D01*
X110203Y190486D01*
X110085Y190627D01*
X110072Y190638D01*
X110060Y190652D01*
X109915Y190764D01*
X109772Y190879D01*
X109756Y190887D01*
X109742Y190898D01*
X109577Y190980D01*
X109414Y191065D01*
X109397Y191070D01*
X109381Y191078D01*
X109203Y191125D01*
X109028Y191176D01*
X109010Y191178D01*
X108993Y191182D01*
X108662Y191209D01*
X100839Y191209D01*
X100839Y195795D01*
X101012Y196441D01*
X101312Y196959D01*
X101376Y197101D01*
X101446Y197239D01*
X101458Y197284D01*
X101477Y197326D01*
X101512Y197477D01*
X101554Y197627D01*
X101557Y197673D01*
X101568Y197718D01*
X101572Y197873D01*
X101583Y198028D01*
X101577Y198074D01*
X101579Y198121D01*
X101552Y198274D01*
X101533Y198428D01*
X101518Y198472D01*
X101510Y198518D01*
X101454Y198662D01*
X101405Y198809D01*
X101381Y198849D01*
X101365Y198893D01*
X101281Y199024D01*
X101204Y199158D01*
X101170Y199198D01*
X101148Y199232D01*
X101088Y199295D01*
X100989Y199411D01*
X99823Y200577D01*
X99823Y218523D01*
X100209Y218909D01*
X100220Y218922D01*
X100234Y218934D01*
X100347Y219078D01*
X100464Y219220D01*
X100472Y219236D01*
X100483Y219250D01*
X100566Y219414D01*
X100652Y219576D01*
X100657Y219593D01*
X100666Y219609D01*
X100715Y219786D01*
X100767Y219962D01*
X100769Y219980D01*
X100774Y219997D01*
X100787Y220180D01*
X100804Y220363D01*
X100802Y220381D01*
X100803Y220398D01*
X100780Y220580D01*
X100760Y220763D01*
X100755Y220780D01*
X100753Y220798D01*
X100694Y220971D01*
X100639Y221147D01*
X100630Y221163D01*
X100624Y221179D01*
X100533Y221338D01*
X100444Y221499D01*
X100432Y221513D01*
X100423Y221528D01*
X100209Y221781D01*
X99823Y222167D01*
X99823Y222482D01*
X99821Y222500D01*
X99823Y222518D01*
X99802Y222700D01*
X99783Y222883D01*
X99778Y222900D01*
X99776Y222917D01*
X99719Y223092D01*
X99665Y223268D01*
X99657Y223283D01*
X99651Y223300D01*
X99561Y223460D01*
X99473Y223622D01*
X99462Y223635D01*
X99453Y223651D01*
X99333Y223790D01*
X99216Y223931D01*
X99202Y223942D01*
X99190Y223956D01*
X99045Y224068D01*
X98902Y224183D01*
X98886Y224191D01*
X98872Y224202D01*
X98707Y224284D01*
X98545Y224369D01*
X98528Y224374D01*
X98512Y224382D01*
X98333Y224429D01*
X98158Y224480D01*
X98140Y224482D01*
X98123Y224486D01*
X97792Y224513D01*
X83820Y224513D01*
X83802Y224511D01*
X83784Y224513D01*
X83602Y224492D01*
X83419Y224473D01*
X83402Y224468D01*
X83385Y224466D01*
X83210Y224409D01*
X83034Y224355D01*
X83019Y224347D01*
X83002Y224341D01*
X82842Y224251D01*
X82680Y224163D01*
X82667Y224152D01*
X82651Y224143D01*
X82512Y224023D01*
X82371Y223906D01*
X82360Y223892D01*
X82346Y223880D01*
X82234Y223735D01*
X82119Y223592D01*
X82111Y223576D01*
X82100Y223562D01*
X82018Y223397D01*
X81933Y223235D01*
X81928Y223218D01*
X81920Y223202D01*
X81873Y223023D01*
X81822Y222848D01*
X81820Y222830D01*
X81816Y222813D01*
X81789Y222482D01*
X81789Y209548D01*
X81791Y209530D01*
X81789Y209512D01*
X81810Y209330D01*
X81829Y209147D01*
X81834Y209130D01*
X81836Y209113D01*
X81893Y208937D01*
X81947Y208762D01*
X81955Y208747D01*
X81961Y208730D01*
X82051Y208570D01*
X82139Y208408D01*
X82150Y208395D01*
X82159Y208379D01*
X82279Y208240D01*
X82396Y208099D01*
X82410Y208088D01*
X82422Y208074D01*
X82567Y207962D01*
X82710Y207847D01*
X82726Y207839D01*
X82740Y207828D01*
X82905Y207746D01*
X83067Y207661D01*
X83084Y207656D01*
X83100Y207648D01*
X83279Y207601D01*
X83454Y207550D01*
X83472Y207548D01*
X83489Y207544D01*
X83820Y207517D01*
X92793Y207517D01*
X94877Y205433D01*
X94877Y189487D01*
X94786Y189396D01*
X94775Y189383D01*
X94761Y189371D01*
X94648Y189227D01*
X94531Y189085D01*
X94523Y189069D01*
X94512Y189055D01*
X94429Y188892D01*
X94343Y188729D01*
X94338Y188712D01*
X94329Y188696D01*
X94280Y188520D01*
X94228Y188343D01*
X94226Y188325D01*
X94221Y188308D01*
X94208Y188125D01*
X94191Y187942D01*
X94193Y187925D01*
X94192Y187907D01*
X94215Y187725D01*
X94235Y187542D01*
X94240Y187525D01*
X94242Y187507D01*
X94301Y187333D01*
X94356Y187158D01*
X94365Y187143D01*
X94371Y187126D01*
X94463Y186966D01*
X94551Y186806D01*
X94563Y186792D01*
X94572Y186777D01*
X94786Y186524D01*
X94877Y186433D01*
X94877Y175260D01*
X94879Y175242D01*
X94877Y175224D01*
X94898Y175042D01*
X94917Y174859D01*
X94922Y174842D01*
X94924Y174825D01*
X94981Y174650D01*
X95035Y174474D01*
X95043Y174459D01*
X95049Y174442D01*
X95139Y174282D01*
X95227Y174120D01*
X95238Y174107D01*
X95247Y174091D01*
X95367Y173952D01*
X95484Y173811D01*
X95498Y173800D01*
X95510Y173786D01*
X95655Y173674D01*
X95798Y173559D01*
X95814Y173551D01*
X95828Y173540D01*
X95993Y173458D01*
X96155Y173373D01*
X96172Y173368D01*
X96188Y173360D01*
X96367Y173313D01*
X96542Y173262D01*
X96560Y173260D01*
X96577Y173256D01*
X96908Y173229D01*
X110992Y173229D01*
X113046Y172378D01*
X113752Y171672D01*
X113773Y171655D01*
X113790Y171634D01*
X113928Y171527D01*
X114064Y171417D01*
X114087Y171404D01*
X114108Y171388D01*
X114265Y171310D01*
X114419Y171228D01*
X114445Y171220D01*
X114469Y171208D01*
X114638Y171163D01*
X114805Y171113D01*
X114832Y171111D01*
X114858Y171104D01*
X115188Y171077D01*
X119123Y171077D01*
X119214Y170986D01*
X119227Y170975D01*
X119239Y170961D01*
X119383Y170848D01*
X119525Y170731D01*
X119541Y170723D01*
X119555Y170712D01*
X119718Y170629D01*
X119881Y170543D01*
X119898Y170538D01*
X119914Y170529D01*
X120090Y170480D01*
X120267Y170428D01*
X120285Y170426D01*
X120302Y170421D01*
X120485Y170408D01*
X120668Y170391D01*
X120685Y170393D01*
X120703Y170392D01*
X120885Y170415D01*
X121068Y170435D01*
X121085Y170440D01*
X121103Y170442D01*
X121277Y170501D01*
X121452Y170556D01*
X121467Y170565D01*
X121484Y170571D01*
X121644Y170663D01*
X121804Y170751D01*
X121818Y170763D01*
X121833Y170772D01*
X122086Y170986D01*
X122177Y171077D01*
X138123Y171077D01*
X140207Y168993D01*
X140207Y168631D01*
X140208Y168618D01*
X140207Y168605D01*
X140228Y168418D01*
X140247Y168231D01*
X140251Y168218D01*
X140252Y168205D01*
X140310Y168026D01*
X140365Y167846D01*
X140371Y167834D01*
X140375Y167821D01*
X140467Y167657D01*
X140557Y167492D01*
X140565Y167481D01*
X140572Y167470D01*
X140694Y167327D01*
X140814Y167183D01*
X140825Y167174D01*
X140833Y167164D01*
X140982Y167048D01*
X141128Y166930D01*
X141140Y166924D01*
X141150Y166916D01*
X141319Y166831D01*
X141485Y166745D01*
X141498Y166741D01*
X141510Y166735D01*
X141692Y166685D01*
X141872Y166633D01*
X141886Y166632D01*
X141899Y166629D01*
X142085Y166616D01*
X142274Y166600D01*
X142287Y166602D01*
G37*
G36*
X50430Y30229D02*
X50430Y30229D01*
X50448Y30227D01*
X50630Y30248D01*
X50813Y30267D01*
X50830Y30272D01*
X50847Y30274D01*
X51022Y30331D01*
X51198Y30385D01*
X51213Y30393D01*
X51230Y30399D01*
X51390Y30489D01*
X51552Y30577D01*
X51565Y30588D01*
X51581Y30597D01*
X51720Y30717D01*
X51861Y30834D01*
X51872Y30848D01*
X51886Y30860D01*
X51998Y31005D01*
X52113Y31148D01*
X52121Y31164D01*
X52132Y31178D01*
X52214Y31343D01*
X52299Y31505D01*
X52304Y31522D01*
X52312Y31538D01*
X52359Y31717D01*
X52410Y31892D01*
X52412Y31910D01*
X52416Y31927D01*
X52443Y32258D01*
X52443Y44193D01*
X52534Y44284D01*
X52545Y44297D01*
X52559Y44309D01*
X52672Y44453D01*
X52789Y44595D01*
X52797Y44611D01*
X52808Y44625D01*
X52891Y44788D01*
X52977Y44951D01*
X52982Y44968D01*
X52991Y44984D01*
X53040Y45160D01*
X53092Y45337D01*
X53094Y45355D01*
X53099Y45372D01*
X53112Y45555D01*
X53129Y45738D01*
X53127Y45755D01*
X53128Y45773D01*
X53105Y45955D01*
X53085Y46138D01*
X53080Y46155D01*
X53078Y46173D01*
X53019Y46347D01*
X52964Y46522D01*
X52955Y46537D01*
X52949Y46554D01*
X52857Y46714D01*
X52769Y46874D01*
X52757Y46888D01*
X52748Y46903D01*
X52534Y47156D01*
X52443Y47247D01*
X52443Y48458D01*
X52441Y48481D01*
X52443Y48503D01*
X52421Y48681D01*
X52403Y48859D01*
X52397Y48880D01*
X52394Y48903D01*
X52338Y49073D01*
X52285Y49244D01*
X52275Y49264D01*
X52268Y49285D01*
X52179Y49441D01*
X52093Y49598D01*
X52079Y49615D01*
X52068Y49635D01*
X51950Y49770D01*
X51836Y49907D01*
X51818Y49921D01*
X51804Y49938D01*
X51662Y50047D01*
X51522Y50160D01*
X51502Y50170D01*
X51484Y50183D01*
X51189Y50335D01*
X50834Y50482D01*
X38688Y62628D01*
X38667Y62645D01*
X38650Y62666D01*
X38512Y62773D01*
X38376Y62883D01*
X38353Y62896D01*
X38332Y62912D01*
X38175Y62990D01*
X38021Y63072D01*
X37995Y63080D01*
X37971Y63092D01*
X37802Y63137D01*
X37635Y63187D01*
X37608Y63189D01*
X37582Y63196D01*
X37252Y63223D01*
X24052Y63223D01*
X24034Y63221D01*
X24016Y63223D01*
X23834Y63202D01*
X23651Y63183D01*
X23634Y63178D01*
X23617Y63176D01*
X23442Y63119D01*
X23266Y63065D01*
X23251Y63057D01*
X23234Y63051D01*
X23074Y62961D01*
X22912Y62873D01*
X22899Y62862D01*
X22883Y62853D01*
X22744Y62733D01*
X22603Y62616D01*
X22592Y62602D01*
X22578Y62590D01*
X22466Y62445D01*
X22351Y62302D01*
X22343Y62286D01*
X22332Y62272D01*
X22250Y62107D01*
X22165Y61945D01*
X22160Y61928D01*
X22152Y61912D01*
X22105Y61733D01*
X22054Y61558D01*
X22052Y61540D01*
X22048Y61523D01*
X22021Y61192D01*
X22021Y34048D01*
X22023Y34021D01*
X22021Y33995D01*
X22043Y33821D01*
X22061Y33647D01*
X22068Y33622D01*
X22072Y33595D01*
X22127Y33430D01*
X22179Y33262D01*
X22192Y33239D01*
X22200Y33214D01*
X22287Y33062D01*
X22371Y32908D01*
X22388Y32888D01*
X22401Y32865D01*
X22616Y32612D01*
X24406Y30822D01*
X24426Y30805D01*
X24444Y30784D01*
X24582Y30677D01*
X24717Y30567D01*
X24741Y30554D01*
X24762Y30538D01*
X24919Y30460D01*
X25073Y30378D01*
X25098Y30370D01*
X25122Y30358D01*
X25292Y30313D01*
X25459Y30263D01*
X25485Y30261D01*
X25511Y30254D01*
X25842Y30227D01*
X50412Y30227D01*
X50430Y30229D01*
G37*
G36*
X32018Y99339D02*
X32018Y99339D01*
X32045Y99337D01*
X32219Y99359D01*
X32392Y99377D01*
X32418Y99384D01*
X32444Y99388D01*
X32610Y99443D01*
X32777Y99495D01*
X32801Y99508D01*
X32826Y99516D01*
X32978Y99603D01*
X33131Y99687D01*
X33152Y99704D01*
X33175Y99717D01*
X33428Y99932D01*
X44616Y111120D01*
X44633Y111141D01*
X44654Y111158D01*
X44761Y111296D01*
X44871Y111431D01*
X44884Y111455D01*
X44900Y111476D01*
X44978Y111633D01*
X45060Y111787D01*
X45068Y111813D01*
X45080Y111837D01*
X45125Y112006D01*
X45175Y112173D01*
X45177Y112200D01*
X45184Y112226D01*
X45211Y112556D01*
X45211Y129112D01*
X45209Y129130D01*
X45211Y129148D01*
X45190Y129330D01*
X45171Y129513D01*
X45166Y129530D01*
X45164Y129547D01*
X45107Y129722D01*
X45053Y129898D01*
X45045Y129913D01*
X45039Y129930D01*
X44949Y130090D01*
X44861Y130252D01*
X44850Y130265D01*
X44841Y130281D01*
X44721Y130420D01*
X44604Y130561D01*
X44590Y130572D01*
X44578Y130586D01*
X44433Y130698D01*
X44290Y130813D01*
X44274Y130821D01*
X44260Y130832D01*
X44095Y130914D01*
X43933Y130999D01*
X43916Y131004D01*
X43900Y131012D01*
X43721Y131059D01*
X43546Y131110D01*
X43528Y131112D01*
X43511Y131116D01*
X43180Y131143D01*
X40277Y131143D01*
X40255Y131149D01*
X40071Y131204D01*
X40062Y131205D01*
X40054Y131207D01*
X39862Y131223D01*
X39671Y131241D01*
X39661Y131240D01*
X39652Y131240D01*
X39463Y131218D01*
X39270Y131197D01*
X39262Y131195D01*
X39253Y131193D01*
X39071Y131134D01*
X38886Y131076D01*
X38878Y131071D01*
X38870Y131069D01*
X38702Y130974D01*
X38534Y130881D01*
X38527Y130875D01*
X38519Y130871D01*
X38374Y130745D01*
X38227Y130621D01*
X38221Y130613D01*
X38214Y130608D01*
X38097Y130456D01*
X37977Y130305D01*
X37973Y130297D01*
X37968Y130289D01*
X37882Y130117D01*
X37795Y129946D01*
X37792Y129937D01*
X37788Y129929D01*
X37738Y129742D01*
X37687Y129558D01*
X37686Y129549D01*
X37684Y129540D01*
X37657Y129209D01*
X37657Y123727D01*
X35573Y121643D01*
X26352Y121643D01*
X26325Y121641D01*
X26299Y121643D01*
X26125Y121621D01*
X25951Y121603D01*
X25926Y121596D01*
X25899Y121592D01*
X25734Y121537D01*
X25566Y121485D01*
X25543Y121472D01*
X25518Y121464D01*
X25366Y121377D01*
X25212Y121293D01*
X25192Y121276D01*
X25169Y121263D01*
X24916Y121048D01*
X22616Y118748D01*
X22599Y118728D01*
X22578Y118710D01*
X22471Y118572D01*
X22361Y118437D01*
X22348Y118413D01*
X22332Y118392D01*
X22254Y118235D01*
X22172Y118081D01*
X22164Y118056D01*
X22152Y118032D01*
X22107Y117862D01*
X22057Y117695D01*
X22055Y117669D01*
X22048Y117643D01*
X22021Y117312D01*
X22021Y101368D01*
X22023Y101350D01*
X22021Y101332D01*
X22042Y101150D01*
X22061Y100967D01*
X22066Y100950D01*
X22068Y100933D01*
X22125Y100758D01*
X22179Y100582D01*
X22187Y100567D01*
X22193Y100550D01*
X22283Y100390D01*
X22371Y100228D01*
X22382Y100215D01*
X22391Y100199D01*
X22511Y100060D01*
X22628Y99919D01*
X22642Y99908D01*
X22654Y99894D01*
X22799Y99782D01*
X22942Y99667D01*
X22958Y99659D01*
X22972Y99648D01*
X23137Y99566D01*
X23299Y99481D01*
X23316Y99476D01*
X23332Y99468D01*
X23511Y99421D01*
X23686Y99370D01*
X23704Y99368D01*
X23721Y99364D01*
X24052Y99337D01*
X31992Y99337D01*
X32018Y99339D01*
G37*
G36*
X84720Y338649D02*
X84720Y338649D01*
X84738Y338647D01*
X84920Y338668D01*
X85103Y338687D01*
X85120Y338692D01*
X85137Y338694D01*
X85312Y338751D01*
X85488Y338805D01*
X85503Y338813D01*
X85520Y338819D01*
X85680Y338909D01*
X85842Y338997D01*
X85855Y339008D01*
X85871Y339017D01*
X86010Y339137D01*
X86151Y339254D01*
X86162Y339268D01*
X86176Y339280D01*
X86288Y339425D01*
X86403Y339568D01*
X86411Y339584D01*
X86422Y339598D01*
X86504Y339763D01*
X86589Y339925D01*
X86594Y339942D01*
X86602Y339958D01*
X86649Y340137D01*
X86700Y340312D01*
X86702Y340330D01*
X86706Y340347D01*
X86733Y340678D01*
X86733Y356563D01*
X89031Y358861D01*
X89116Y358909D01*
X89278Y358997D01*
X89291Y359008D01*
X89307Y359017D01*
X89446Y359137D01*
X89587Y359254D01*
X89598Y359268D01*
X89612Y359280D01*
X89724Y359425D01*
X89839Y359568D01*
X89847Y359584D01*
X89858Y359598D01*
X89940Y359763D01*
X90025Y359925D01*
X90030Y359942D01*
X90038Y359958D01*
X90085Y360137D01*
X90136Y360312D01*
X90138Y360330D01*
X90142Y360347D01*
X90169Y360678D01*
X90169Y363982D01*
X90167Y364000D01*
X90169Y364018D01*
X90148Y364200D01*
X90129Y364383D01*
X90124Y364400D01*
X90122Y364417D01*
X90065Y364592D01*
X90011Y364768D01*
X90003Y364783D01*
X89997Y364800D01*
X89907Y364960D01*
X89819Y365122D01*
X89808Y365135D01*
X89799Y365151D01*
X89680Y365289D01*
X89562Y365431D01*
X89548Y365442D01*
X89536Y365456D01*
X89391Y365568D01*
X89248Y365683D01*
X89232Y365691D01*
X89218Y365702D01*
X89053Y365784D01*
X88891Y365869D01*
X88874Y365874D01*
X88858Y365882D01*
X88679Y365929D01*
X88504Y365980D01*
X88486Y365982D01*
X88469Y365986D01*
X88138Y366013D01*
X65464Y366013D01*
X65455Y366012D01*
X65446Y366013D01*
X65254Y365992D01*
X65064Y365973D01*
X65055Y365971D01*
X65046Y365970D01*
X64864Y365912D01*
X64679Y365855D01*
X64671Y365851D01*
X64662Y365848D01*
X64494Y365755D01*
X64325Y365663D01*
X64318Y365658D01*
X64310Y365653D01*
X64162Y365528D01*
X64015Y365406D01*
X64010Y365399D01*
X64003Y365393D01*
X63884Y365242D01*
X63763Y365092D01*
X63759Y365084D01*
X63753Y365077D01*
X63666Y364906D01*
X63578Y364735D01*
X63575Y364726D01*
X63571Y364718D01*
X63519Y364532D01*
X63466Y364348D01*
X63465Y364339D01*
X63463Y364330D01*
X63449Y364138D01*
X63433Y363946D01*
X63434Y363938D01*
X63434Y363929D01*
X63458Y363736D01*
X63480Y363547D01*
X63483Y363538D01*
X63484Y363529D01*
X63546Y363346D01*
X63605Y363164D01*
X63610Y363156D01*
X63612Y363148D01*
X63708Y362982D01*
X63803Y362813D01*
X63809Y362806D01*
X63813Y362799D01*
X64028Y362546D01*
X65332Y361242D01*
X65353Y361225D01*
X65370Y361204D01*
X65508Y361097D01*
X65644Y360987D01*
X65667Y360974D01*
X65688Y360958D01*
X65845Y360880D01*
X65999Y360798D01*
X66025Y360790D01*
X66049Y360778D01*
X66218Y360733D01*
X66385Y360683D01*
X66412Y360681D01*
X66438Y360674D01*
X66768Y360647D01*
X75053Y360647D01*
X77137Y358563D01*
X77137Y341267D01*
X77131Y341245D01*
X77076Y341061D01*
X77075Y341052D01*
X77073Y341044D01*
X77057Y340852D01*
X77039Y340661D01*
X77040Y340651D01*
X77040Y340642D01*
X77062Y340453D01*
X77083Y340260D01*
X77085Y340252D01*
X77087Y340243D01*
X77146Y340061D01*
X77204Y339876D01*
X77209Y339868D01*
X77211Y339860D01*
X77306Y339692D01*
X77399Y339524D01*
X77405Y339517D01*
X77409Y339509D01*
X77535Y339364D01*
X77659Y339217D01*
X77667Y339211D01*
X77672Y339204D01*
X77824Y339087D01*
X77975Y338967D01*
X77983Y338963D01*
X77991Y338958D01*
X78163Y338872D01*
X78334Y338785D01*
X78343Y338782D01*
X78351Y338778D01*
X78538Y338728D01*
X78722Y338677D01*
X78731Y338676D01*
X78740Y338674D01*
X79071Y338647D01*
X84702Y338647D01*
X84720Y338649D01*
G37*
G36*
X114946Y30229D02*
X114946Y30229D01*
X114964Y30227D01*
X115146Y30248D01*
X115329Y30267D01*
X115346Y30272D01*
X115363Y30274D01*
X115538Y30331D01*
X115714Y30385D01*
X115729Y30393D01*
X115746Y30399D01*
X115906Y30489D01*
X116068Y30577D01*
X116081Y30588D01*
X116097Y30597D01*
X116236Y30717D01*
X116377Y30834D01*
X116388Y30848D01*
X116402Y30860D01*
X116514Y31005D01*
X116629Y31148D01*
X116637Y31164D01*
X116648Y31178D01*
X116730Y31343D01*
X116815Y31505D01*
X116820Y31522D01*
X116828Y31538D01*
X116875Y31717D01*
X116926Y31892D01*
X116928Y31910D01*
X116932Y31927D01*
X116959Y32258D01*
X116959Y32971D01*
X125782Y32971D01*
X125800Y32972D01*
X125817Y32971D01*
X126000Y32992D01*
X126182Y33011D01*
X126199Y33016D01*
X126217Y33018D01*
X126392Y33075D01*
X126567Y33129D01*
X126583Y33137D01*
X126600Y33143D01*
X126760Y33233D01*
X126921Y33320D01*
X126935Y33332D01*
X126951Y33341D01*
X127090Y33461D01*
X127231Y33578D01*
X127242Y33592D01*
X127255Y33604D01*
X127368Y33749D01*
X127483Y33892D01*
X127491Y33908D01*
X127502Y33922D01*
X127584Y34087D01*
X127668Y34249D01*
X127673Y34266D01*
X127681Y34282D01*
X127729Y34461D01*
X127780Y34636D01*
X127781Y34654D01*
X127786Y34671D01*
X127813Y35002D01*
X127813Y37438D01*
X127811Y37456D01*
X127813Y37474D01*
X127791Y37656D01*
X127773Y37839D01*
X127768Y37856D01*
X127766Y37873D01*
X127709Y38048D01*
X127655Y38224D01*
X127647Y38239D01*
X127641Y38256D01*
X127551Y38416D01*
X127463Y38578D01*
X127452Y38591D01*
X127443Y38607D01*
X127323Y38746D01*
X127205Y38887D01*
X127192Y38898D01*
X127180Y38912D01*
X127035Y39024D01*
X126892Y39139D01*
X126876Y39147D01*
X126862Y39158D01*
X126697Y39240D01*
X126534Y39325D01*
X126517Y39330D01*
X126501Y39338D01*
X126323Y39385D01*
X126148Y39436D01*
X126130Y39438D01*
X126113Y39442D01*
X125782Y39469D01*
X116959Y39469D01*
X116959Y43054D01*
X117132Y43701D01*
X117216Y43845D01*
X117280Y43986D01*
X117350Y44125D01*
X117362Y44169D01*
X117382Y44212D01*
X117416Y44363D01*
X117458Y44513D01*
X117461Y44559D01*
X117472Y44604D01*
X117476Y44759D01*
X117487Y44914D01*
X117481Y44960D01*
X117483Y45007D01*
X117456Y45160D01*
X117437Y45313D01*
X117422Y45358D01*
X117414Y45404D01*
X117358Y45548D01*
X117309Y45695D01*
X117285Y45736D01*
X117269Y45779D01*
X117185Y45910D01*
X117108Y46044D01*
X117074Y46084D01*
X117052Y46118D01*
X116992Y46181D01*
X116893Y46297D01*
X115664Y47526D01*
X115657Y47531D01*
X115652Y47538D01*
X115502Y47659D01*
X115353Y47781D01*
X115345Y47785D01*
X115338Y47791D01*
X115167Y47879D01*
X114997Y47969D01*
X114989Y47972D01*
X114981Y47976D01*
X114795Y48029D01*
X114611Y48084D01*
X114602Y48085D01*
X114594Y48087D01*
X114402Y48103D01*
X114210Y48121D01*
X114201Y48120D01*
X114192Y48120D01*
X114003Y48098D01*
X113810Y48077D01*
X113801Y48074D01*
X113793Y48073D01*
X113611Y48014D01*
X113426Y47956D01*
X113418Y47951D01*
X113410Y47949D01*
X113241Y47854D01*
X113074Y47761D01*
X113067Y47755D01*
X113059Y47751D01*
X112913Y47625D01*
X112767Y47500D01*
X112761Y47493D01*
X112754Y47488D01*
X112637Y47336D01*
X112517Y47184D01*
X112513Y47176D01*
X112508Y47169D01*
X112422Y46997D01*
X112335Y46826D01*
X112332Y46817D01*
X112328Y46809D01*
X112277Y46620D01*
X112227Y46438D01*
X112226Y46429D01*
X112224Y46420D01*
X112197Y46089D01*
X112197Y44117D01*
X110970Y41156D01*
X110324Y40510D01*
X110307Y40489D01*
X110286Y40472D01*
X110179Y40334D01*
X110069Y40198D01*
X110056Y40175D01*
X110040Y40153D01*
X109962Y39997D01*
X109880Y39843D01*
X109872Y39817D01*
X109860Y39793D01*
X109815Y39624D01*
X109765Y39457D01*
X109763Y39430D01*
X109756Y39404D01*
X109729Y39073D01*
X109729Y32258D01*
X109731Y32240D01*
X109729Y32222D01*
X109750Y32040D01*
X109769Y31857D01*
X109774Y31840D01*
X109776Y31823D01*
X109833Y31648D01*
X109887Y31472D01*
X109895Y31457D01*
X109901Y31440D01*
X109991Y31280D01*
X110079Y31118D01*
X110090Y31105D01*
X110099Y31089D01*
X110219Y30950D01*
X110336Y30809D01*
X110350Y30798D01*
X110362Y30784D01*
X110507Y30672D01*
X110650Y30557D01*
X110666Y30549D01*
X110680Y30538D01*
X110845Y30456D01*
X111007Y30371D01*
X111024Y30366D01*
X111040Y30358D01*
X111219Y30311D01*
X111394Y30260D01*
X111412Y30258D01*
X111429Y30254D01*
X111760Y30227D01*
X114928Y30227D01*
X114946Y30229D01*
G37*
%LPC*%
G36*
X327499Y63459D02*
X327499Y63459D01*
X327499Y71041D01*
X333333Y71041D01*
X334901Y70792D01*
X336410Y70302D01*
X337824Y69582D01*
X339107Y68649D01*
X340229Y67527D01*
X341162Y66244D01*
X341882Y64830D01*
X342327Y63459D01*
X327499Y63459D01*
G37*
%LPD*%
%LPC*%
G36*
X22043Y182839D02*
X22043Y182839D01*
X22488Y184210D01*
X23208Y185624D01*
X24141Y186907D01*
X25263Y188029D01*
X26546Y188962D01*
X27960Y189682D01*
X29469Y190172D01*
X31037Y190421D01*
X36871Y190421D01*
X36871Y182839D01*
X22043Y182839D01*
G37*
%LPD*%
%LPC*%
G36*
X307673Y63459D02*
X307673Y63459D01*
X308118Y64830D01*
X308838Y66244D01*
X309771Y67527D01*
X310893Y68649D01*
X312176Y69582D01*
X313590Y70302D01*
X315099Y70792D01*
X316667Y71041D01*
X322501Y71041D01*
X322501Y63459D01*
X307673Y63459D01*
G37*
%LPD*%
%LPC*%
G36*
X194389Y69809D02*
X194389Y69809D01*
X194389Y75643D01*
X194638Y77211D01*
X195128Y78720D01*
X195848Y80134D01*
X196781Y81417D01*
X197903Y82539D01*
X199186Y83472D01*
X200600Y84192D01*
X201971Y84637D01*
X201971Y69809D01*
X194389Y69809D01*
G37*
%LPD*%
%LPC*%
G36*
X316667Y325199D02*
X316667Y325199D01*
X315099Y325448D01*
X313590Y325938D01*
X312176Y326658D01*
X310893Y327591D01*
X309771Y328713D01*
X308838Y329996D01*
X308118Y331410D01*
X307673Y332781D01*
X322501Y332781D01*
X322501Y325199D01*
X316667Y325199D01*
G37*
%LPD*%
%LPC*%
G36*
X200600Y50428D02*
X200600Y50428D01*
X199186Y51148D01*
X197903Y52081D01*
X196781Y53203D01*
X195848Y54486D01*
X195128Y55900D01*
X194638Y57409D01*
X194389Y58977D01*
X194389Y64811D01*
X201971Y64811D01*
X201971Y49983D01*
X200600Y50428D01*
G37*
%LPD*%
%LPC*%
G36*
X17019Y275029D02*
X17019Y275029D01*
X17019Y279615D01*
X17192Y280261D01*
X17576Y280924D01*
X17613Y281007D01*
X17659Y281086D01*
X17696Y281190D01*
X17741Y281291D01*
X17762Y281380D01*
X17792Y281466D01*
X17807Y281576D01*
X17831Y281684D01*
X17834Y281775D01*
X17846Y281865D01*
X17839Y281975D01*
X17842Y282086D01*
X17827Y282176D01*
X17821Y282267D01*
X17793Y282374D01*
X17774Y282483D01*
X17741Y282568D01*
X17717Y282656D01*
X17659Y282780D01*
X17628Y282858D01*
X17603Y282899D01*
X17576Y282956D01*
X17192Y283619D01*
X17019Y284265D01*
X17019Y288851D01*
X22811Y288851D01*
X22811Y275029D01*
X17019Y275029D01*
G37*
%LPD*%
%LPC*%
G36*
X17019Y295349D02*
X17019Y295349D01*
X17019Y299935D01*
X17192Y300581D01*
X17527Y301160D01*
X18000Y301633D01*
X18579Y301968D01*
X19225Y302141D01*
X22811Y302141D01*
X22811Y295349D01*
X17019Y295349D01*
G37*
%LPD*%
%LPC*%
G36*
X125515Y272289D02*
X125515Y272289D01*
X124869Y272462D01*
X124290Y272797D01*
X123817Y273270D01*
X123482Y273849D01*
X123309Y274495D01*
X123309Y278081D01*
X130101Y278081D01*
X130101Y272289D01*
X125515Y272289D01*
G37*
%LPD*%
%LPC*%
G36*
X103045Y177919D02*
X103045Y177919D01*
X102399Y178092D01*
X101820Y178427D01*
X101347Y178900D01*
X101012Y179479D01*
X100839Y180125D01*
X100839Y184711D01*
X106631Y184711D01*
X106631Y177919D01*
X103045Y177919D01*
G37*
%LPD*%
%LPC*%
G36*
X270969Y355129D02*
X270969Y355129D01*
X270969Y360671D01*
X274305Y360671D01*
X274951Y360498D01*
X275530Y360163D01*
X276003Y359690D01*
X276338Y359111D01*
X276511Y358465D01*
X276511Y355129D01*
X270969Y355129D01*
G37*
%LPD*%
%LPC*%
G36*
X259429Y355129D02*
X259429Y355129D01*
X259429Y358465D01*
X259602Y359111D01*
X259937Y359690D01*
X260410Y360163D01*
X260989Y360498D01*
X261635Y360671D01*
X264971Y360671D01*
X264971Y355129D01*
X259429Y355129D01*
G37*
%LPD*%
D10*
X26060Y252730D03*
X45060Y252730D03*
X128880Y187960D03*
X109880Y187960D03*
X111150Y160020D03*
X130150Y160020D03*
D11*
X31750Y350360D03*
X21750Y330360D03*
X41750Y330360D03*
D12*
X267970Y352130D03*
X267970Y331130D03*
X148590Y35220D03*
X148590Y56220D03*
D13*
X70280Y129540D03*
X92280Y139040D03*
X92280Y120040D03*
X67740Y242570D03*
X89740Y252070D03*
X89740Y233070D03*
D14*
X68580Y350090D03*
X78080Y328090D03*
X59080Y328090D03*
D13*
X150700Y341630D03*
X128700Y332130D03*
X128700Y351130D03*
X193880Y341630D03*
X171880Y332130D03*
X171880Y351130D03*
X174420Y289560D03*
X196420Y299060D03*
X196420Y280060D03*
X127430Y82550D03*
X149430Y92050D03*
X149430Y73050D03*
D10*
X26060Y271780D03*
X45060Y271780D03*
D15*
X86360Y36220D03*
X86360Y55220D03*
X133350Y281330D03*
X133350Y300330D03*
X219710Y332130D03*
X219710Y351130D03*
X151130Y281330D03*
X151130Y300330D03*
D16*
X151870Y210820D03*
D17*
X180870Y198120D03*
D16*
X151870Y185420D03*
D15*
X232410Y281330D03*
X232410Y300330D03*
X154940Y111150D03*
X154940Y130150D03*
D18*
X206600Y122780D03*
X206600Y166780D03*
X240890Y166780D03*
X240890Y122780D03*
X273910Y121060D03*
X273910Y77060D03*
D15*
X238760Y332130D03*
X238760Y351130D03*
X127000Y55220D03*
X127000Y36220D03*
X83820Y197460D03*
X83820Y178460D03*
D10*
X26060Y292100D03*
X45060Y292100D03*
D15*
X97790Y329590D03*
X97790Y348590D03*
D10*
X128880Y209550D03*
X109880Y209550D03*
X109880Y231140D03*
X128880Y231140D03*
D19*
X77470Y276330D03*
D20*
X90170Y305330D03*
D19*
X102870Y276330D03*
D15*
X63500Y36220D03*
X63500Y55220D03*
D13*
X49100Y139700D03*
X27100Y130200D03*
X27100Y149200D03*
X54180Y81280D03*
X32180Y71780D03*
X32180Y90780D03*
D14*
X83820Y97360D03*
X93320Y75360D03*
X74320Y75360D03*
X176530Y259920D03*
X186030Y237920D03*
X167030Y237920D03*
D21*
X284600Y292040D03*
X284600Y246440D03*
D22*
X345960Y269240D03*
D21*
X284600Y209490D03*
X284600Y163890D03*
D22*
X345960Y186690D03*
D23*
X46910Y205740D02*
X31830Y205740D01*
X31830Y180340D02*
X46910Y180340D01*
X317460Y360680D02*
X332540Y360680D01*
X332540Y335280D02*
X317460Y335280D01*
X317460Y60960D02*
X332540Y60960D01*
X332540Y35560D02*
X317460Y35560D01*
X229870Y59770D02*
X229870Y74850D01*
X204470Y74850D02*
X204470Y59770D01*
D24*
X342900Y101600D03*
X69850Y152400D03*
X205740Y265430D03*
X146050Y158750D03*
X299720Y121920D03*
X342900Y228600D03*
D25*
X26060Y271780D02*
X26060Y292100D01*
X267970Y352130D02*
X268281Y351819D01*
D26*
X64770Y255270D03*
X116840Y318770D03*
X83820Y359410D03*
X33020Y113030D03*
X36830Y41910D03*
X90170Y217170D03*
X15240Y238760D03*
X180340Y149860D03*
X270510Y43180D03*
X330200Y313690D03*
X299720Y313690D03*
X264160Y313690D03*
X262890Y271780D03*
X322580Y129540D03*
X173990Y52070D03*
X322580Y97790D03*
X173990Y72390D03*
X128270Y257810D03*
X204470Y224790D03*
X59690Y100330D03*
X113030Y34290D03*
D27*
X21750Y313690D02*
X21750Y330360D01*
X59080Y328090D02*
X59080Y316660D01*
X51030Y308610D01*
X55880Y313690D02*
X21750Y313690D01*
X50800Y308610D02*
X51030Y308610D01*
X50800Y308610D02*
X45060Y302870D01*
X50800Y308610D02*
X55880Y313690D01*
X45060Y302870D02*
X45060Y292100D01*
X97790Y329590D02*
X98400Y330200D01*
X80190Y330200D02*
X78080Y328090D01*
X80190Y330200D02*
X98400Y330200D01*
D25*
X45060Y271780D02*
X45060Y252730D01*
D27*
X45060Y237490D02*
X63500Y219050D01*
X45060Y237490D02*
X45060Y252730D01*
X63500Y219050D02*
X63500Y215900D01*
D26*
X63500Y215900D03*
X109220Y127000D03*
D27*
X109220Y124460D01*
X104800Y120040D01*
X92280Y120040D01*
X70280Y129540D02*
X70280Y139700D01*
X70280Y151970D01*
X69850Y152400D01*
X50800Y139700D02*
X49100Y139700D01*
X50800Y139700D02*
X70280Y139700D01*
X50800Y109400D02*
X32180Y90780D01*
X50800Y109400D02*
X50800Y139700D01*
X84455Y167640D02*
X84455Y182245D01*
X111150Y166370D02*
X111150Y160020D01*
X111150Y166370D02*
X109880Y167640D01*
X84455Y167640D02*
X81280Y167640D01*
X84455Y182245D02*
X83820Y182880D01*
X81280Y167640D02*
X69850Y156210D01*
X83820Y178460D02*
X83820Y182880D01*
X69850Y156210D02*
X69850Y152400D01*
X84455Y167640D02*
X109880Y167640D01*
X92280Y149020D02*
X92280Y139040D01*
X92280Y149020D02*
X86995Y154305D01*
D26*
X86995Y154305D03*
X109220Y259080D03*
D27*
X105410Y262890D02*
X105410Y273790D01*
X105410Y262890D02*
X109220Y259080D01*
X105410Y273790D02*
X102870Y276330D01*
X82120Y271680D02*
X82120Y259690D01*
X89740Y252070D01*
X82120Y271680D02*
X77470Y276330D01*
X89640Y304800D02*
X90170Y305330D01*
X74930Y304800D02*
X71120Y308610D01*
D26*
X71120Y308610D03*
X54610Y359410D03*
D27*
X59260Y359410D01*
X68580Y350090D01*
X74930Y304800D02*
X89640Y304800D01*
D28*
X63500Y20320D02*
X24130Y20320D01*
X63500Y20320D02*
X86360Y20320D01*
X104140Y20320D01*
D29*
X27100Y130200D02*
X23290Y130200D01*
X15035Y121945D01*
X14400Y122580D02*
X14400Y30050D01*
X24130Y20320D01*
D30*
X63500Y20320D02*
X63500Y36220D01*
X86360Y36220D02*
X86360Y20320D01*
D27*
X67740Y232410D02*
X67740Y242570D01*
X67740Y232410D02*
X76200Y223950D01*
X76200Y197460D02*
X83820Y197460D01*
X76200Y197460D02*
X76200Y223950D01*
X134620Y105410D02*
X127430Y98220D01*
X127430Y82550D01*
D26*
X134620Y105410D03*
X104140Y45720D03*
D27*
X104140Y20320D01*
D31*
X83820Y197460D02*
X70460Y197460D01*
X61834Y188834D02*
X61834Y167064D01*
X57330Y162560D01*
X14224Y162560D01*
X61834Y188834D02*
X70460Y197460D01*
X14224Y162560D02*
X13208Y161544D01*
X13208Y123772D02*
X14400Y122580D01*
X15035Y121945D01*
X13208Y123772D02*
X13208Y161544D01*
D28*
X104140Y20320D02*
X147320Y20320D01*
X312420Y20320D01*
D29*
X148590Y21590D02*
X147320Y20320D01*
D32*
X363740Y186690D02*
X365760Y184670D01*
X363740Y186690D02*
X345960Y186690D01*
X365760Y184670D02*
X365760Y45720D01*
D28*
X325000Y35560D02*
X325000Y32900D01*
X312420Y20320D01*
D33*
X325000Y35560D02*
X360680Y35560D01*
X365760Y40640D01*
X365760Y45720D01*
D29*
X148590Y35220D02*
X148590Y21590D01*
D27*
X109880Y209550D02*
X109880Y231140D01*
X91670Y231140D01*
X89740Y233070D01*
X128880Y209550D02*
X128880Y187960D01*
X34900Y149200D02*
X27100Y149200D01*
X38057Y152357D02*
X45462Y152357D01*
X38057Y152357D02*
X34900Y149200D01*
D26*
X45462Y152357D03*
D27*
X93320Y67260D02*
X86360Y60300D01*
X86360Y55220D01*
X93320Y67260D02*
X93320Y75360D01*
X95020Y66040D02*
X104140Y66040D01*
X95020Y66040D02*
X93320Y67740D01*
X93320Y75360D01*
D26*
X104140Y66040D03*
D27*
X37440Y71780D02*
X32180Y71780D01*
X54000Y55220D02*
X63500Y55220D01*
X54000Y55220D02*
X37440Y71780D01*
X63500Y63500D02*
X63500Y55220D01*
X74320Y74320D02*
X74320Y75360D01*
X74320Y74320D02*
X63500Y63500D01*
X118025Y115662D02*
X130150Y126861D01*
X118025Y115662D02*
X116348Y114113D01*
X113808Y111767D01*
X98210Y97360D01*
X83820Y97360D01*
X130150Y126861D02*
X130150Y160020D01*
X131420Y158750D02*
X146050Y158750D01*
X131420Y158750D02*
X130150Y160020D01*
X149250Y73050D02*
X149430Y73050D01*
X149250Y73050D02*
X146050Y69850D01*
X113808Y69850D01*
X113808Y111767D01*
X151870Y167578D02*
X151870Y185420D01*
X151870Y167578D02*
X151870Y164570D01*
X146050Y158750D01*
X185420Y237310D02*
X186030Y237920D01*
X185420Y237310D02*
X185420Y223520D01*
D26*
X185420Y223520D03*
X180340Y167048D03*
D27*
X152400Y167048D01*
X151870Y167578D01*
D29*
X31750Y350360D02*
X31750Y375920D01*
D28*
X97790Y375920D01*
D29*
X97790Y348590D01*
X219710Y351130D02*
X219710Y375920D01*
D28*
X153670Y375920D02*
X97790Y375920D01*
X153670Y375920D02*
X219710Y375920D01*
X325000Y366525D02*
X325000Y360680D01*
X325000Y366525D02*
X316462Y375920D01*
X219710Y375920D01*
D32*
X353600Y261600D02*
X362570Y261600D01*
X353600Y261600D02*
X345960Y269240D01*
X362570Y261600D02*
X362570Y360680D01*
D27*
X128700Y332130D02*
X118540Y332130D01*
X102080Y348590D01*
X97790Y348590D01*
X174420Y292530D02*
X174420Y289560D01*
X174420Y292530D02*
X175895Y294005D01*
X175895Y306705D01*
D26*
X175895Y306705D03*
X153670Y361950D03*
D27*
X153670Y375920D01*
D25*
X219710Y351130D02*
X238760Y351130D01*
D32*
X350520Y360680D02*
X362570Y360680D01*
D33*
X350520Y360680D02*
X325000Y360680D01*
D27*
X160200Y351130D02*
X150700Y341630D01*
X160200Y351130D02*
X171880Y351130D01*
X150700Y341630D02*
X144780Y335710D01*
X144780Y321920D01*
X133350Y310490D01*
X133350Y300330D01*
X168170Y210820D02*
X180870Y198120D01*
X168170Y210820D02*
X151870Y210820D01*
X151130Y238760D02*
X151130Y281330D01*
X151130Y238760D02*
X151130Y211560D01*
X151870Y210820D01*
X151970Y237920D02*
X167030Y237920D01*
X151970Y237920D02*
X151130Y238760D01*
D31*
X154940Y97560D02*
X149430Y92050D01*
D30*
X270450Y209490D02*
X284600Y209490D01*
D26*
X256540Y195580D03*
X177800Y101600D03*
D30*
X256540Y195580D02*
X270450Y209490D01*
D31*
X154940Y111150D02*
X154940Y101600D01*
X154940Y97560D01*
X154940Y101600D02*
X177800Y101600D01*
D33*
X206600Y122780D02*
X240890Y122780D01*
D31*
X165100Y130150D02*
X154940Y130150D01*
X165100Y130150D02*
X182270Y130150D01*
X189640Y122780D02*
X206600Y122780D01*
X189640Y122780D02*
X182270Y130150D01*
X232410Y265430D02*
X232410Y281330D01*
X232410Y265430D02*
X226060Y259080D01*
D26*
X226060Y259080D03*
X165100Y147320D03*
D31*
X165100Y130150D01*
X128880Y231140D02*
X139700Y241960D01*
X139700Y246380D01*
D26*
X139700Y246380D03*
D27*
X298860Y121060D02*
X299720Y121920D01*
X298860Y121060D02*
X273910Y121060D01*
D33*
X272190Y122780D02*
X240890Y122780D01*
X272190Y122780D02*
X273910Y121060D01*
D30*
X266700Y292710D02*
X290060Y292710D01*
X266700Y292710D02*
X260350Y292710D01*
X252730Y300330D01*
X232410Y300330D01*
X288878Y292040D02*
X290060Y292710D01*
X288878Y292040D02*
X284600Y292040D01*
X231140Y299060D02*
X196420Y299060D01*
X231140Y299060D02*
X232410Y300330D01*
D33*
X243780Y163890D02*
X284600Y163890D01*
X243780Y163890D02*
X240890Y166780D01*
X284540Y246380D02*
X284600Y246440D01*
X284540Y246380D02*
X261620Y246380D01*
X206600Y191360D01*
X206600Y166780D01*
D27*
X215900Y328320D02*
X219710Y332130D01*
X215900Y328320D02*
X215900Y316230D01*
X178230Y316230D02*
X178230Y325120D01*
X171880Y325120D02*
X171880Y332130D01*
D26*
X156210Y325120D03*
X139700Y361950D03*
D27*
X171880Y325120D02*
X178230Y325120D01*
X171880Y325120D02*
X156210Y325120D01*
X128880Y351130D02*
X139700Y361950D01*
X128880Y351130D02*
X128700Y351130D01*
X178230Y316230D02*
X215900Y316230D01*
D25*
X128000Y56220D02*
X127000Y55220D01*
X128000Y56220D02*
X148590Y56220D01*
X26060Y236830D02*
X26060Y252730D01*
X39370Y223520D02*
X39370Y205740D01*
X39370Y223520D02*
X26060Y236830D01*
D33*
X271780Y74930D02*
X273910Y77060D01*
X271780Y74930D02*
X229870Y74930D01*
X229870Y67310D01*
D25*
X238760Y332130D02*
X267865Y332130D01*
X267970Y331130D01*
D27*
X200230Y259920D02*
X176530Y259920D01*
X200230Y259920D02*
X205740Y265430D01*
X205740Y279400D02*
X205080Y280060D01*
X196420Y280060D01*
X205740Y279400D02*
X205740Y265430D01*
X193880Y329360D02*
X193880Y341630D01*
D26*
X198120Y325120D03*
X215900Y279400D03*
D27*
X197080Y279400D01*
X196420Y280060D01*
X198120Y325120D02*
X193880Y329360D01*
X165100Y314300D02*
X151130Y300330D01*
X165100Y314300D02*
X165100Y314960D01*
D26*
X165100Y314960D03*
M02*
